<?xml version="1.0" encoding="utf-8"?>
<!-- Generator: Adobe Illustrator 24.1.1, SVG Export Plug-In . SVG Version: 6.00 Build 0)  -->
<svg version="1.1" id="Layer_1" xmlns="http://www.w3.org/2000/svg" xmlns:xlink="http://www.w3.org/1999/xlink" x="0px" y="0px"
	 viewBox="0 0 750 785" style="enable-background:new 0 0 750 785;" xml:space="preserve">
<style type="text/css">
	.st0{fill:#407BFF;}
	.st1{opacity:0.7;}
	.st2{fill:#FFFFFF;}
	.st3{fill:#263238;}
	.st4{fill:#F4D3BD;}
	.st5{fill:#EAAE94;}
	.st6{fill:#455A64;}
	.st7{opacity:0.6;}
	.st8{opacity:0.3;}
	.st9{fill:#FAFAFA;}
	.st10{fill:#E0E0E0;}
	.st11{fill:#B78876;}
	.st12{fill:#AA6550;}
</style>
<g id="freepik--Stains--inject-18">
	<path class="st0" d="M48.5,389.2c-4.2-24.3,4.2-51.1,23.6-66.4c19.4-15.2,49.5-16.3,68.3-0.4c13.2,11.2,19.4,28.4,27.3,43.8
		s19.8,31.1,36.9,33.8c14.8,2.3,29.6-5.8,44.5-3.8c14.5,1.9,26.6,13.7,30.8,27.7s1,29.5-6.4,42.1s-19,22.3-31.6,29.7
		c-40.5,23.8-94.2,23-134-1.9c-39.8-24.9-63.8-73-60-119.8"/>
	<g class="st1">
		<path class="st2" d="M48.5,389.2c-4.2-24.3,4.2-51.1,23.6-66.4c19.4-15.2,49.5-16.3,68.3-0.4c13.2,11.2,19.4,28.4,27.3,43.8
			s19.8,31.1,36.9,33.8c14.8,2.3,29.6-5.8,44.5-3.8c14.5,1.9,26.6,13.7,30.8,27.7s1,29.5-6.4,42.1s-19,22.3-31.6,29.7
			c-40.5,23.8-94.2,23-134-1.9c-39.8-24.9-63.8-73-60-119.8"/>
	</g>
	<path class="st0" d="M283.1,606.7c13.1-9,19.3-28.8,11.1-42.4l0,0c-8.3-12.4-21.2-22.3-36-24.4s-31.1,4.9-37.7,18.3
		c-4.1,8.4-4.2,18.6-0.7,27.4c3.6,8.8,10,16.1,18.2,20.9C251.6,614.7,270,615.6,283.1,606.7z"/>
	<path class="st0" d="M710.1,523.8c-0.8-21-11.2-41.9-28.7-53.7s-41.8-13.4-59.8-2.4c-11.2,6.8-19.3,17.7-26.1,28.9
		c-3.7,6.2-7.6,13-14.3,15.6c-8.7,3.5-18.2-1.3-27.4-3.1c-22.2-4.4-44.1,9.1-50,30.9c-8,33.2,15.3,56.9,40.2,71.3
		c27.8,16.1,63,16.1,93.2,5.3c19.8-7,38.3-18.6,51.9-34.8S710.9,544.9,710.1,523.8z"/>
	<g class="st1">
		<path class="st2" d="M710.1,523.8c-0.8-21-11.2-41.9-28.7-53.7s-41.8-13.4-59.8-2.4c-11.2,6.8-19.3,17.7-26.1,28.9
			c-3.7,6.2-7.6,13-14.3,15.6c-8.7,3.5-18.2-1.3-27.4-3.1c-22.2-4.4-44.1,9.1-50,30.9c-8,33.2,15.3,56.9,40.2,71.3
			c27.8,16.1,63,16.1,93.2,5.3c19.8-7,38.3-18.6,51.9-34.8S710.9,544.9,710.1,523.8z"/>
	</g>
	<path class="st0" d="M662.3,344c-2.6-16.8-18.8-31.9-35.7-30.3l0,0c-15.8,2.3-31.3,10.2-40.1,23.4s-9.7,32.3,0.2,44.8
		c6.2,7.9,16,12.6,26,13.4c10.1,0.6,20.1-2.2,28.5-7.9C655.5,378.1,664.9,360.8,662.3,344z"/>
	<g class="st1">
		<path class="st2" d="M662.3,344c-2.6-16.8-18.8-31.9-35.7-30.3l0,0c-15.8,2.3-31.3,10.2-40.1,23.4s-9.7,32.3,0.2,44.8
			c6.2,7.9,16,12.6,26,13.4c10.1,0.6,20.1-2.2,28.5-7.9C655.5,378.1,664.9,360.8,662.3,344z"/>
	</g>
	<g class="st1">
		<path class="st2" d="M283.1,606.7c13.1-9,19.3-28.8,11.1-42.4l0,0c-8.3-12.4-21.2-22.3-36-24.4s-31.1,4.9-37.7,18.3
			c-4.1,8.4-4.2,18.6-0.7,27.4c3.6,8.8,10,16.1,18.2,20.9C251.6,614.7,270,615.6,283.1,606.7z"/>
	</g>
	<g class="st1">
		<path class="st2" d="M739.6,22.5c3.3-2.3,4.9-7.3,2.8-10.7l0,0c-2.1-3.1-5.4-5.6-9.1-6.2s-7.9,1.2-9.5,4.6c-1,2.1-1.1,4.7-0.2,6.9
			c0.9,2.2,2.5,4.1,4.6,5.3C731.7,24.5,736.3,24.8,739.6,22.5z"/>
	</g>
	<g class="st1">
		<path class="st2" d="M23.6,773.5c3.3-2.3,4.9-7.3,2.8-10.7l0,0c-2.1-3.1-5.4-5.6-9.1-6.2s-7.9,1.2-9.5,4.6c-1,2.1-1.1,4.7-0.2,6.9
			c0.9,2.2,2.5,4.1,4.6,5.3C15.7,775.5,20.3,775.8,23.6,773.5z"/>
	</g>
</g>
<g id="freepik--character-2--inject-18">
	<path class="st3" d="M466.5,348.2c2.2-0.3,3.9-1.9,5.9-2.8c3-1.4,6.5-1.2,9.4,0.5c2.8,1.7,4.8,3.7,5,7l-3.7,4"/>
	<path class="st4" d="M489.8,368.7l-5.9,35.4c-1,6-3.7,14.7-13.1,12.6l0,0c-8.1-2.4-8.9-10.5-7.9-16.2c0.5-2.7,0.8-4.9,0.8-5.2
		c0,0-8.9-2.4-8-11.4c0.4-4.4,2-13.3,3.5-21.3c1.6-8.6,9.6-14.6,18.3-13.7l0.9,0.1C487.6,350.6,491.5,359.4,489.8,368.7z"/>
	<path class="st5" d="M463.6,395.3c4.2,0.5,8.4-0.2,12.1-2.1c0,0-3.5,6.2-12.4,4.4L463.6,395.3z"/>
	<path class="st3" d="M459.9,368.1c0.2,0.2,1.4-0.3,3.1-0.1s2.8,0.9,3,0.8c0.2-0.1-0.1-0.3-0.6-0.7c-0.7-0.4-1.6-0.7-2.4-0.8
		c-0.8-0.1-1.7,0-2.5,0.3C460,367.8,459.8,368,459.9,368.1z"/>
	<path class="st3" d="M473.6,369.6c0.2,0.2,1.4-0.3,3.1-0.1s2.8,0.9,3,0.8s-0.1-0.3-0.6-0.7c-0.7-0.4-1.6-0.7-2.4-0.8
		c-0.8-0.1-1.7,0-2.5,0.3C473.7,369.3,473.5,369.5,473.6,369.6z"/>
	<path class="st3" d="M473.3,371.8c-0.1,0.5,0.3,1,0.9,1.1c0.5,0.1,1-0.3,1.1-0.8c0.1-0.5-0.3-1-0.9-1.1
		C473.9,371,473.4,371.3,473.3,371.8z"/>
	<path class="st3" d="M460.3,370.4c-0.1,0.5,0.3,1,0.9,1.1c0.5,0.1,1-0.3,1.1-0.8c0.1-0.5-0.3-1-0.9-1.1
		C460.9,369.5,460.4,369.9,460.3,370.4z"/>
	<path class="st3" d="M468,378.7c-0.7-0.3-1.4-0.5-2.2-0.6c-0.4-0.1-0.7-0.2-0.7-0.4c0-0.4,0.1-0.7,0.4-1c0.4-0.8,0.9-1.7,1.3-2.6
		c1.2-2.2,2.2-4.5,3.1-6.8c-0.1-0.1-1.8,2.9-3.6,6.5l-1.2,2.6c-0.3,0.4-0.4,0.9-0.3,1.4c0.1,0.3,0.3,0.5,0.5,0.6
		c0.2,0.1,0.4,0.1,0.6,0.2C466.5,378.7,467.3,378.8,468,378.7z"/>
	<path class="st3" d="M475.3,363.5c0.1,0.4,1.3,0.3,2.7,0.7c1.4,0.3,2.5,0.9,2.8,0.6c0.2-0.3-0.1-0.5-0.5-0.9c-0.6-0.5-1.3-0.8-2-1
		c-0.7-0.2-1.5-0.2-2.2,0C475.5,363.1,475.2,363.4,475.3,363.5z"/>
	<path class="st3" d="M460.6,363.8c0.1,0.3,1.3,0.2,2.7,0.4s2.6,0.6,2.8,0.3s-0.1-0.4-0.6-0.7c-1.3-0.8-2.8-1-4.2-0.6
		C460.8,363.4,460.6,363.6,460.6,363.8z"/>
	<path class="st4" d="M488.3,375.3c0.2-0.1,6.4-1.2,5.5,5s-6.8,4-6.8,3.8C487.1,384,488.3,375.3,488.3,375.3z"/>
	<path class="st5" d="M489.2,382c0,0,0.1,0.1,0.3,0.2c0.2,0.1,0.5,0.2,0.8,0.1c0.9-0.4,1.5-1.2,1.5-2.2c0.1-0.5,0.1-1.1-0.1-1.6
		c-0.1-0.4-0.3-0.8-0.7-0.9c-0.2-0.1-0.5,0-0.7,0.2c-0.1,0.2-0.1,0.3-0.1,0.3s-0.1-0.1,0-0.4c0.1-0.1,0.2-0.3,0.3-0.3
		c0.2-0.1,0.4-0.1,0.6-0.1c0.5,0.2,0.9,0.6,1,1.1c0.2,0.6,0.2,1.2,0.1,1.8c-0.1,1.1-0.9,2.1-1.9,2.4c-0.4,0.1-0.7,0-1-0.3
		C489.2,382.2,489.2,382,489.2,382z"/>
	<path class="st3" d="M457.4,360.6c3.9,1.5,8.4,1,11.9-1.4c2.4-1.6,4.4-4.1,7.2-4.7c1.9-0.3,3.9,0.2,5.5,1.3
		c1.6,1.2,2.9,2.7,3.8,4.4c-2.2,4.4-1.6,9.6-0.9,14.5c0,0.5,0.2,1.1,0.6,1.5c0.8,0.5,1.8,0.4,2.5-0.3c1.1-1.1,1.8-2.4,2.1-3.9
		c1-3.2,1.3-6.6,1-10c-0.3-3.4-1.7-6.6-3.8-9.2c-2.8-3.2-6.8-5.2-11-5.5c-4.2-0.3-8.5,0.7-12.1,2.9c-1.7,1-3.2,2.3-4.2,4"/>
	<path class="st3" d="M457.9,369.1c0.6-2.5,0.9-5.6,1.4-8.1c3.9,0.6,7.9-0.4,11.1-2.8c1.6-1.3,3.1-3,5-3.6c2.6-0.7,5.2,0.6,7.6,1.9
		l-0.1-0.1c1.2,0.8,2.2,1.9,3,3.1c-1.5,4.9-1.8,10-1.1,15c0.1,0.8,0.5,1.4,1.2,1.9c1.3,0.8,2.2-0.1,3.2-0.7c0.7-0.4,1.7-0.7,2.3-0.2
		c1.9-3.1,3.2-6.5,4.1-10c-0.4,1.3,0.4,2.7,1.7,3.1c1,0.3,2.1-0.1,2.7-0.9c-0.6-0.7-1-1.6-1.2-2.5c1.4,1.2,3.4,1,4.6-0.3
		c0,0,0,0,0.1-0.1l-2-2l2.8,0.1c-2.1-1.1-3.9-2.6-5.3-4.6c-1.4-1.9-3-3.6-4.9-5c-2-1.3-4.6-1.8-6.7-0.6c0.1-3.3-2.2-6.3-5.1-7.6
		c-3.6-1.4-7.4-1.8-11.2-1.1c-2.5,0.5-5,2-8.2,4.3c-1.5,1.1-3,2.3-4.3,3.7c-1.9,2.1-5.8,5.4-9.5,4.4l0.3,3.8c2,1.9,6.1,0.2,6.1,0.2
		s-2.4,2.4-4.6,2.3l0.6,3.3c0,0,3.4,0.6,4.9-2L457.9,369.1z"/>
	<path class="st6" d="M485.8,360.2c0,0-0.3-0.5-0.9-1.3c-0.8-1.1-1.9-2.1-3.1-2.9c-0.9-0.4-1.8-0.8-2.7-1c-1.1-0.3-2.2-0.4-3.3-0.1
		c-2.3,0.7-3.9,3-6.3,4.4c-2.2,1.4-4.9,2.2-7.5,2.2c-0.6,0-1.2,0-1.8-0.1c-0.2-0.1-0.5-0.1-0.7,0c-0.2,0.1-0.5,0.2-0.7,0.3
		c-0.8,0.6-1.4,1.3-1.9,2.1c-0.9,1.2-2.2,2-3.7,2.2c-0.4,0-0.8,0-1.2,0c-0.1,0-0.3,0-0.4-0.1c0,0,0.6,0,1.5-0.1
		c1.4-0.2,2.6-1,3.5-2.2c0.5-0.9,1.2-1.7,2-2.3c0.2-0.1,0.5-0.3,0.8-0.4c0.3-0.1,0.6-0.1,0.9-0.1c0.6,0.1,1.2,0.1,1.7,0.1
		c2.6,0,5.1-0.8,7.3-2.2c1.1-0.7,2.2-1.6,3.2-2.5c0.9-0.9,2.1-1.6,3.3-2c1.1-0.3,2.4-0.3,3.5,0.1c1,0.3,1.9,0.6,2.8,1.1
		c1.2,0.8,2.3,1.8,3.1,3.1c0.2,0.3,0.4,0.7,0.6,1C485.7,360.1,485.8,360.2,485.8,360.2z"/>
	<path class="st6" d="M495.5,365.6c0,0,0,0.2-0.2,0.5c-0.2,0.5-0.5,0.9-0.8,1.3c-0.5,0.6-1.3,1-2.1,0.9c-0.5-0.1-1-0.4-1.2-0.9
		c-0.3-0.5-0.3-1-0.3-1.5l0.5,0.1c-0.3,0.7-1,1.1-1.7,1.2c-0.7,0-1.3-0.2-1.8-0.7c-0.4-0.4-0.8-0.9-1-1.5c-0.3-0.9-0.4-1.9-0.4-2.9
		c0-0.9-0.1-1.7-0.3-2.6c0.5,0.8,0.7,1.7,0.7,2.5c0,0.9,0.2,1.8,0.5,2.7c0.2,0.5,0.5,0.9,0.9,1.3c0.4,0.4,0.9,0.6,1.5,0.6
		c0.6,0,1.1-0.4,1.3-0.9l0.8-2.1l-0.4,2.2c-0.2,0.8,0.3,1.7,1.1,1.9c0.7,0.1,1.4-0.2,1.8-0.7c0.3-0.3,0.6-0.7,0.9-1.1
		C495.3,365.8,495.5,365.6,495.5,365.6z"/>
	<path class="st6" d="M493.2,372.4c-0.5,0.3-1.1,0.5-1.7,0.4c-1.5-0.1-2.9-0.7-3.9-1.7c-1-1-1.8-2.2-2.4-3.6
		c-0.3-0.5-0.5-1.1-0.6-1.7c0.4,0.5,0.7,1,0.9,1.5c0.6,1.2,1.4,2.4,2.4,3.4c1,1,2.2,1.6,3.6,1.7
		C492.1,372.5,492.6,372.5,493.2,372.4z"/>
	<path class="st6" d="M492.9,373.5c-0.5,0.2-1,0.2-1.5,0.1c-1.2-0.1-2.4-0.5-3.5-1.2c-1.1-0.6-2-1.5-2.6-2.6
		c-0.3-0.4-0.5-0.9-0.6-1.4c0.3,0.4,0.6,0.8,0.9,1.2c0.7,0.9,1.6,1.7,2.6,2.4c1,0.6,2.1,1,3.3,1.3
		C491.9,373.3,492.4,373.4,492.9,373.5z"/>
	<path class="st6" d="M496.9,350.5c-0.5,0-1-0.1-1.5-0.2c-1.2-0.1-2.5-0.1-3.6,0.2c-1.2,0.3-2.3,0.8-3.3,1.5c-0.8,0.5-1.2,1-1.3,0.9
		c0.3-0.5,0.6-0.9,1-1.2c1-0.8,2.2-1.4,3.4-1.7c1.3-0.3,2.6-0.3,3.8-0.1C495.9,350,496.5,350.2,496.9,350.5z"/>
	<path class="st6" d="M488.5,345.2c1.2,2.7,0.7,5.9-1.3,8.2c0.6-1.3,1-2.6,1.3-4C488.7,348,488.7,346.6,488.5,345.2z"/>
	<path class="st6" d="M452.6,356.4c0.4,0.3,0.8,0.6,1.3,0.7c1.4,0.2,2.7,0.1,4-0.5c0.8-0.3,1.7-0.6,2.7-1c1-0.4,2-0.8,2.9-1.4
		c2-1.1,4-2.8,6.5-3.9c1.2-0.6,2.5-0.9,3.8-1c1.3-0.1,2.5,0.2,3.6,0.8c2.1,1.1,3.6,2.6,5.2,3.3c1.2,0.6,2.6,0.6,3.9,0.2
		c0.4-0.2,0.8-0.5,1.2-0.9c0,0,0,0.1-0.2,0.3c-0.2,0.3-0.6,0.5-0.9,0.7c-1.3,0.6-2.8,0.6-4.1,0c-1.7-0.6-3.3-2.2-5.3-3.2
		c-1.1-0.5-2.2-0.8-3.4-0.7c-1.3,0.1-2.5,0.5-3.7,1c-2.4,1.1-4.4,2.7-6.5,3.8c-1,0.6-2,1-3,1.4c-1,0.3-1.9,0.7-2.7,0.9
		c-1.3,0.5-2.8,0.6-4.1,0.3c-0.4-0.1-0.7-0.3-1-0.6C452.8,356.6,452.7,356.5,452.6,356.4z"/>
	<path class="st6" d="M487.5,352.8c-0.7-0.8-1.5-1.6-2.4-2.4c-2.1-1.7-4.6-2.9-7.3-3.2c-1.5-0.1-3-0.1-4.5,0
		c-1.2,0.1-2.5,0.1-3.7,0.1c-0.8-0.1-1.7-0.2-2.5-0.5c-0.3-0.1-0.6-0.2-0.8-0.4c1.1,0.4,2.2,0.6,3.3,0.6c1.2,0,2.5,0,3.7-0.2
		c1.5-0.2,3-0.2,4.6-0.1c2.8,0.3,5.4,1.5,7.5,3.4c0.6,0.6,1.2,1.2,1.7,1.9C487.2,352.3,487.3,352.6,487.5,352.8z"/>
	<path class="st3" d="M468.7,383.2c0-0.2,1.2-0.3,2.3-1.3c0.4-0.4,0.8-0.9,1.1-1.4c0.3-0.4,0.5-0.7,0.5-0.6s0,0.3-0.2,0.8
		c-0.2,0.6-0.6,1.2-1.1,1.6c-0.5,0.5-1.1,0.8-1.8,0.9C469,383.3,468.7,383.3,468.7,383.2z"/>
	<path class="st0" d="M629.6,555.1l16.4-9.3c0,0,14.9,13.5,18.1,12.1l-16.9-32.4l-26.1,13.4L629.6,555.1z"/>
	<g class="st7">
		<path class="st2" d="M639.4,536.5c-0.1-0.7,0.3-1.5,1-1.7c0.7-0.2,1.5,0.3,1.7,1c0.2,0.8-0.3,1.6-1.1,1.8
			c-0.8,0.1-1.5-0.5-1.6-1.2"/>
	</g>
	<g class="st7">
		<path class="st2" d="M647.3,525.5l-2.6,1.5l17.1,30.5c0,0,1.4,1.1,2.3,0.4L647.3,525.5z"/>
	</g>
	<path class="st3" d="M646.1,546.4c0.2-0.1-0.2-0.9-0.1-2s0.5-1.8,0.4-1.9c-0.1-0.1-0.9,0.6-1,1.9
		C645.4,545.6,646,546.5,646.1,546.4z"/>
	<path class="st3" d="M649.3,549.1c0.2,0,0.1-0.9,0.5-1.8s1-1.4,0.9-1.6s-1,0.2-1.5,1.3S649.1,549.1,649.3,549.1z"/>
	<path class="st3" d="M654.3,548.9c0-0.2-0.9,0-1.6,0.9s-0.6,1.8-0.4,1.8s0.4-0.7,0.9-1.4S654.4,549,654.3,548.9z"/>
	<path class="st3" d="M642.1,548.1c0.1-0.1-0.5-0.8-0.9-1.7c-0.4-0.9-0.5-1.8-0.7-1.8s-0.4,1,0.1,2S642,548.2,642.1,548.1z"/>
	<g class="st8">
		<polygon points="632.9,553.2 635.8,551.6 627.4,535.7 624.7,537.1 		"/>
	</g>
	<path class="st3" d="M638.8,549.9c0.1,0-0.2-0.7-0.8-1.6c-0.4-0.5-0.9-1-1.4-1.4c-0.3-0.2-0.7-0.5-1-0.7c-0.2-0.1-0.4-0.2-0.6-0.3
		c-0.3-0.1-0.7,0.1-0.9,0.4c-0.1,0.3-0.1,0.6,0,0.9c0.1,0.2,0.2,0.4,0.4,0.6c0.3,0.3,0.6,0.6,0.9,0.8c0.5,0.4,1.1,0.8,1.8,1
		c0.6,0.3,1.2,0.4,1.8,0.3c0-0.1-0.7-0.2-1.6-0.7c-0.6-0.3-1.1-0.6-1.6-1c-0.3-0.2-0.5-0.5-0.8-0.8c-0.3-0.3-0.4-0.6-0.3-0.8
		c0.1-0.2,0.1-0.1,0.2-0.1c0.2,0.1,0.3,0.1,0.5,0.2c0.3,0.2,0.6,0.4,0.9,0.6c0.5,0.4,1,0.8,1.4,1.3
		C638.3,549.4,638.7,550,638.8,549.9z"/>
	<path class="st3" d="M638.9,549.6c-0.6-0.1-1.3,0.1-1.8,0.4c-0.6,0.3-1.2,0.7-1.7,1.1c-0.3,0.3-0.5,0.6-0.8,0.9
		c-0.3,0.4-0.4,1-0.3,1.5c0.2,0.3,0.5,0.5,0.8,0.4c0.2,0,0.5-0.1,0.7-0.1c1.1-0.4,1.9-1.1,2.4-2.1c0.3-0.5,0.4-1.2,0.3-1.8
		c-0.1,0-0.1,0.7-0.7,1.6c-0.3,0.5-0.8,1-1.3,1.3c-0.3,0.2-0.6,0.4-1,0.5c-0.4,0.1-0.7,0.2-0.8,0c-0.1-0.3,0-0.6,0.2-0.8
		c0.2-0.3,0.4-0.6,0.7-0.9c0.4-0.5,0.9-0.8,1.5-1.2C638.3,549.8,638.9,549.7,638.9,549.6z"/>
	<path class="st0" d="M583,580.6l18.6-3c0,0,9.3,17.9,12.8,17.6l-4.6-36.2l-29.1,3.6L583,580.6z"/>
	<g class="st7">
		<path class="st2" d="M598.5,566.5c0.1-0.8,0.8-1.3,1.5-1.2c0.8,0.1,1.3,0.8,1.2,1.5c-0.1,0.8-0.8,1.4-1.7,1.3
			c-0.8-0.2-1.3-1-1.1-1.7"/>
	</g>
	<g class="st7">
		<path class="st2" d="M609.7,558.9l-2.9,0.5l5.5,34.6c0,0,0.9,1.5,2,1.2L609.7,558.9z"/>
	</g>
	<path class="st3" d="M601.4,578.1c0.2,0,0.2-0.9,0.6-1.9s1.2-1.5,1.1-1.7c-0.1-0.2-1.1,0.2-1.6,1.4S601.3,578.2,601.4,578.1z"/>
	<path class="st3" d="M603.5,581.7c0.2,0,0.4-0.8,1-1.5s1.4-1,1.4-1.1s-1-0.2-1.9,0.7S603.3,581.8,603.5,581.7z"/>
	<path class="st3" d="M608.3,583.3c0-0.2-0.9-0.3-1.8,0.3c-0.9,0.6-1.2,1.5-1,1.5c0.2,0.1,0.6-0.5,1.4-1
		C607.6,583.6,608.3,583.5,608.3,583.3z"/>
	<path class="st3" d="M597.1,578.4c0.2-0.1-0.2-0.9-0.3-1.9s0.2-1.8,0-1.9c-0.2-0.1-0.7,0.8-0.6,1.9
		C596.3,577.7,597,578.5,597.1,578.4z"/>
	<g class="st8">
		<polygon points="586.6,580 590,579.4 587.5,561.7 584.5,562 		"/>
	</g>
	<path class="st3" d="M593.4,578.9c0.1-0.6,0-1.2-0.2-1.8c-0.2-0.6-0.5-1.2-0.8-1.8c-0.2-0.3-0.4-0.7-0.7-1
		c-0.1-0.2-0.3-0.4-0.5-0.5c-0.3-0.2-0.7-0.2-1,0c-0.2,0.2-0.3,0.5-0.3,0.8c0,0.2,0.1,0.5,0.2,0.7c0.1,0.4,0.3,0.7,0.5,1.1
		c0.4,0.6,0.8,1.1,1.3,1.5c0.4,0.4,1,0.8,1.6,0.9c0-0.1-0.5-0.4-1.3-1.2c-0.4-0.5-0.8-1-1.1-1.5c-0.2-0.3-0.3-0.7-0.5-1
		c-0.2-0.4-0.2-0.7,0-0.8s0.1-0.1,0.2,0c0.1,0.1,0.3,0.2,0.4,0.4c0.2,0.3,0.5,0.6,0.7,0.9c0.3,0.5,0.6,1.1,0.9,1.7
		C592.9,577.8,593.1,578.3,593.4,578.9z"/>
	<path class="st3" d="M593.6,578.6c-0.6-0.3-1.2-0.4-1.8-0.3c-0.7,0.1-1.4,0.2-2,0.5c-0.4,0.2-0.7,0.4-1,0.6
		c-0.5,0.3-0.8,0.7-0.8,1.3c0,0.3,0.3,0.6,0.6,0.7c0.2,0.1,0.5,0.1,0.7,0.1c0.4,0,0.8,0,1.2-0.2c0.7-0.2,1.3-0.5,1.8-1
		c0.8-0.8,1-1.6,0.9-1.6s-0.3,0.6-1.2,1.3c-0.5,0.4-1,0.7-1.6,0.8c-0.3,0.1-0.7,0.1-1,0.1c-0.4,0-0.7-0.1-0.7-0.3s0.2-0.5,0.5-0.7
		c0.3-0.2,0.6-0.4,0.9-0.6c0.6-0.3,1.1-0.5,1.8-0.6C592.9,578.6,593.6,578.7,593.6,578.6z"/>
	<path class="st3" d="M506.7,480.4c-0.6,0.2,8.8,9.3,10.3,15.4c1.8,7.4,6.8,15.8,6.8,15.8l34.6,33.2l65.2-9.5l11,20.1L556,576.6
		c-4.2,1.1-8.8,0.3-12.3-2.3L493,536.5l-29.1-36L506.7,480.4z"/>
	<path class="st3" d="M459.1,503.3l4.2,15.4c11.8,24.3,34.2,70.4,40.2,73.4c8.3,4.1,84.2-11,84.2-11l-1.7-20.9l-63.8,5.5l-42.6-74.9
		L459.1,503.3z"/>
	<path class="st6" d="M629.6,556.6c0,0-0.1,0.1-0.4,0.2l-1.3,0.4l-4.9,1.4l-18.2,5.2l-27,7.7l-15.9,4.5c-1.4,0.4-2.8,0.8-4.2,1.2
		c-4.5,1.1-9.1,0.5-13.3-1.5c-1.4-0.7-2.7-1.5-3.9-2.4l-3.5-2.8c-2.3-1.8-4.6-3.7-6.8-5.5c-4.4-3.7-8.7-7.2-12.6-10.8
		c-7.9-7-14.8-13.6-20.4-19.3s-9.9-10.5-12.7-14l-1.9-2.3c-0.5-0.7-0.9-1.3-1.3-1.8l-0.8-1.1c-0.2-0.3-0.2-0.4-0.2-0.4
		s0.1,0.1,0.3,0.4c0.2,0.2,0.5,0.6,0.8,1.1c0.4,0.5,0.8,1.1,1.3,1.7l1.9,2.3c2.8,3.4,7.1,8.3,12.8,13.9c5.6,5.6,12.6,12.2,20.5,19.1
		c4,3.5,8.2,7.1,12.6,10.7c2.2,1.8,4.5,3.7,6.8,5.5l3.5,2.7c1.2,0.9,2.4,1.7,3.8,2.4c4,1.9,8.6,2.4,12.9,1.4
		c1.4-0.4,2.8-0.8,4.2-1.2l15.9-4.5l27-7.5l18.2-5.1l5-1.3l1.3-0.3L629.6,556.6z"/>
	<path class="st6" d="M480.4,504.3c0,0.1-0.4,0.3-0.5,1c0,0.4,0.1,0.7,0.3,1c0.5,0.4,1.2,0.3,1.6-0.2c0.2-0.2,0.2-0.4,0.3-0.7
		c0-0.4-0.2-0.7-0.5-0.9C480.9,504.1,480.5,504.3,480.4,504.3c0-0.1,0.1-0.2,0.4-0.2c0.3-0.1,0.6,0,0.9,0.2c0.4,0.2,0.8,0.7,0.8,1.2
		c0,0.9-0.7,1.6-1.5,1.6c-0.4,0-0.8-0.2-1.1-0.4c-0.3-0.4-0.4-0.9-0.3-1.4c0.1-0.3,0.3-0.6,0.5-0.8
		C480.3,504.2,480.4,504.2,480.4,504.3z"/>
	<path class="st6" d="M513.6,495.2c-0.2,0.2-0.4,0.4-0.6,0.6c-0.6,0.5-1.2,1-1.8,1.4c-2.2,1.4-4.6,2.2-7.1,2.4
		c-2.5,0.2-5.1-0.2-7.4-1.2c-0.7-0.3-1.4-0.7-2-1.1c-0.2-0.1-0.5-0.3-0.7-0.5c0-0.1,1,0.6,2.8,1.3c4.7,1.8,9.9,1.4,14.3-1.1
		C512.7,496,513.5,495.2,513.6,495.2z"/>
	<path class="st6" d="M572.4,439.9c0,0-45.3-17-48.1-19.5s-14.7-16-19.7-17.8c0,0-8.1-2.1-13.6-1.8l-5.8,0.7v-4.4l-23.9,0.4
		l-0.7,5.9l-4.1,1.5c0,0-9.6,20-9.6,29.1s-4.7,62.5,4.6,72.8c1.4,1.6,7,0.6,7,0.6s26.8-2.9,53.5-21.5l-9.8-11.3
		c0,0-3.4-23.6,0.6-40.5c0.1-0.4,0.2-0.7,0.3-1.1c11.5,5.7,29.3,14,34.5,14c0,0,29.2,9.9,34.6,3.5
		C573.1,449.8,572.4,439.9,572.4,439.9z"/>
	<path class="st6" d="M461.3,404.1c0,0-9.4,0.4-15.4,7.9s-16,39.9-16,39.9l-13.6-14l-13,7.2c0,0,18.4,25.6,22,28.6
		c2,1.4,4.3,2.3,6.6,2.8c8.7,0.8,14.6-8.1,16.4-15.5l6-30.1"/>
	<path class="st4" d="M407.2,442.9l-14-8.3c0,0-4.2-10-2.6-10.5s3,5.6,3,5.6l2,1c0,0-2.7-5.1-1.8-5.6s2.3,1,3,2.2
		c0.6,0.9,2.4,4.6,2.4,4.6l0.9-1.3l-0.7-3.4c0,0-1-2.3,0.1-2.3s1.1-0.1,1.9,1.8s1.4,3.3,1.4,3.3s4.1,2.4,5,2.1
		c1.3-0.4,2.8-0.3,4,0.3c0,0,3.9,2,2.9,6.1"/>
	<path class="st3" d="M501.9,405.4c0.1,0-0.3,1-0.8,2.5c-1.2,4.1-1.4,8.3-0.7,12.5c0.3,1.6,0.5,2.6,0.5,2.6
		c-0.4-0.8-0.6-1.6-0.8-2.5c-0.5-2.1-0.6-4.2-0.5-6.4c0.1-2.1,0.5-4.2,1.2-6.3C501,406.9,501.4,406.1,501.9,405.4z"/>
	<path class="st3" d="M464.4,404.1c-0.3-1.1-0.4-2.3-0.3-3.4c0-1.1,0.1-2.3,0.5-3.4c0.1,1.1,0.1,2.3,0,3.4
		C464.7,401.9,464.6,403,464.4,404.1z"/>
	<path class="st3" d="M470,405c-0.1-1.3-0.1-2.6,0.1-3.8c0-1.3,0.2-2.5,0.6-3.8c0.1,1.3,0.1,2.6-0.1,3.8
		C470.5,402.5,470.3,403.8,470,405z"/>
	<path class="st3" d="M477.4,404.8c-0.1,0,0.2-1.7,0.3-3.7c0.1-2,0-3.7,0.2-3.7C478.6,399.8,478.4,402.4,477.4,404.8z"/>
	<path class="st3" d="M482.9,403.4c-0.1,0,0.1-1.4,0-3.1c0-1.7-0.3-3.1-0.1-3.1c0.5,1,0.7,2,0.6,3.1
		C483.5,401.3,483.3,402.4,482.9,403.4z"/>
	<path class="st3" d="M447.6,416.3c0.1,0,0,13.1-0.3,29.2s-0.7,29.2-0.8,29.2s0-13.1,0.3-29.2S447.5,416.3,447.6,416.3z"/>
	<path class="st9" d="M446.7,447c-0.7-0.3-1.4-0.7-2-1.1c-1.5-1-3.1-1.8-4.8-2.4c-1.7-0.6-3.4-0.9-5.2-0.8c-1.4,0.1-2.2,0.5-2.2,0.4
		c0.6-0.4,1.4-0.7,2.1-0.7c1.8-0.2,3.7,0,5.4,0.6c1.7,0.7,3.3,1.5,4.8,2.6C445.6,446,446.2,446.5,446.7,447z"/>
	<path class="st9" d="M501.4,437.8c-0.1,0.1-0.3,0.2-0.5,0.3l-1.4,0.8c-0.6,0.4-1.4,0.8-2.2,1.2s-1.9,1-3,1.4s-2.4,1-3.8,1.5
		s-2.9,1-4.4,1.5c-3.4,1-6.9,1.8-10.4,2.4c-3.5,0.5-7.1,0.8-10.7,0.9c-1.6,0-3.2,0-4.7-0.1s-2.8-0.2-4.1-0.3s-2.3-0.3-3.3-0.5
		s-1.8-0.3-2.5-0.5l-1.6-0.4c-0.2,0-0.4-0.1-0.5-0.1c0.2,0,0.4,0,0.6,0l1.6,0.3c0.7,0.1,1.5,0.3,2.5,0.4s2.1,0.3,3.3,0.4
		s2.6,0.2,4,0.3s3,0.1,4.6,0.1c7.1-0.1,14.2-1.2,21-3.3c1.6-0.5,3-0.9,4.4-1.5s2.6-1,3.8-1.5s2.1-1,3-1.4s1.6-0.8,2.3-1.1l1.4-0.7
		C501,438,501.2,437.9,501.4,437.8z"/>
	<path class="st9" d="M527.7,423.4c0,0.1-0.8,0.6-2,1.7c-1.6,1.4-3,3-4.3,4.7c-1.2,1.7-2.2,3.6-3,5.6c-0.6,1.5-0.8,2.5-0.9,2.5
		c0-0.2,0-0.5,0.1-0.7c0.1-0.6,0.3-1.3,0.5-1.9c1.4-4.1,3.9-7.8,7.3-10.4c0.5-0.4,1-0.8,1.6-1.1
		C527.4,423.4,527.7,423.3,527.7,423.4z"/>
	<path class="st9" d="M532.7,424.9c0,0.1-1,0.5-2.5,1.5c-3.9,2.6-6.9,6.3-8.5,10.6c-0.6,1.7-0.8,2.8-0.9,2.7s0-0.3,0.1-0.8
		c0.1-0.7,0.3-1.4,0.5-2.1c1.5-4.5,4.6-8.4,8.7-10.8c0.6-0.4,1.2-0.7,1.9-1C532.2,425,532.5,424.9,532.7,424.9z"/>
	<path class="st9" d="M501.7,433.7c-0.2,0.1-0.3,0.2-0.5,0.2l-1.5,0.6c-0.6,0.3-1.4,0.6-2.4,0.9s-2,0.7-3.2,1.1
		c-2.4,0.8-5.2,1.5-8.4,2.3s-6.8,1.3-10.5,1.8s-7.4,0.6-10.6,0.7s-6.2-0.1-8.7-0.3c-1.2-0.1-2.3-0.2-3.3-0.3s-1.8-0.2-2.5-0.3
		l-1.6-0.2c-0.2,0-0.4,0-0.6-0.1c0.2,0,0.4,0,0.6,0l1.6,0.1c0.7,0.1,1.5,0.2,2.5,0.2s2.1,0.2,3.3,0.2c2.5,0.2,5.4,0.2,8.7,0.2
		s6.8-0.3,10.6-0.7s7.3-1.1,10.5-1.7s6-1.4,8.4-2.1c1.2-0.3,2.2-0.7,3.2-1s1.7-0.6,2.4-0.8l1.5-0.5
		C501.3,433.8,501.5,433.7,501.7,433.7z"/>
	<path class="st9" d="M447.2,439.4c-1.7-1.1-3.5-2.1-5.3-2.9c-1.9-0.7-3.9-1.2-5.9-1.5c0.6-0.1,1.2-0.1,1.8,0c1.5,0.1,2.9,0.5,4.3,1
		c1.4,0.5,2.6,1.2,3.8,2.1C446.4,438.5,446.8,438.9,447.2,439.4z"/>
	<path class="st4" d="M587.4,436.1l-9.9,3.3l-5,0.4v10.7l5.1,1.8l13.8-0.8c0,0,7.9,4,9.9,3.8s2-0.9,2-0.9l-9.8-5.9
		c1.3-0.3,2.6-0.1,3.8,0.5c2.3,1,6.1,3.3,7.5,2.6s1.1-1.1,1.1-1.1l-7.7-4.8c0,0,6.5,2.9,7.7,2.4c0.6-0.3,1.1-0.8,1.2-1.5l-4.3-3.8
		l-6.4-5L587.4,436.1z"/>
	<path class="st5" d="M581.9,440.5c0.4,0.1,0.7,0.3,1.1,0.5c0.7,0.3,1.6,0.8,2.8,1.4s2.6,1.3,4.2,2.2c0.4,0.2,0.8,0.5,1.1,0.9
		c0.3,0.4,0.5,0.9,0.6,1.4c0.1,0.5-0.1,1.1-0.3,1.6c-0.3,0.5-0.8,0.8-1.4,0.9c-0.7,0.2-1.5,0.2-2.2,0c-0.7-0.2-1.3-0.4-1.9-0.7
		c-1.2-0.5-2.3-1-3.3-1.5l0.3-0.1c-0.6,0.8-1.4,1.4-2.3,1.8c-0.7,0.3-1.5,0.4-2.2,0.4c-0.5,0-1-0.1-1.4-0.2
		c-0.3-0.1-0.5-0.2-0.5-0.2c0.6,0.1,1.3,0.2,1.9,0.2c0.7,0,1.4-0.2,2.1-0.5c0.8-0.4,1.6-1,2.1-1.8l0.1-0.1l0.2,0.1
		c1,0.5,2.1,1,3.3,1.5c0.6,0.3,1.2,0.5,1.8,0.6c0.6,0.1,1.3,0.1,1.9,0c0.4-0.1,0.8-0.3,1.1-0.7c0.2-0.4,0.3-0.8,0.3-1.2
		c-0.1-0.9-0.7-1.6-1.5-2c-1.5-0.9-2.9-1.6-4.1-2.3l-2.8-1.5C582.5,441,582.2,440.7,581.9,440.5z"/>
	<path class="st5" d="M598.7,445.7c-1.6-0.7-3-1.6-4.4-2.7c-0.3-0.2-0.6-0.5-0.9-0.8h0.3c-0.9,0.5-1.8,0.7-2.8,0.8
		c-0.4,0.1-0.8,0-1.1-0.1c0-0.1,0.4-0.1,1.1-0.2c0.9-0.1,1.8-0.4,2.6-0.9l0.2-0.1l0.1,0.1c0.3,0.2,0.5,0.5,0.8,0.7
		C596.1,443.6,597.5,444.6,598.7,445.7z"/>
	<path class="st0" d="M615.6,522.4c-2,0-4-0.3-5.9-0.8c-19-5.7-18-19.4-17.2-30.4c0.7-10.3,0.8-16.7-7.7-19.9
		c-11.2-4.2-15.8-0.1-22.8,6.1c-8.3,7.4-18.7,16.5-43.8,12.8c-13-1.9-34-8.8-59.7-30.6c-9.2-7.7-17.6-16.2-25.3-25.4l3.9-3.1
		c0.4,0.5,38.8,47.8,81.9,54.2c22.8,3.4,31.8-4.6,39.7-11.6c7.1-6.3,13.8-12.3,27.9-7c12.4,4.6,11.6,15.4,10.9,24.9
		c-0.8,11.1-1.5,20.7,13.7,25.3c17.1,5.1,39.6-22,53-38.2c4.8-5.8,8.1-10,10.8-12.1l3.8,3c-1.7,2-6.3,7-10.7,12.3
		C654.3,498.3,634.3,522.4,615.6,522.4z"/>
	<path class="st2" d="M545.1,483c0,0-0.2,0.2-0.6,0.4c-0.6,0.4-1.1,0.7-1.8,1c-2,1-4.1,1.7-6.3,2.2c-2.2,0.4-4.4,0.6-6.6,0.5
		c-0.7,0-1.3-0.1-2-0.2c-0.2,0-0.5-0.1-0.7-0.2c0-0.1,1.1,0,2.7,0c4.4,0,8.7-0.9,12.8-2.6C544.2,483.4,545.1,482.9,545.1,483z"/>
	<path class="st2" d="M574.4,467.9c-0.5,0-1.1,0-1.6-0.1c-2.6,0-5.2,0.8-7.2,2.5c-0.4,0.4-0.8,0.7-1.3,1c0.2-0.5,0.6-1,1-1.3
		c2-1.9,4.7-2.8,7.4-2.6C573.3,467.5,573.9,467.7,574.4,467.9z"/>
	<path class="st2" d="M606.2,515.1c-0.8-0.1-1.5-0.3-2.3-0.7c-3.5-1.6-6.2-4.6-7.6-8.2c-0.3-0.7-0.5-1.5-0.5-2.3
		c0.1,0,0.3,0.9,0.8,2.2c0.7,1.7,1.7,3.3,3,4.6c1.3,1.4,2.7,2.5,4.4,3.3C605.4,514.8,606.3,515.1,606.2,515.1z"/>
	<path class="st2" d="M675.9,468.3c-2.4,2.9-5,5.5-7.9,7.9C670.4,473.3,673,470.7,675.9,468.3z"/>
	<path class="st0" d="M437.6,435.2L437.6,435.2c-2.1,2.3-5.8,2.5-8.1,0.4l-8.8-8l7.7-8.5l8.8,8C439.6,429.2,439.7,432.8,437.6,435.2
		z"/>
	<path class="st3" d="M437.6,435.2c0.3-0.4,0.6-0.9,0.8-1.3c0.6-1.3,0.7-2.8,0.3-4.2c-0.3-1-0.8-1.8-1.6-2.5l-2.6-2.4
		c-1.9-1.7-4-3.6-6.2-5.6h0.3l-3.9,4.3l-3.9,4.3v-0.3l6.1,5.6l2.6,2.4c0.7,0.7,1.6,1.1,2.6,1.4c1.4,0.3,2.9,0.1,4.1-0.7
		C436.8,435.8,437.2,435.5,437.6,435.2c-0.3,0.4-0.7,0.8-1.2,1.1c-1.3,0.8-2.8,1.1-4.3,0.8c-1-0.2-2-0.7-2.8-1.4
		c-0.8-0.7-1.7-1.5-2.6-2.4l-6.2-5.6l-0.2-0.2l0.2-0.2l3.9-4.3l3.9-4.2l0.2-0.2l0.2,0.2l6.1,5.6l2.6,2.4c0.8,0.7,1.3,1.6,1.6,2.6
		c0.4,1.4,0.3,3-0.4,4.3C438.3,434.4,438,434.8,437.6,435.2z"/>
	<path class="st0" d="M393.2,387.1l-15.1-12.5c-1.2-1-1.4-2.7-0.4-3.9c0,0,0,0,0,0l0,0c1-1.2,2.7-1.4,3.9-0.4c0,0,0,0,0,0l15.1,12.5
		L393.2,387.1z"/>
	<path class="st0" d="M379,405.4l-15.1-12.5c-1.2-1-1.4-2.7-0.4-3.9c0,0,0,0,0,0l0,0c1-1.2,2.7-1.4,3.9-0.4c0,0,0,0,0,0l15.1,12.5
		L379,405.4z"/>
	<g class="st7">
		<path class="st2" d="M393.2,387.1l-15.1-12.5c-1.2-1-1.4-2.7-0.4-3.9c0,0,0,0,0,0l0,0c1-1.2,2.7-1.4,3.9-0.4c0,0,0,0,0,0
			l15.1,12.5L393.2,387.1z"/>
	</g>
	<g class="st7">
		<path class="st2" d="M379,405.4l-15.1-12.5c-1.2-1-1.4-2.7-0.4-3.9c0,0,0,0,0,0l0,0c1-1.2,2.7-1.4,3.9-0.4c0,0,0,0,0,0l15.1,12.5
			L379,405.4z"/>
	</g>
	<path class="st3" d="M393.2,387.1c0.1-0.1,0.1-0.2,0.2-0.3l0.7-0.9l2.5-3.2v0.2l-7.1-5.8l-4.5-3.7l-2.4-2l-1.2-1
		c-0.4-0.3-0.8-0.5-1.3-0.6c-0.8-0.1-1.7,0.2-2.2,0.9c-0.5,0.6-0.7,1.5-0.5,2.3c0.1,0.4,0.3,0.7,0.5,1c0.3,0.3,0.6,0.6,0.9,0.8
		l1.9,1.6l6.5,5.5l4.4,3.7l1.2,1c0.2,0.1,0.3,0.3,0.4,0.4c-0.1-0.1-0.3-0.2-0.4-0.3l-1.2-1c-1.1-0.9-2.6-2.1-4.5-3.6l-6.7-5.4
		l-1.9-1.6c-0.4-0.3-0.7-0.6-1-0.9c-1.1-1.2-1.1-3.1,0.2-4.2c0.7-0.6,1.6-0.9,2.5-0.8c0.6,0.1,1.1,0.3,1.6,0.7l1.2,1l2.4,2l4.4,3.7
		l7,5.9l0.1,0.1l-0.1,0.1l-2.7,3.2l-0.7,0.8C393.4,386.9,393.3,387,393.2,387.1z"/>
	<path class="st3" d="M379,405.4c0.1-0.1,0.1-0.2,0.2-0.3c0.2-0.2,0.4-0.5,0.7-0.9l2.5-3.2v0.2l-7.1-5.8l-4.5-3.6l-2.4-2l-1.2-1
		c-0.4-0.3-0.8-0.5-1.3-0.6c-0.8-0.1-1.7,0.2-2.2,0.9c-0.5,0.6-0.7,1.5-0.5,2.3c0.1,0.4,0.3,0.7,0.5,1c0.3,0.3,0.6,0.6,0.9,0.8
		l1.9,1.6l6.5,5.4l4.4,3.7l1.2,1C378.7,405,378.9,405.2,379,405.4c0-0.1-0.2-0.2-0.4-0.4l-1.2-1l-4.5-3.6l-6.6-5.4l-1.9-1.6
		c-0.4-0.3-0.7-0.6-1-0.9c-0.3-0.4-0.5-0.8-0.6-1.2c-0.2-1,0-2,0.6-2.7c0.7-0.8,1.7-1.1,2.7-1c0.6,0.1,1.1,0.3,1.6,0.7
		c0.4,0.4,0.8,0.7,1.2,1l2.4,2l4.4,3.7l7,5.9l0.1,0.1l-0.1,0.1c-1.1,1.3-2,2.4-2.7,3.1l-0.7,0.8C379.1,405.3,379,405.4,379,405.4z"
		/>
	<path class="st0" d="M427.6,403l0.4-0.5c1.9-2.3,1.6-5.6-0.7-7.5c-1.9-1.6-4.8-1.6-6.7-0.1l-22.2-18.5l-25.4,30.3l22.7,18
		c-1.5,2.3-1,5.3,1.1,7l0,0c2.2,1.8,5.5,1.6,7.4-0.6c6.7,5,16.1,3.8,21.3-2.7l3.6-4.5C434.3,417.6,433.6,408.5,427.6,403z"/>
	<path class="st3" d="M427.6,403l0.2,0.2l0.5,0.5c0.3,0.3,0.6,0.6,0.8,0.9l0.5,0.6l0.5,0.7c0.9,1.3,1.6,2.7,2,4.2
		c1.3,4.5,0.5,9.5-2.2,13.3c-0.8,1.1-1.8,2.2-2.7,3.4c-0.9,1.3-2,2.4-3.1,3.5c-2.5,2.4-5.8,3.8-9.3,4.1c-3.8,0.3-7.7-0.8-10.7-3.1
		h0.3c-0.9,1.1-2.2,1.7-3.6,1.9c-1.5,0.2-3-0.3-4.1-1.2l0,0l0,0c-2.2-1.8-2.7-4.9-1.1-7.3l0,0.3l-17.6-14l-5.1-4.1l-0.2-0.1l0.2-0.2
		c9.2-11,17.9-21.3,25.4-30.3l0.1-0.2l0.2,0.1l22.1,18.5h-0.2c2.4-1.9,5.8-1.5,7.7,0.9c0.8,1,1.2,2.2,1.2,3.4c0,1.1-0.4,2.1-1,3
		c-0.2,0.2-0.3,0.4-0.5,0.6L427.6,403c0-0.1,0.2-0.4,0.6-0.9c0.6-0.9,0.9-1.9,0.9-3c0-1.7-0.8-3.3-2.2-4.3c-0.9-0.6-1.9-1-3-1
		c-1.2,0-2.4,0.4-3.3,1.1l-0.1,0.1l-0.1-0.1l-22.2-18.4h0.3l-25.3,30.4v-0.4l5.1,4.1l17.5,14l0.2,0.1l-0.1,0.2c-1.4,2.2-1,5,1,6.7
		l0,0c2.1,1.8,5.3,1.5,7.1-0.6l0.1-0.1l0.2,0.1c5.9,4.4,14.1,4,19.5-1c1.1-1.1,2.1-2.2,3-3.5c0.9-1.2,1.9-2.3,2.7-3.4
		c3.7-5.1,3.8-11.9,0.4-17.2c-0.2-0.3-0.3-0.5-0.5-0.7l-0.5-0.6c-0.2-0.3-0.5-0.6-0.8-0.9l-0.5-0.5C427.7,403,427.6,403,427.6,403z"
		/>
	
		<rect x="391.2" y="388.5" transform="matrix(0.6373 -0.7706 0.7706 0.6373 -164.5936 447.593)" class="st10" width="4" height="20.3"/>
	<path class="st3" d="M427.6,403c-0.2,0.4-0.5,0.8-0.8,1.2c-0.6,0.8-1.4,1.8-2.4,3.1c-2.1,2.6-5,6.2-8.3,10s-6.2,7.3-8.4,10l-2.5,3
		c-0.3,0.4-0.6,0.7-1,1.1c0.2-0.4,0.5-0.8,0.8-1.2c0.6-0.8,1.4-1.8,2.4-3.1c2.1-2.6,5-6.2,8.3-10l8.4-10l2.5-3
		C426.9,403.7,427.3,403.3,427.6,403z"/>
	<path class="st3" d="M420.6,394.9c-0.3,0.4-0.6,0.9-0.9,1.2c-0.6,0.8-1.5,1.9-2.6,3.3c-2.2,2.7-5.4,6.5-8.9,10.6s-6.6,7.7-9,10.5
		c-1.1,1.3-2,2.4-2.7,3.2c-0.3,0.4-0.7,0.8-1.1,1.1c0.3-0.4,0.6-0.8,0.9-1.2c0.6-0.8,1.5-1.9,2.6-3.3c2.2-2.7,5.4-6.5,8.9-10.6
		l9-10.5l2.7-3.2C419.9,395.6,420.2,395.2,420.6,394.9z"/>
</g>
<g id="freepik--character-1--inject-18">
	<path class="st11" d="M321,314.5c-0.1,0.3-11.2,8.7-11.2,8.7l-0.2,7.1l5.7,0.8l8.1-4.6l5.5-0.3c0,0,3.4,1.8,4,2
		c0.9,0.3,1.8-0.1,2.3-0.9l-5-3.6c0,0,5.5,3.1,6.1,2.7c0.6-0.7,0.5-1.8-0.2-2.4c-0.1-0.1-0.2-0.2-0.4-0.2c0,0,1.7,0.9,2.8,0.2
		s0.7-1.6,0.7-1.6l-7.3-6.6c-0.9-0.8-2.2-1.3-3.4-1.3L321,314.5z"/>
	<path class="st12" d="M321.9,317.6c0,0.3,0,0.6-0.1,0.9c-0.1,0.6-0.2,1.4-0.4,2.3l-0.1-0.2l4.2-0.3c0.9-0.1,1.8,0,2.7,0.4
		c0.5,0.2,0.9,0.6,1.1,1.1c0.3,0.5,0.3,1.1,0.1,1.6v0.1h-0.1c-1.3,0.8-3,0.6-4.5,0.7c-1.1,0-2.2,0.4-3.1,1.1
		c-0.8,0.7-1.6,1.4-2.3,2.2c-0.7,0.8-1.4,1.4-2.3,1.9c-0.8,0.5-1.6,0.7-2.5,0.7c-1.3,0-2.5-0.3-3.7-0.8c-0.4-0.1-0.8-0.3-1.2-0.6
		c0.4,0.1,0.9,0.2,1.3,0.4c1.2,0.4,2.4,0.6,3.6,0.6c0.8,0,1.6-0.3,2.3-0.7c0.8-0.5,1.5-1.2,2.2-1.9c0.7-0.8,1.5-1.6,2.3-2.3
		c1-0.8,2.1-1.2,3.4-1.2c1.5-0.1,3.1,0,4.2-0.6l-0.1,0.1c0.3-0.8-0.1-1.7-0.9-2.1c-0.8-0.3-1.6-0.4-2.5-0.4l-4.2,0.2h-0.2v-0.2
		c0.2-0.9,0.4-1.7,0.5-2.3C321.7,318.1,321.8,317.8,321.9,317.6z"/>
	<path class="st12" d="M336,323.8c-0.7-0.2-1.3-0.6-1.9-1.1c-1.1-0.8-2.3-2.3-3.9-3.5c-0.4-0.3-0.8-0.5-1.2-0.5
		c-0.4-0.1-0.9,0-1.4,0h-2.4c-0.7,0-1.4,0-2.2-0.1c0.7-0.2,1.4-0.2,2.2-0.2l2.3-0.1c0.5,0,0.9,0,1.4,0c0.5,0.1,1,0.3,1.5,0.6
		c1.3,1.1,2.6,2.3,3.8,3.6C335.4,323.3,336.1,323.7,336,323.8z"/>
	<path class="st0" d="M336.6,535.5l-0.3,17.5c0,0,17.7,6.2,18,9.4l-33.9,0.7l-0.7-27.3L336.6,535.5z"/>
	<g class="st7">
		<path class="st2" d="M325.8,551.7c-0.7,0.2-1.1,0.9-0.9,1.6c0.2,0.7,0.9,1.1,1.6,0.9c0.7-0.2,1.2-1,1-1.7
			C327.1,551.9,326.4,551.5,325.8,551.7"/>
	</g>
	<g class="st7">
		<path class="st2" d="M320.3,563v-2.8l32.5,0.4c0,0,1.5,0.6,1.4,1.7L320.3,563z"/>
	</g>
	<path class="st3" d="M336.8,552.8c0,0.2-0.8,0.3-1.6,0.8c-0.8,0.6-1.2,1.3-1.4,1.2c-0.2-0.1,0.1-1,1.1-1.7S336.9,552.6,336.8,552.8
		z"/>
	<path class="st3" d="M340.4,554.2c0,0.2-0.7,0.5-1.2,1.2c-0.5,0.7-0.7,1.5-0.9,1.5s-0.3-0.9,0.4-1.8S340.4,554,340.4,554.2z"/>
	<path class="st3" d="M342.5,558.4c-0.1,0-0.4-0.8,0-1.7c0.4-0.9,1.2-1.3,1.3-1.2s-0.4,0.6-0.7,1.4S342.7,558.4,342.5,558.4z"/>
	<path class="st3" d="M336.5,548.8c-0.1,0.1-0.8-0.1-1.8,0c-0.9,0.1-1.7,0.4-1.8,0.3s0.6-0.8,1.7-0.8S336.5,548.7,336.5,548.8z"/>
	<g class="st8">
		<polygon points="336.5,538.9 336.5,542 319.8,542.2 319.7,539.4 		"/>
	</g>
	<path class="st3" d="M336.4,545.3c-0.6,0.1-1.1,0.1-1.7,0c-0.6-0.1-1.2-0.3-1.8-0.5c-0.3-0.1-0.7-0.3-1-0.5
		c-0.2-0.1-0.4-0.2-0.5-0.4c-0.2-0.2-0.3-0.6-0.1-0.9c0.2-0.2,0.4-0.4,0.7-0.4c0.2,0,0.4,0,0.6,0.1c0.4,0.1,0.7,0.2,1.1,0.3
		c0.6,0.2,1.1,0.6,1.6,1c0.8,0.7,1.1,1.3,1,1.4s-0.5-0.5-1.3-1c-0.5-0.3-1-0.6-1.5-0.8c-0.3-0.1-0.7-0.2-1-0.3
		c-0.4-0.1-0.7-0.1-0.8,0.1s0,0.1,0,0.2c0.1,0.1,0.2,0.2,0.4,0.3c0.3,0.2,0.6,0.3,0.9,0.5c0.5,0.3,1.1,0.4,1.7,0.6
		C335.3,545,335.9,545.1,336.4,545.3z"/>
	<path class="st3" d="M336.2,545.5c-0.3-0.5-0.5-1.1-0.5-1.6c0-0.6,0-1.3,0.2-1.9c0.1-0.3,0.2-0.7,0.4-1c0.2-0.5,0.6-0.8,1.1-0.9
		c0.3,0,0.6,0.2,0.7,0.5c0.1,0.2,0.2,0.4,0.2,0.6c0.1,0.4,0.1,0.8,0,1.1c-0.1,0.6-0.3,1.2-0.7,1.8c-0.6,0.9-1.3,1.1-1.3,1
		s0.5-0.4,1-1.3c0.3-0.5,0.5-1,0.5-1.6c0-0.3,0-0.7-0.1-1c-0.1-0.4-0.2-0.6-0.3-0.6s-0.5,0.3-0.6,0.6c-0.2,0.3-0.3,0.6-0.4,0.9
		c-0.2,0.6-0.3,1.1-0.3,1.7C336.1,544.8,336.3,545.5,336.2,545.5z"/>
	<path class="st3" d="M274.8,436.6c0.8,1.3,37.7,39.5,37.7,39.5s-4.6,17.6-2.9,32.9s6.6,39.7,6.6,39.7l26.7-2.1l-7.3-83L306.4,425
		L274.8,436.6z"/>
	<path class="st0" d="M345.8,516.1l3.3,17.2c0,0,18.6,2.4,19.5,5.6l-33.1,7.5l-6.2-26.6L345.8,516.1z"/>
	<g class="st7">
		<path class="st2" d="M338.5,534.2c-0.6,0.4-0.9,1.1-0.6,1.8c0.3,0.6,1.1,0.9,1.7,0.6c0.7-0.4,0.9-1.2,0.6-1.9
			c-0.4-0.6-1.2-0.8-1.9-0.4"/>
	</g>
	<g class="st7">
		<path class="st2" d="M335.5,546.4l-0.5-2.7l31.9-6.2c0,0,1.6,0.3,1.7,1.4L335.5,546.4z"/>
	</g>
	<path class="st3" d="M349.6,533c0,0.2-0.8,0.4-1.4,1.1s-0.9,1.5-1.1,1.5s-0.1-1,0.7-1.9S349.6,532.9,349.6,533z"/>
	<path class="st3" d="M353.4,533.7c0.1,0.1-0.6,0.6-1,1.4c-0.4,0.8-0.4,1.6-0.5,1.6s-0.5-0.9,0-1.9S353.3,533.5,353.4,533.7z"/>
	<path class="st3" d="M356.3,537.4c-0.1,0.1-0.5-0.7-0.3-1.7c0.2-1,0.9-1.5,1-1.4s-0.3,0.7-0.4,1.5
		C356.4,536.6,356.4,537.3,356.3,537.4z"/>
	<path class="st3" d="M348.4,529.2c0,0.2-0.8,0.1-1.7,0.4s-1.5,0.7-1.7,0.6s0.4-0.9,1.5-1.2S348.4,529,348.4,529.2z"/>
	<g class="st8">
		<polygon points="346.4,519.5 347,522.6 330.7,526.2 330.1,523.4 		"/>
	</g>
	<path class="st3" d="M347.7,525.7c-0.5,0.3-1.1,0.4-1.7,0.4c-1,0-2-0.1-2.9-0.4c-0.2-0.1-0.4-0.2-0.6-0.3c-0.3-0.2-0.4-0.5-0.3-0.8
		c0.1-0.3,0.3-0.5,0.6-0.5c0.2-0.1,0.4-0.1,0.6-0.1c0.4,0,0.7,0,1.1,0.1c0.6,0.1,1.2,0.3,1.8,0.7c0.9,0.5,1.3,1.1,1.3,1.1
		c0,0-0.5-0.4-1.5-0.8c-0.5-0.2-1.1-0.4-1.7-0.5c-0.3-0.1-0.7-0.1-1-0.1c-0.4,0-0.7,0.1-0.7,0.2s0,0.1,0.1,0.2
		c0.1,0.1,0.3,0.2,0.4,0.2c0.3,0.1,0.7,0.2,1,0.3c0.6,0.1,1.2,0.2,1.7,0.3C346.6,525.7,347.1,525.7,347.7,525.7z"/>
	<path class="st3" d="M347.5,526c-0.1,0-0.5-0.5-0.8-1.5c-0.2-0.6-0.2-1.2-0.2-1.9c0-0.4,0.1-0.7,0.2-1.1c0.1-0.5,0.4-0.9,0.9-1.1
		c0.3-0.1,0.6,0.1,0.8,0.3c0.1,0.2,0.2,0.4,0.3,0.6c0.1,0.4,0.2,0.7,0.3,1.1c0,0.6-0.1,1.3-0.3,1.9c-0.5,1-1.1,1.4-1.1,1.3
		c0.3-0.5,0.5-1,0.7-1.5c0.2-0.5,0.2-1.1,0.2-1.7c0-0.3-0.1-0.6-0.3-1c-0.1-0.3-0.3-0.6-0.5-0.5c-0.1,0.1-0.4,0.4-0.5,0.7
		c-0.3,0.9-0.3,1.8-0.1,2.7C347.3,525.4,347.6,526,347.5,526z"/>
	<path class="st3" d="M208.9,410.4c0,0-2.5,15.8,7.1,26.1s19.9,14.9,38.1,14.1s57.5,0.1,57.5,0.1s1.7,21,6.2,38.2s13.6,43,13.6,43
		l17.8-1.7c0,0-4.8-93.6-6-101.9s-15-12.5-22.5-14.9s-50.2-11.1-50.2-11.1l-38.8-5.4L208.9,410.4z"/>
	<path class="st6" d="M349.3,530.2h-0.3l-0.9,0.1l-3.6,0.3l-13.6,0.9h-0.1v-0.1c-2.4-7.7-5.5-17.6-9.1-29.1
		c-1.8-5.8-3.7-11.9-5.7-18.3c-1-3.2-2.1-6.5-2.8-9.9c-0.8-3.5-1.3-7-1.5-10.6c-0.3-4.2-0.1-8.4,0.7-12.5l0.2,0.3
		c-10.9-0.2-21.1-0.3-30.3-0.4c-4.6,0-9,0-13,0.1s-7.8,0.2-11.3,0.2c-6.9,0-12.4-0.4-16.2-0.7c-1.9-0.2-3.4-0.3-4.3-0.4l-1.1-0.1
		l-0.4-0.1c0.1,0,0.3,0,0.4,0l1.1,0.1l4.4,0.4c3.8,0.3,9.3,0.6,16.2,0.5c3.4,0,7.2-0.2,11.3-0.3s8.4-0.1,13-0.1
		c9.2,0,19.5,0.1,30.3,0.3h0.3l-0.1,0.3c-0.7,4.1-0.9,8.2-0.6,12.4c0.2,3.5,0.7,7.1,1.5,10.5c0.7,3.4,1.8,6.7,2.8,9.9
		c2,6.4,3.9,12.6,5.6,18.3c3.5,11.5,6.6,21.5,9,29.1l-0.1-0.1l13.6-0.8l3.6-0.2h0.9C349.1,530.1,349.2,530.1,349.3,530.2z"/>
	<path class="st6" d="M321,440c0.1,0.1-2.1,2.2-4.4,5.3s-3.7,5.7-3.8,5.7c0.2-0.7,0.5-1.3,0.8-1.9c0.8-1.4,1.6-2.8,2.6-4.1
		c1-1.3,2-2.5,3.2-3.7C319.9,440.8,320.4,440.3,321,440z"/>
	<path class="st6" d="M325.8,441.7c-2.4,1-4.8,2.2-7,3.6c-2.1,1.6-4.1,3.4-5.8,5.3c0.4-0.7,0.8-1.3,1.4-1.9c2.5-2.9,5.7-5.1,9.3-6.4
		C324.3,442,325.1,441.8,325.8,441.7z"/>
	<path class="st6" d="M246.4,315.5c1.3,0.7,28.6,17.4,29.9,17.4s33.6-11.8,33.6-11.8l6.6,10.2c0,0-28.3,21.8-37.6,22.1
		c-9.3,0.3-24-7.1-24-7.1L246.4,315.5z"/>
	<path class="st6" d="M189.6,324.7c0,0-34,34.6-33.6,43.3s4.6,13.6,7.3,14.8c3.8,1.6,46.3-3.6,46.3-3.6l2.5-16.6
		c-7-1.4-15.9-2.4-25.5-3.4c4.3-4.5,9.1-7.9,15-8.9l10.2-11.1C211.9,339.2,199.2,322.5,189.6,324.7z"/>
	<path class="st6" d="M187.8,335c0,0-1.6-7.5,2-10.5c6-5,11.1-7.3,15.5-9.4c5-2.5,10.3-5.4,10.3-5.4l30.9,5.7
		c0,0,16.5,26.3,16.1,32.8c-0.2,3.9-1.8,7.6-4.5,10.5c-1.2,7.1-0.4,14.4,2.3,21.1c3.7,9.2,10.2,22.4,10.2,22.4s-35.4-5.7-52.1,2.5
		c-9,4.4-9.8,11.4-9.8,11.4l-1.3-38.5l0,0l-6.9-23.6L187.8,335z"/>
	<path class="st3" d="M211.2,362.4c0,0-0.2-0.1-0.5-0.1s-0.8-0.1-1.4-0.2c-1.2-0.2-2.9-0.4-5.1-0.6c-4.3-0.5-10.3-1.1-16.8-1.7
		l-1.1-0.1l-0.6-0.1l0.5-0.4c2.5-2,4.8-3.8,7-5.5c2-1.4,4.3-2.4,6.6-2.9c1.6-0.3,3.2-0.4,4.9-0.3c0.4,0,0.9,0.1,1.3,0.2
		c0.2,0,0.3,0.1,0.4,0.1c-2.2-0.2-4.4-0.1-6.6,0.4c-2.3,0.5-4.5,1.6-6.4,3l-7,5.6l-0.1-0.4l1.1,0.1c6.6,0.6,12.5,1.3,16.8,1.9
		C208.6,361.6,211.3,362.1,211.2,362.4z"/>
	<path class="st3" d="M174.7,360c0.4-0.5,0.8-0.9,1.4-1.2c1.3-0.8,2.7-1.3,4.3-1.4c1.5-0.1,3,0.2,4.4,0.9c0.6,0.2,1.1,0.6,1.5,1.1
		c-0.1,0.1-0.6-0.3-1.6-0.8c-1.3-0.5-2.8-0.8-4.2-0.7c-1.4,0.1-2.8,0.5-4.1,1.2C175.3,359.6,174.7,360,174.7,360z"/>
	<path class="st3" d="M207,338.9c-0.1,0-0.4-1.3-1.1-3.2c-0.9-2.6-2.3-4.9-4.1-7c-1-1.1-2.2-2-3.5-2.8l-0.9-0.4
		c-0.3-0.1-0.6-0.2-0.9-0.3c-0.5-0.2-1.1-0.3-1.6-0.4c-0.8-0.1-1.6-0.2-2.5-0.2c-0.3,0-0.6,0-0.9,0c0.3-0.1,0.6-0.1,0.9-0.2
		c1.4-0.2,2.9,0,4.3,0.4c0.3,0.1,0.6,0.2,0.9,0.3l1,0.5c1.4,0.7,2.6,1.7,3.6,2.8c1.8,2.1,3.2,4.6,4.1,7.3c0.3,0.8,0.5,1.6,0.7,2.4
		C207,338.3,207,338.6,207,338.9z"/>
	<path class="st3" d="M257.1,359.8c0,0,0.4-0.5,1.1-1.3c1-1.2,1.7-2.6,2.3-4c0.8-2.1,1.3-4.4,1.2-6.7c-0.1-2.8-0.9-5.6-2.5-7.9
		c-1.6-2.4-3.3-4.6-5.2-6.7c-1.5-1.8-2.9-3.7-3.9-5.8c-0.7-1.4-1.2-2.9-1.4-4.5c-0.1-0.4-0.1-0.9-0.1-1.3c0-0.1,0-0.3,0-0.5
		c0,0,0,0.6,0.2,1.7c0.3,1.5,0.8,3,1.6,4.4c1.1,2,2.5,3.9,4,5.7c1.9,2.1,3.7,4.4,5.2,6.8c1.6,2.5,2.4,5.3,2.5,8.2
		c0.1,2.4-0.4,4.7-1.3,6.9c-0.6,1.5-1.4,2.8-2.5,4c-0.3,0.3-0.6,0.6-0.9,0.9C257.4,359.6,257.2,359.7,257.1,359.8z"/>
	<g class="st8">
		<path d="M203.4,361c-0.7-2.3,0.6-4.8,2.8-5.6c1.2-0.3,2.5-0.4,3.7-0.5c0.8-0.1,1.6-0.5,1.8-1.3c0.2-1-0.8-1.7-1.7-2.1
			c-3.7-1.6-7.9-1.7-11.7-0.3c2.1,2.8,3.4,6.2,3.6,9.7"/>
	</g>
	<g class="st8">
		<path d="M250.1,326.8c-1.6-3.2,4.2,5.8,6.9,8.1c2.8,2.2,5.4,4.7,7.8,7.4c2.2,2.8,3.9,5.9,3.6,9.4l-6.4-2.3c0,0,0.8-5.2-2-9
			S250.8,328,250.1,326.8z"/>
	</g>
	<g class="st8">
		<path d="M186.2,359c-1.8-1.9-4.5-2.7-7.1-3c-1.6-0.2-3.2-0.1-4.7,0.3c-1.5,0.5-2.8,1.6-3.3,3.2c-0.2,0.5-0.1,1,0.1,1.4
			c0.4,0.4,0.9,0.5,1.5,0.3c0.5-0.2,1-0.5,1.4-0.8c3.5-2.5,8-3,12-1.3"/>
	</g>
	<path class="st3" d="M196.7,334.5c0,1.2-0.9,2.1-2.1,2.1c-1.2,0-2.1-0.9-2.1-2.1c0-1.2,0.9-2.1,2.1-2.1c0,0,0,0,0,0
		C195.8,332.3,196.7,333.3,196.7,334.5C196.7,334.5,196.7,334.5,196.7,334.5z"/>
	<path class="st3" d="M208.1,320.5c0,1.2-0.9,2.1-2.1,2.1s-2.1-0.9-2.1-2.1c0-1.2,0.9-2.1,2.1-2.1S208.1,319.4,208.1,320.5
		L208.1,320.5z"/>
	<path class="st3" d="M230.1,321.4c0,1.2-0.9,2.1-2.1,2.1s-2.1-0.9-2.1-2.1s0.9-2.1,2.1-2.1c0,0,0,0,0,0
		C229.2,319.3,230.1,320.2,230.1,321.4L230.1,321.4z"/>
	<path class="st3" d="M247.2,320.1c0,1.2-0.9,2.1-2.1,2.1s-2.1-0.9-2.1-2.1c0-1.2,0.9-2.1,2.1-2.1S247.2,318.9,247.2,320.1
		L247.2,320.1z"/>
	<path class="st3" d="M275.4,345c0,1.2-0.9,2.1-2.1,2.1c-1.2,0-2.1-0.9-2.1-2.1s0.9-2.1,2.1-2.1c0,0,0,0,0,0
		C274.4,342.9,275.4,343.9,275.4,345C275.4,345,275.4,345,275.4,345z"/>
	<path class="st3" d="M258.2,342.9c0,1.2-0.9,2.1-2.1,2.1s-2.1-0.9-2.1-2.1s0.9-2.1,2.1-2.1c0,0,0,0,0,0
		C257.2,340.8,258.2,341.8,258.2,342.9C258.2,342.9,258.2,342.9,258.2,342.9z"/>
	<path class="st3" d="M261.8,328.9c0,1.2-0.9,2.1-2.1,2.1c-1.2,0-2.1-0.9-2.1-2.1c0-1.2,0.9-2.1,2.1-2.1c0,0,0,0,0,0
		C260.9,326.8,261.8,327.8,261.8,328.9C261.8,328.9,261.8,328.9,261.8,328.9z"/>
	<circle class="st3" cx="285.5" cy="334.7" r="2.1"/>
	<path class="st3" d="M302.2,336.6c0,1.2-0.9,2.1-2.1,2.1c-1.2,0-2.1-0.9-2.1-2.1c0-1.2,0.9-2.1,2.1-2.1c0,0,0,0,0,0
		C301.2,334.5,302.2,335.4,302.2,336.6z"/>
	<path class="st3" d="M249.4,359.1c0,1.2-0.9,2.1-2.1,2.1c-1.2,0-2.1-0.9-2.1-2.1s0.9-2.1,2.1-2.1c0,0,0,0,0,0
		C248.4,357,249.4,357.9,249.4,359.1C249.4,359.1,249.4,359.1,249.4,359.1z"/>
	<path class="st3" d="M257,371.1c0,1.2-0.9,2.1-2.1,2.1s-2.1-0.9-2.1-2.1s0.9-2.1,2.1-2.1c0,0,0,0,0,0C256,369,257,369.9,257,371.1
		C257,371.1,257,371.1,257,371.1z"/>
	<path class="st3" d="M241.3,379.1c0,1.2-0.9,2.1-2.1,2.1c-1.2,0-2.1-0.9-2.1-2.1s0.9-2.1,2.1-2.1c0,0,0,0,0,0
		C240.3,377,241.3,377.9,241.3,379.1C241.3,379.1,241.3,379.1,241.3,379.1z"/>
	<path class="st3" d="M231.1,392.3c0,1.2-0.9,2.1-2.1,2.1c-1.2,0-2.1-0.9-2.1-2.1c0-1.2,0.9-2.1,2.1-2.1c0,0,0,0,0,0
		C230.2,390.2,231.1,391.2,231.1,392.3L231.1,392.3z"/>
	<path class="st3" d="M256.1,390.1c0,1.2-0.9,2.1-2.1,2.1c-1.2,0-2.1-0.9-2.1-2.1s0.9-2.1,2.1-2.1c0,0,0,0,0.1,0
		C255.1,388,256.1,389,256.1,390.1z"/>
	<path class="st3" d="M215.2,402c0,1.2-0.9,2.1-2.1,2.1c-1.2,0-2.1-0.9-2.1-2.1c0-1.2,0.9-2.1,2.1-2.1c0,0,0,0,0,0
		C214.3,399.9,215.2,400.8,215.2,402C215.2,402,215.2,402,215.2,402z"/>
	<path class="st3" d="M224,369c0,1.2-0.9,2.1-2.1,2.1c-1.2,0-2.1-0.9-2.1-2.1c0-1.2,0.9-2.1,2.1-2.1c0,0,0,0,0,0
		C223.1,366.9,224,367.8,224,369C224,369,224,369,224,369z"/>
	<path class="st3" d="M216.9,384.3c0,1.2-0.9,2.1-2.1,2.1s-2.1-0.9-2.1-2.1c0-1.2,0.9-2.1,2.1-2.1S216.9,383.2,216.9,384.3
		L216.9,384.3z"/>
	<path class="st3" d="M242.6,337.4c0,1.2-0.9,2.1-2.1,2.1c-1.2,0-2.1-0.9-2.1-2.1c0-1.2,0.9-2.1,2.1-2.1c0,0,0,0,0,0
		C241.7,335.3,242.6,336.2,242.6,337.4C242.6,337.4,242.6,337.4,242.6,337.4z"/>
	<path class="st3" d="M229.5,354.2c0,1.2-0.9,2.1-2.1,2.1s-2.1-0.9-2.1-2.1c0-1.2,0.9-2.1,2.1-2.1
		C228.5,352.1,229.5,353,229.5,354.2C229.5,354.2,229.5,354.2,229.5,354.2z"/>
	<path class="st3" d="M216.9,340.8c0,1.2-0.9,2.1-2.1,2.1s-2.1-0.9-2.1-2.1s0.9-2.1,2.1-2.1S216.9,339.7,216.9,340.8L216.9,340.8z"
		/>
	<path class="st3" d="M165,373.4c0,1.2-0.9,2.1-2.1,2.1c-1.2,0-2.1-0.9-2.1-2.1s0.9-2.1,2.1-2.1c0,0,0,0,0,0
		C164,371.3,165,372.3,165,373.4z"/>
	<path class="st3" d="M174.8,346.8c0,1.2-0.9,2.1-2.1,2.1c-1.2,0-2.1-0.9-2.1-2.1s0.9-2.1,2.1-2.1c0,0,0,0,0,0
		C173.8,344.7,174.8,345.6,174.8,346.8C174.8,346.8,174.8,346.8,174.8,346.8z"/>
	<path class="st3" d="M193.5,376.4c0,1.2-0.9,2.1-2.1,2.1c-1.2,0-2.1-0.9-2.1-2.1s0.9-2.1,2.1-2.1c0,0,0,0,0,0
		C192.5,374.3,193.5,375.2,193.5,376.4z"/>
	<path class="st3" d="M206.3,366.6c0,1.2-0.9,2.1-2.1,2.1c-1.2,0-2.1-0.9-2.1-2.1c0-1.2,0.9-2.1,2.1-2.1c0,0,0,0,0,0
		C205.4,364.5,206.3,365.4,206.3,366.6z"/>
	<path class="st3" d="M180.7,364.3c0,1.2-0.9,2.1-2.1,2.1c-1.2,0-2.1-0.9-2.1-2.1s0.9-2.1,2.1-2.1c0,0,0,0,0,0
		C179.8,362.2,180.7,363.1,180.7,364.3C180.7,364.3,180.7,364.3,180.7,364.3z"/>
	<path class="st3" d="M191.6,350.4c0,1.2-0.9,2.1-2.1,2.1c-1.2,0-2.1-0.9-2.1-2.1c0-1.2,0.9-2.1,2.1-2.1c0,0,0,0,0,0
		C190.7,348.3,191.6,349.2,191.6,350.4C191.7,350.4,191.7,350.4,191.6,350.4z"/>
	<path class="st0" d="M182.8,471.9c-4.3,0-8.7-0.5-12.9-1.4c-8.8-1.9-15.7-4.8-21-8.7c-6.6,2.3-13.5,3.5-20.4,3.7
		c-22.7,0.6-43.2-6.5-68.4-26.9c-1.3-2.7-2.5-5.6-3.7-8.6c24.2,19.6,50.5,31,71.9,30.5c5.5-0.1,10.9-1,16.2-2.6
		c-5.9-6.1-8.8-14.1-8.8-23.8c0-10.6,4.6-15.4,8.3-17.6c5.4-3.1,12.7-2.6,19.1,1.1c7.1,4.1,11.3,11.1,11.3,18.7
		c-0.1,6.3-3.1,12.2-8.1,16c-3.7,2.8-7.7,5.2-11.9,7.1c12.1,6.6,26.1,8.8,39.6,6.2c21.3-4.2,39.1-11.8,52.9-22.5
		c21.9-16.8,34.4-43.2,33.5-70.8v-0.1c-1.2-24.6-15.6-48.7-36.7-61.4c-18.3-11-41.7-14-65.9-8.5c-15.1,3.4-35.5,11.5-47.6,30.8
		c-13,20.7-9.5,46.4,1.3,58.4c7.6,8.5,22.3,5.5,34.1,3l3.9-0.8c12.7-2.5,64.1-26.6,64.3-26.7l1.1,4.1c-0.8,0.3-51.4,24.9-64.4,27.5
		c-1.2,0.2-2.5,0.5-3.8,0.8c-13,2.7-29.3,6.1-38.8-4.5c-6.9-7.7-10.8-18.9-10.8-31.4c-0.1-11.6,3.1-23,9.1-33
		c13-20.7,34.8-29.3,50.7-33c25.5-5.8,50.2-2.6,69.5,9c22.4,13.5,37.7,39.2,39.1,65.4c0.1,1.3,1.5,20.5-8.8,42.1
		c-6.1,13-15.3,24.3-26.7,33c-14.4,11.2-32.9,19-55,23.4C190.9,471.5,186.9,471.9,182.8,471.9z M152.1,419.6c-1.9,0-3.9,0.4-5.6,1.4
		c-3.8,2.2-5.8,6.8-5.8,13.3c0,9.3,2.9,16.5,9,21.9c4.9-1.9,9.4-4.5,13.6-7.7c3.8-2.9,6-7.3,6.1-12c0-5.8-3.3-11.1-8.8-14.4
		C158,420.5,155.1,419.7,152.1,419.6z"/>
	<path class="st3" d="M152.8,464.4c-0.7-0.2-1.3-0.5-1.9-0.9c-1.4-0.9-2.8-1.9-4.1-3c-1.3-1.1-2.5-2.2-3.6-3.5
		c-0.5-0.5-0.9-1.1-1.2-1.7c0.1,0,0.5,0.6,1.4,1.5s2.2,2.1,3.7,3.4s2.9,2.3,3.9,3.1C151.7,463.6,152.3,464,152.8,464.4z"/>
	<path class="st3" d="M158.1,461.5c-0.8,0-1.5-0.2-2.3-0.6c-1.7-0.7-3.4-1.7-4.8-2.9c-1.5-1.2-2.8-2.5-3.9-4c-0.5-0.6-0.9-1.3-1.2-2
		c0.1,0,0.6,0.7,1.5,1.8c1.2,1.4,2.6,2.7,4,3.8c1.4,1.2,3,2.1,4.6,2.9C157.2,461.2,158.1,461.4,158.1,461.5z"/>
	<path class="st2" d="M138.1,444.3c-0.2-0.2-0.3-0.5-0.3-0.8c-0.2-0.8-0.4-1.5-0.6-2.3c-1-5.2-0.6-10.5,1.1-15.4
		c0.3-0.7,0.6-1.5,0.9-2.2c0.1-0.3,0.2-0.5,0.4-0.8c0.1,0-0.4,1.2-1,3.1c-0.7,2.5-1.2,5-1.4,7.6c-0.2,2.6-0.1,5.1,0.3,7.7
		C137.9,443.1,138.2,444.3,138.1,444.3z"/>
	<path class="st2" d="M125.7,462.2c-0.8,0.3-1.6,0.4-2.4,0.4c-3.9,0.3-7.9-0.2-11.6-1.6c-0.8-0.3-1.5-0.6-2.2-1.1
		c0.8,0.2,1.6,0.4,2.3,0.7c1.8,0.6,3.7,1,5.7,1.3c1.9,0.3,3.9,0.4,5.8,0.3C124,462.2,124.8,462.1,125.7,462.2z"/>
	<path class="st2" d="M263.5,429c-0.4,0.8-0.9,1.5-1.5,2.2c-2.6,3.4-5.5,6.4-8.8,9c-0.7,0.6-1.4,1.1-2.1,1.5
		c0.6-0.6,1.2-1.2,1.9-1.7c1.2-1.1,2.8-2.6,4.5-4.3c1.7-1.8,3.2-3.4,4.2-4.7C262.3,430.3,262.9,429.6,263.5,429z"/>
	<path class="st2" d="M120.9,378.1c-0.2-0.4-0.4-0.9-0.5-1.3c-0.4-1.2-0.7-2.5-1-3.7c-0.4-1.9-0.8-3.8-1-5.7
		c-0.5-4.7-0.4-9.4,0.4-14c0.3-1.9,0.7-3.8,1.3-5.6c0.4-1.2,0.8-2.5,1.3-3.7c0.1-0.5,0.3-0.9,0.6-1.3c-0.1,0.5-0.2,0.9-0.4,1.4
		c-0.3,0.9-0.7,2.1-1.1,3.7c-0.5,1.8-0.9,3.7-1.2,5.6c-0.3,2.3-0.6,4.7-0.6,7c-0.1,2.3,0,4.7,0.3,7c0.2,1.9,0.5,3.8,0.9,5.6
		c0.3,1.6,0.6,2.9,0.9,3.7C120.7,377.2,120.8,377.6,120.9,378.1z"/>
	<path class="st2" d="M126.9,333.2c-0.2,1-0.7,1.9-1.2,2.7c-0.4,0.9-1,1.7-1.7,2.4c0.3-1,0.7-1.9,1.2-2.7
		C125.7,334.7,126.3,333.9,126.9,333.2z"/>
	<path class="st3" d="M248,289.1c-1.2,1.9-0.2,4.4,1.2,6.2c1.3,1.8,3,3.5,3.3,5.8c0.4,3.1-2.2,5.7-5,7c-0.9,0.3-1.7,0.8-2.4,1.5
		c-0.8,1.1-0.5,2.6-0.5,3.9c0,2.3-1.3,4.4-3.3,5.6c-2.1,1.1-4.6,0.7-6.3-1c-0.8-1-1.4-2.3-1.6-3.6c-1.1-5,0.2-10.3,3.6-14.2
		c1.7-1.9,3.8-3.3,5.7-5s3.5-3.9,3.6-6.4"/>
	<path class="st3" d="M247.7,266.3c-1.4-3.6-5-5.8-8.7-7.1c-5.2-2-11-2.1-16.3-0.4c-7.6,2.8-12.7,9.9-16.7,16.9
		c-1.7,3.1-3.6,6.5-7,7.5c-1.8,0.5-3.7,0.3-5.6,0.5c-2.9,0.3-5.6,1.8-7.5,4c-2.2,2.7-3.4,6.6-6.6,8.1c-2.1,0.9-4.5,0.5-6.7,0.6
		c-4.7,0.1-9.7,3-10.8,7.6c-0.7,3,0.4,6.4-1,9.1c-0.5,1-1.3,1.8-1.8,2.9c-1.2,2.6-0.1,5.7,2.5,6.9c1.6,0.8,3.6,0.6,5.1-0.4
		c0.6-0.5,1.3-1,2.1-1.4c1.6-0.7,3.5,0.2,4.9,1.3s2.8,2.4,4.6,2.6c3.6,0.4,6.4-4,10.1-3.7c2,0.1,3.6,1.7,5.4,2.7
		c3.1,1.8,4.6,0.2,7.2-2.3c2.6-2.4,4,7.9,10,5.2c5.6-2.5,0.1-12.1,2.1-11.8c2,0.2,7.4-0.1,8.5-1.8"/>
	<path class="st3" d="M248.4,277c1.5-4.1,0.9-8.7-1.6-12.3c-2-2.6-4.6-4.6-7.6-5.8c-4-1.8-8.5-2.3-12.8-1.2
		c-4.2,1.2-7.9,4.6-8.8,8.8c-0.4,1.9-0.3,4-1.1,5.8c-0.5,0.7-0.8,1.5-0.8,2.4c0.2,0.8,0.8,1.4,1.6,1.5c0.8,0.1,1.6,0.1,2.3-0.2
		c2.5-0.9,4.9-2.2,7-3.9"/>
	<path class="st11" d="M234.4,314.7c0.5-3.7,0.6-5.2,0.6-5.2s7.9-0.4,10.7-10.4c1.4-5,2.1-13.3,2.4-20.1c0.3-6.1-2.9-14.1-9-14.1
		l-19.5,2.6c-1.9,0-3.4,1.4-3.6,3.3l-3.1,44.4c0,0,8.8,10.4,16.4,9S234.4,314.7,234.4,314.7z"/>
	<path class="st3" d="M244.9,285.9c-0.1,0.7-0.7,1.2-1.4,1.2c-0.7,0-1.2-0.6-1.2-1.3c0,0,0,0,0,0c0.1-0.7,0.7-1.2,1.4-1.2
		C244.4,284.6,245,285.2,244.9,285.9C244.9,285.9,244.9,285.9,244.9,285.9z"/>
	<path class="st3" d="M245.9,283.2c-0.2,0.2-1.1-0.7-2.5-0.8c-1.4-0.2-2.5,0.4-2.6,0.2s0.1-0.4,0.6-0.6c0.7-0.3,1.4-0.5,2.1-0.4
		c0.7,0.1,1.4,0.4,1.9,0.9C245.9,282.8,246,283.1,245.9,283.2z"/>
	<path class="st3" d="M232.1,284.6c-0.1,0.7-0.7,1.2-1.4,1.2c-0.7,0-1.2-0.6-1.2-1.3c0,0,0,0,0,0c0.1-0.7,0.7-1.2,1.4-1.2
		C231.6,283.3,232.2,283.8,232.1,284.6C232.1,284.5,232.1,284.6,232.1,284.6z"/>
	<path class="st3" d="M232.1,281.9c-0.2,0.2-1.1-0.7-2.5-0.8c-1.4-0.2-2.5,0.4-2.6,0.2s0.1-0.4,0.6-0.6c0.7-0.3,1.4-0.5,2.1-0.4
		c0.7,0.1,1.4,0.4,2,0.9C232.1,281.5,232.2,281.8,232.1,281.9z"/>
	<path class="st3" d="M236,292.8c0.8-0.2,1.5-0.2,2.3-0.2c0.4,0,0.7,0,0.8-0.3c0.1-0.4,0-0.7-0.1-1.1c-0.2-0.9-0.5-1.9-0.8-2.9
		c-0.7-2.4-1.2-4.9-1.6-7.4c0.2,0,1.1,3.2,2.2,7.3c0.3,1,0.5,1.9,0.7,2.9c0.2,0.5,0.2,1,0,1.4c-0.1,0.2-0.4,0.4-0.6,0.5
		c-0.2,0-0.4,0-0.6,0C237.5,293.1,236.8,293,236,292.8z"/>
	<path class="st12" d="M235.1,309.5c-4.8-0.5-9.4-2.3-13.2-5.2c0,0,2.6,7.4,12.9,7.6L235.1,309.5z"/>
	<path class="st12" d="M235,296.1c-0.5-0.7-1.3-1.2-2.1-1.2c-0.6,0-1.2,0.2-1.7,0.7c-0.4,0.4-0.6,1.1-0.3,1.6
		c0.4,0.6,1.1,0.8,1.8,0.7c0.7-0.2,1.3-0.5,1.9-0.9c0.2-0.1,0.3-0.2,0.4-0.4C235.1,296.6,235.1,296.4,235,296.1"/>
	<path class="st3" d="M232.8,276.8c-0.2,0.4-1.6,0-3.2,0s-3,0.3-3.2-0.1c-0.1-0.2,0.2-0.5,0.8-0.8c1.6-0.8,3.4-0.8,4.9,0
		C232.6,276.3,232.8,276.6,232.8,276.8z"/>
	<path class="st3" d="M246.2,277c-0.3,0.3-1.2-0.1-2.4-0.3c-1.2-0.2-2.2,0-2.4-0.4c-0.1-0.2,0.1-0.5,0.6-0.7
		c1.3-0.6,2.8-0.4,3.8,0.6C246.2,276.5,246.3,276.9,246.2,277z"/>
	<path class="st11" d="M217,288.2c0.1-0.8-0.6-2.6-1.3-2.8c-2-0.5-5.6-0.8-6.2,4.3c-0.8,6.9,6.3,6.3,6.3,6.1S216.7,290.8,217,288.2z
		"/>
	<path class="st12" d="M214,292.9c0,0-0.1,0.1-0.4,0.1c-0.3,0.1-0.6,0.1-0.9-0.1c-0.8-0.7-1.2-1.8-1.1-2.8c0.1-0.6,0.2-1.2,0.6-1.7
		c0.2-0.4,0.6-0.7,1-0.8c0.3,0,0.6,0.1,0.7,0.4c0.1,0.2,0,0.3,0,0.4s0.2-0.1,0.1-0.4c0-0.2-0.1-0.3-0.2-0.5
		c-0.2-0.2-0.4-0.3-0.6-0.3c-0.6,0-1.1,0.4-1.4,0.9c-0.4,0.6-0.6,1.2-0.6,1.9c-0.1,1.4,0.4,2.8,1.4,3.2c0.4,0.2,0.8,0.1,1.1-0.1
		C214,293,214,292.9,214,292.9z"/>
	<path class="st3" d="M240.3,263.9c-1,3.3-3.7,5.9-7.1,6.6c-1.8,0.4-3.9,0.3-5.1,1.7s-0.8,3.7-1.9,5.2c-1.6,2.1-5.3,1.6-6.5,3.9
		c-0.5,1-0.4,2.2-1,3.2c-0.9,1.3-2.6,1.8-4,1.1c-1.4-0.7-2.4-1.9-2.7-3.4c-0.3-1.5-0.5-3-0.3-4.5c0-3,0.5-5.9,1.6-8.7
		c2.4-5.7,11.7-13,17.8-12"/>
	<path class="st3" d="M247.2,291.2c1.6-1.9,3.1-4,4.7-5.8s3.1-3.7,3.2-6c0-2-0.6-3.9-1.7-5.5c-2-3.2-4.2-6.2-6.6-9
		c-0.5-0.7-1.1-1.3-1.9-1.8c-0.6-0.4-1.3-0.6-2.1-0.7c-0.6-0.1-1.2,0.1-1.7,0.4c-0.5,0.4-0.7,1-0.5,1.6c0.3,0.5,0.8,0.8,1.3,1
		c2.9,1.5,4.7,4.5,5.6,7.6s0.6,6.1,0.5,9.4c-0.1,2.5-0.4,5.2-0.7,7.5"/>
	<path class="st3" d="M231,257.3c-7.4-0.9-14.7,2.2-19.2,8.1c-2.4,3.2-4.2,7.5-8,8.8c-3.1,1.1-6.6-0.1-9.9,0.5
		c-3,0.5-5.5,2.5-6.7,5.3c-0.9,2.2-1,4.8-2.7,6.5c-2.1,2.3-6,2-8.2,4.3c-1.8,1.8-1.9,4.8-1.1,7.3c0.2,1.1,0.8,2,1.7,2.6
		c0.9,0.4,1.8,0.4,2.7,0.2c3.1-0.7,6.1-1.9,8.9-3.5c6.4-3.4,12.5-7.3,18.6-11.1c2.9-1.7,5.6-3.7,8-6.1c3-3.3,4.8-7.4,6.9-11.3
		s4.8-7.8,8.8-9.6"/>
	<path class="st6" d="M162.3,323.2c-0.1,0-0.2,0-0.3-0.1c-0.3-0.1-0.5-0.2-0.8-0.4c-0.9-0.6-1.6-1.6-1.9-2.6
		c-0.5-1.7-0.3-3.6,0.6-5.1c1.3-1.9,3.2-3.4,5.4-4.1c2.7-0.8,5.4-1.4,8.1-1.8c1.5-0.3,3-0.7,4.4-1.3c3.1-1.2,5.3-4.2,5.5-7.5
		c0.2-1.8,0.5-3.6,0.9-5.3c1.1-3.7,3.8-6.8,7.4-8.4c1.8-0.8,3.7-1.2,5.7-1.2c1.9,0,3.8,0.3,5.6,0.5c1.8,0.2,3.5,0,5.2-0.6
		c0.8-0.3,1.5-0.7,2.1-1.3c0.6-0.6,1.1-1.3,1.5-2c0.8-1.4,1.3-3,2.2-4.4c0.9-1.3,2-2.5,3.3-3.3c2.4-1.4,5-2.4,7.8-3
		c2.2-0.5,4.4-1.2,6.5-2c1.6-0.6,3.1-1.5,4.4-2.6c0.8-0.7,1.5-1.5,2.1-2.5c0.4-0.6,0.5-1,0.5-1c-0.1,0.3-0.3,0.7-0.4,1
		c-0.5,1-1.2,1.8-2,2.6c-1.3,1.1-2.8,2-4.4,2.7c-2.1,0.8-4.3,1.5-6.6,2c-2.7,0.6-5.2,1.6-7.6,3c-1.3,0.8-2.4,1.9-3.2,3.2
		c-0.8,1.3-1.3,2.9-2.1,4.4c-0.4,0.8-0.9,1.5-1.6,2.1c-0.7,0.6-1.4,1.1-2.3,1.4c-1.7,0.6-3.6,0.8-5.4,0.6c-1.8-0.1-3.7-0.4-5.5-0.5
		c-1.9,0-3.7,0.4-5.4,1.2c-3.4,1.6-6,4.5-7.1,8.1c-0.4,1.7-0.7,3.5-0.9,5.3c-0.2,1.8-0.8,3.4-1.8,4.9c-1.1,1.3-2.4,2.3-3.9,3
		c-1.4,0.6-2.9,1.1-4.5,1.4c-2.7,0.4-5.4,0.9-8.1,1.7c-2.2,0.7-4,2.1-5.3,4c-0.9,1.5-1.2,3.2-0.7,4.9c0.3,1,0.9,2,1.8,2.6
		C161.7,322.8,162,323,162.3,323.2z"/>
	<path class="st6" d="M162.9,301.9c0.2-0.3,0.4-0.5,0.7-0.7c0.8-0.5,1.7-0.8,2.7-0.8c1.5,0,3,0.2,4.4,0.7c0.9,0.3,1.8,0.5,2.7,0.6
		c1,0.2,2,0.1,3-0.3c1-0.4,1.9-1.1,2.6-2.1c0.7-1,1.3-2.1,1.7-3.2c0.4-1.2,0.8-2.5,1.2-3.8c0.5-1.3,1-2.6,1.7-3.9
		c1.4-2.7,3.6-5,6.4-6.4c1.5-0.7,3.1-1,4.7-1c1.6,0,3.3,0.1,4.9-0.1c1.6-0.1,3.1-0.7,4.3-1.7c1.1-1.1,2-2.4,2.6-3.9
		c0.6-1.4,1.4-2.8,2.4-4c1-1.1,2.2-2.1,3.5-2.8c2.5-1.2,5.2-1.8,7.9-2c2.6-0.3,4.9-0.3,7.1-0.6c1.9-0.2,3.8-0.8,5.6-1.6
		c1.3-0.6,2.5-1.5,3.6-2.5c0.6-0.7,1.2-1.4,1.6-2.3c0.3-0.6,0.4-0.9,0.4-0.9c-0.1,0.3-0.2,0.6-0.3,0.9c-0.4,0.9-0.9,1.7-1.5,2.3
		c-1,1.1-2.2,2-3.6,2.6c-1.8,0.9-3.7,1.4-5.6,1.7c-2.2,0.3-4.6,0.4-7.1,0.7c-2.7,0.2-5.3,0.9-7.8,2c-1.3,0.6-2.4,1.5-3.4,2.6
		c-0.9,1.2-1.7,2.5-2.3,3.9c-0.6,1.5-1.6,2.8-2.7,4c-1.3,1.1-2.9,1.8-4.6,1.8c-1.7,0.2-3.3,0-4.9,0.1c-1.6,0-3.1,0.3-4.5,0.9
		c-2.6,1.4-4.8,3.5-6.2,6.2c-0.7,1.2-1.2,2.5-1.7,3.8c-0.5,1.3-0.8,2.6-1.2,3.8c-0.8,2.4-2.3,4.6-4.5,5.5c-1,0.4-2.1,0.5-3.1,0.3
		c-0.9-0.1-1.8-0.4-2.7-0.6c-1.4-0.5-2.8-0.8-4.3-0.8c-0.9,0-1.8,0.2-2.6,0.7C163.1,301.7,162.9,302,162.9,301.9z"/>
	<path class="st6" d="M193.4,323c0,0,0.2,0,0.4-0.2c0.4-0.2,0.6-0.6,0.8-1c0.2-0.7,0.1-1.4-0.3-2c-0.6-0.7-1.3-1.3-2.2-1.7
		c-1.1-0.4-2.1-1-3-1.8c-1-1-1.6-2.3-1.7-3.7c-0.1-1.5,0.2-3,0.9-4.4c0.8-1.4,2-2.6,3.3-3.4c2.7-1.5,5.6-2.5,8.7-2.9
		c2.4-0.4,4.8-1,7.2-1.8c1.6-0.6,3-1.5,4.2-2.6c0.9-0.8,1.2-1.4,1.2-1.4s-0.1,0.1-0.2,0.4c-0.3,0.4-0.5,0.7-0.9,1.1
		c-1.2,1.2-2.6,2.2-4.2,2.8c-2.3,0.9-4.7,1.5-7.2,1.9c-2.7,0.5-5.8,1.1-8.5,2.9c-1.3,0.8-2.4,1.9-3.2,3.3c-0.7,1.3-1,2.7-0.9,4.1
		c0.1,1.3,0.6,2.5,1.5,3.4c0.9,0.7,1.8,1.3,2.9,1.7c0.9,0.4,1.7,1,2.3,1.8c0.4,0.6,0.5,1.4,0.3,2.2c-0.2,0.4-0.5,0.8-0.9,1
		C193.7,322.9,193.5,323,193.4,323z"/>
	<path class="st11" d="M205.9,375.2c0,0-1.1-1.3-0.8-2.4s1.1-2,1.4-1.9c0.3,0.1,0.2-6.3,1.4-6.7c0.8-0.3,1.6-0.6,2.5-0.8
		c0,0,1.4-3.5,2.1-3.4c0.8,0.1,9.3,1.6,9.3,1.6s6.7,7.2,6.4,7.9c-0.4,0.7-0.8,1.4-1.8,1.1c-0.7-0.3-1.4-0.6-2.1-1.1l3.6,3.9
		c0,0-0.7,3-3.6,0.9l1.4,1.8c0,0-0.9,3.8-5.1,0.6l-4.3-2.6h-2.8l6.4,3.9c0,0,0.7,1.9-1.3,1.9s-6.8-2.6-6.8-2.6s-2.9,1.7-3.9,1.7
		s-1.2-1.1-1.2-1.1L205.9,375.2z"/>
	<path class="st12" d="M224.4,374.5c-0.5-0.4-1-0.8-1.5-1.3c-1.2-1-2.4-2-3.5-3.2c-0.6-0.6-1.3-1-2.2-1c-0.7,0-1.4,0-2.1,0.1
		c-0.7,0.1-1.4,0.1-2-0.1c0-0.1,0.8,0,1.9-0.3c0.7-0.2,1.4-0.2,2.2-0.3c0.4,0,0.9,0.1,1.3,0.3c0.4,0.2,0.9,0.5,1.2,0.8
		c1.2,1.4,2.5,2.4,3.4,3.3C223.6,373.4,224,373.9,224.4,374.5z"/>
	<path class="st12" d="M227.8,373.4c-0.6-0.5-1.2-1.1-1.8-1.7c-1.1-1.1-2.5-2.6-4.1-4.2c-0.8-0.8-1.6-1.6-2.4-2.2
		c-0.7-0.5-1.5-0.8-2.4-0.9c-1.5-0.1-2.4,0-2.4,0c0.2-0.1,0.4-0.1,0.6-0.2c0.6-0.1,1.2-0.1,1.8-0.1c0.9,0,1.8,0.3,2.6,0.8
		c0.8,0.7,1.7,1.4,2.4,2.2c1.6,1.6,3.1,3.2,4,4.3C226.9,372.1,227.4,372.7,227.8,373.4z"/>
	<path class="st3" d="M230.9,294.1c0.3-0.1,0.9,0.8,1.8,1.7c0.9,0.9,1.8,1.5,1.7,1.8s-1.3,0-2.4-1.1S230.6,294.2,230.9,294.1z"/>
	<path class="st0" d="M304.7,374.3l-8.9-45.7c-0.4-1.8-2.3-3-4.1-2.6c-1.8,0.4-2.9,2.1-2.6,3.9l0.4,2.1l-18.4,4.5
		c-4,1-7.2,3.8-8.6,7.7l-11.1,2.7c-3.8,0.9-6.2,4.8-5.3,8.7l1,4l-10.9,2.7c-3,0.7-4.9,3.8-4.1,6.8c0.7,3,3.8,4.9,6.8,4.1l10.9-2.7
		l0.8,3.1c0.9,3.8,4.8,6.2,8.7,5.3l11.3-2.8V376c3,2.6,7.1,3.5,10.9,2.6l16.3-4l0.2,1c0.4,1.8,2.3,3,4.1,2.6
		C303.9,377.8,305,376.1,304.7,374.3L304.7,374.3z"/>
	<path class="st3" d="M304.7,374.3c0.1,0.3,0.1,0.5,0.1,0.8c0,0.8-0.3,1.5-0.8,2.1c-0.8,1-2.1,1.4-3.4,1.2c-1.2-0.3-2.2-1.2-2.6-2.4
		c-0.1-0.4-0.2-0.9-0.3-1.4l0.1,0.1l-12,3l-3.6,0.9c-1.3,0.4-2.6,0.5-3.9,0.5c-2.9-0.1-5.7-1.1-7.9-3l0.3-0.2v0.1l0,0.2h-0.2
		c-3.8,0.9-7.8,2-12.1,2.9c-2.3,0.3-4.6-0.5-6.3-2.2c-0.8-0.9-1.4-1.9-1.8-3.1c-0.3-1.1-0.6-2.3-0.9-3.4l0.3,0.2l-9.2,2.3
		c-0.8,0.2-1.5,0.4-2.4,0.5c-3.2,0.4-6.1-1.9-6.5-5.1c-0.2-1.3,0.1-2.6,0.8-3.7c0.9-1.5,2.5-2.6,4.3-2.9l10.2-2.5l-0.2,0.3
		c-0.2-0.8-0.4-1.7-0.6-2.6c-0.3-0.9-0.4-1.8-0.6-2.7c-0.1-1.9,0.5-3.8,1.7-5.3c0.6-0.7,1.3-1.3,2.1-1.8c0.8-0.4,1.7-0.7,2.6-0.9
		l10.3-2.5l-0.2,0.2c1-2.6,2.8-4.8,5.2-6.3c1.2-0.7,2.4-1.2,3.7-1.5l3.8-0.9l14.4-3.5l-0.2,0.3c-0.1-0.5-0.2-1.1-0.3-1.6
		c-0.1-0.6-0.2-1.1-0.1-1.7c0.3-2,2.2-3.3,4.2-3c0.4,0.1,0.7,0.2,1,0.3c1,0.5,1.7,1.4,2,2.5l2.2,11.3c1.4,7.1,2.5,13.3,3.5,18.4
		s1.7,9.1,2.3,11.9c0.3,1.4,0.4,2.4,0.6,3.1c0.1,0.4,0.1,0.6,0.1,0.8C304.7,374.1,304.7,374.2,304.7,374.3c0,0,0-0.1-0.1-0.2
		c0-0.2-0.1-0.5-0.2-0.8l-0.6-3.1c-0.5-2.8-1.4-6.8-2.4-11.9s-2.2-11.3-3.6-18.4c-0.7-3.5-1.4-7.3-2.2-11.3c-0.2-1-0.9-1.8-1.8-2.2
		c-1.6-0.8-3.5-0.1-4.3,1.5c-0.1,0.3-0.2,0.6-0.3,0.9c-0.1,0.5,0,1,0.1,1.6c0.1,0.5,0.2,1.1,0.3,1.6v0.2l-0.2,0.1l-14.4,3.6
		c-2.5,0.7-5.2,1-7.4,2.4c-2.3,1.4-4.1,3.6-5,6.1l0,0.1h-0.1l-10.3,2.5c-0.9,0.2-1.7,0.4-2.5,0.9c-0.8,0.4-1.4,1-2,1.6
		c-1.1,1.4-1.7,3.1-1.6,4.9c0.1,0.9,0.3,1.8,0.5,2.6c0.2,0.9,0.4,1.7,0.6,2.6l0.1,0.2l-0.2,0.1l-10.2,2.5c-1.7,0.2-3.1,1.2-4,2.7
		c-1.5,2.6-0.6,5.9,2,7.3c1,0.6,2.2,0.8,3.3,0.7c0.8-0.1,1.6-0.4,2.3-0.5l9.1-2.2l0.2,0l0.1,0.2c0.3,1.1,0.6,2.3,0.9,3.4
		c0.3,1.1,0.9,2.1,1.7,2.9c1.5,1.6,3.7,2.4,5.9,2.1c4.2-0.9,8.3-2,12.1-2.9l-0.1,0.2V376l-0.1-0.6l0.4,0.4c2.1,1.8,4.8,2.9,7.6,2.9
		c1.3,0,2.6-0.2,3.8-0.5l3.6-0.9l12-2.9h0.1v0.1c0.1,0.5,0.2,0.9,0.3,1.3c0.1,0.4,0.3,0.8,0.6,1.1c0.5,0.6,1.2,1,1.9,1.2
		c1.8,0.4,3.6-0.8,4-2.6c0-0.2,0.1-0.3,0.1-0.5C304.7,374.8,304.7,374.5,304.7,374.3z"/>
	<path class="st3" d="M298.2,374.5c-0.1,0-2.3-9.5-4.8-21.2s-4.5-21.3-4.3-21.3s2.3,9.5,4.8,21.2S298.3,374.5,298.2,374.5z"/>
	<path class="st3" d="M270.5,376c-0.1,0-2-7.1-4.3-15.9s-3.9-16-3.8-16s2,7.1,4.3,15.9C269,368.9,270.7,376,270.5,376z"/>
	<path class="st3" d="M249.8,370.5c-0.7-1.7-1.3-3.5-1.6-5.4c-0.5-1.8-0.8-3.7-1.1-5.5c0.7,1.7,1.3,3.6,1.6,5.4
		C249.2,366.8,249.6,368.7,249.8,370.5z"/>
	<path class="st2" d="M259.7,346.8c0,0.1-1.1,0.2-2.8,0.6c-0.9,0.2-1.9,0.4-3,0.7c-1.2,0.3-2.4,0.8-3.5,1.4c-1.1,0.5-2,1.4-2.4,2.5
		c-0.2,1-0.2,2-0.1,3c0.2,1.7,0.5,2.8,0.4,2.8c-0.4-0.9-0.7-1.8-0.8-2.8c-0.2-1-0.2-2.1,0-3.2c0.2-0.6,0.5-1.2,1-1.7
		c0.5-0.5,1-0.9,1.6-1.2c1.1-0.6,2.3-1.1,3.6-1.4c1.1-0.3,2.2-0.5,3-0.6C257.8,346.8,258.7,346.7,259.7,346.8z"/>
	<path class="st2" d="M286,334.7c-0.3,0.1-0.6,0.2-1,0.3c-0.6,0.1-1.5,0.4-2.6,0.6l-8.7,1.8c-1.6,0.3-3.1,0.9-4.5,1.6
		c-1.2,0.6-2.2,1.4-3,2.5c-0.7,1-1.2,2.1-1.5,3.3c-0.1-0.3,0-0.7,0.1-1c0.2-0.9,0.6-1.7,1.2-2.5c0.8-1.1,1.9-2,3-2.6
		c1.5-0.8,3-1.3,4.6-1.7c3.4-0.7,6.5-1.3,8.7-1.7c1.1-0.2,2-0.4,2.6-0.5C285.4,334.7,285.7,334.7,286,334.7z"/>
	<path class="st2" d="M245.3,362.1c-0.6,0.4-1.2,0.7-1.9,0.8c-1.3,0.3-3,0.5-4.9,0.9c-0.9,0.2-1.7,0.5-2.5,0.9
		c-0.6,0.3-1.2,0.8-1.7,1.3c-0.4,0.5-0.8,1.1-1.1,1.7c0-0.7,0.3-1.4,0.8-1.9c0.5-0.6,1.1-1.1,1.8-1.5c0.8-0.5,1.7-0.8,2.6-1
		c1.9-0.4,3.7-0.5,4.9-0.7S245.2,362,245.3,362.1z"/>
	<path class="st2" d="M293.5,326.9c0,0.1-0.4,0.1-0.9,0.2c-0.7,0.2-1.3,0.6-1.8,1.1c-0.4,0.5-0.7,1.2-0.8,1.9
		c-0.1,0.5,0,0.9-0.1,0.9s-0.3-0.3-0.3-0.9c0-0.8,0.2-1.6,0.8-2.2c0.5-0.6,1.3-1,2.1-1.1C293.1,326.7,293.5,326.8,293.5,326.9z"/>
</g>
<g id="freepik--Lines--inject-18">
	<path class="st3" d="M439.2,320.1c-0.1,0-0.1,0.1-0.2,0.1l-0.6,0.3l-2.2,1.1l-8.2,4.2l-27.5,13.9l-0.2,0.1l-0.1-0.2
		c-0.8-1.1-1.6-2.2-2.4-3.4l-3.4-4.8l0.3,0.1l-25.6,14.8l-7.6,4.4l-2.1,1.2c-0.2,0.1-0.4,0.2-0.5,0.3s-0.2,0.1-0.2,0.1s0,0,0.2-0.1
		l0.5-0.3l2-1.2l7.6-4.5l25.6-14.9l0.2-0.1l0.1,0.2c1.1,1.5,2.3,3.2,3.4,4.8c0.8,1.2,1.6,2.3,2.4,3.4l-0.3-0.1l27.6-13.7l8.3-4.1
		l2.3-1.1l0.6-0.3L439.2,320.1z"/>
	<path class="st3" d="M431.9,356.3c-0.2,0.1-0.4,0.1-0.5,0.1l-1.6,0.4l-5.9,1.2l-19.6,3.8l-0.2,0.1v-0.2l-0.4-2.4
		c-0.1-0.5-0.2-1.1-0.3-1.6l0.3,0.2c-8,1.4-15,3-20,4.4c-2.5,0.7-4.5,1.2-6,1.6l-1.6,0.4c-0.2,0.1-0.4,0.1-0.6,0.1
		c0.2-0.1,0.4-0.2,0.5-0.2l1.6-0.5c1.4-0.4,3.4-1.1,5.9-1.8c6.6-1.8,13.3-3.4,20-4.5h0.2v0.2c0.1,0.5,0.2,1.1,0.3,1.6
		c0.1,0.8,0.3,1.7,0.4,2.4l-0.3-0.2l19.6-3.6l5.9-1l1.6-0.3C431.5,356.4,431.7,356.3,431.9,356.3z"/>
	<path class="st3" d="M364.9,321.5c0.1,0.1-2.4,5.6-5.7,12.3c-3.3,6.7-6,12.1-6.1,12.1s2.4-5.6,5.7-12.3
		C362,326.9,364.7,321.5,364.9,321.5z"/>
	<path class="st3" d="M394.7,348.5c0,0.1-6.3,2.1-14.1,4.4c-7.8,2.3-14.2,4-14.3,3.9c0-0.1,6.3-2.1,14.1-4.4
		C388.3,350.1,394.7,348.4,394.7,348.5z"/>
	<path class="st3" d="M345.8,304.3c0.2,0.3,0.3,0.7,0.4,1c0.3,0.7,0.6,1.7,1,2.9c0.9,2.6,2,6.1,3.5,10.3l0.1,0.3h-0.3l-7.8-0.2
		l0.3-0.3c0.2,1,0.4,2,0.6,3.1c1.3,7,2.4,13.4,3.3,18.1c0.4,2.3,0.7,4.1,0.9,5.5c0.1,0.6,0.2,1.1,0.2,1.5c0,0.2,0.1,0.4,0,0.5
		c-0.1-0.2-0.1-0.3-0.1-0.5c-0.1-0.4-0.2-0.9-0.3-1.5l-1.1-5.5c-0.9-4.7-2.1-11.1-3.4-18.1c-0.2-1.1-0.4-2.1-0.6-3.1l-0.1-0.3h0.3
		l7.8,0.2l-0.2,0.3l-3.3-10.4c-0.4-1.2-0.7-2.2-0.9-3C345.9,305,345.8,304.7,345.8,304.3z"/>
	<path class="st3" d="M311.2,379.7c-0.1-0.1,5-2.6,11.3-5.6c6.3-3,11.5-5.3,11.5-5.1s-5,2.6-11.3,5.6S311.3,379.8,311.2,379.7z"/>
	<path class="st3" d="M334.8,386.9c1.3-2,2.8-3.8,4.3-5.6c1.5-1.9,3-3.6,4.7-5.3c-1.3,2-2.8,3.8-4.3,5.6
		C338.1,383.5,336.5,385.3,334.8,386.9z"/>
	<path class="st3" d="M347.5,421.3c-0.1,0,0.7-9.8,1.9-21.8s2.3-21.7,2.4-21.7c0.1,0-0.7,9.8-1.9,21.8S347.7,421.3,347.5,421.3z"/>
	<path class="st3" d="M330.2,335.1c0.9,1.3,1.7,2.6,2.3,4.1c0.8,1.4,1.4,2.8,1.9,4.3c-0.9-1.3-1.7-2.7-2.3-4.1
		C331.3,338.1,330.7,336.6,330.2,335.1z"/>
</g>
</svg>
