<?xml version="1.0" encoding="utf-8"?>
<!-- Generator: Adobe Illustrator 17.0.0, SVG Export Plug-In . SVG Version: 6.00 Build 0)  -->
<!DOCTYPE svg PUBLIC "-//W3C//DTD SVG 1.0//EN" "http://www.w3.org/TR/2001/REC-SVG-20010904/DTD/svg10.dtd">
<svg version="1.0" xmlns="http://www.w3.org/2000/svg" xmlns:xlink="http://www.w3.org/1999/xlink" x="0px" y="0px" width="500px"
	 height="500px" viewBox="0 0 500 500" enable-background="new 0 0 500 500" xml:space="preserve">
<g id="BACKGROUND" display="none">
	<rect display="inline" fill="#FFFFFF" width="500" height="500"/>
</g>
<g id="Layer_3" display="none">
	<rect x="-34" y="-36" display="inline" fill="#595959" stroke="#1D1D1B" stroke-miterlimit="10" width="560" height="565"/>
</g>
<g id="OBJECTS">
	<g>
		<g>
			<path fill="#D5FAF6" d="M421.967,330.59c0,0,93.975-146.411,50.67-240.041S325.971-3.617,290.24,35.514
				c-21.839,23.917-15.474,63.867-67.177,79.322c-31.628,9.454-54.653-5.705-101.803-22.144S19.369,111.991,12.642,169.054
				c-7.55,64.047,50.748,97.528,82.75,120.583s15.795,61.294,29.061,97.104S351.706,460.563,421.967,330.59z"/>
			<path fill="#FFFFFF" d="M468.463,169.054c0,0,7.149-82.753-46.496-123.89c-46.136-35.379-92.256-18.226-106.772-2.68
				c-14.516,15.545,1.367,34.307,41.464,31.627C396.756,71.43,457.564,99.126,468.463,169.054z"/>
		</g>
		<g>
			<g>
				<ellipse fill="#D2EDFF" cx="212.973" cy="473.953" rx="51.105" ry="11.047"/>
				<ellipse fill="#D2EDFF" cx="394.282" cy="462.906" rx="51.105" ry="11.047"/>
				<ellipse fill="#D2EDFF" cx="312.974" cy="451.858" rx="132.615" ry="11.047"/>
				<ellipse fill="#D2EDFF" cx="151.983" cy="444.339" rx="132.615" ry="11.047"/>
			</g>
			<g>
				<g>
					<g>
						<g>
							<g>
								<g>
									<g>
										<g>
											<circle fill="#ACDAFF" cx="120.802" cy="227.288" r="84.229"/>
											<circle fill="#E6FFFF" cx="120.802" cy="227.288" r="72.956"/>
											<path opacity="0.57" fill="#FFFAFF" d="M146.899,230.128c10.175-15.376,11.254-43.087,6.14-57.845
												c-9.321-5.475-20.151-8.666-31.737-8.757c-35.215-0.277-63.986,28.046-64.263,63.261
												c-0.08,10.184,2.244,19.821,6.423,28.394c0.495,0.07,1.021,0.025,1.484,0.218
												C88.237,265.108,127.768,259.039,146.899,230.128z"/>
										</g>
									</g>
									<g>
										<g>
											<g>
												<g>
													<g>
														<path fill="#ACDAFF" d="M121.188,178.111L121.188,178.111c1.226,0.01,2.238-0.986,2.247-2.212l0.107-13.655
															c0.01-1.226-0.986-2.238-2.212-2.247l0,0c-1.226-0.01-2.238,0.986-2.247,2.212l-0.107,13.655
															C118.967,177.09,119.962,178.102,121.188,178.111z"/>
														<path fill="#ACDAFF" d="M120.274,294.58L120.274,294.58c1.226,0.01,2.238-0.986,2.247-2.212l0.107-13.655
															c0.01-1.226-0.986-2.238-2.212-2.247h0c-1.226-0.01-2.238,0.986-2.247,2.212l-0.107,13.655
															C118.052,293.559,119.047,294.57,120.274,294.58z"/>
													</g>
												</g>
												<g>
													<g>
														<path fill="#ACDAFF" d="M169.979,227.674L169.979,227.674c-0.01,1.226,0.986,2.238,2.212,2.247l13.655,0.107
															c1.226,0.01,2.238-0.986,2.247-2.212l0,0c0.01-1.226-0.986-2.238-2.212-2.247l-13.655-0.107
															C171,225.452,169.988,226.448,169.979,227.674z"/>
														<path fill="#ACDAFF" d="M53.511,226.76L53.511,226.76c-0.01,1.226,0.986,2.238,2.212,2.247l13.655,0.107
															c1.226,0.01,2.238-0.986,2.247-2.212l0,0c0.01-1.226-0.986-2.238-2.212-2.247l-13.655-0.107
															C54.532,224.538,53.52,225.533,53.511,226.76z"/>
													</g>
												</g>
											</g>
											<g>
												<circle fill="#ACDAFF" cx="151.138" cy="175.686" r="2.23"/>
												<circle fill="#ACDAFF" cx="90.467" cy="278.89" r="2.23"/>
											</g>
											<g>
												<circle fill="#ACDAFF" cx="172.875" cy="197.767" r="2.23"/>
												<circle fill="#ACDAFF" cx="68.73" cy="256.809" r="2.23"/>
											</g>
											<g>
												<circle fill="#ACDAFF" cx="172.405" cy="257.623" r="2.23"/>
												<circle fill="#ACDAFF" cx="69.2" cy="196.953" r="2.23"/>
											</g>
											<g>
												<circle fill="#ACDAFF" cx="150.323" cy="279.36" r="2.23"/>
												<circle fill="#ACDAFF" cx="91.281" cy="175.216" r="2.23"/>
											</g>
										</g>
									</g>
								</g>
								<g>
									<path fill="#FFBC00" d="M143.44,210.521c6.669-2.602,37.792-15.99,37.792-15.99l0.114,0.213l0.227,0.421l0.114,0.213
										c0,0-28.326,18.589-34.173,22.719c-5.847,4.13-26.578,10.59-26.578,10.59l-0.378-0.703l-0.227-0.421l-0.378-0.703
										C119.955,226.859,136.771,213.123,143.44,210.521z"/>
									<path fill="#FFBC00" d="M99.64,231.814c-5.104-0.791-29.33-3.38-29.33-3.38l-0.004-0.242l-0.007-0.479l-0.004-0.242
										c0,0,24.137-3.315,29.215-4.259s20.413,2.958,20.413,2.958l0.012,0.798l0.007,0.479l0.012,0.798
										C119.955,228.245,104.744,232.606,99.64,231.814z"/>
									<circle fill="#ACDAFF" cx="120.802" cy="227.288" r="4.46"/>
								</g>
							</g>
						</g>
						<g>
							<g>
								<path fill="#ACDAFF" d="M76.526,318.371L56.686,437.209c-0.228,1.368,0.827,2.615,2.214,2.615h0
									c1.056,0,1.97-0.736,2.194-1.769l25.974-119.684H76.526z"/>
								<path fill="#ACDAFF" d="M95.706,311.234L81.727,430.904c-0.161,1.378,0.954,2.571,2.34,2.503l0,0
									c1.055-0.052,1.931-0.832,2.104-1.874l20.065-120.815L95.706,311.234z"/>
							</g>
							<g>
								<path fill="#ACDAFF" d="M177.721,318.371l19.839,118.838c0.228,1.368-0.827,2.615-2.214,2.615l0,0
									c-1.056,0-1.97-0.736-2.194-1.769l-25.974-119.684H177.721z"/>
								<path fill="#ACDAFF" d="M158.541,311.234l13.979,119.669c0.161,1.378-0.954,2.571-2.34,2.503l0,0
									c-1.055-0.052-1.931-0.832-2.104-1.874L148.01,310.717L158.541,311.234z"/>
							</g>
							<path fill="#2099FF" d="M194.509,321.138H61.738c-3.018,0-5.488-2.47-5.488-5.488l0,0c0-3.018,2.47-5.488,5.488-5.488
								h132.771c3.018,0,5.488,2.47,5.488,5.488l0,0C199.997,318.668,197.527,321.138,194.509,321.138z"/>
						</g>
					</g>
					<g>
						<g>
							<path fill="#6CB7D8" d="M63.375,412.831l-0.339-0.12c0.04-0.112,3.963-11.369,1.704-24.693
								c-2.083-12.285-10.005-28.897-35.915-38.268l0.122-0.338c11.511,4.163,20.486,10.088,26.674,17.608
								c4.954,6.021,8.143,13.07,9.477,20.953C67.368,401.386,63.415,412.719,63.375,412.831z"/>
						</g>
						<g>
							<path fill="#6CB7D8" d="M32.465,350.965c0,0-6.813,1.028-10.326-2.106C18.626,345.724,24.613,344.21,32.465,350.965z"/>
						</g>
						<g>
							<path fill="#6CB7D8" d="M39.524,354.313c0,0-2.133-9.013-5.444-10.787S30.303,348.173,39.524,354.313z"/>
						</g>
						<g>
							<path fill="#6CB7D8" d="M38.444,353.695c0,0-9.17-1.307-12.031,1.128S29.361,360.036,38.444,353.695z"/>
						</g>
						<g>
							<path fill="#6CB7D8" d="M44.078,357.149c0,0-9.17-1.307-12.031,1.128C29.186,360.711,34.995,363.49,44.078,357.149z"/>
						</g>
						<g>
							<path fill="#6CB7D8" d="M49.751,361.155c0,0-9.17-1.307-12.031,1.128C34.859,364.717,40.668,367.496,49.751,361.155z"/>
						</g>
						<g>
							<path fill="#6CB7D8" d="M55.241,366.69c0,0-9.036-2.037-12.082,0.161C40.112,369.049,45.679,372.284,55.241,366.69z"/>
						</g>
						<g>
							<path fill="#6CB7D8" d="M60.264,374.042c0,0-8.399-3.906-11.842-2.403C44.979,373.14,49.734,377.482,60.264,374.042z"/>
						</g>
						<g>
							<path fill="#6CB7D8" d="M63.917,383.046c0,0-6.707-6.388-10.45-6.067C49.724,377.301,52.84,382.935,63.917,383.046z"/>
						</g>
						<g>
							<path fill="#6CB7D8" d="M65.512,393.572c0,0-4.189-8.261-7.824-9.208S55.107,389.769,65.512,393.572z"/>
						</g>
						<g>
							<path fill="#6CB7D8" d="M65.106,403.91c0,0-2.177-9.003-5.497-10.761S55.855,397.816,65.106,403.91z"/>
						</g>
						<g>
							<path fill="#6CB7D8" d="M45.837,358.236c0,0,0.901-7.921-2.148-12.158c-3.049-4.237-4.076,0.622-2.905,3.355
								S45.837,358.236,45.837,358.236z"/>
						</g>
						<g>
							<path fill="#6CB7D8" d="M50.462,361.905c0,0,2.142-7.679-0.198-12.345c-2.34-4.666-4.123-0.031-3.399,2.853
								C47.59,355.296,50.462,361.905,50.462,361.905z"/>
						</g>
						<g>
							<path fill="#6CB7D8" d="M54.764,366.23c0,0,3.864-6.973,2.669-12.055s-4.004-0.986-3.968,1.987S54.764,366.23,54.764,366.23z
								"/>
						</g>
						<g>
							<path fill="#6CB7D8" d="M58.958,371.795c0,0,3.864-6.973,2.669-12.055s-4.004-0.986-3.968,1.987
								C57.696,364.701,58.958,371.795,58.958,371.795z"/>
						</g>
						<g>
							<path fill="#6CB7D8" d="M62.612,379.408c0,0,4.73-6.417,4.201-11.61c-0.53-5.193-3.844-1.494-4.191,1.459
								C62.275,372.21,62.612,379.408,62.612,379.408z"/>
						</g>
						<g>
							<path fill="#6CB7D8" d="M65.079,389.518c0,0,5.863-5.402,6.328-10.602c0.466-5.199-3.49-2.196-4.392,0.637
								C66.114,382.387,65.079,389.518,65.079,389.518z"/>
						</g>
						<g>
							<path fill="#6CB7D8" d="M65.492,398.702c0,0,6.828-4.114,8.329-9.114c1.501-5-2.978-2.852-4.43-0.258
								S65.492,398.702,65.492,398.702z"/>
						</g>
					</g>
					<g>
						<g>
							<path fill="#6CB7D8" d="M107.363,395.11l0.339-0.12c-0.04-0.112-3.963-11.369-1.704-24.693
								c2.083-12.285,10.005-28.897,35.915-38.268l-0.122-0.338c-11.511,4.163-20.486,10.088-26.674,17.608
								c-4.954,6.021-8.143,13.07-9.477,20.953C103.37,383.664,107.322,394.998,107.363,395.11z"/>
						</g>
						<g>
							<path fill="#6CB7D8" d="M138.273,333.244c0,0,6.813,1.028,10.326-2.106C152.111,328.003,146.125,326.489,138.273,333.244z"/>
						</g>
						<g>
							<path fill="#6CB7D8" d="M131.214,336.591c0,0,2.133-9.013,5.444-10.787S140.435,330.452,131.214,336.591z"/>
						</g>
						<g>
							<path fill="#6CB7D8" d="M132.294,335.973c0,0,9.17-1.307,12.031,1.128C147.185,339.536,141.377,342.315,132.294,335.973z"/>
						</g>
						<g>
							<path fill="#6CB7D8" d="M126.66,339.427c0,0,9.17-1.307,12.031,1.128C141.552,342.99,135.743,345.769,126.66,339.427z"/>
						</g>
						<g>
							<path fill="#6CB7D8" d="M120.987,343.433c0,0,9.17-1.307,12.031,1.128C135.879,346.996,130.07,349.775,120.987,343.433z"/>
						</g>
						<g>
							<path fill="#6CB7D8" d="M115.497,348.969c0,0,9.036-2.037,12.082,0.161C130.626,351.328,125.059,354.563,115.497,348.969z"/>
						</g>
						<g>
							<path fill="#6CB7D8" d="M110.474,356.32c0,0,8.399-3.906,11.842-2.403S121.004,359.761,110.474,356.32z"/>
						</g>
						<g>
							<path fill="#6CB7D8" d="M106.821,365.325c0,0,6.707-6.388,10.45-6.067C121.014,359.579,117.898,365.214,106.821,365.325z"/>
						</g>
						<g>
							<path fill="#6CB7D8" d="M105.226,375.851c0,0,4.189-8.261,7.824-9.208S115.631,372.047,105.226,375.851z"/>
						</g>
						<g>
							<path fill="#6CB7D8" d="M105.632,386.189c0,0,2.177-9.003,5.497-10.761C114.449,373.67,114.883,380.094,105.632,386.189z"/>
						</g>
						<g>
							<path fill="#6CB7D8" d="M124.901,340.515c0,0-0.901-7.921,2.148-12.158c3.049-4.237,4.076,0.622,2.905,3.355
								S124.901,340.515,124.901,340.515z"/>
						</g>
						<g>
							<path fill="#6CB7D8" d="M120.276,344.184c0,0-2.142-7.679,0.198-12.345c2.34-4.666,4.123-0.031,3.399,2.853
								C123.148,337.575,120.276,344.184,120.276,344.184z"/>
						</g>
						<g>
							<path fill="#6CB7D8" d="M115.974,348.508c0,0-3.864-6.973-2.669-12.055c1.195-5.081,4.004-0.986,3.968,1.987
								C117.236,341.414,115.974,348.508,115.974,348.508z"/>
						</g>
						<g>
							<path fill="#6CB7D8" d="M111.78,354.074c0,0-3.864-6.973-2.669-12.055c1.195-5.081,4.004-0.986,3.968,1.987
								C113.042,346.979,111.78,354.074,111.78,354.074z"/>
						</g>
						<g>
							<path fill="#6CB7D8" d="M108.126,361.687c0,0-4.73-6.417-4.201-11.61c0.53-5.193,3.844-1.494,4.191,1.459
								C108.463,354.489,108.126,361.687,108.126,361.687z"/>
						</g>
						<g>
							<path fill="#6CB7D8" d="M105.659,371.796c0,0-5.863-5.402-6.328-10.602c-0.466-5.199,3.49-2.196,4.392,0.637
								C104.624,364.665,105.659,371.796,105.659,371.796z"/>
						</g>
						<g>
							<path fill="#6CB7D8" d="M105.246,380.98c0,0-6.828-4.114-8.329-9.114c-1.501-5,2.978-2.852,4.43-0.258
								S105.246,380.98,105.246,380.98z"/>
						</g>
					</g>
					<g>
						<g>
							<g>
								<path fill="#82C4E8" d="M67.89,379.68c0,0-7.961-23.565-0.795-30.334s-1.727-16.374,0.379-22.63
									c2.106-6.256,9.821-9.974,13.185,1.504c3.364,11.478,4.318,11.833,12.772,12.362c8.455,0.528,7.805,17.552,6.31,25.384
									c-1.495,7.832,6.809-4.54,9.32,3.867s-9.655,25.743-22.452,34.778c-12.797,9.035-28.448-16.662-27.374-23.089
									C60.31,375.096,65.007,383.7,67.89,379.68z"/>
							</g>
							<g>
								<path fill="#6CB7D8" d="M69.017,346.808c-0.444,0.879-1.065,1.73-1.922,2.539c-7.166,6.768,0.795,30.334,0.795,30.334
									c-2.883,4.019-7.58-4.585-8.655,1.842c-1.075,6.427,14.576,32.124,27.374,23.089c0.687-0.485,1.372-0.999,2.053-1.529
									C87.178,382.981,80.389,363.71,69.017,346.808z"/>
							</g>
							<g>
								<g>
									<path fill="#98CFF4" d="M82.255,406.846c-0.128,0.141-0.325,0.215-0.527,0.176c-0.308-0.059-0.509-0.356-0.45-0.663
										c0.061-0.32,5.962-32.559-8.948-79.293c-0.096-0.298,0.069-0.618,0.368-0.712c0.298-0.096,0.618,0.069,0.712,0.368
										c15.005,47.03,9.043,79.528,8.981,79.851C82.372,406.678,82.323,406.772,82.255,406.846z"/>
								</g>
								<g>
									<path fill="#98CFF4" d="M76.806,340.928l-7.541-6.077c-0.244-0.196-0.282-0.553-0.086-0.797
										c0.197-0.24,0.554-0.282,0.797-0.086l6.524,5.257l3.439-5.762c0.162-0.272,0.509-0.357,0.778-0.197
										c0.269,0.161,0.357,0.509,0.197,0.778L76.806,340.928z"/>
								</g>
								<g>
									<path fill="#98CFF4" d="M95.246,345.548c-0.012,0.013-0.024,0.026-0.037,0.038l-14.672,13.421l-11.656-7.919
										c-0.259-0.176-0.326-0.529-0.15-0.788c0.175-0.261,0.529-0.326,0.788-0.15l10.914,7.415l14.01-12.816
										c0.231-0.211,0.59-0.195,0.801,0.036C95.443,345.002,95.441,345.333,95.246,345.548z"/>
								</g>
								<g>
									<path fill="#98CFF4" d="M98.424,364.26c-0.006,0.006-0.012,0.013-0.018,0.018L82.86,379.955l-15.351-12.237
										c-0.245-0.196-0.285-0.552-0.09-0.797c0.208-0.248,0.552-0.285,0.797-0.09l14.555,11.603l14.83-14.954
										c0.221-0.222,0.58-0.224,0.802-0.003C98.619,363.691,98.627,364.037,98.424,364.26z"/>
								</g>
								<g>
									<path fill="#98CFF4" d="M105.112,375.31c-0.005,0.006-0.01,0.011-0.016,0.017L82.897,397.88l-19.029-13.306
										c-0.256-0.18-0.319-0.533-0.14-0.79c0.183-0.255,0.534-0.319,0.79-0.14l18.244,12.758l21.526-21.87
										c0.22-0.223,0.579-0.226,0.802-0.007C105.307,374.739,105.315,375.086,105.112,375.31z"/>
								</g>
							</g>
						</g>
						<g>
							<g>
								<path fill="#98CFF4" d="M64.305,409.973c0,0-17.395-8.705-17.141-16.409c0.254-7.704-9.973-8.143-12.248-12.777
									s-0.037-10.946,8.151-6.423c8.187,4.523,8.912,4.195,13.899-0.166c4.986-4.361,13.997,5.451,17.479,10.624
									c3.482,5.173,1.282-6.27,7.305-2.983c6.023,3.286,8.81,19.612,6.677,31.675s-24.972,6.408-27.914,2.247
									C57.571,411.6,64.916,413.793,64.305,409.973z"/>
							</g>
							<g>
								<path fill="#82C4E8" d="M46.833,391.097c0.238,0.733,0.361,1.547,0.33,2.468c-0.254,7.704,17.141,16.409,17.141,16.409
									c0.611,3.82-6.734,1.627-3.792,5.788c2.941,4.161,25.78,9.816,27.914-2.247c0.115-0.648,0.212-1.31,0.299-1.98
									C76.834,401.188,62.455,394.223,46.833,391.097z"/>
							</g>
							<g>
								<g>
									<path fill="#ACDAFF" d="M87.238,417.152c0.007,0.149-0.062,0.298-0.196,0.388c-0.203,0.137-0.479,0.083-0.615-0.121
										c-0.142-0.211-14.613-21.365-48.622-39.111c-0.217-0.113-0.302-0.381-0.188-0.598c0.113-0.217,0.381-0.301,0.598-0.188
										c34.225,17.859,48.805,39.189,48.948,39.403C87.211,416.995,87.235,417.073,87.238,417.152z"/>
								</g>
								<g>
									<path fill="#ACDAFF" d="M47.922,383.543l-7.533,0.777c-0.243,0.025-0.461-0.152-0.486-0.396
										c-0.023-0.241,0.152-0.461,0.396-0.486l6.518-0.672l-1.262-5.093c-0.06-0.241,0.086-0.478,0.324-0.537
										c0.238-0.059,0.478,0.086,0.537,0.324L47.922,383.543z"/>
								</g>
								<g>
									<path fill="#ACDAFF" d="M60.707,375.957c0.001,0.014,0.001,0.028,0,0.042l-0.76,15.531l-10.833,2.019
										c-0.241,0.045-0.472-0.114-0.517-0.355c-0.047-0.242,0.114-0.472,0.355-0.517l10.144-1.891l0.725-14.831
										c0.012-0.245,0.22-0.433,0.465-0.421C60.516,375.545,60.697,375.73,60.707,375.957z"/>
								</g>
								<g>
									<path fill="#ACDAFF" d="M72.773,384.6c0,0.007,0.001,0.013,0,0.02l-0.004,17.265l-15.262,1.655
										c-0.244,0.026-0.463-0.15-0.489-0.393c-0.021-0.253,0.15-0.462,0.393-0.489l14.471-1.569l0.004-16.469
										c0-0.245,0.199-0.443,0.443-0.443C72.569,384.176,72.763,384.364,72.773,384.6z"/>
								</g>
								<g>
									<path fill="#ACDAFF" d="M82.571,387.054c0,0.006,0.001,0.012,0,0.018l0.088,24.747l-17.894,3.086
										c-0.241,0.041-0.471-0.12-0.513-0.362c-0.039-0.242,0.121-0.471,0.362-0.513l17.156-2.958l-0.085-23.997
										c-0.001-0.245,0.197-0.444,0.442-0.445C82.365,386.63,82.56,386.818,82.571,387.054z"/>
								</g>
							</g>
						</g>
						<g>
							<g>
								<g>
									<path fill="#ACDAFF" d="M103.409,407.52c0,0,22.928-9.645,23.252-19.496s13.411-9.552,16.702-15.274
										c3.292-5.722,0.967-13.964-9.86-8.881c-10.827,5.083-11.725,4.604-17.721-1.38s-18.319,5.779-23.197,12.087
										c-4.877,6.308-1.109-8.108-9.07-4.421s-12.891,24.285-11.182,39.857c1.708,15.572,31.326,10.276,35.429,5.214
										S102.308,412.342,103.409,407.52z"/>
								</g>
							</g>
							<g>
								<path fill="#98CFF4" d="M127.29,384.902c-0.365,0.915-0.59,1.944-0.629,3.121c-0.324,9.852-23.252,19.496-23.252,19.496
									c-1.101,4.822,8.456,2.642,4.353,7.704c-4.103,5.062-33.721,10.358-35.429-5.214c-0.092-0.836-0.161-1.689-0.215-2.551
									C88.161,395.256,107.094,387.578,127.29,384.902z"/>
							</g>
							<g>
								<g>
									<path fill="#D2EDFF" d="M73.542,414.752c-0.021,0.19,0.054,0.386,0.217,0.511c0.248,0.192,0.604,0.146,0.795-0.102
										c0.199-0.258,20.443-26.033,65.33-45.819c0.287-0.126,0.418-0.461,0.29-0.747c-0.126-0.287-0.461-0.417-0.747-0.29
										c-45.172,19.911-65.57,45.903-65.771,46.163C73.591,414.554,73.553,414.652,73.542,414.752z"/>
								</g>
								<g>
									<path fill="#D2EDFF" d="M126.536,375.172l9.547,1.624c0.308,0.053,0.601-0.155,0.654-0.464
										c0.049-0.306-0.156-0.601-0.464-0.654l-8.26-1.406l2.039-6.393c0.096-0.302-0.07-0.618-0.368-0.713
										c-0.299-0.095-0.618,0.07-0.713,0.368L126.536,375.172z"/>
								</g>
								<g>
									<path fill="#D2EDFF" d="M110.86,364.417c-0.002,0.018-0.003,0.035-0.004,0.053l-0.337,19.882l13.654,3.487
										c0.303,0.077,0.612-0.106,0.69-0.409c0.08-0.304-0.106-0.612-0.409-0.69l-12.785-3.265l0.321-18.986
										c0.005-0.313-0.245-0.571-0.558-0.577C111.138,363.908,110.892,364.13,110.86,364.417z"/>
								</g>
								<g>
									<path fill="#D2EDFF" d="M94.736,374.431c-0.001,0.008-0.002,0.017-0.002,0.025l-1.447,22.031l19.336,3.395
										c0.309,0.054,0.603-0.152,0.657-0.46c0.048-0.321-0.152-0.602-0.46-0.657l-18.334-3.219l1.379-21.015
										c0.02-0.313-0.216-0.583-0.529-0.603C95.033,373.908,94.769,374.131,94.736,374.431z"/>
								</g>
								<g>
									<path fill="#D2EDFF" d="M82.028,376.74c-0.001,0.008-0.002,0.015-0.002,0.023l-2.192,31.569l22.573,5.442
										c0.304,0.073,0.611-0.114,0.684-0.418c0.07-0.305-0.114-0.611-0.418-0.684l-21.642-5.217l2.126-30.613
										c0.022-0.312-0.214-0.583-0.526-0.605C82.327,376.216,82.061,376.439,82.028,376.74z"/>
								</g>
							</g>
						</g>
						<g>
							<g>
								<path fill="#82C4E8" d="M170.248,378.185c0,0,6.629-19.621,0.662-25.256c-5.966-5.635,1.438-13.633-0.316-18.842
									s-8.177-8.304-10.978,1.252c-2.801,9.557-3.595,9.853-10.634,10.293s-6.498,14.614-5.254,21.136
									c1.245,6.521-5.669-3.78-7.76,3.22c-2.091,6.999,8.039,21.434,18.694,28.957s23.687-13.873,22.792-19.224
									C176.559,374.368,172.649,381.532,170.248,378.185z"/>
							</g>
							<g>
								<path fill="#6CB7D8" d="M169.31,350.815c0.37,0.732,0.887,1.44,1.6,2.114c5.966,5.635-0.662,25.256-0.662,25.256
									c2.401,3.347,6.311-3.817,7.206,1.534c0.895,5.351-12.136,26.747-22.792,19.224c-0.572-0.404-1.142-0.832-1.71-1.273
									C154.188,380.933,159.841,364.888,169.31,350.815z"/>
							</g>
							<g>
								<g>
									<path fill="#98CFF4" d="M158.287,400.804c0.107,0.118,0.271,0.179,0.439,0.147c0.256-0.049,0.424-0.296,0.375-0.552
										c-0.051-0.266-4.964-27.109,7.45-66.021c0.08-0.248-0.057-0.515-0.306-0.593c-0.248-0.08-0.514,0.058-0.593,0.306
										c-12.493,39.158-7.53,66.217-7.478,66.486C158.19,400.664,158.231,400.742,158.287,400.804z"/>
								</g>
								<g>
									<path fill="#98CFF4" d="M162.825,345.919l6.279-5.06c0.203-0.163,0.235-0.461,0.071-0.664
										c-0.164-0.199-0.461-0.235-0.664-0.071l-5.432,4.377l-2.863-4.798c-0.135-0.227-0.424-0.297-0.647-0.164
										c-0.224,0.134-0.297,0.424-0.164,0.647L162.825,345.919z"/>
								</g>
								<g>
									<path fill="#98CFF4" d="M147.471,349.766c0.01,0.011,0.02,0.022,0.031,0.032l12.216,11.175l9.705-6.594
										c0.216-0.147,0.272-0.44,0.125-0.656c-0.146-0.218-0.44-0.272-0.656-0.125l-9.088,6.174L148.14,349.1
										c-0.193-0.176-0.491-0.162-0.667,0.03C147.307,349.311,147.309,349.587,147.471,349.766z"/>
								</g>
								<g>
									<path fill="#98CFF4" d="M144.825,365.346c0.005,0.005,0.01,0.011,0.015,0.015l12.944,13.053l12.781-10.189
										c0.204-0.163,0.238-0.46,0.075-0.663c-0.173-0.207-0.46-0.237-0.663-0.075l-12.119,9.661l-12.348-12.451
										c-0.184-0.185-0.483-0.186-0.668-0.003C144.662,364.872,144.656,365.16,144.825,365.346z"/>
								</g>
								<g>
									<path fill="#98CFF4" d="M139.256,374.546c0.004,0.005,0.009,0.01,0.013,0.014l18.483,18.779l15.844-11.079
										c0.213-0.15,0.266-0.444,0.117-0.658c-0.152-0.212-0.444-0.266-0.658-0.117l-15.19,10.622l-17.923-18.21
										c-0.183-0.186-0.482-0.188-0.667-0.005C139.094,374.071,139.087,374.36,139.256,374.546z"/>
								</g>
							</g>
						</g>
						<g>
							<g>
								<path fill="#98CFF4" d="M143.514,405.541c0,0-17.395-8.705-17.141-16.409c0.254-7.704-9.973-8.143-12.248-12.777
									s-0.037-10.946,8.151-6.423c8.187,4.523,8.912,4.195,13.899-0.166c4.986-4.361,13.997,5.451,17.479,10.624
									c3.482,5.173,1.282-6.27,7.305-2.983s8.81,19.612,6.677,31.675c-2.134,12.063-24.972,6.408-27.914,2.247
									C136.781,407.168,144.126,409.361,143.514,405.541z"/>
							</g>
							<g>
								<path fill="#82C4E8" d="M126.043,386.665c0.238,0.733,0.361,1.547,0.33,2.468c-0.254,7.704,17.141,16.409,17.141,16.409
									c0.611,3.82-6.734,1.627-3.792,5.788c2.941,4.161,25.78,9.816,27.914-2.247c0.115-0.648,0.212-1.31,0.299-1.98
									C156.043,396.756,141.664,389.791,126.043,386.665z"/>
							</g>
							<g>
								<g>
									<path fill="#ACDAFF" d="M166.448,412.72c0.007,0.149-0.062,0.298-0.196,0.388c-0.203,0.137-0.479,0.083-0.615-0.121
										c-0.142-0.211-14.613-21.365-48.622-39.111c-0.217-0.113-0.302-0.381-0.188-0.598c0.113-0.217,0.381-0.301,0.598-0.188
										c34.225,17.859,48.805,39.189,48.948,39.403C166.42,412.563,166.444,412.642,166.448,412.72z"/>
								</g>
								<g>
									<path fill="#ACDAFF" d="M127.131,379.111l-7.533,0.777c-0.243,0.025-0.461-0.152-0.486-0.396
										c-0.023-0.241,0.152-0.461,0.396-0.486l6.518-0.672l-1.262-5.093c-0.06-0.241,0.086-0.478,0.324-0.537
										c0.238-0.059,0.478,0.086,0.537,0.324L127.131,379.111z"/>
								</g>
								<g>
									<path fill="#ACDAFF" d="M139.916,371.525c0.001,0.014,0.001,0.028,0,0.042l-0.76,15.531l-10.833,2.019
										c-0.241,0.045-0.472-0.114-0.517-0.355c-0.047-0.242,0.114-0.472,0.355-0.517l10.144-1.891l0.725-14.831
										c0.012-0.245,0.22-0.433,0.465-0.421C139.726,371.113,139.906,371.299,139.916,371.525z"/>
								</g>
								<g>
									<path fill="#ACDAFF" d="M151.983,380.168c0,0.007,0.001,0.013,0,0.02l-0.004,17.265l-15.262,1.655
										c-0.244,0.026-0.463-0.15-0.489-0.393c-0.021-0.253,0.15-0.462,0.393-0.489l14.471-1.569l0.004-16.469
										c0-0.245,0.199-0.443,0.443-0.443C151.778,379.744,151.972,379.932,151.983,380.168z"/>
								</g>
								<g>
									<path fill="#ACDAFF" d="M161.78,382.623c0,0.006,0.001,0.012,0,0.018l0.088,24.747l-17.894,3.086
										c-0.241,0.041-0.471-0.12-0.513-0.362c-0.039-0.242,0.121-0.471,0.362-0.513l17.156-2.958l-0.085-23.997
										c-0.001-0.245,0.197-0.444,0.442-0.445C161.574,382.198,161.77,382.387,161.78,382.623z"/>
								</g>
							</g>
						</g>
						<g>
							<g>
								<path fill="#82C4E8" d="M119.658,410.455c0,0-15.796-2.056-17.672-8.083c-1.875-6.027-9.904-3.617-12.91-6.59
									s-2.972-8.457,4.578-7.16c7.549,1.297,8.022,0.848,10.707-3.866s12.293,0.453,16.378,3.518
									c4.084,3.065-0.694-5.195,4.848-4.272c5.542,0.922,12.089,12.802,13.682,22.706c1.594,9.905-17.594,11.672-20.988,9.244
									C114.887,413.525,121.158,413.246,119.658,410.455z"/>
							</g>
							<g>
								<path fill="#6CB7D8" d="M101.067,400.552c0.381,0.503,0.695,1.1,0.919,1.82c1.875,6.027,17.672,8.083,17.672,8.083
									c1.5,2.79-4.771,3.069-1.377,5.497c3.394,2.428,22.582,0.661,20.988-9.244c-0.086-0.532-0.188-1.07-0.301-1.612
									C126.987,400.29,113.991,398.77,101.067,400.552z"/>
							</g>
							<g>
								<g>
									<path fill="#98CFF4" d="M139.328,409.841c0.045,0.114,0.032,0.247-0.047,0.353c-0.12,0.16-0.348,0.193-0.508,0.072
										c-0.167-0.125-17.049-12.597-48.128-17.179c-0.199-0.029-0.336-0.214-0.306-0.412c0.029-0.199,0.214-0.336,0.412-0.306
										c31.276,4.611,48.291,17.19,48.459,17.317C139.265,409.727,139.304,409.782,139.328,409.841z"/>
								</g>
								<g>
									<path fill="#98CFF4" d="M99.878,394.416l-5.618,2.626c-0.181,0.085-0.398,0.007-0.483-0.175
										c-0.082-0.181-0.006-0.398,0.175-0.483l4.861-2.273l-2.346-3.6c-0.111-0.17-0.062-0.393,0.106-0.503
										c0.168-0.11,0.393-0.062,0.503,0.106L99.878,394.416z"/>
								</g>
								<g>
									<path fill="#98CFF4" d="M107.727,385.11c0.004,0.011,0.008,0.021,0.011,0.032l3.589,12.218l-7.837,4.475
										c-0.174,0.099-0.396,0.039-0.495-0.135c-0.101-0.174-0.039-0.396,0.135-0.495l7.338-4.19l-3.427-11.667
										c-0.056-0.192,0.054-0.394,0.246-0.451C107.469,384.843,107.659,384.938,107.727,385.11z"/>
								</g>
								<g>
									<path fill="#98CFF4" d="M119.385,388.551c0.002,0.005,0.004,0.01,0.006,0.015l4.64,13.356l-11.361,5.384
										c-0.181,0.086-0.398,0.009-0.484-0.172c-0.084-0.19-0.009-0.398,0.172-0.484l10.772-5.105l-4.426-12.741
										c-0.066-0.189,0.034-0.396,0.224-0.462C119.113,388.278,119.314,388.371,119.385,388.551z"/>
								</g>
								<g>
									<path fill="#98CFF4" d="M127.624,387.815c0.002,0.005,0.004,0.009,0.005,0.014l6.723,19.119l-13.011,7.199
										c-0.176,0.097-0.396,0.034-0.494-0.142c-0.095-0.177-0.033-0.397,0.142-0.494l12.475-6.902l-6.519-18.539
										c-0.066-0.189,0.033-0.397,0.222-0.463C127.351,387.542,127.553,387.635,127.624,387.815z"/>
								</g>
							</g>
						</g>
						<g>
							<g>
								<g>
									<path fill="#ACDAFF" d="M182.619,407.52c0,0,22.928-9.645,23.252-19.496c0.324-9.852,13.411-9.552,16.702-15.274
										c3.292-5.722,0.967-13.964-9.86-8.881c-10.827,5.083-11.725,4.604-17.721-1.38s-18.319,5.779-23.197,12.087
										s-1.109-8.108-9.07-4.421s-12.891,24.285-11.182,39.857c1.708,15.572,31.326,10.276,35.429,5.214
										C191.074,410.162,181.517,412.342,182.619,407.52z"/>
								</g>
							</g>
							<g>
								<path fill="#98CFF4" d="M206.499,384.902c-0.365,0.915-0.59,1.944-0.629,3.121c-0.324,9.852-23.252,19.496-23.252,19.496
									c-1.101,4.822,8.456,2.642,4.353,7.704c-4.103,5.062-33.721,10.358-35.429-5.214c-0.092-0.836-0.161-1.689-0.215-2.551
									C167.37,395.256,186.304,387.578,206.499,384.902z"/>
							</g>
							<g>
								<g>
									<path fill="#D2EDFF" d="M152.752,414.752c-0.021,0.19,0.054,0.386,0.217,0.511c0.248,0.192,0.604,0.146,0.795-0.102
										c0.199-0.258,20.443-26.033,65.33-45.819c0.287-0.126,0.418-0.461,0.29-0.747c-0.126-0.287-0.461-0.417-0.747-0.29
										c-45.172,19.911-65.57,45.903-65.771,46.163C152.8,414.554,152.763,414.652,152.752,414.752z"/>
								</g>
								<g>
									<path fill="#D2EDFF" d="M205.746,375.172l9.547,1.624c0.308,0.053,0.601-0.155,0.654-0.464
										c0.049-0.306-0.156-0.601-0.464-0.654l-8.26-1.406l2.039-6.393c0.096-0.302-0.07-0.618-0.368-0.713
										c-0.299-0.095-0.618,0.07-0.713,0.368L205.746,375.172z"/>
								</g>
								<g>
									<path fill="#D2EDFF" d="M190.07,364.417c-0.002,0.018-0.003,0.035-0.004,0.053l-0.337,19.882l13.654,3.487
										c0.303,0.077,0.612-0.106,0.69-0.409c0.08-0.304-0.106-0.612-0.409-0.69l-12.785-3.265l0.321-18.986
										c0.005-0.313-0.245-0.571-0.558-0.577C190.348,363.908,190.101,364.13,190.07,364.417z"/>
								</g>
								<g>
									<path fill="#D2EDFF" d="M173.946,374.431c-0.001,0.008-0.002,0.017-0.002,0.025l-1.447,22.031l19.336,3.395
										c0.309,0.054,0.603-0.152,0.657-0.46c0.048-0.321-0.152-0.602-0.46-0.657l-18.334-3.219l1.379-21.015
										c0.02-0.313-0.216-0.583-0.529-0.603C174.243,373.908,173.979,374.131,173.946,374.431z"/>
								</g>
								<g>
									<path fill="#D2EDFF" d="M161.238,376.74c-0.001,0.008-0.002,0.015-0.002,0.023l-2.192,31.569l22.573,5.442
										c0.304,0.073,0.611-0.114,0.684-0.418c0.07-0.305-0.114-0.611-0.418-0.684l-21.642-5.217l2.126-30.613
										c0.022-0.312-0.214-0.583-0.526-0.605C161.536,376.216,161.271,376.439,161.238,376.74z"/>
								</g>
							</g>
						</g>
						<g>
							<polygon fill="#FF9900" points="217.555,444.339 46.773,444.339 42.485,405.341 221.843,405.341 							"/>
							<polygon fill="#FFBC00" points="218.802,433.003 45.527,433.003 45.851,435.951 218.477,435.951 							"/>
							<polygon fill="#FFBC00" points="219.951,422.55 44.377,422.55 45.006,428.268 219.322,428.268 							"/>
							<rect x="39.804" y="402.643" fill="#FFBC00" width="184.401" height="9.186"/>
						</g>
					</g>
				</g>
				<g>
					<path fill="#144182" d="M376.081,453.188h-145.04c-10.265,0-26.217-7.717-25.026-17.982l44.298-308.349
						c1.191-10.265,10.478-18.587,20.744-18.587l136.164-5.308c16.559,0,26.498,13.629,25.307,23.895l-35.703,307.744
						C395.633,444.866,386.346,453.188,376.081,453.188z"/>
					<g>
						<g>
							<g>
								<path fill="#2099FF" d="M365.394,447.792h-145.04c-10.265,0-17.622-8.322-16.431-18.587l35.703-307.744
									c1.191-10.265,10.478-18.587,20.744-18.587h145.04c10.265,0,17.622,8.322,16.431,18.587l-35.703,307.744
									C384.947,439.47,375.659,447.792,365.394,447.792z"/>
								<path fill="#ACDAFF" d="M365.358,441.339H221.887c-7.812,0-13.411-6.333-12.504-14.145l35.359-304.779
									c0.906-7.812,7.974-14.145,15.786-14.145h143.471c7.812,0,13.411,6.333,12.504,14.145l-35.359,304.779
									C380.238,435.006,373.17,441.339,365.358,441.339z"/>
								<path fill="#2099FF" d="M306.654,433.671H276.75c-3.463,0-5.967-2.833-5.565-6.296l0,0c0.402-3.463,3.563-6.296,7.026-6.296
									h29.904c3.463,0,5.967,2.833,5.565,6.296l0,0C313.278,430.838,310.116,433.671,306.654,433.671z"/>
								<path fill="#2099FF" d="M268.672,119.564c-0.303,2.611-2.665,4.727-5.275,4.727c-2.611,0-4.482-2.116-4.179-4.727
									s2.665-4.727,5.275-4.727S268.975,116.953,268.672,119.564z"/>
								<path fill="#2099FF" d="M279.459,119.564c-0.182,1.573-1.606,2.848-3.178,2.848c-1.573,0-2.7-1.275-2.518-2.848
									c0.182-1.573,1.606-2.848,3.178-2.848C278.514,116.716,279.642,117.991,279.459,119.564z"/>
							</g>
							<polygon fill="#FFFFFF" points="375.054,413.885 217.363,413.885 250.048,132.155 407.739,132.155 							"/>
							<path fill="#E6F2FF" d="M385.907,175.625H261.931c-3.808,0-6.537-3.087-6.095-6.895l2.504-21.585
								c0.442-3.808,3.887-6.895,7.695-6.895h123.976c3.808,0,6.537,3.087,6.095,6.895l-2.504,21.585
								C393.161,172.538,389.715,175.625,385.907,175.625z"/>
							<g>
								
									<text transform="matrix(0.9933 0 -0.1152 0.9933 278.9293 161.1385)" fill="#ACDAFF" font-family="'Montserrat-SemiBold'" font-size="12.0844">Monday 11.00 AM</text>
							</g>
						</g>
						<g>
							<g>
								<g>
									<polygon fill="#E6F2FF" points="278.756,214.402 250.537,214.402 253.811,186.183 282.03,186.183 									"/>
									<g>
										<polygon fill="#ACDAFF" points="315.272,214.402 287.053,214.402 290.327,186.183 318.546,186.183 										"/>
									</g>
									<polygon fill="#E6F2FF" points="351.788,214.402 323.569,214.402 326.843,186.183 355.062,186.183 									"/>
									<polygon fill="#E6F2FF" points="388.304,214.402 360.084,214.402 363.358,186.183 391.578,186.183 									"/>
								</g>
								<g>
									<polygon fill="#E6F2FF" points="274.57,250.488 246.351,250.488 249.624,222.269 277.844,222.269 									"/>
									<polygon fill="#E6F2FF" points="311.086,250.488 282.866,250.488 286.14,222.269 314.359,222.269 									"/>
									<polygon fill="#E6F2FF" points="347.601,250.488 319.382,250.488 322.656,222.269 350.875,222.269 									"/>
									<polygon fill="#E6F2FF" points="384.117,250.488 355.898,250.488 359.172,222.269 387.391,222.269 									"/>
								</g>
								<g>
									<polygon fill="#E6F2FF" points="270.383,286.575 242.164,286.575 245.438,258.355 273.657,258.355 									"/>
									<polygon fill="#E6F2FF" points="306.899,286.575 278.68,286.575 281.954,258.355 310.173,258.355 									"/>
									<g>
										<polygon fill="#E6F2FF" points="343.415,286.575 315.196,286.575 318.469,258.355 346.689,258.355 										"/>
									</g>
									<polygon fill="#E6F2FF" points="379.931,286.575 351.711,286.575 354.985,258.355 383.204,258.355 									"/>
								</g>
								<g>
									<polygon fill="#E6F2FF" points="266.197,322.661 237.977,322.661 241.251,294.442 269.471,294.442 									"/>
									<polygon fill="#E6F2FF" points="302.712,322.661 274.493,322.661 277.767,294.442 305.986,294.442 									"/>
									<polygon fill="#E6F2FF" points="339.228,322.661 311.009,322.661 314.283,294.442 342.502,294.442 									"/>
									<polygon fill="#E6F2FF" points="375.744,322.661 347.525,322.661 350.799,294.442 379.018,294.442 									"/>
								</g>
							</g>
						</g>
						<g>
							<g>
								<g>
									<path fill="#E6F2FF" d="M259.249,381.024c0.257-2.212,2.266-4.013,4.479-4.013h25.498c2.396,0,4.612-1.375,5.786-3.588
										c1.173-2.213,0.972-4.64-0.525-6.333l-9.899-11.198c-0.97-1.098-2.359-1.702-3.912-1.702h-31.013
										c-1.705,0-3.102-1.081-3.477-2.691l-1.314-5.642c-0.29-1.244,0.053-2.572,0.94-3.646c0.887-1.073,2.151-1.689,3.468-1.689
										h42.781c1.063,0,2.016,0.411,2.685,1.158l16.015,17.858c0.138-0.786,0.297-1.57,0.458-2.345l-15.061-16.794
										c-0.969-1.08-2.35-1.676-3.889-1.676h-42.781c-1.907,0-3.738,0.891-5.022,2.446c-1.285,1.555-1.781,3.479-1.362,5.279
										l1.314,5.642c0.543,2.332,2.567,3.898,5.035,3.898h31.013c1.072,0,2.032,0.417,2.701,1.175l9.899,11.198
										c1.236,1.397,0.997,3.176,0.363,4.373c-0.635,1.198-2.018,2.478-3.995,2.478h-25.498c-3.205,0-6.115,2.607-6.486,5.812
										l-0.686,5.914c-0.372,3.205,1.933,5.812,5.138,5.812h28.173c2.213,0,3.805,1.8,3.54,4.081
										c-0.257,2.212-2.266,4.013-4.479,4.013h-56.357l-0.209,1.799h56.357c3.205,0,6.115-2.607,6.494-5.88
										c0.372-3.205-1.933-5.812-5.138-5.812h-28.173c-2.213,0-3.805-1.801-3.548-4.013L259.249,381.024z"/>
								</g>
								<g>
									<g>
										<g>
											<path fill="#ACDAFF" d="M321.235,345.061c-0.532,4.587-10.25,16.765-10.25,16.765s-6.893-12.178-6.36-16.765
												s4.682-8.305,9.269-8.305S321.767,340.474,321.235,345.061z"/>
										</g>
										<g>
											<path fill="#FFFFFF" d="M317.435,344.677c-0.286,2.463-2.514,4.46-4.978,4.46s-4.229-1.997-3.943-4.46
												c0.286-2.463,2.514-4.46,4.978-4.46S317.72,342.213,317.435,344.677z"/>
										</g>
									</g>
								</g>
							</g>
							<path fill="#ACDAFF" d="M243.279,401.743c-0.447,3.85-3.929,6.97-7.779,6.97s-6.608-3.121-6.162-6.97s3.929-6.97,7.779-6.97
								C240.967,394.773,243.726,397.894,243.279,401.743z"/>
							<path fill="#FFFFFF" d="M239.907,401.743c-0.23,1.987-2.028,3.598-4.015,3.598s-3.411-1.611-3.18-3.598
								c0.231-1.987,2.028-3.598,4.015-3.598C238.713,398.146,240.137,399.757,239.907,401.743z"/>
						</g>
					</g>
				</g>
				<g>
					<path fill="#FF9900" d="M170.801,272.606c0,0,14.826-21.579,17.175-26.714c2.349-5.136,2.605-9.503-1.078-12.171
						c-3.683-2.668-10.474-4.761-16.474,3.696c-6,8.457-17.092,34.429-17.546,42.555c-0.454,8.126,36.291,32.729,39.557,34.318
						c3.599-0.941,5.126-6.315,5.126-6.315S173.835,277.852,170.801,272.606z"/>
					<path fill="#F79E77" d="M182.964,451.139c0,0,0.744,4.264-1.692,10.693c-2.436,6.429-2.572,8.459,0,9.881s4.399,1.827,11.572,0
						c7.174-1.827,15.159-5.82,15.159-5.82s-7.783-4.94-9.678-7.038c-1.895-2.098-5.888-9.61-5.82-10.693
						C192.574,447.078,182.964,451.139,182.964,451.139z"/>
					<path fill="#0C2C51" d="M202.472,462.181c-2.887,1.925-5.645,4.028-9.341,3.5c-2.968-0.742-4.081-3.71-5.935-5.935
						c-1.279-1.023-3.264-1.34-4.981-0.831c-0.243,0.911-0.551,1.886-0.942,2.917c-2.436,6.429-2.572,8.459,0,9.881
						c2.572,1.421,4.399,1.827,11.572,0c7.174-1.827,15.159-5.82,15.159-5.82S205.146,464.077,202.472,462.181z"/>
					<path fill="#FFB797" d="M269.98,229.085l8.983,3.867c2.978-3.691,5.216-6.474,6.677-6.776c3.802,0.51,5.434-1.1,6.452-2.398
						c1.017-1.299-0.255-2.042-0.089-2.54c1.051-1.546-0.732-2.153-0.446-2.518c1.104-1.289,0.899-1.987,0.233-2.339
						c-0.666-0.352-1.787-0.68-1.581-1.328c0.206-0.647,2.939-2.375,5.315-3.5c2.376-1.125,4.989-2.931,3.543-3.88
						c-1.446-0.949-14.944,5.535-17.47,8.302c-2.526,2.767-1.876,5.712-5.043,8.759C275.405,225.838,272.857,227.474,269.98,229.085
						z"/>
					<path fill="#FFAE83" d="M192.349,449.83c0,0,0.632,8.753-2.166,15.881s-1.985,10.287,3.068,11.73
						c5.053,1.444,7.85-1.985,14.437-1.805c6.587,0.18,15.34-0.541,17.596-6.587c2.256-6.046-8.275-3.344-14.65-5.236
						c-6.375-1.892-3.54-13.081-3.54-13.081L192.349,449.83z"/>
					<path fill="#0F3163" d="M210.814,463.687c-0.572,1.917,4.627,3.938,3.091,4.962c-5.564,4.081-12.242-2.968-18.548-5.194
						c-1.285-0.642-2.817-0.665-4.31-0.356c-0.244,0.882-0.528,1.759-0.863,2.613c-2.797,7.128-1.985,10.287,3.068,11.73
						c5.053,1.444,7.85-1.985,14.437-1.805c6.587,0.18,19.047-1.067,21.303-7.113C231.224,462.54,217.205,465.469,210.814,463.687z"
						/>
					<g>
						<g>
							<g>
								<path fill="#0C2C51" d="M228.217,465.636c-0.036,0.142-0.076,0.285-0.133,0.439c-2.256,6.046-14.715,7.293-21.302,7.113
									c-6.587-0.18-9.384,3.248-14.437,1.805c-1.734-0.495-2.956-1.2-3.717-2.19c0.217,2.401,1.713,3.807,4.624,4.639
									c5.053,1.444,7.85-1.985,14.437-1.805c6.587,0.18,19.047-1.067,21.303-7.113
									C229.508,467.139,229.146,466.236,228.217,465.636z"/>
							</g>
						</g>
					</g>
					<path fill="#144182" d="M202.996,337.58c-3.449-1.634-5.768-4.061-7.271-6.747c-2.979-5.324-2.741-11.671-1.662-14.909
						c1.624-4.873,8.121-17.144,8.121-17.144l-15.971-2.955c0,0-7.174,12.385-10.828,22.13c-3.654,9.745-0.677,20.032,1.083,27.747
						c1.76,7.715,6.226,29.777,4.331,38.033c-1.895,8.256-5.414,20.844-4.467,30.454c0.947,9.61,5.685,32.484,5.549,37.627
						c1.599,0.714,3.163,0.958,4.609,0.923c4.31-0.104,7.572-2.683,7.572-2.683s1.083-39.387,5.143-56.712
						C203.267,376.019,207.327,343.806,202.996,337.58z"/>
					<path fill="#0F3163" d="M202.996,337.58c-3.449-1.634-5.768-4.061-7.271-6.747c-6.759-3.195-2.047-15.597-2.594-23.254
						c-2.676,7.39-12.915,20.714,1.076,37.313c4.98,4.624,0.119,40.906-4.15,57.269c-3.827,13.873-2.154,36.155-1.478,50.332
						c3.23-0.663,5.483-2.437,5.483-2.437s1.083-39.387,5.143-56.712C203.267,376.019,207.327,343.806,202.996,337.58z"/>
					<path fill="#144182" d="M228.532,298.599c0,0,4.692,17.866,3.248,36.996c-1.444,19.13-14.257,51.253-15.701,58.291
						s-3.429,27.278-5.234,36.378c-1.805,9.1-2.707,17.582-1.714,19.928c-4.241,4.512-15.52,3.97-18.047,0
						c0.902-18.588,0.451-34.559,3.97-47.102c3.519-12.542,1.354-15.791,2.797-23.641c1.444-7.85,2.887-32.123,3.609-35.011
						c0.722-2.887-6.497-4.331-9.114-9.023c-2.617-4.692-8.031-15.971,6.948-38.981
						C215.268,295.892,228.532,298.599,228.532,298.599z"/>
					<path fill="#164E91" d="M228.532,298.599c0,0-13.264-2.707-29.236-2.166c-0.3,0.461-0.579,0.909-0.863,1.361
						c13.173,0.168,23.261,2.226,23.261,2.226s4.692,17.866,3.248,36.996c-1.444,19.129-11.676,50.719-13.12,57.757
						c-1.444,7.038-2.015,26.36-3.819,35.46c-1.556,7.847-1.841,17.61-1.255,21.658c0.916-0.458,1.737-1.014,2.382-1.7
						c-0.993-2.346-0.09-10.828,1.714-19.928c1.805-9.1,3.79-29.34,5.234-36.378c1.444-7.038,14.257-39.161,15.701-58.291
						C233.224,316.465,228.532,298.599,228.532,298.599z"/>
					<path fill="#FFAE83" d="M220.321,190.68c0,0,1.354,16.062-0.451,21.024s-3.609,8.572-4.602,9.565s-5.77-0.812-6.72,0
						s-0.86,10.106-0.86,10.106l-13.264-0.541c0,0,1.534-16.783,2.707-21.385C198.304,204.846,218.968,190.319,220.321,190.68z"/>
					<path fill="#FFAA00" d="M188.92,230.518c0,0,10.287-5.143,18.678-1.083c8.392,4.061,21.521,21.115,23.551,24.363
						c2.03,3.248,3.384,10.557,0,17.189c-3.384,6.632-2.166,26.123-0.406,29.506c-14.212,4.196-36.274,1.489-46.425-2.978
						c5.685-8.256,8.662-11.369,4.602-20.438C184.859,268.01,179.987,242.293,188.92,230.518z"/>
					<path fill="#FF9900" d="M224.761,272.238c3.384-6.632,2.03-13.941,0-17.189c-2.03-3.248-15.159-20.303-23.551-24.363
						c-2.899-1.403-6.017-1.695-8.866-1.492c-2.086,0.662-3.424,1.324-3.424,1.324c-8.933,11.775-4.061,37.492,0,46.561
						c4.06,9.068,1.083,12.182-4.602,20.438c8.542,3.758,25.517,6.27,39.153,4.472c0.296-0.08,0.594-0.158,0.884-0.244
						C222.595,298.361,221.377,278.87,224.761,272.238z"/>
					<path fill="#FFBC00" d="M240.759,250.144c0,0-21.419-15.056-26.529-17.46c-5.11-2.404-9.475-2.707-12.182,0.947
						c-2.707,3.654-4.873,10.422,3.519,16.513s34.244,17.46,42.365,18.002s33.116-35.938,34.74-39.187
						c-0.902-3.609-6.26-5.194-6.26-5.194S246.038,247.166,240.759,250.144z"/>
					<g>
						<path fill="#FF69A6" d="M205.568,250.144c-0.285-0.207-0.53-0.402-0.792-0.602
							C205.029,249.743,205.292,249.943,205.568,250.144z"/>
						<path fill="#FFD815" d="M201.525,237.166c2.707-3.654,7.071-3.352,12.182-0.947s25.713,15.868,25.713,15.868
							c5.279-2.978,36.993-28.322,36.993-28.322s-30.375,23.401-35.654,26.379c0,0-21.419-15.056-26.529-17.46
							c-5.11-2.404-9.475-2.707-12.182,0.948c-1.267,1.71-2.414,4.101-2.418,6.786C200.01,239.313,200.717,238.258,201.525,237.166z
							"/>
					</g>
					<path fill="#144182" d="M219.329,183.1c-6.136-6.136-17.505-8.482-17.505-8.482c-9.648-3.277-17.144,5.775-19.31,13.896
						c-2.166,8.121-1.101,17.57-4.421,28.242c-1.679,5.201-25.709,42.421,5.794,69.378c8.008,3.957,14.138,5.698,22.794-0.98
						c-9.12-21.682-6.238-42.491-4.399-48.73c1.778-6.034,5.432-6.257,8.785-5.011c0.153,0.06,0.302,0.117,0.459,0.181
						c-0.311-0.612-0.716-1.313-1.194-2.085c-1.689-5.033-0.099-15.472,3.357-19.158c4.061-4.331,5.955-11.369,6.632-16.513
						c0.947,6.091-1.218,9.881-2.707,12.046C223.434,201.417,225.464,189.236,219.329,183.1z"/>
					<path fill="#0F3163" d="M180.691,263.791c-3.557-24.899,6.403-50.51,15.651-73.987c2.768-7.196,10.703-10.514,18.78-9.957
						c-6.047-3.729-13.299-5.229-13.299-5.229c-9.648-3.277-17.144,5.775-19.31,13.896c-2.166,8.121-1.101,17.57-4.421,28.242
						c-1.679,5.201-25.709,42.421,5.794,69.378c6.473,3.199,11.72,4.947,18.066,1.973c-2.706-0.483-5.874-2.25-6.547-2.795
						C188.291,280.332,182.114,272.328,180.691,263.791z"/>
				</g>
				<g>
					<g>
						<g>
							<path fill="#82C4E8" d="M371.585,286.373c0,0-13.647-40.394-1.363-51.995c12.283-11.601-2.96-28.066,0.65-38.79
								s16.834-17.096,22.6,2.578s7.401,20.284,21.893,21.189s13.378,30.086,10.816,43.512c-2.563,13.426,11.671-7.781,15.976,6.628
								c4.305,14.41-16.549,44.126-38.486,59.613c-21.936,15.487-48.764-28.56-46.921-39.577S366.642,293.262,371.585,286.373z"/>
						</g>
						<g>
							<path fill="#6CB7D8" d="M373.515,230.026c-0.761,1.507-1.826,2.965-3.294,4.351c-12.283,11.601,1.363,51.995,1.363,51.995
								c-4.942,6.89-12.993-7.858-14.836,3.158c-1.842,11.017,24.985,55.064,46.921,39.577c1.178-0.832,2.352-1.712,3.52-2.621
								C404.646,292.03,393.009,258.999,373.515,230.026z"/>
						</g>
						<g>
							<g>
								<path fill="#98CFF4" d="M396.208,332.938c-0.22,0.242-0.557,0.368-0.903,0.302c-0.528-0.101-0.873-0.61-0.771-1.137
									c0.105-0.549,10.22-55.81-15.338-135.917c-0.164-0.511,0.117-1.06,0.63-1.221c0.511-0.164,1.059,0.119,1.221,0.63
									c25.72,80.614,15.501,136.32,15.395,136.873C396.407,332.65,396.324,332.81,396.208,332.938z"/>
							</g>
							<g>
								<path fill="#98CFF4" d="M386.867,219.946l-12.926-10.416c-0.418-0.336-0.484-0.948-0.147-1.366
									c0.337-0.411,0.949-0.483,1.366-0.147l11.183,9.011l5.894-9.877c0.279-0.466,0.872-0.612,1.333-0.337
									c0.461,0.275,0.612,0.872,0.337,1.333L386.867,219.946z"/>
							</g>
							<g>
								<path fill="#98CFF4" d="M418.475,227.866c-0.02,0.022-0.042,0.044-0.064,0.065l-25.149,23.006l-19.98-13.575
									c-0.444-0.302-0.559-0.906-0.257-1.35c0.3-0.448,0.906-0.559,1.35-0.257l18.709,12.71l24.016-21.969
									c0.396-0.362,1.011-0.334,1.374,0.061C418.814,226.931,418.809,227.498,418.475,227.866z"/>
							</g>
							<g>
								<path fill="#98CFF4" d="M423.923,259.941c-0.01,0.011-0.02,0.022-0.03,0.032l-26.649,26.871l-26.313-20.976
									c-0.42-0.335-0.489-0.947-0.155-1.366c0.357-0.426,0.946-0.488,1.366-0.155l24.949,19.889l25.421-25.632
									c0.378-0.381,0.993-0.384,1.374-0.006C424.258,258.966,424.27,259.558,423.923,259.941z"/>
							</g>
							<g>
								<path fill="#98CFF4" d="M435.386,278.881c-0.009,0.01-0.018,0.02-0.027,0.029l-38.051,38.659l-32.618-22.808
									c-0.44-0.308-0.547-0.914-0.24-1.354c0.313-0.436,0.915-0.547,1.354-0.24l31.272,21.868l36.898-37.488
									c0.377-0.382,0.992-0.388,1.374-0.011C435.721,277.903,435.735,278.498,435.386,278.881z"/>
							</g>
						</g>
					</g>
					<g>
						<g>
							<path fill="#98CFF4" d="M365.968,376.08c0,0-29.817-14.921-29.382-28.126c0.435-13.205-17.095-13.958-20.994-21.901
								s-0.063-18.762,13.971-11.01c14.034,7.752,15.277,7.191,23.824-0.285s23.993,9.344,29.961,18.211
								c5.968,8.867,2.198-10.747,12.522-5.114s15.102,33.618,11.445,54.295c-3.657,20.677-42.806,10.984-47.847,3.851
								C354.426,378.869,367.016,382.627,365.968,376.08z"/>
						</g>
						<g>
							<path fill="#82C4E8" d="M336.02,343.724c0.407,1.256,0.618,2.652,0.566,4.23c-0.435,13.205,29.382,28.126,29.382,28.126
								c1.048,6.547-11.542,2.789-6.501,9.921c5.042,7.133,44.19,16.826,47.847-3.851c0.196-1.11,0.364-2.245,0.512-3.393
								C387.444,361.021,362.796,349.082,336.02,343.724z"/>
						</g>
						<g>
							<g>
								<path fill="#ACDAFF" d="M405.279,388.385c0.011,0.256-0.107,0.511-0.336,0.665c-0.349,0.234-0.821,0.142-1.054-0.207
									c-0.244-0.362-25.049-36.622-83.344-67.041c-0.373-0.194-0.518-0.653-0.322-1.025c0.194-0.373,0.653-0.517,1.025-0.322
									c58.665,30.612,83.657,67.175,83.903,67.541C405.231,388.116,405.273,388.251,405.279,388.385z"/>
							</g>
							<g>
								<path fill="#ACDAFF" d="M337.886,330.775l-12.913,1.331c-0.417,0.044-0.791-0.26-0.834-0.678
									c-0.039-0.414,0.261-0.791,0.678-0.834l11.172-1.152l-2.164-8.73c-0.102-0.412,0.148-0.82,0.555-0.921
									c0.408-0.101,0.82,0.147,0.921,0.555L337.886,330.775z"/>
							</g>
							<g>
								<path fill="#ACDAFF" d="M359.8,317.772c0.001,0.024,0.001,0.047,0,0.071l-1.302,26.622l-18.57,3.46
									c-0.413,0.077-0.809-0.196-0.886-0.608c-0.08-0.414,0.196-0.809,0.608-0.886l17.388-3.241l1.243-25.422
									c0.021-0.419,0.378-0.742,0.797-0.722C359.473,317.067,359.783,317.384,359.8,317.772z"/>
							</g>
							<g>
								<path fill="#ACDAFF" d="M380.484,332.587c0,0.011,0.001,0.023,0.001,0.034l-0.007,29.594l-26.161,2.837
									c-0.418,0.045-0.793-0.256-0.838-0.673c-0.036-0.433,0.256-0.792,0.673-0.838l24.805-2.69l0.007-28.23
									c0-0.42,0.34-0.76,0.76-0.76C380.133,331.861,380.466,332.183,380.484,332.587z"/>
							</g>
							<g>
								<path fill="#ACDAFF" d="M397.278,336.795c0,0.01,0.001,0.021,0.001,0.031l0.151,42.418l-30.672,5.29
									c-0.414,0.071-0.807-0.206-0.879-0.62c-0.066-0.415,0.207-0.808,0.62-0.879l29.407-5.071l-0.146-41.133
									c-0.001-0.42,0.337-0.761,0.757-0.763C396.925,336.067,397.26,336.39,397.278,336.795z"/>
							</g>
						</g>
					</g>
					<g>
						<g>
							<g>
								<path fill="#ACDAFF" d="M443.77,356.81c0,0,25.514-34.16,17.44-49.002c-8.074-14.842,11.528-25.76,11.426-37.075
									c-0.102-11.315-10.694-21.478-22.284-4.566c-11.59,16.912-13.333,16.983-27.39,13.344
									c-14.057-3.639-22.059,24.445-23.791,38.003c-1.733,13.558-8.678-11.021-17.244,1.34s2.03,47.084,18.074,68.616
									c16.044,21.532,55.221-12.008,56.891-23.052S446.329,364.894,443.77,356.81z"/>
							</g>
						</g>
						<g>
							<path fill="#98CFF4" d="M459.43,302.649c0.255,1.669,0.815,3.385,1.78,5.159c8.074,14.842-17.44,49.002-17.44,49.002
								c2.559,8.084,14.791-3.436,13.122,7.608s-40.847,44.584-56.891,23.052c-0.862-1.156-1.704-2.357-2.532-3.584
								C410.586,351.923,431.904,324.137,459.43,302.649z"/>
						</g>
						<g>
							<g>
								<path fill="#D2EDFF" d="M405.906,393.429c0.134,0.299,0.415,0.523,0.765,0.567c0.533,0.068,1.019-0.309,1.086-0.842
									c0.071-0.554,7.614-56.225,56.781-124.437c0.314-0.435,0.217-1.044-0.22-1.356c-0.435-0.314-1.043-0.216-1.356,0.22
									c-49.479,68.644-57.061,124.77-57.132,125.329C405.805,393.093,405.835,393.271,405.906,393.429z"/>
							</g>
							<g>
								<path fill="#D2EDFF" d="M449.868,288.922l15.521-5.888c0.502-0.19,0.754-0.751,0.564-1.253
									c-0.193-0.495-0.752-0.754-1.253-0.564l-13.429,5.093l-2.536-11.219c-0.12-0.53-0.639-0.852-1.162-0.734
									c-0.524,0.118-0.852,0.639-0.734,1.162L449.868,288.922z"/>
							</g>
							<g>
								<path fill="#D2EDFF" d="M417.363,286.636c0.012,0.028,0.026,0.055,0.041,0.082l16.763,29.678l23.207-6.7
									c0.516-0.149,0.813-0.688,0.664-1.204c-0.146-0.519-0.688-0.813-1.204-0.664l-21.73,6.273l-16.007-28.34
									c-0.264-0.467-0.857-0.632-1.325-0.368C417.332,285.642,417.16,286.183,417.363,286.636z"/>
							</g>
							<g>
								<path fill="#D2EDFF" d="M402.226,315.434c0.006,0.013,0.012,0.027,0.019,0.039l16.988,33.817l31.525-11.769
									c0.503-0.188,0.759-0.748,0.571-1.25c-0.207-0.516-0.748-0.758-1.25-0.571l-29.891,11.159l-16.206-32.258
									c-0.241-0.48-0.825-0.673-1.305-0.432C402.21,314.403,402.014,314.962,402.226,315.434z"/>
							</g>
							<g>
								<path fill="#D2EDFF" d="M385.448,329.879c0.005,0.012,0.011,0.024,0.017,0.036l24.167,48.563l38.088-11.553
									c0.513-0.156,0.804-0.698,0.648-1.212c-0.162-0.512-0.7-0.804-1.212-0.648l-36.516,11.077l-23.434-47.092
									c-0.239-0.48-0.822-0.677-1.303-0.437C385.434,328.845,385.236,329.406,385.448,329.879z"/>
							</g>
						</g>
					</g>
					<g>
						<polygon fill="#FF9900" points="359.437,390.418 434.552,390.418 418.93,464.781 370.501,464.781 						"/>
						<polygon fill="#FFBC00" points="428.098,421.141 364.008,421.141 365.166,428.919 426.464,428.919 						"/>
						<polygon fill="#FFBC00" points="425.758,432.277 365.665,432.277 366.244,436.166 424.941,436.166 						"/>
						<rect x="357.181" y="389.186" fill="#FFBC00" width="79.484" height="10.568"/>
					</g>
				</g>
			</g>
		</g>
	</g>
</g>
</svg>
