<?xml version="1.0" encoding="utf-8"?>
<!-- Generator: Adobe Illustrator 24.1.1, SVG Export Plug-In . SVG Version: 6.00 Build 0)  -->
<svg version="1.1" xmlns="http://www.w3.org/2000/svg" xmlns:xlink="http://www.w3.org/1999/xlink" x="0px" y="0px"
	 viewBox="0 0 500 500" style="enable-background:new 0 0 500 500;" xml:space="preserve">
<g id="Background_Complete">
</g>
<g id="Background_Simple" style="display:none;">
	<g style="display:inline;">
		<path style="fill:#407BFF;" d="M107.1,329.95c-37.73-0.77-63.48-72.31-43.86-121.65c26.74-67.24,151.42-106.47,228.78-106.37
			c40.59,0.05,104.98,0,141,80.54c19.07,42.65,16.45,165.3-44.28,181.56c-96.06,25.73-95.92-70.28-134.03-74.63
			C200.41,283.22,191.91,331.68,107.1,329.95z"/>
		<path style="opacity:0.9;fill:#FFFFFF;" d="M107.1,329.95c-37.73-0.77-63.48-72.31-43.86-121.65
			c26.74-67.24,151.42-106.47,228.78-106.37c40.59,0.05,104.98,0,141,80.54c19.07,42.65,16.45,165.3-44.28,181.56
			c-96.06,25.73-95.92-70.28-134.03-74.63C200.41,283.22,191.91,331.68,107.1,329.95z"/>
	</g>
</g>
<g id="Shadow">
</g>
<g id="Gear">
</g>
<g id="Device">
</g>
<g id="Interface">
</g>
<g id="Character">
	<g>
		<g>
			<rect x="446.86" y="430.42" style="fill:#EBEBEB;" width="38.72" height="0.29"/>
			<rect x="336.67" y="433.59" style="fill:#EBEBEB;" width="10.16" height="0.29"/>
			<rect x="423.25" y="419.56" style="fill:#EBEBEB;" width="22.44" height="0.29"/>
			<rect x="20.93" y="421.53" style="fill:#EBEBEB;" width="50.5" height="0.29"/>
			<rect x="81.84" y="421.53" style="fill:#EBEBEB;" width="7.4" height="0.29"/>
			<rect x="113.31" y="426.46" style="fill:#EBEBEB;" width="109.52" height="0.29"/>
			<path style="fill:#EBEBEB;" d="M236.7,359.46H10.94c-3.68,0-6.67-2.99-6.67-6.67V35.45c0-3.68,2.99-6.67,6.67-6.67H236.7
				c3.68,0,6.67,2.99,6.67,6.67v317.33C243.37,356.47,240.38,359.46,236.7,359.46z M10.94,29.07c-3.52,0-6.38,2.86-6.38,6.38v317.33
				c0,3.52,2.86,6.38,6.38,6.38H236.7c3.52,0,6.38-2.86,6.38-6.38V35.45c0-3.52-2.86-6.38-6.38-6.38H10.94z"/>
			<path style="fill:#EBEBEB;" d="M489.57,359.46H263.82c-3.68,0-6.67-2.99-6.67-6.67V35.45c0-3.68,2.99-6.67,6.67-6.67h225.75
				c3.68,0,6.67,2.99,6.67,6.67v317.33C496.25,356.47,493.25,359.46,489.57,359.46z M263.82,29.07c-3.52,0-6.38,2.86-6.38,6.38
				v317.33c0,3.52,2.86,6.38,6.38,6.38h225.75c3.52,0,6.38-2.86,6.38-6.38V35.45c0-3.52-2.86-6.38-6.38-6.38H263.82z"/>
			<rect x="-40.4" y="411.6" style="display:none;fill:#EBEBEB;" width="584.55" height="0.29"/>
		</g>
		<g>
			<rect x="43.27" y="76.01" style="fill:#EBEBEB;" width="141.23" height="335.22"/>
			<rect x="49.28" y="82.08" style="fill:#F5F5F5;" width="129.22" height="329.15"/>
			<rect x="59.05" y="125.5" style="fill:#FAFAFA;" width="51.8" height="120.54"/>
			<rect x="117.61" y="125.5" style="fill:#FAFAFA;" width="51.8" height="120.54"/>
			<rect x="59.05" y="282.51" style="fill:#FAFAFA;" width="110.35" height="120.54"/>
			<path style="fill:#FAFAFA;" d="M169.41,119.27H59.05V108.1c0-9.54,7.74-17.28,17.28-17.28h75.79c9.54,0,17.28,7.74,17.28,17.28
				V119.27z"/>
			<rect x="59.05" y="251.48" style="fill:#E6E6E6;" width="9.42" height="24.55"/>
			
				<rect x="68.48" y="251.48" transform="matrix(-1 -1.224647e-16 1.224647e-16 -1 138.8036 527.5037)" style="fill:#E0E0E0;" width="1.85" height="24.55"/>
			<path style="fill:#E0E0E0;" d="M65.36,261.12c0,2.19-1.78,3.97-3.97,3.97c-2.19,0-3.97-1.78-3.97-3.97s1.78-3.97,3.97-3.97
				C63.59,257.15,65.36,258.93,65.36,261.12z"/>
			<rect x="62.56" y="267.99" style="fill:#E0E0E0;" width="2.05" height="4.97"/>
			<circle style="fill:#EBEBEB;" cx="57.89" cy="261.12" r="5.55"/>
		</g>
		<g>
			<path style="fill:#E0E0E0;" d="M401.86,315.48c0,0,16.14-15.21,15.87-25.2c-0.27-9.98-10.08,13.42-10.31,8.49
				c-0.23-4.93,11.15-19.05,11.62-28.71c0.48-9.66-11.58,17.33-12.22,12.79s11.05-24.6,10.96-31.62
				c-0.1-7.02-10.22,17.79-11.7,13.39c-1.48-4.39,8.43-20.78,5.9-33.04c-2.53-12.27-7.92,19.91-8.74,15.83
				c-0.82-4.08,6.03-25.04,1.18-33.42c-4.85-8.38-3.47,22.67-5.13,19.06c-1.65-3.61-2.66-21.4-8.82-27.47
				c-6.16-6.06,1.63,17.93-0.27,19.14c-1.89,1.21-10.69-16.65-13.06-13.26c-2.37,3.39,12.49,22.57,12.63,27.16
				c0.14,4.59-12-7.66-13.08-2.69c-1.08,4.97,16.9,12.79,17.82,17.55c0.92,4.76-14.96-3.75-14.89,1.15
				c0.07,4.9,15.12,7.52,16.02,13.09c0.9,5.57-14.74-4.02-13.89,2.51c0.85,6.53,11.38,5.25,12.58,11.69
				c1.2,6.44-10.87-0.9-10.41,5.22c0.46,6.12,12.51,6.79,13.77,11.46c1.26,4.67-11.52-2.18-11.16,2.78
				C386.9,306.35,399.36,306.98,401.86,315.48z"/>
			<g>
				<path style="fill:#F0F0F0;" d="M400.53,337.11c2.31-11.16,3.12-22.77,3.39-34.13c0.6-24.89-2.52-49.99-10.82-73.54
					c-0.6-1.72-3.4-1.1-2.79,0.64c8.22,23.33,11.34,48.13,10.75,72.8c-0.27,11.1-1,22.47-3.26,33.38
					C397.43,338.04,400.16,338.91,400.53,337.11L400.53,337.11z"/>
			</g>
			<path style="fill:#EBEBEB;" d="M406.58,320.62c0,0-11.21-21.46-7.63-36.01c3.58-14.55,6.2,19.31,7.87,11.21
				c1.67-8.11-5.25-23.85,1.19-35.53c6.44-11.68,0.48,21.94,4.77,14.55c4.29-7.39-0.72-26.23,5.25-33.38
				c5.96-7.15,1.91,15.5,4.77,11.92c2.86-3.58,2.15-20.27,6.68-24.08c4.53-3.82,0.48,15.98,2.86,12.16
				c2.38-3.82,7.87-21.22,15.5-23.37s-5.01,10.73,0,9.54c5.01-1.19,16.45-3.82,17.41,1.43c0.95,5.25-24.08,10.97-26.94,17.41
				c-2.86,6.44,11.45-5.01,14.07-0.24c2.62,4.77-21.94,11.45-23.85,18.6c-1.91,7.15,20.27-5.96,19.79,1.43
				c-0.48,7.39-25.51,8.82-26.71,15.26c-1.19,6.44,20.51-7.15,19.79-0.72c-0.72,6.44-22.41,11.45-23.85,18.36
				c-1.43,6.92,15.98-6.44,16.45-0.95C434.48,303.69,406.58,320.62,406.58,320.62z"/>
			<path style="fill:#EBEBEB;" d="M390.74,319.99c0,0,10.85-19.34,7.61-28.79c-3.24-9.45-5.61,15.82-7.3,11.19
				c-1.69-4.64,4.94-21.51,2.51-30.87c-2.43-9.36-5.87,20-7.84,15.86c-1.97-4.13,3.19-26.78,1-33.45
				c-2.19-6.67-4.44,20.03-7.16,16.28c-2.73-3.75,1.83-22.35-4.25-33.3c-6.08-10.95-1.6,21.37-3.6,17.72
				c-2-3.65-1.74-25.7-8.86-32.25c-7.13-6.55,3.46,22.67,0.8,19.72c-2.66-2.95-8.94-19.63-16.63-23.57
				c-7.69-3.94,6.91,16.62,5.47,18.34c-1.44,1.72-15.18-12.69-16.42-8.75c-1.24,3.94,18.67,17.8,20.17,22.14
				c1.5,4.33-13.74-3.72-13.29,1.35c0.45,5.07,19.95,7.16,22.25,11.42c2.3,4.26-15.4,0.9-13.87,5.55c1.53,4.65,16.68,2.66,19.2,7.7
				c2.53,5.04-15.27,0.57-12.5,6.54c2.77,5.98,12.43,1.6,15.5,7.39c3.07,5.79-10.64,2.39-8.37,8.09c2.26,5.7,13.97,2.74,16.57,6.82
				c2.6,4.08-11.64,1.36-9.82,5.98C373.73,315.74,385.8,312.62,390.74,319.99z"/>
			<g>
				<path style="fill:#F0F0F0;" d="M395.93,341.02c-1.13-11.34-3.83-22.66-6.97-33.58c-6.87-23.93-17.35-46.95-32.31-66.94
					c-1.09-1.46-3.58-0.03-2.47,1.44c14.82,19.8,25.21,42.54,32.02,66.26c3.06,10.67,5.76,21.74,6.86,32.82
					C393.25,342.83,396.11,342.85,395.93,341.02L395.93,341.02z"/>
			</g>
			<g>
				<path style="fill:#F5F5F5;" d="M406.11,338.27c0.34-9.93,1.71-19.9,3.49-29.66c3.44-18.9,8.93-38.22,19.49-54.46
					c6.03-9.27,13.92-17.2,24.01-21.94c1.67-0.78,0.21-3.25-1.44-2.47c-18.05,8.48-28.87,26.54-35.72,44.53
					c-6.38,16.74-9.91,34.57-11.78,52.36c-0.41,3.87-0.77,7.76-0.9,11.65C403.18,340.11,406.04,340.11,406.11,338.27L406.11,338.27z
					"/>
			</g>
			<polygon style="fill:#EBEBEB;" points="429.47,332.71 370.34,332.71 377.01,395.97 377.01,411.23 422.8,411.23 422.8,395.97 			
				"/>
		</g>
		<g>
			<g>
				<rect x="400.54" y="138.16" style="fill:#F0F0F0;" width="42.47" height="33.49"/>
				<rect x="443.01" y="138.16" style="fill:#E0E0E0;" width="2.29" height="33.49"/>
				<rect x="404.87" y="141.58" style="fill:#FAFAFA;" width="33.81" height="26.66"/>
				<rect x="407.65" y="143.77" style="fill:#EBEBEB;" width="28.24" height="22.27"/>
			</g>
			<g>
				<g>
					<rect x="345.02" y="83.82" style="fill:#EBEBEB;" width="46.75" height="59.29"/>
					<rect x="391.78" y="83.82" style="fill:#E0E0E0;" width="2.23" height="59.29"/>
					<rect x="349.79" y="89.87" style="fill:#F5F5F5;" width="37.22" height="47.2"/>
					<rect x="352.86" y="93.75" style="fill:#FAFAFA;" width="31.09" height="39.43"/>
				</g>
				<path style="fill:#EBEBEB;" d="M374.55,107.67c0,0-5.5,7.77-8.32,7.65c-2.59-0.11-6.98-7.65-6.98-7.65s5.5-7.77,8.32-7.65
					C370.16,100.13,374.55,107.67,374.55,107.67z"/>
				<path style="fill:#F0F0F0;" d="M360.17,124.88c-1.62-3.14,6.87-9.72,10.4-9.56c3.23,0.14,9.98,6.58,8.72,9.56
					C377.44,129.28,362.37,129.12,360.17,124.88z"/>
			</g>
			<g>
				<g>
					<ellipse style="fill:#E0E0E0;" cx="430.01" cy="91.06" rx="21.1" ry="29.42"/>
					<ellipse style="fill:#EBEBEB;" cx="427.5" cy="91.06" rx="21.1" ry="29.42"/>
					<ellipse style="fill:#E6E6E6;" cx="427.5" cy="91.06" rx="17.98" ry="25.07"/>
					<ellipse style="fill:#FAFAFA;" cx="427.5" cy="91.06" rx="16.07" ry="22.4"/>
				</g>
				<path style="fill:#EBEBEB;" d="M422.45,103.24c0,0-5.54-4.87-4.95-12.47c0,0,6.62-0.78,6.43,10.33c0,0,7.47-7.75,5.26-12.67
					c-3.45-7.67-3.45-7.67-1.01-12.47c0,0,6.52,2.63,3.55,11.5c0,0-0.12,4.29-1.03,6.82c0,0,6.56-6.28,8.67-2.17
					c0,0-3.49,6.65-8.67,3.89C430.69,96,424.87,106.18,422.45,103.24z"/>
			</g>
		</g>
		<ellipse id="_x3C_Path_x3E__1_" style="fill:#F5F5F5;" cx="246.24" cy="446.67" rx="226.68" ry="13.24"/>
		<g>
			<path style="fill:#407BFF;" d="M308.26,334.36c0-0.98-0.05-1.95-0.14-2.91l5.7-3.17c-0.43-2.74-1.15-5.39-2.12-7.91l-6.51,0.11
				c-0.82-1.77-1.8-3.46-2.92-5.04l3.35-5.59c-1.72-2.13-3.67-4.07-5.79-5.79l-5.59,3.35c-1.58-1.11-3.27-2.09-5.04-2.92l0.11-6.51
				c-2.52-0.97-5.17-1.69-7.91-2.12l-3.17,5.7c-0.96-0.08-1.93-0.14-2.91-0.14c-0.98,0-1.95,0.05-2.91,0.14l-3.17-5.7
				c-2.74,0.43-5.39,1.15-7.91,2.12l0.11,6.51c-1.77,0.82-3.46,1.8-5.04,2.92l-5.59-3.35c-2.13,1.72-4.07,3.67-5.79,5.79l3.35,5.59
				c-1.11,1.58-2.09,3.27-2.92,5.04l-6.51-0.11c-0.97,2.52-1.69,5.17-2.12,7.91l5.7,3.17c-0.08,0.96-0.14,1.93-0.14,2.91
				c0,0.98,0.05,1.95,0.14,2.91l-5.7,3.17c0.43,2.74,1.15,5.39,2.12,7.91l6.51-0.11c0.82,1.77,1.8,3.46,2.92,5.04l-3.35,5.59
				c1.72,2.13,3.67,4.07,5.79,5.79l5.59-3.35c1.58,1.11,3.27,2.09,5.04,2.92l-0.11,6.51c2.52,0.97,5.17,1.69,7.91,2.12l3.17-5.7
				c0.96,0.08,1.93,0.14,2.91,0.14c0.98,0,1.95-0.05,2.91-0.14l3.17,5.7c2.74-0.43,5.39-1.15,7.91-2.12l-0.11-6.51
				c1.77-0.82,3.46-1.8,5.04-2.92l5.59,3.35c2.13-1.72,4.07-3.67,5.79-5.79l-3.35-5.59c1.11-1.58,2.09-3.27,2.92-5.04l6.51,0.11
				c0.97-2.52,1.69-5.17,2.12-7.91l-5.7-3.17C308.21,336.31,308.26,335.34,308.26,334.36z M275.33,356.72
				c-12.35,0-22.36-10.01-22.36-22.36c0-12.35,10.01-22.36,22.36-22.36c12.35,0,22.36,10.01,22.36,22.36
				C297.69,346.71,287.68,356.72,275.33,356.72z"/>
			<path style="opacity:0.5;fill:#FFFFFF;" d="M308.26,334.36c0-0.98-0.05-1.95-0.14-2.91l5.7-3.17c-0.43-2.74-1.15-5.39-2.12-7.91
				l-6.51,0.11c-0.82-1.77-1.8-3.46-2.92-5.04l3.35-5.59c-1.72-2.13-3.67-4.07-5.79-5.79l-5.59,3.35c-1.58-1.11-3.27-2.09-5.04-2.92
				l0.11-6.51c-2.52-0.97-5.17-1.69-7.91-2.12l-3.17,5.7c-0.96-0.08-1.93-0.14-2.91-0.14c-0.98,0-1.95,0.05-2.91,0.14l-3.17-5.7
				c-2.74,0.43-5.39,1.15-7.91,2.12l0.11,6.51c-1.77,0.82-3.46,1.8-5.04,2.92l-5.59-3.35c-2.13,1.72-4.07,3.67-5.79,5.79l3.35,5.59
				c-1.11,1.58-2.09,3.27-2.92,5.04l-6.51-0.11c-0.97,2.52-1.69,5.17-2.12,7.91l5.7,3.17c-0.08,0.96-0.14,1.93-0.14,2.91
				c0,0.98,0.05,1.95,0.14,2.91l-5.7,3.17c0.43,2.74,1.15,5.39,2.12,7.91l6.51-0.11c0.82,1.77,1.8,3.46,2.92,5.04l-3.35,5.59
				c1.72,2.13,3.67,4.07,5.79,5.79l5.59-3.35c1.58,1.11,3.27,2.09,5.04,2.92l-0.11,6.51c2.52,0.97,5.17,1.69,7.91,2.12l3.17-5.7
				c0.96,0.08,1.93,0.14,2.91,0.14c0.98,0,1.95-0.05,2.91-0.14l3.17,5.7c2.74-0.43,5.39-1.15,7.91-2.12l-0.11-6.51
				c1.77-0.82,3.46-1.8,5.04-2.92l5.59,3.35c2.13-1.72,4.07-3.67,5.79-5.79l-3.35-5.59c1.11-1.58,2.09-3.27,2.92-5.04l6.51,0.11
				c0.97-2.52,1.69-5.17,2.12-7.91l-5.7-3.17C308.21,336.31,308.26,335.34,308.26,334.36z M275.33,356.72
				c-12.35,0-22.36-10.01-22.36-22.36c0-12.35,10.01-22.36,22.36-22.36c12.35,0,22.36,10.01,22.36,22.36
				C297.69,346.71,287.68,356.72,275.33,356.72z"/>
		</g>
		<g>
			<path style="fill:#407BFF;" d="M133.11,162.36c0-0.71-0.04-1.42-0.1-2.12l4.15-2.3c-0.31-1.99-0.84-3.92-1.54-5.75l-4.74,0.08
				c-0.6-1.29-1.31-2.51-2.12-3.66l2.44-4.06c-1.25-1.55-2.66-2.96-4.21-4.21l-4.06,2.44c-1.15-0.81-2.38-1.52-3.66-2.12l0.08-4.74
				c-1.83-0.71-3.76-1.23-5.75-1.54l-2.3,4.15c-0.7-0.06-1.4-0.1-2.12-0.1c-0.71,0-1.42,0.04-2.12,0.1l-2.3-4.15
				c-1.99,0.31-3.92,0.84-5.75,1.54l0.08,4.74c-1.29,0.6-2.51,1.31-3.66,2.12l-4.06-2.44c-1.55,1.25-2.96,2.66-4.21,4.21l2.44,4.06
				c-0.81,1.15-1.52,2.38-2.12,3.66l-4.74-0.08c-0.71,1.83-1.23,3.76-1.54,5.75l4.15,2.3c-0.06,0.7-0.1,1.4-0.1,2.12
				s0.04,1.42,0.1,2.12l-4.15,2.3c0.31,1.99,0.84,3.92,1.54,5.75l4.74-0.08c0.6,1.29,1.31,2.51,2.12,3.66l-2.44,4.06
				c1.25,1.55,2.66,2.96,4.21,4.21l4.06-2.44c1.15,0.81,2.38,1.52,3.66,2.12l-0.08,4.74c1.83,0.71,3.76,1.23,5.75,1.54l2.3-4.15
				c0.7,0.06,1.4,0.1,2.12,0.1c0.71,0,1.42-0.04,2.12-0.1l2.3,4.15c1.99-0.31,3.92-0.84,5.75-1.54l-0.08-4.74
				c1.29-0.6,2.51-1.31,3.66-2.12l4.06,2.44c1.55-1.25,2.96-2.66,4.21-4.21l-2.44-4.06c0.81-1.15,1.52-2.38,2.12-3.66l4.74,0.08
				c0.71-1.83,1.23-3.76,1.54-5.75l-4.15-2.3C133.07,163.78,133.11,163.07,133.11,162.36z M109.16,171.8
				c-5.21,0-9.44-4.23-9.44-9.44c0-5.21,4.23-9.44,9.44-9.44c5.21,0,9.44,4.23,9.44,9.44C118.6,167.57,114.38,171.8,109.16,171.8z"
				/>
			<path style="opacity:0.6;fill:#FFFFFF;" d="M133.11,162.36c0-0.71-0.04-1.42-0.1-2.12l4.15-2.3c-0.31-1.99-0.84-3.92-1.54-5.75
				l-4.74,0.08c-0.6-1.29-1.31-2.51-2.12-3.66l2.44-4.06c-1.25-1.55-2.66-2.96-4.21-4.21l-4.06,2.44c-1.15-0.81-2.38-1.52-3.66-2.12
				l0.08-4.74c-1.83-0.71-3.76-1.23-5.75-1.54l-2.3,4.15c-0.7-0.06-1.4-0.1-2.12-0.1c-0.71,0-1.42,0.04-2.12,0.1l-2.3-4.15
				c-1.99,0.31-3.92,0.84-5.75,1.54l0.08,4.74c-1.29,0.6-2.51,1.31-3.66,2.12l-4.06-2.44c-1.55,1.25-2.96,2.66-4.21,4.21l2.44,4.06
				c-0.81,1.15-1.52,2.38-2.12,3.66l-4.74-0.08c-0.71,1.83-1.23,3.76-1.54,5.75l4.15,2.3c-0.06,0.7-0.1,1.4-0.1,2.12
				s0.04,1.42,0.1,2.12l-4.15,2.3c0.31,1.99,0.84,3.92,1.54,5.75l4.74-0.08c0.6,1.29,1.31,2.51,2.12,3.66l-2.44,4.06
				c1.25,1.55,2.66,2.96,4.21,4.21l4.06-2.44c1.15,0.81,2.38,1.52,3.66,2.12l-0.08,4.74c1.83,0.71,3.76,1.23,5.75,1.54l2.3-4.15
				c0.7,0.06,1.4,0.1,2.12,0.1c0.71,0,1.42-0.04,2.12-0.1l2.3,4.15c1.99-0.31,3.92-0.84,5.75-1.54l-0.08-4.74
				c1.29-0.6,2.51-1.31,3.66-2.12l4.06,2.44c1.55-1.25,2.96-2.66,4.21-4.21l-2.44-4.06c0.81-1.15,1.52-2.38,2.12-3.66l4.74,0.08
				c0.71-1.83,1.23-3.76,1.54-5.75l-4.15-2.3C133.07,163.78,133.11,163.07,133.11,162.36z M109.16,171.8
				c-5.21,0-9.44-4.23-9.44-9.44c0-5.21,4.23-9.44,9.44-9.44c5.21,0,9.44,4.23,9.44,9.44C118.6,167.57,114.38,171.8,109.16,171.8z"
				/>
		</g>
		<g>
			<g>
				<path style="fill:#263238;" d="M274.58,90.56h-30.36l-30.61,349.93h30.36c14.07,0,26.48-11.41,27.71-25.48l26.16-298.97
					C299.06,101.96,288.65,90.56,274.58,90.56z"/>
			</g>
			<path style="fill:#407BFF;" d="M237.75,440.48H112.66c-14.07,0-24.48-11.41-23.25-25.48l26.16-298.97
				c1.23-14.07,13.64-25.48,27.71-25.48h125.08c14.07,0,24.48,11.41,23.25,25.48L265.46,415
				C264.22,429.07,251.82,440.48,237.75,440.48z"/>
			<g>
				<path style="fill:#407BFF;" d="M267.85,96.4h-32.51c-2.13,0-4.07,1.58-4.52,3.69l-0.22,1.02c-1.11,5.16-5.84,9.02-11.04,9.02
					h-30.91c-5.2,0-9.25-3.87-9.46-9.02l-0.04-1.02c-0.08-2.11-1.74-3.69-3.87-3.69h-32.51c-10.84,0-20.4,8.79-21.35,19.63
					L95.26,415c-0.95,10.84,7.07,19.63,17.92,19.63h125.08c10.84,0,20.4-8.79,21.35-19.63l26.16-298.97
					C286.71,105.19,278.69,96.4,267.85,96.4z"/>
				<path style="opacity:0.7;fill:#FFFFFF;" d="M267.85,96.4h-32.51c-2.13,0-4.07,1.58-4.52,3.69l-0.22,1.02
					c-1.11,5.16-5.84,9.02-11.04,9.02h-30.91c-5.2,0-9.25-3.87-9.46-9.02l-0.04-1.02c-0.08-2.11-1.74-3.69-3.87-3.69h-32.51
					c-10.84,0-20.4,8.79-21.35,19.63L95.26,415c-0.95,10.84,7.07,19.63,17.92,19.63h125.08c10.84,0,20.4-8.79,21.35-19.63
					l26.16-298.97C286.71,105.19,278.69,96.4,267.85,96.4z"/>
			</g>
			<g style="opacity:0.2;">
				<path d="M197.45,99.71c-0.12,1.37-1.33,2.48-2.7,2.48c-1.37,0-2.39-1.11-2.27-2.48c0.12-1.37,1.33-2.48,2.7-2.48
					C196.56,97.23,197.57,98.34,197.45,99.71z"/>
				<path d="M215.29,97.23c-0.98,0-7.54,0-8.52,0c-1.37,0-2.58,1.11-2.7,2.48c-0.12,1.37,0.89,2.48,2.27,2.48c0.85,0,7.67,0,8.52,0
					c1.37,0,2.58-1.11,2.7-2.48C217.67,98.34,216.66,97.23,215.29,97.23z"/>
			</g>
			<g>
				<polygon style="fill:#407BFF;" points="135.55,110.09 138.18,110.09 138.41,107.46 135.78,107.46 				"/>
				<polygon style="fill:#407BFF;" points="141.04,107.46 140.81,110.09 143.44,110.09 143.67,107.46 143.9,104.83 141.27,104.83 
									"/>
				<polygon style="fill:#407BFF;" points="146.76,102.2 146.53,104.83 146.3,107.46 146.07,110.09 148.7,110.09 148.93,107.46 
					149.16,104.83 149.39,102.2 				"/>
			</g>
			<path style="fill:#407BFF;" d="M259.87,102.37l-0.17,1.93h-1.29l-0.34,3.86h1.29l-0.17,1.93h11.57l0.68-7.72H259.87z
				 M264.5,108.16h-3.86l0.34-3.86h3.86L264.5,108.16z"/>
			<g style="opacity:0.4;">
				<path style="fill:#FFFFFF;" d="M188.74,110.14L102.4,431.21c2.96,2.16,6.67,3.43,10.78,3.43h6.75l87.27-324.5H188.74z"/>
				<path style="fill:#FFFFFF;" d="M267.85,96.4h-32.51c-2.13,0-4.07,1.58-4.52,3.7l-0.22,1.02c-1.08,5.03-5.6,8.81-10.64,9.01
					l-87.27,324.52h66.57l86.52-321.7C285.1,103.57,277.64,96.4,267.85,96.4z"/>
			</g>
		</g>
		<g>
			<path style="fill:#FFFFFF;" d="M166.41,187.79h-38.07c-2.57,0-4.48-2.09-4.25-4.66l3.63-41.54c0.23-2.57,2.49-4.66,5.07-4.66
				h38.07c2.57,0,4.48,2.09,4.25,4.66l-3.63,41.54C171.25,185.7,168.98,187.79,166.41,187.79z"/>
			<path style="fill:#FFFFFF;" d="M263.41,224.29h-83.16c-2.57,0-4.48-2.09-4.25-4.66l6.83-78.04c0.23-2.57,2.49-4.66,5.07-4.66
				h83.16c2.57,0,4.48,2.09,4.25,4.66l-6.83,78.04C268.26,222.2,265.99,224.29,263.41,224.29z"/>
			<path style="fill:#FFFFFF;" d="M257.17,295.71H118.9c-2.57,0-4.48-2.09-4.25-4.66l4.81-54.93c0.23-2.57,2.49-4.66,5.07-4.66
				h138.27c2.57,0,4.48,2.09,4.25,4.66l-4.81,54.93C262.01,293.62,259.74,295.71,257.17,295.71z"/>
			<path style="fill:#FFFFFF;" d="M247.37,407.7H109.1c-2.57,0-4.48-2.09-4.25-4.66l8.36-95.51c0.23-2.57,2.49-4.66,5.07-4.66
				h138.27c2.57,0,4.48,2.09,4.25,4.66l-8.36,95.51C252.21,405.61,249.94,407.7,247.37,407.7z"/>
			<g>
				<path style="fill:#407BFF;" d="M151.5,176.97h-38.07c-2.57,0-4.48-2.09-4.25-4.66l3.63-41.54c0.23-2.57,2.49-4.66,5.07-4.66
					h38.07c2.57,0,4.48,2.09,4.25,4.66l-3.63,41.54C156.35,174.88,154.08,176.97,151.5,176.97z"/>
				<path style="opacity:0.4;fill:#FFFFFF;" d="M151.5,176.97h-38.07c-2.57,0-4.48-2.09-4.25-4.66l3.63-41.54
					c0.23-2.57,2.49-4.66,5.07-4.66h38.07c2.57,0,4.48,2.09,4.25,4.66l-3.63,41.54C156.35,174.88,154.08,176.97,151.5,176.97z"/>
				<path style="opacity:0.8;fill:#FFFFFF;" d="M156.7,130.77c0.06-0.64-0.42-1.15-1.05-1.15h-38.07c-0.64,0-1.2,0.52-1.25,1.15
					l-3.63,41.54c-0.06,0.64,0.42,1.15,1.05,1.15h38.07c0.64,0,1.2-0.52,1.25-1.15L156.7,130.77z"/>
				<path style="fill:#407BFF;" d="M142.17,149.77c-0.42,4.76-3.31,8.62-8.07,8.62c-4.76,0-6.98-3.86-6.56-8.62
					c0.42-4.76,3.31-8.62,8.07-8.62C140.36,141.15,142.58,145.01,142.17,149.77z"/>
				<path style="fill:#407BFF;" d="M150.8,166.46c-1.2-4.29-5.03-7.14-9.6-7.14h-14.38c-4.57,0-8.9,2.85-10.85,7.14l-3.02,6.66
					c0.19,0.21,0.47,0.34,0.78,0.34h38.07c0.32,0,0.62-0.13,0.84-0.34L150.8,166.46z"/>
			</g>
			<g>
				<g>
					<g>
						<path style="fill:#407BFF;" d="M226.83,396H88.56c-2.57,0-4.48-2.09-4.25-4.66l8.36-95.51c0.23-2.57,2.49-4.66,5.07-4.66
							h138.27c2.57,0,4.48,2.09,4.25,4.66l-8.36,95.51C231.68,393.92,229.41,396,226.83,396z"/>
						<path style="opacity:0.4;fill:#FFFFFF;" d="M226.83,396H88.56c-2.57,0-4.48-2.09-4.25-4.66l8.36-95.51
							c0.23-2.57,2.49-4.66,5.07-4.66h138.27c2.57,0,4.48,2.09,4.25,4.66l-8.36,95.51C231.68,393.92,229.41,396,226.83,396z"/>
					</g>
					<path style="fill:#263238;" d="M235.7,294.68H97.43c-0.64,0-1.2,0.52-1.25,1.15l-8.36,95.51c-0.06,0.64,0.42,1.15,1.05,1.15
						h138.27c0.64,0,1.2-0.52,1.25-1.15l8.36-95.51C236.81,295.2,236.33,294.68,235.7,294.68z"/>
				</g>
				<g>
					
						<ellipse transform="matrix(0.7224 -0.6915 0.6915 0.7224 -192.5355 207.6027)" style="fill:#407BFF;" cx="162.28" cy="343.59" rx="18.91" ry="17.32"/>
					<polygon style="opacity:0.9;fill:#FFFFFF;" points="171.75,343.59 156.68,352.82 158.3,334.36 					"/>
				</g>
				<g>
					<polygon style="opacity:0.8;fill:#FFFFFF;" points="211.71,378.37 95.82,378.37 95.9,377.39 211.79,377.39 					"/>
					<path style="fill:#407BFF;" d="M140.3,377.88c-0.06,0.73-0.7,1.32-1.43,1.32H94.72c-0.73,0-1.26-0.59-1.2-1.32l0,0
						c0.06-0.73,0.7-1.32,1.43-1.32h44.15C139.83,376.56,140.37,377.15,140.3,377.88L140.3,377.88z"/>
					<g style="opacity:0.8;">
						<polygon style="fill:#FFFFFF;" points="222.55,375.01 224.04,375.01 223.92,376.3 225.18,376.3 225.37,374.23 222.62,374.23 
													"/>
						<polygon style="fill:#FFFFFF;" points="214.75,376.3 214.87,375.01 216.36,375.01 216.42,374.23 213.67,374.23 213.49,376.3 
													"/>
						<polygon style="fill:#FFFFFF;" points="215.85,380.75 214.36,380.75 214.48,379.46 213.22,379.46 213.03,381.53 
							215.78,381.53 						"/>
						<polygon style="fill:#FFFFFF;" points="223.65,379.46 223.54,380.75 222.04,380.75 221.98,381.53 224.73,381.53 
							224.91,379.46 						"/>
					</g>
				</g>
				<g>
					<g style="opacity:0.8;">
						<polygon style="opacity:0.9;fill:#FFFFFF;" points="155.61,388.27 160.11,385.52 156.09,382.76 						"/>
						<polygon style="opacity:0.9;fill:#FFFFFF;" points="160.32,383.05 160.11,385.52 159.89,387.98 161.04,387.98 161.47,383.05 
													"/>
					</g>
					<g style="opacity:0.8;">
						<polygon style="opacity:0.9;fill:#FFFFFF;" points="165.45,387.98 166.94,387.98 167.37,383.05 165.88,383.05 						"/>
						<polygon style="opacity:0.9;fill:#FFFFFF;" points="168.52,383.05 168.09,387.98 169.58,387.98 170.01,383.05 						"/>
					</g>
					<polygon style="opacity:0.8;fill:#FFFFFF;" points="151.69,385.52 147.19,388.27 147.68,382.76 					"/>
				</g>
			</g>
			<g>
				<path style="fill:#407BFF;" d="M235.86,282.84H97.59c-2.57,0-4.48-2.09-4.25-4.66l4.81-54.93c0.23-2.57,2.49-4.66,5.07-4.66
					h138.27c2.57,0,4.48,2.09,4.25,4.66l-4.81,54.93C240.71,280.75,238.44,282.84,235.86,282.84z"/>
				<path style="opacity:0.4;fill:#FFFFFF;" d="M235.86,282.84H97.59c-2.57,0-4.48-2.09-4.25-4.66l4.81-54.93
					c0.23-2.57,2.49-4.66,5.07-4.66h138.27c2.57,0,4.48,2.09,4.25,4.66l-4.81,54.93C240.71,280.75,238.44,282.84,235.86,282.84z"/>
				<path style="opacity:0.3;fill:#FFFFFF;" d="M241.23,221.5H102.96c-0.96,0-1.81,0.78-1.89,1.74l-4.81,54.93
					c-0.08,0.96,0.63,1.74,1.59,1.74h138.27c0.96,0,1.81-0.78,1.89-1.74l4.81-54.93C242.9,222.28,242.19,221.5,241.23,221.5z"/>
				<polygon style="opacity:0.4;fill:#FFFFFF;" points="131.21,250.71 197.84,250.71 194.57,234.64 190.19,221.5 122.96,221.5 				
					"/>
				<path style="opacity:0.4;fill:#FFFFFF;" d="M131.21,250.71l-32.64,1.17l-2.3,26.3c-0.08,0.96,0.63,1.74,1.59,1.74h41.67
					L131.21,250.71z"/>
				<polygon style="fill:#FFFFFF;" points="238.77,269.54 239.31,263.28 201.16,248.13 197.46,237.41 209.16,221.5 203.59,221.5 
					195.95,231.88 193.3,221.5 188.31,221.5 192.21,236.97 195.94,247.79 132.82,247.79 125.91,221.5 120.95,221.5 127.86,247.79 
					98.92,247.79 98.41,253.63 129.4,253.63 136.31,279.91 141.27,279.91 134.35,253.63 169.04,253.63 187.22,279.91 193.15,279.91 
					174.97,253.63 198.7,253.63 				"/>
				<g>
					
						<ellipse transform="matrix(1 -4.448702e-03 4.448702e-03 1 -1.0821 0.7692)" style="opacity:0.2;" cx="172.35" cy="243.62" rx="7.31" ry="1.61"/>
					<path style="fill:#407BFF;" d="M173.98,225.01c-4.04,0-7.59,3.27-7.95,7.31c-0.35,4.04,6.26,11.98,6.26,11.98
						s8-7.95,8.36-11.98C181,228.29,178.02,225.01,173.98,225.01z M173.05,235.66c-1.84,0-3.2-1.49-3.04-3.33
						c0.16-1.84,1.78-3.33,3.63-3.33s3.2,1.49,3.04,3.33C176.52,234.16,174.89,235.66,173.05,235.66z"/>
				</g>
			</g>
		</g>
		<g>
			<g>
				<g>
					<polygon style="fill:#B97964;" points="351.8,409.96 349.96,430.95 340.44,430.95 339.46,409.96 					"/>
					<g>
						<path style="fill:#407BFF;" d="M336.17,430.43c-1.24-0.02-2.52-0.27-2.92-0.81c-0.21-0.32-0.19-0.73,0.04-1.03
							c0.17-0.27,0.44-0.47,0.75-0.54c1.67-0.43,5.12,1.62,5.27,1.71c0.09,0.05,0.13,0.15,0.11,0.25c-0.02,0.1-0.1,0.17-0.19,0.19
							C338.21,430.37,337.19,430.45,336.17,430.43z M334.61,428.47c-0.15-0.01-0.31,0.01-0.45,0.05c-0.2,0.03-0.37,0.15-0.47,0.32
							c-0.18,0.29-0.12,0.43-0.06,0.52c0.45,0.66,2.97,0.72,4.83,0.52C337.28,429.16,335.97,428.69,334.61,428.47z"/>
						<path style="fill:#407BFF;" d="M339.19,430.2c-0.03,0.01-0.07,0.01-0.1-0.01c-1.18-0.55-3.55-2.75-3.31-3.87
							c0.03-0.27,0.24-0.6,0.89-0.65c0.48-0.04,0.95,0.11,1.31,0.43c1.25,1.07,1.47,3.76,1.48,3.89c0,0.09-0.04,0.17-0.11,0.21
							C339.3,430.21,339.24,430.22,339.19,430.2z M336.82,426.12l-0.14-0.01c-0.43,0.03-0.46,0.2-0.48,0.26
							c-0.07,0.68,1.47,2.4,2.7,3.15c-0.1-1.13-0.54-2.21-1.27-3.08C337.4,426.23,337.11,426.12,336.82,426.12L336.82,426.12z"/>
						<path style="fill:#263238;" d="M340.27,428.82l10.9,0.19c0.41,0.01,0.76,0.3,0.84,0.7l1.82,8.9c0.17,0.79-0.34,1.56-1.12,1.73
							c-0.1,0.02-0.2,0.03-0.31,0.03c-3.93-0.14-7.42-0.41-12.31-0.49c-5.77-0.1-4.32,0.62-11.1,0.6c-4.09-0.02-4.76-4.68-3.02-4.87
							c7.95-0.86,8.81-3.24,11.92-6.03C338.56,429.04,339.41,428.77,340.27,428.82z"/>
					</g>
					<path style="fill:#263238;" d="M323.23,226.87l15.58,190.89h12.99c0,0,7.55-52.91,2.31-86.18c-0.56-3.53-0.62-7.11-0.22-10.67
						c1.62-14.34,5.56-51.09,5.05-63.52c0,0,6.6-14.93,1.35-35.71h-37.06V226.87z"/>
					<polygon style="fill:#263238;" points="353.64,414.18 353.1,417.75 354.29,420.67 337.84,420.67 338.27,417.75 336.86,414.18 
											"/>
					<polygon style="opacity:0.3;fill:#FFFFFF;" points="353.64,414.18 353.1,417.75 354.29,420.67 337.84,420.67 338.27,417.75 
						336.86,414.18 					"/>
				</g>
				<path style="opacity:0.5;" d="M353.3,244.77l6.82,9.16c-0.65,2.23-1.19,3.45-1.19,3.45c0.32,7.77-0.81,21.85-2.02,34
					c-13.25-31.06-9.47-43.11-9.47-43.11L353.3,244.77z"/>
			</g>
			<g>
				<path style="fill:#B97964;" d="M285.18,152.64l-4.6-7.78l2.88-4.97c0.38-0.65,0.44-1.43,0.17-2.13l-0.21-0.56
					c-0.36-0.94-1.25-1.57-2.26-1.6l-4.52-0.12c-0.93-0.02-1.8,0.47-2.25,1.29l-0.92,1.67c-0.45,0.82-0.48,1.8-0.09,2.64l1.95,4.2
					l3.6,9.65L285.18,152.64z"/>
				<path style="fill:#407BFF;" d="M321.83,151.27l-26.29,19.14l-12.35-23.11l-7.01,3.04c0,0,10.81,35.03,17.1,33.61
					c6.28-1.41,24.03-10.19,29.81-16.21c2.91-3.04,5.13-8.61,2.25-15.5C324.76,150.87,323.04,150.4,321.83,151.27z"/>
			</g>
			<g>
				<path style="fill:#263238;" d="M331.67,105.71c0,0-9.29,2.44-4.99,13.64c0,0,4.62-1.22,5.38-4.21c0.75-3,1.46-7.19,1.46-7.19
					L331.67,105.71z"/>
				<path style="opacity:0.3;" d="M331.67,105.71c0,0-9.29,2.44-4.99,13.64c0,0,4.62-1.22,5.38-4.21c0.75-3,1.46-7.19,1.46-7.19
					L331.67,105.71z"/>
			</g>
			<polygon style="fill:#B97964;" points="353.6,150.17 336.64,149.61 329.63,150.63 328.68,163.41 342.34,167.96 356.92,165.05 
				357.68,152.73 356.65,150.27 			"/>
			<g>
				<polygon style="fill:#B97964;" points="398.53,409.42 404.81,430.95 412.98,430.95 411.33,408.77 				"/>
				<g>
					<path style="fill:#407BFF;" d="M399.17,430.43c-1.24-0.02-2.51-0.27-2.88-0.81c-0.19-0.32-0.15-0.73,0.09-1.03
						c0.19-0.27,0.47-0.47,0.78-0.54c1.7-0.43,5.04,1.62,5.19,1.71c0.08,0.05,0.12,0.15,0.1,0.25c-0.03,0.1-0.11,0.17-0.2,0.19
						C401.22,430.37,400.19,430.45,399.17,430.43z M397.72,428.47c-0.15-0.01-0.31,0.01-0.46,0.05c-0.2,0.03-0.38,0.15-0.49,0.32
						c-0.2,0.29-0.14,0.43-0.08,0.52c0.42,0.66,2.93,0.72,4.8,0.52C400.35,429.16,399.07,428.69,397.72,428.47z"/>
					<path style="fill:#407BFF;" d="M402.2,430.2c-0.03,0.01-0.07,0.01-0.1-0.01c-1.16-0.55-3.4-2.75-3.11-3.87
						c0.04-0.27,0.27-0.6,0.92-0.65c0.48-0.04,0.94,0.11,1.29,0.43c1.2,1.07,1.28,3.76,1.28,3.89c0,0.09-0.05,0.17-0.12,0.21
						C402.31,430.21,402.25,430.22,402.2,430.2z M400.04,426.12l-0.13-0.01c-0.43,0.03-0.47,0.2-0.49,0.26
						c-0.11,0.68,1.35,2.4,2.53,3.15c-0.04-1.13-0.43-2.21-1.11-3.08C400.62,426.23,400.34,426.12,400.04,426.12L400.04,426.12z"/>
					<path style="fill:#263238;" d="M403.35,428.82l10.89,0.19c0.41,0.01,0.75,0.3,0.81,0.7l1.35,8.9c0.13,0.79-0.42,1.56-1.22,1.73
						c-0.1,0.02-0.21,0.03-0.31,0.03c-3.92-0.14-7.39-0.41-12.28-0.49c-5.77-0.1-4.35,0.62-11.14,0.6
						c-4.09-0.02-4.51-4.68-2.77-4.87c8-0.86,8.98-3.24,12.24-6.03C401.64,429.04,402.5,428.77,403.35,428.82z"/>
				</g>
				<path style="fill:#263238;" d="M337.92,221.67l61.79,196.08h13.04c0,0-6.23-63.04-17.48-87.68c-1.39-3.05-2.29-6.3-2.62-9.63
					c-1.21-12.1-4.3-40.71-7.82-56.47c-0.45-1.99-0.71-4.01-0.8-6.05c-0.31-6.75-1.99-23.61-10.79-36.24H337.92z"/>
				<polygon style="fill:#263238;" points="415.05,414.18 414.32,417.75 415.36,420.67 398.91,420.67 398.2,417.75 396.98,414.18 
									"/>
				<polygon style="opacity:0.3;fill:#FFFFFF;" points="415.05,414.18 414.32,417.75 415.36,420.67 398.91,420.67 398.2,417.75 
					396.98,414.18 				"/>
			</g>
			<g>
				<path style="fill:#407BFF;" d="M355.74,152.28c0,0-5.45,8.3-14.4,7.89c-8.49-0.39-9.95-8.87-9.95-8.87l-1.07,12.96l-1.07,31.37
					l1.36,13.3l-0.1,14.66c0,0,11.79,1.15,23.97-0.39c0,0,1.56-53.78,1.27-53.49c-0.29,0.29,2.53-9.35,2.53-9.35v-3.9L355.74,152.28
					z"/>
				<path style="opacity:0.6;fill:#FFFFFF;" d="M355.74,152.28c0,0-5.45,8.3-14.4,7.89c-8.49-0.39-9.95-8.87-9.95-8.87l-1.07,12.96
					l-1.07,31.37l1.36,13.3l-0.1,14.66c0,0,11.79,1.15,23.97-0.39c0,0,1.56-53.78,1.27-53.49c-0.29,0.29,2.53-9.35,2.53-9.35v-3.9
					L355.74,152.28z"/>
			</g>
			<path style="fill:#407BFF;" d="M347.09,149.17c0,0,28.03-1.72,29.2,6.74c1.17,8.46-7.01,25.8-5.65,37.69
				c1.36,11.89,7.99,29.7,7.99,29.7s-21.24,14.14-28.64,9.46c-7.4-4.68-5.43-58.26-5.43-58.26s15.76-22.41,6.9-23.58
				c-8.87-1.17-19-2.11-18.22,4.99c0.78,7.09,3.63,18.01,3.63,18.01s-0.66,59.44-6.95,58.65c-6.29-0.79-9.47-7.6-9.47-7.6
				s2.22-9.6,0-21.85c-2.22-12.25-6.29-21.89-4.08-31.62s4.08-22.05,8.76-22.26C329.13,149.05,347.09,149.17,347.09,149.17z"/>
			<path style="opacity:0.2;" d="M347.09,149.17c0,0,28.03-1.72,29.2,6.74c1.17,8.46-7.01,25.8-5.65,37.69
				c1.36,11.89,7.99,29.7,7.99,29.7s-21.24,14.14-28.64,9.46c-7.4-4.68-5.43-58.26-5.43-58.26s15.76-22.41,6.9-23.58
				c-8.87-1.17-19-2.11-18.22,4.99c0.78,7.09,3.63,18.01,3.63,18.01s-0.66,59.44-6.95,58.65c-6.29-0.79-9.47-7.6-9.47-7.6
				s2.22-9.6,0-21.85c-2.22-12.25-6.29-21.89-4.08-31.62s4.08-22.05,8.76-22.26C329.13,149.05,347.09,149.17,347.09,149.17z"/>
			<g>
				<path style="fill:#407BFF;" d="M335.24,149.13c5.84,0,11.85,0.04,11.85,0.04s3.59-0.22,8.25-0.11c1.85,1.27,4.3,4.21,2.35,10.44
					l-4.06,1.56l0.74,3.99c0,0-4.67,7.41-9.84,10.22c0.02-0.5,0.03-0.77,0.03-0.77s15.76-22.41,6.9-23.58
					c-8.87-1.17-19-2.11-18.22,4.99c0.78,7.09,3.63,18.01,3.63,18.01s0,0.12,0,0.33c-2.5-2.23-4.63-6.17-6.17-10.85l1.66-4.6
					l-3.67-2.02C328.68,156.77,329.26,151.35,335.24,149.13z"/>
				<path style="opacity:0.2;fill:#FFFFFF;" d="M335.24,149.13c5.84,0,11.85,0.04,11.85,0.04s3.59-0.22,8.25-0.11
					c1.85,1.27,4.3,4.21,2.35,10.44l-4.06,1.56l0.74,3.99c0,0-4.67,7.41-9.84,10.22c0.02-0.5,0.03-0.77,0.03-0.77
					s15.76-22.41,6.9-23.58c-8.87-1.17-19-2.11-18.22,4.99c0.78,7.09,3.63,18.01,3.63,18.01s0,0.12,0,0.33
					c-2.5-2.23-4.63-6.17-6.17-10.85l1.66-4.6l-3.67-2.02C328.68,156.77,329.26,151.35,335.24,149.13z"/>
			</g>
			<path style="fill:#B97964;" d="M336.86,158.57c-3.75-3.93-1.44-6.78-1.44-6.78c6.67-2.26,6.06-7.27,4.52-11.91l10.75-10.96
				c-0.64,5.84-0.87,19.26,2.94,23.93v1.07c-1.42,0.52-4.77,1.87-10.1,4.65H336.86z"/>
			<path style="opacity:0.1;" d="M339.93,139.88l8.53-8.7l1.98,0.71c-0.06,1.05-0.1,2.2-0.12,3.4c-1.08,2.21-3.67,5.33-9.74,6.89
				C340.41,141.41,340.19,140.64,339.93,139.88z"/>
			<path style="fill:#B97964;" d="M356.15,119.24c-2.6,9.93-3.48,14.19-9.57,18.35c-9.16,6.26-20.79,0.9-21.22-9.6
				c-0.38-9.46,3.92-24.1,14.54-26.17c7.58-1.52,14.96,3.4,16.47,10.98C356.8,114.94,356.73,117.14,356.15,119.24z"/>
			<path style="fill:#A24E3F;" d="M332.55,121.81c-1.09,1.73-2.42,3.29-3.94,4.66c0.72,0.77,1.75,1.19,2.8,1.13L332.55,121.81z"/>
			<path style="fill:#263238;" d="M343.14,118.15c0.07,0,0.14-0.02,0.2-0.06c0.19-0.12,0.26-0.37,0.14-0.56c0,0,0,0,0-0.01
				c-0.77-1.35-2.14-2.24-3.68-2.38c-0.22,0-0.41,0.17-0.42,0.4c-0.01,0.22,0.16,0.41,0.38,0.42c1.27,0.14,2.4,0.89,3.03,2
				C342.86,118.08,343,118.15,343.14,118.15z"/>
			<path style="fill:#263238;" d="M326.69,115.14c0.07,0,0.14-0.02,0.2-0.06c1.09-0.65,2.43-0.74,3.6-0.24
				c0.2,0.11,0.44,0.03,0.55-0.16c0,0,0,0,0,0c0.1-0.2,0.02-0.45-0.18-0.55c-1.42-0.63-3.05-0.54-4.38,0.25
				c-0.2,0.1-0.28,0.35-0.18,0.55C326.38,115.06,326.53,115.15,326.69,115.14L326.69,115.14z"/>
			<path style="fill:#263238;" d="M335.57,130.32c-0.48,0-0.95-0.04-1.42-0.12c-0.14-0.02-0.23-0.15-0.2-0.29c0,0,0-0.01,0-0.01
				c0.02-0.13,0.15-0.22,0.28-0.2c2.1,0.41,4.28-0.2,5.86-1.64c0.09-0.1,0.25-0.11,0.36-0.02c0.1,0.09,0.11,0.25,0.02,0.36
				C339.14,129.65,337.39,130.34,335.57,130.32z"/>
			<path style="fill:#263238;" d="M352.81,127.01c0,0-3.7-3.57-3.02-10.09c0,0-3.99-4.09-3.8-8.47c0,0-1.18,3.49-0.01,5.98
				c0,0-10.37-0.75-10.13-5.98c0,0-0.68,2.63,0.88,3.99c0,0-9.21,0.39-7.97-4.38c1.25-4.77,8.47-7.11,8.47-7.11
				s6.88-5.85,16.39,4.48c0,0,11.2,6.99,3.26,18.66L352.81,127.01z"/>
			<path style="fill:#B97964;" d="M356.96,127.66c-0.92,1.76-2.51,3.07-4.41,3.66c-2.52,0.76-3.83-1.48-3.18-3.89
				c0.59-2.16,2.61-5.16,5.16-4.87c1.85,0.27,3.14,1.99,2.86,3.84C357.35,126.85,357.19,127.28,356.96,127.66z"/>
			<g>
				<path style="fill:#2E353A;" d="M340.01,120.39c-0.09,0.85-0.62,1.5-1.18,1.44c-0.57-0.05-0.94-0.8-0.84-1.66
					c0.1-0.87,0.62-1.5,1.17-1.44C339.71,118.79,340.1,119.53,340.01,120.39z"/>
				<path style="fill:#2E353A;" d="M330.31,119.38c-0.09,0.85-0.62,1.5-1.17,1.44c-0.56-0.06-0.94-0.8-0.85-1.66
					c0.09-0.86,0.62-1.5,1.17-1.44C330.01,117.77,330.4,118.51,330.31,119.38z"/>
				<path style="fill:#2E353A;" d="M329.69,117.79l-2-0.81C327.7,116.98,328.59,118.7,329.69,117.79z"/>
				<path style="fill:#2E353A;" d="M339.4,118.8l-2-0.81C337.4,118,338.3,119.71,339.4,118.8z"/>
			</g>
			<g>
				<g>
					<path style="fill:#407BFF;" d="M351.94,135.98c1.83,0,3.32-1.49,3.32-3.32c0-0.84-0.31-1.63-0.88-2.25l-0.43,0.4
						c0.47,0.51,0.72,1.16,0.72,1.85c0,1.51-1.23,2.74-2.74,2.74c-1.51,0-2.74-1.23-2.74-2.74c0-1.51,1.23-2.74,2.74-2.74
						c0.39,0,0.77,0.08,1.12,0.24l0.24-0.53c-0.43-0.19-0.89-0.29-1.36-0.29c-1.83,0-3.32,1.49-3.32,3.32
						S350.11,135.98,351.94,135.98z"/>
				</g>
				<g style="opacity:0.6;">
					<path style="fill:#FFFFFF;" d="M351.94,135.98c1.83,0,3.32-1.49,3.32-3.32c0-0.84-0.31-1.63-0.88-2.25l-0.43,0.4
						c0.47,0.51,0.72,1.16,0.72,1.85c0,1.51-1.23,2.74-2.74,2.74c-1.51,0-2.74-1.23-2.74-2.74c0-1.51,1.23-2.74,2.74-2.74
						c0.39,0,0.77,0.08,1.12,0.24l0.24-0.53c-0.43-0.19-0.89-0.29-1.36-0.29c-1.83,0-3.32,1.49-3.32,3.32
						S350.11,135.98,351.94,135.98z"/>
				</g>
			</g>
			<g>
				<path style="fill:#B97964;" d="M316.2,208.94l-9.49,5.26l-10.05-1.25c-0.37-0.05-0.74,0.04-1.05,0.25l-3.78,2.51
					c-0.2,0.13-0.36,0.31-0.48,0.51l-1.09,1.86c-0.56,0.95,0.03,2.17,1.12,2.33c0,0,6.45,1.34,8.62,1.27
					c1.92-0.06,7.51-1.6,7.51-1.6l13.34-4.77L316.2,208.94z"/>
				<path style="fill:#407BFF;" d="M372.88,153.57c-5.45-3.55-11.9,4.66-17.2,16.06c-5.29,11.4-9.96,21.48-9.96,21.48l-37.34,21.48
					l2.56,6.86c0,0,35.93-10.07,44.7-20.89S380.34,158.42,372.88,153.57z"/>
			</g>
			<g>
				<g>
					<g>
						<path style="fill:#407BFF;" d="M217.15,216.57h78.01c3.14,0,5.91-2.55,6.19-5.69l5.68-64.93c0.27-3.14-2.05-5.69-5.19-5.69
							h-78.01c-3.14,0-5.91,2.55-6.19,5.69l-5.68,64.93C211.68,214.03,214,216.57,217.15,216.57z"/>
					</g>
					<g style="opacity:0.4;">
						<path style="fill:#FFFFFF;" d="M217.15,216.57h78.01c3.14,0,5.91-2.55,6.19-5.69l5.68-64.93c0.27-3.14-2.05-5.69-5.19-5.69
							h-78.01c-3.14,0-5.91,2.55-6.19,5.69l-5.68,64.93C211.68,214.03,214,216.57,217.15,216.57z"/>
					</g>
				</g>
				<path style="fill:#407BFF;" d="M223.38,143.69c-1.17,0-2.21,0.95-2.31,2.13l-5.7,65.21c-0.1,1.17,0.77,2.13,1.94,2.13h78.29
					c1.17,0,2.21-0.95,2.31-2.13l5.7-65.21c0.1-1.17-0.77-2.13-1.94-2.13H223.38z"/>
				<path style="opacity:0.8;fill:#FFFFFF;" d="M223.38,143.69c-1.17,0-2.21,0.95-2.31,2.13l-5.7,65.21
					c-0.1,1.17,0.77,2.13,1.94,2.13h78.29c1.17,0,2.21-0.95,2.31-2.13l5.7-65.21c0.1-1.17-0.77-2.13-1.94-2.13H223.38z"/>
				<path style="fill:#407BFF;" d="M239.95,176.29l-24.45,33.21l-0.13,1.53c-0.1,1.17,0.77,2.13,1.94,2.13h43.34L239.95,176.29z"/>
				<g>
					<path style="fill:#407BFF;" d="M298.51,204.21l-18.85-38.65l-31.53,47.59h47.47c1.17,0,2.21-0.95,2.31-2.13L298.51,204.21z"/>
					<path style="opacity:0.2;fill:#FFFFFF;" d="M298.51,204.21l-18.85-38.65l-31.53,47.59h47.47c1.17,0,2.21-0.95,2.31-2.13
						L298.51,204.21z"/>
				</g>
				<path style="fill:#407BFF;" d="M266.67,160c-0.27,3.07-2.98,5.57-6.05,5.57c-3.07,0-5.35-2.49-5.08-5.57
					c0.27-3.07,2.98-5.57,6.05-5.57C264.66,154.43,266.94,156.92,266.67,160z"/>
			</g>
		</g>
	</g>
</g>
</svg>
