<?xml version="1.0" encoding="utf-8"?>
<!-- Generator: Adobe Illustrator 24.1.1, SVG Export Plug-In . SVG Version: 6.00 Build 0)  -->
<svg version="1.1" id="Layer_1" xmlns="http://www.w3.org/2000/svg" xmlns:xlink="http://www.w3.org/1999/xlink" x="0px" y="0px"
	 viewBox="0 0 500 500" style="enable-background:new 0 0 500 500;" xml:space="preserve">
<g id="freepik--background-complete--inject-13">
	<path style="fill:#EBEBEB;" d="M124.14,115.47L124.14,115.47c-20.95,0-37.93-16.98-37.93-37.93l0,0l0,0
		c0-20.95,16.98-37.93,37.93-37.93l0,0c20.95,0,37.93,16.98,37.93,37.93l0,0C162.08,98.49,145.09,115.47,124.14,115.47
		L124.14,115.47z"/>
	<rect x="106.94" y="69.09" style="fill:#FFFFFF;" width="7.85" height="25.37"/>
	<path style="fill:#FFFFFF;" d="M110.82,65.77c2.59,0.02,4.7-2.05,4.73-4.64c0.02-2.59-2.05-4.7-4.64-4.73
		c-2.59-0.02-4.7,2.05-4.73,4.64c0,0.01,0,0.03,0,0.04C106.18,63.65,108.25,65.75,110.82,65.77z"/>
	<path style="fill:#FFFFFF;" d="M127.34,81.13c0-3.57,1.64-5.69,4.78-5.69c2.88,0,4.27,2.04,4.27,5.69v13.29h7.81V78.39
		c0-6.8-3.84-10.08-9.22-10.08c-3.1-0.04-6,1.55-7.64,4.19v-3.41h-7.54v25.36h7.54L127.34,81.13z"/>
	<polygon style="fill:#F5F5F5;" points="174.98,2 180.17,11.49 189.67,16.69 180.17,21.89 174.98,31.37 169.78,21.89 160.28,16.69 
		169.78,11.49 	"/>
	<polygon style="fill:#EBEBEB;" points="391.61,259.3 395.5,266.43 402.62,270.31 395.5,274.21 391.61,281.34 387.71,274.21 
		380.59,270.31 387.71,266.43 	"/>
	<polygon style="fill:#E0E0E0;" points="402.62,224.13 404.38,227.34 407.59,229.1 404.38,230.86 402.62,234.07 400.87,230.86 
		397.65,229.1 400.87,227.34 	"/>
	<polygon style="fill:#E0E0E0;" points="137.87,5.57 139.63,8.79 142.85,10.54 139.63,12.3 137.87,15.51 136.12,12.3 132.9,10.54 
		136.12,8.79 	"/>
	<path style="fill:#E0E0E0;" d="M49.76,304.13c4.18-1.91,6.81-6.13,6.71-10.72c0-6.34-4.93-11.44-10.87-11.39
		c-5.95,0.04-10.72,5.24-10.66,11.58c-0.03,4.63,2.73,8.83,7,10.63c-16.54,2.71-15.57,20.72-15.57,20.72l39.18-0.33
		C65.55,324.61,66.23,306.4,49.76,304.13z"/>
	<path style="fill:#EBEBEB;" d="M425.68,422.8c-0.64-3.31-3.85-5.47-7.15-4.82c-2.57,0.5-4.54,2.58-4.88,5.18
		c-0.47-3.34-3.55-5.66-6.89-5.19c-2.59,0.36-4.66,2.34-5.15,4.91c-0.29,2.1,0.24,4.23,1.48,5.95c1.23,1.69,2.67,3.22,4.3,4.54
		c2.21,1.96,4.22,3.79,6.41,5.74c2.21-1.97,4.02-3.82,6.19-5.79c1.62-1.33,3.05-2.88,4.26-4.58
		C425.46,427,425.97,424.88,425.68,422.8z"/>
	<path style="fill:#E0E0E0;" d="M451.2,189.41l4.2-0.83l6.64-14.59l-1.66-8.38c0,0,6.41-1.68,7.83,9.44
		c1.42,11.13,1.68,8.17,1.68,8.17s13.78-2.68,15.17-1.72c1.01,0.71,4.1,14.33,5.71,21.72c0.92,3.65-0.77,7.45-4.09,9.22
		c-0.46,0.23-0.95,0.39-1.45,0.49c-3.43,0.69-21.55,1.37-21.55,1.37l-7.25,1.44L451.2,189.41z"/>
	<polygon style="fill:#E0E0E0;" points="438.72,189.49 446.99,217.7 454.19,216.27 448.61,188.14 	"/>
</g>
<g id="freepik--Floor--inject-13">
	<path style="fill:#263238;" d="M494.14,495.19c0,0.17-109.8,0.29-245.22,0.29S3.67,495.36,3.67,495.19
		c0-0.17,109.78-0.29,245.25-0.29S494.14,495.04,494.14,495.19z"/>
</g>
<g id="freepik--Icons--inject-13">
	<path style="fill:#407BFF;" d="M408.83,178.34L408.83,178.34c-22.34,10.86-49.26,1.56-60.13-20.78l0,0
		c-10.86-22.34-1.56-49.26,20.78-60.13l0,0c22.34-10.87,49.26-1.56,60.13,20.78c0,0,0,0,0,0l0,0
		C440.48,140.55,431.18,167.47,408.83,178.34C408.84,178.34,408.84,178.34,408.83,178.34z"/>
	<path style="fill:#FFFFFF;" d="M378.04,147.93c0.61-0.01,1.1-0.52,1.08-1.13c0-0.08-0.01-0.15-0.03-0.23
		c-0.11-0.54-0.41-1.92-0.52-2.48c-0.16-0.79-0.34-1-1.11-1.35c-1.98-0.91-3.56-2.52-4.43-4.53c-3.39-6.98-1.21-15.76,7.16-19.82
		c7.41-3.61,13.69-1.11,16.61,4.98c3.86,7.96,3.61,16.39-1.62,18.93c-2.3,1.27-5.19,0.43-6.45-1.87c-0.23-0.42-0.39-0.86-0.49-1.33
		c-0.86-3.9-1.11-8.45-2.33-10.97c-1.11-2.21-3.23-3.55-5.74-2.34c-2.96,1.44-3.84,5.65-1.85,9.73c0.71,1.51,1.73,2.85,3,3.94
		c0,0,3.21,14.26,3.76,16.76c1.11,4.97,4.67,9.97,5.02,10.53c0.14,0.18,0.41,0.22,0.59,0.07c0.08-0.06,0.13-0.14,0.15-0.24
		c0.1-0.49,1.51-6.53,0.59-11.45c-0.25-1.4-1.75-8.54-1.75-8.54c1.85,1.36,5.44,1.62,8.41,0.17c8.86-4.32,10.96-15.34,5.69-26.16
		c-3.97-8.18-14.63-12.43-25.16-7.31c-13.12,6.38-15.16,18.99-11.35,26.83C369.61,144.89,373.43,148.28,378.04,147.93z"/>
	<path style="fill:#407BFF;" d="M453.75,305.24L453.75,305.24c-16-6.1-24.02-24.02-17.92-40.01c0.01-0.02,0.01-0.03,0.02-0.05l0,0
		c6.1-16,24.01-24.03,40.01-17.93c0.01,0,0.03,0.01,0.04,0.01l0,0c16,6.1,24.02,24.02,17.92,40.01c-0.01,0.02-0.01,0.03-0.02,0.05
		l0,0c-6.1,16-24.01,24.03-40.01,17.93C453.78,305.25,453.77,305.24,453.75,305.24z"/>
	<path style="fill-rule:evenodd;clip-rule:evenodd;fill:#FFFFFF;" d="M481.04,281.52c2.97-8.74-1.7-18.23-10.44-21.2
		c-8.18-2.78-17.12,1.13-20.64,9.02c-0.1,0.22-0.19,0.45-0.28,0.68c-1.08,2.82-1.37,5.89-0.82,8.86l-5.99,7.23l9.7,0.55
		c5.96,7.05,16.5,7.93,23.55,1.97c2.12-1.8,3.77-4.09,4.78-6.68C480.95,281.8,481,281.66,481.04,281.52z M460.31,288.97
		c-2.57-0.97-4.79-2.68-6.39-4.92l-5.66-0.32l3.49-4.21c-0.78-2.83-0.64-5.84,0.41-8.59c0.17-0.42,0.35-0.84,0.55-1.24
		c3.5-6.93,11.95-9.71,18.88-6.21c6.03,3.04,9.04,9.95,7.17,16.44c-0.1,0.35-0.21,0.7-0.34,1.04
		C475.62,288.17,467.52,291.75,460.31,288.97z"/>
	<path style="fill-rule:evenodd;clip-rule:evenodd;fill:#FFFFFF;" d="M471.25,281.81c-0.32-0.33-1.84-1.97-2.15-2.21
		c-0.31-0.24-0.53-0.42-0.93-0.13c-0.4,0.29-1.47,0.85-1.78,1.02s-0.55,0.11-0.86-0.22c-0.96-0.88-1.76-1.92-2.36-3.07
		c-0.54-1.08-0.91-2.24-1.11-3.43c-0.07-0.47,0.2-0.6,0.47-0.71c0.27-0.11,0.55-0.3,0.83-0.44l0.21-0.13
		c0.14-0.11,0.28-0.23,0.41-0.37c0.19-0.17,0.28-0.42,0.23-0.68c0-0.22-0.08-2.39-0.11-3.27c-0.03-0.87-0.4-0.87-0.62-0.96
		c-0.22-0.09-0.47-0.22-0.72-0.31c-0.4-0.14-0.83-0.11-1.21,0.08c-1.18,0.5-2.11,1.46-2.55,2.67c-0.16,0.44-0.26,0.9-0.3,1.36
		c-0.06,1.07,0.06,2.13,0.37,3.16c0.1,0.32,1.04,5.22,4.34,8.23c3.3,3.01,3.51,2.5,4.24,2.7c1.17,0.23,2.39-0.07,3.32-0.82
		c0.47-0.47,0.79-1.07,0.92-1.72C471.77,282.34,471.56,282.14,471.25,281.81z"/>
	<path style="fill:#407BFF;" d="M50.31,161.83L50.31,161.83c-13.07,0-23.66-10.59-23.66-23.66l0,0c0-13.07,10.59-23.66,23.66-23.66
		h0l0,0c13.07,0,23.66,10.59,23.66,23.66l0,0C73.98,151.23,63.38,161.83,50.31,161.83L50.31,161.83z"/>
	<path style="fill:#FFFFFF;" d="M37.71,146.06c6.86,4.37,15.96,2.36,20.33-4.5c1.63-2.55,2.43-5.55,2.3-8.57
		c1-0.73,1.87-1.62,2.56-2.65c-0.95,0.42-1.95,0.69-2.98,0.82c1.08-0.63,1.9-1.64,2.3-2.82c-1.02,0.61-2.15,1.03-3.32,1.25
		c-1.93-2.11-5.21-2.26-7.32-0.33c-1.4,1.28-1.99,3.22-1.54,5.06c-4.16-0.21-8.04-2.18-10.66-5.41c-1.37,2.37-0.66,5.39,1.61,6.91
		c-0.82-0.02-1.63-0.24-2.35-0.64c-0.03,2.49,1.71,4.64,4.15,5.14c-0.76,0.21-1.56,0.24-2.34,0.09c0.68,2.1,2.62,3.54,4.83,3.59
		C43.13,145.64,40.41,146.39,37.71,146.06z"/>
	<path style="fill:#455A64;" d="M92.8,426.86L92.8,426.86c-21.88,5.2-43.83-8.32-49.05-30.19l0,0c-5.22-21.89,8.3-43.87,30.19-49.08
		c0.01,0,0.03-0.01,0.04-0.01l0,0c21.89-5.22,43.87,8.3,49.08,30.19c0,0,0,0,0,0l0,0c5.21,21.89-8.3,43.86-30.19,49.08
		C92.84,426.85,92.82,426.86,92.8,426.86z"/>
	<path style="fill:#FFFFFF;" d="M79.15,369.41c5.8-1.38,6.5-1.53,8.86-1.97c1.38-0.31,2.8-0.38,4.21-0.21
		c1.03,0.12,2.02,0.48,2.89,1.03c0.88,0.54,1.64,1.26,2.21,2.11c0.78,1.18,1.36,2.48,1.71,3.85c0.65,2.27,0.84,2.96,2.21,8.76
		c1.37,5.8,1.52,6.5,1.96,8.86c0.32,1.38,0.39,2.8,0.21,4.21c-0.11,1.03-0.47,2.02-1.03,2.89c-0.53,0.88-1.25,1.64-2.1,2.21
		c-1.18,0.78-2.49,1.36-3.86,1.71c-2.21,0.65-2.95,0.84-8.75,2.21c-5.8,1.37-6.5,1.53-8.86,1.97c-1.38,0.32-2.81,0.39-4.22,0.21
		c-1.03-0.12-2.02-0.47-2.89-1.03c-0.87-0.55-1.61-1.3-2.15-2.18c-0.79-1.18-1.37-2.48-1.72-3.85c-0.64-2.27-0.83-2.95-2.21-8.75
		c-1.38-5.8-1.53-6.5-1.97-8.86c-0.3-1.38-0.38-2.81-0.21-4.22c0.28-2.07,1.42-3.93,3.14-5.1c1.18-0.79,2.48-1.37,3.85-1.72
		c2.21-0.64,2.96-0.83,8.76-2.21 M78.26,365.41c-5.9,1.41-6.64,1.61-8.94,2.27c-1.79,0.45-3.5,1.19-5.04,2.21
		c-2.64,1.83-4.4,4.68-4.84,7.86c-0.23,1.85-0.15,3.72,0.24,5.54c0.45,2.34,0.6,3.09,2,8.99s1.61,6.64,2.21,8.92
		c0.44,1.79,1.19,3.5,2.21,5.04c0.9,1.36,2.09,2.49,3.49,3.33c1.34,0.85,2.85,1.39,4.43,1.58c1.85,0.23,3.72,0.15,5.54-0.24
		c2.34-0.44,3.09-0.6,8.99-2c5.9-1.41,6.64-1.61,8.92-2.21c1.79-0.45,3.49-1.2,5.04-2.21c1.32-0.89,2.43-2.06,3.26-3.42
		c0.84-1.35,1.38-2.86,1.59-4.43c0.23-1.85,0.14-3.72-0.25-5.54c-0.44-2.35-0.6-3.09-2-8.99c-1.41-5.9-1.61-6.64-2.21-8.94
		c-0.45-1.79-1.2-3.49-2.21-5.04c-0.89-1.32-2.06-2.42-3.42-3.24c-1.34-0.85-2.85-1.4-4.43-1.59c-1.85-0.23-3.72-0.15-5.54,0.24
		c-2.35,0.45-3.09,0.6-8.99,2"/>
	<path style="fill:#FFFFFF;" d="M80.73,376.07c-6.16,1.47-9.97,7.65-8.5,13.82c1.47,6.16,7.65,9.97,13.82,8.5
		c6.16-1.47,9.97-7.65,8.5-13.81C93.08,378.41,86.89,374.6,80.73,376.07 M85.16,394.48c-4.01,0.95-8.02-1.53-8.96-5.54
		c-0.95-4.01,1.53-8.02,5.54-8.96c4-0.94,8.01,1.53,8.96,5.52c0.95,4-1.52,8.02-5.52,8.98C85.17,394.48,85.16,394.48,85.16,394.48"
		/>
	<path style="fill:#FFFFFF;" d="M94.84,372.25c0.34,1.44-0.56,2.88-2,3.22s-2.88-0.56-3.22-2c-0.34-1.44,0.55-2.87,1.98-3.22
		c1.43-0.35,2.88,0.53,3.23,1.96C94.83,372.22,94.83,372.23,94.84,372.25"/>
	<path style="fill:#455A64;" d="M401.5,391L401.5,391c-10.49,0.01-19-8.5-19.01-18.99c0,0,0-0.01,0-0.01l0,0c0-10.49,8.51-19,19-19
		c0,0,0.01,0,0.01,0l0,0c10.49-0.02,19.01,8.47,19.03,18.97c0,0.01,0,0.02,0,0.03l0,0c0,10.49-8.51,19-19,19
		C401.53,391,401.52,391,401.5,391z"/>
	<path style="fill:#FFFFFF;" d="M398.6,383.48h4.63v-11.55h3.22l0.35-3.88h-3.58v-2.21c0-0.91,0.19-1.27,1.11-1.27h2.51v-4.03h-3.21
		c-3.44,0-4.99,1.52-4.99,4.43v3.1h-2.47v3.86h2.4L398.6,383.48z"/>
</g>
<g id="freepik--Device--inject-13">
	<path style="fill:#263238;" d="M336.69,496l-152.68-0.06c-18.35,0-33.22-14.87-33.22-33.22l0,0l0.07-382.75
		c0-18.35,14.87-33.22,33.22-33.22c0.02,0,0.04,0,0.07,0l152.66,0.09c18.35,0,33.22,14.87,33.22,33.22l-0.07,382.66
		c0.03,18.35-14.82,33.24-33.16,33.27C336.76,496,336.72,496,336.69,496z"/>
	<path style="fill:#FFFFFF;" d="M336.64,60.27h-29.61c-4.04,0.1-7.25,3.44-7.19,7.48v5.37c0.09,4.05-3.12,7.41-7.17,7.51
		c0,0-0.01,0-0.01,0h-57.7c-4.06-0.09-7.28-3.45-7.19-7.51c0,0,0,0,0,0v-5.4c0.08-4.06-3.13-7.42-7.19-7.52h-10.43h-25.9
		c-12.84-0.03-23.28,10.35-23.31,23.2c0,0.02,0,0.04,0,0.06l-0.08,373.59c0,12.84,10.41,23.25,23.25,23.25l0,0l152.38,0.09
		c12.84,0,23.25-10.41,23.25-23.25l0,0l0.08-373.6C359.84,70.71,349.46,60.3,336.64,60.27z"/>
	<path style="fill:#263238;" d="M338.87,90.62c0,0.1-3.85,0.21-8.59,0.24c-4.74,0.03-8.6,0-8.6-0.1c0-0.1,3.84-0.22,8.59-0.25
		C335.02,90.48,338.87,90.52,338.87,90.62z"/>
	<path style="fill:#263238;" d="M338.9,95.02c0,0.1-3.84,0.21-8.59,0.25s-8.6,0-8.6-0.11c0-0.11,3.85-0.21,8.6-0.25
		S338.9,94.92,338.9,95.02z"/>
	<path style="fill:#263238;" d="M338.95,99.41c0,0.1-3.85,0.22-8.6,0.25c-4.75,0.03-8.59,0-8.6-0.11s3.85-0.21,8.6-0.25
		C335.09,99.26,338.95,99.31,338.95,99.41z"/>
	<path style="fill:#263238;" d="M176.95,103.71h0.45h1.25l4.63-0.11l-0.13,0.12c0-1.02,0-2.14-0.06-3.32c0-0.62,0-1.21,0-1.93
		c0.15-0.76,0.78-1.34,1.55-1.43c0.75,0,1.41,0,2.21,0c0.87,0.14,1.52,0.9,1.52,1.78c0,1.57,0,3.2,0.06,4.89l-0.21-0.21h5.84
		l-0.22,0.22c0-2.35,0-4.78-0.07-7.27c0-0.62,0-1.23,0-1.85c-0.05-0.56-0.35-1.06-0.82-1.37l-2.55-2.52l-2.47-2.42l-1.18-1.17
		c-0.41-0.4-0.73-0.81-1.21-0.91c-0.46-0.12-0.95-0.03-1.34,0.25c-0.35,0.3-0.73,0.72-1.11,1.11l-2.1,2.11
		c-1.32,1.36-2.69,2.61-3.69,3.8c-0.3,0.7-0.4,1.46-0.29,2.21c0,0.72,0,1.41,0,2.05c0,1.26,0,2.37,0,3.32s0,1.54,0,2.11
		c0.02,0.25,0.02,0.51,0,0.76c-0.01-0.23-0.01-0.47,0-0.7c0-0.56,0-1.26,0-2.09c0-0.83,0-2.07-0.08-3.32c0-0.66,0-1.36,0-2.1
		c0-0.38,0-0.75,0-1.11c0-0.43,0.11-0.85,0.32-1.22c1.11-1.32,2.37-2.49,3.7-3.9l2.08-2.14c0.38-0.37,0.68-0.73,1.11-1.11
		c0.48-0.37,1.11-0.49,1.69-0.34c0.55,0.2,1.04,0.55,1.41,1.01l1.2,1.17l2.47,2.42l2.56,2.5c0.24,0.22,0.46,0.45,0.65,0.71
		c0.19,0.29,0.3,0.63,0.31,0.99c0,0.62,0,1.24,0,1.86c0,2.49,0,4.93,0.06,7.27v0.22h-0.22h-5.84h-0.41v-0.21c0-1.69,0-3.32,0-4.89
		c0.02-0.7-0.48-1.3-1.17-1.42c-0.68,0-1.47,0-2.13,0c-0.61,0.06-1.12,0.51-1.25,1.11c0,0.59,0,1.26,0,1.86c0,1.21,0,2.34,0,3.32
		v0.13h-0.13h-4.71h-1.23C177.24,103.9,177.09,103.81,176.95,103.71z"/>
	<path style="fill:#455A64;" d="M277.71,395.64c-0.53,0.08-1.07,0.12-1.61,0.11l-4.36,0.09c-3.68,0.06-8.77,0.09-14.39,0.09
		s-10.72,0-14.39-0.09l-4.36-0.09c-0.54,0.01-1.07-0.03-1.61-0.11c0.53-0.09,1.07-0.13,1.61-0.11l4.36-0.1
		c3.68,0,8.77-0.08,14.39-0.08s10.71,0,14.39,0.08l4.36,0.1C276.64,395.51,277.18,395.55,277.71,395.64z"/>
	<path style="fill:#455A64;" d="M341.67,405.65c0,0.17-23.44,0.29-52.35,0.29s-52.35-0.12-52.35-0.29s23.44-0.29,52.35-0.29
		S341.67,405.5,341.67,405.65z"/>
	<path style="fill:#455A64;" d="M308.95,415.12c0,0.17-16.11,0.29-35.98,0.29s-36-0.12-36-0.29s16.11-0.29,36-0.29
		S308.95,414.92,308.95,415.12z"/>
	<path style="fill:#263238;" d="M343.74,433.42l-3.26-3.27l-3.1,3.09v-9.35h6.34L343.74,433.42z M340.49,429.74l0.1,0.1l2.87,2.88
		v-8.53h-5.77v8.36L340.49,429.74z"/>
	<path style="fill:#263238;" d="M257.12,432.2l-1.11-0.51c-1.47,0.69-3.21,0.06-3.9-1.41c-0.69-1.47-0.06-3.21,1.41-3.9
		c1.47-0.69,3.21-0.06,3.9,1.41c0.51,1.09,0.31,2.38-0.52,3.26L257.12,432.2z M254.45,425.98c-1.64,0.11-2.88,1.54-2.76,3.18
		c0.1,1.5,1.32,2.69,2.82,2.77c0.51-0.03,1-0.19,1.43-0.45l0,0l0.85,0.38l-0.2-0.83l0,0c1.11-1.21,1.02-3.09-0.18-4.19
		c-0.55-0.51-1.28-0.79-2.03-0.78L254.45,425.98z"/>
	<path style="fill:#263238;" d="M264.5,431.73l-1.31-3.21l-2.47-2.21h5.98L264.5,431.73z M261.27,426.49l2.1,1.93l1.11,2.73
		l1.88-4.71L261.27,426.49z"/>
	
		<rect x="263.05" y="427.27" transform="matrix(0.8382 -0.5454 0.5454 0.8382 -190.2038 213.6771)" style="fill:#263238;" width="3.9" height="0.22"/>
	<path style="fill:#407BFF;" d="M247.7,426.92c-0.21-1-1.18-1.64-2.18-1.44c-0.77,0.16-1.35,0.78-1.46,1.56
		c-0.14-1.01-1.07-1.72-2.08-1.58c-0.8,0.11-1.43,0.72-1.57,1.52c-0.09,0.64,0.08,1.28,0.45,1.8c0.37,0.51,0.81,0.97,1.31,1.37
		c0.68,0.59,1.28,1.11,1.95,1.73c0.66-0.6,1.22-1.16,1.88-1.76c0.49-0.41,0.92-0.88,1.28-1.4
		C247.65,428.2,247.8,427.55,247.7,426.92z"/>
	<path style="fill:#263238;" d="M350.41,441.69c0,0,0-0.37,0-1.04c0-0.68,0-1.71,0-3.03c0-2.67,0-6.64-0.06-11.69
		c0-10.18-0.06-24.98-0.1-43.55l0.19,0.19l-177.06,0.1l0,0l0.29-0.29c0,20.62,0,40.6,0,59.31l-0.28-0.28l126.7,0.12l36.98,0.08h9.97
		h2.57h0.89h-0.85h-2.54h-9.87l-36.93,0.08l-126.89,0.13h-0.29v-0.13c0-18.71,0-38.7,0-59.31v-0.29h0.31l177.06,0.1h0.19v0.19
		c0,18.61-0.08,33.46-0.1,43.67c0,5.07,0,8.98,0,11.65c0,1.31,0,2.3,0,2.99C350.59,441.37,350.41,441.69,350.41,441.69z"/>
	
		<rect x="185.52" y="387.52" transform="matrix(5.759587e-03 -1 1 5.759587e-03 -208.0911 614.7936)" style="fill:#EBEBEB;" width="39.22" height="49.05"/>
	<path style="fill:#263238;" d="M229.75,392.55h-0.94h-2.68h-10.06l-35.43-0.08l0.27-0.25c-0.06,11.68-0.12,25.06-0.19,39.21
		c0.06,0.08-0.54-0.54-0.29-0.29h3.38h3.32h6.64l12.73,0.08l22.96,0.17l-0.23,0.24c0.11-11.78,0.21-21.55,0.29-28.41
		c0-3.41,0.08-6.09,0.1-7.96c0-0.9,0-1.59,0-2.1c0-0.51,0-0.74,0-0.74s0,0.22,0,0.69s0,1.18,0,2.07c0,1.85,0,4.52,0,7.91
		c0,6.9,0,16.72,0,28.56v0.23h-0.24l-22.96-0.09l-12.73-0.07h-6.64h-3.32h-3.38l-0.3-0.3c0.1-14.16,0.18-27.54,0.25-39.21v-0.27
		h0.27l35.54,0.32l9.97,0.13h2.62h0.66L229.75,392.55z"/>
	
		<rect x="187.96" y="389.24" transform="matrix(5.759587e-03 -1 1 5.759587e-03 -208.1188 614.7657)" style="fill:#E0E0E0;" width="34.28" height="45.61"/>
	<polygon style="fill:#F5F5F5;" points="182.17,429.02 198.23,407.81 208.02,421.2 214.75,414.11 227.78,429.29 	"/>
	<path style="fill:#F5F5F5;" d="M212.3,405.28c-0.01,1.99-1.62,3.59-3.61,3.59c-1.99-0.01-3.59-1.62-3.59-3.61
		c0.01-1.99,1.62-3.59,3.61-3.59c0,0,0.01,0,0.01,0c1.98,0.01,3.58,1.62,3.58,3.6C212.3,405.28,212.3,405.28,212.3,405.28z"/>
	<path style="fill:#263238;" d="M263.41,138.17c-0.18,0.03-0.36,0.03-0.53,0l-1.49,0.06l-5.54,0.1c-4.66,0-11.07,0.08-18.22,0.08
		c-7.15,0-13.56,0-18.22-0.08l-5.54-0.1l-1.51-0.06c-0.17,0.03-0.35,0.03-0.52,0c0.17-0.04,0.35-0.06,0.52-0.06h1.51l5.54-0.09
		c4.66-0.06,11.07-0.09,18.22-0.09c7.15,0,13.56,0,18.22,0.09l5.54,0.09h1.49C263.06,138.11,263.24,138.13,263.41,138.17z"/>
	<path style="fill:#263238;" d="M335.87,354.94l-4.83-4.85l-4.62,4.6V340.8h9.43L335.87,354.94z M331.04,349.49l0.14,0.14l4.26,4.27
		v-12.67h-8.59v12.42L331.04,349.49z"/>
	<path style="fill:#263238;" d="M213.12,353.48l-2.21-1.01c-2.86,1.33-6.26,0.09-7.59-2.77c-1.33-2.86-0.09-6.26,2.77-7.59
		c2.86-1.33,6.26-0.09,7.59,2.77c0.99,2.12,0.58,4.64-1.03,6.34L213.12,353.48z M207.84,341.24c-3.23,0.03-5.82,2.67-5.8,5.9
		c0.03,3.23,2.67,5.82,5.9,5.8c1-0.06,1.96-0.36,2.81-0.89l0.1-0.06l1.66,0.74l-0.38-1.64l0.08-0.08c2.18-2.38,2.02-6.07-0.36-8.24
		C210.76,341.77,209.32,341.22,207.84,341.24L207.84,341.24z"/>
	<path style="fill:#263238;" d="M227.65,352.51l-2.59-6.32l-4.85-4.43l11.78-0.09L227.65,352.51z M221.3,342.18l4.14,3.8l2.21,5.38
		l3.7-9.26L221.3,342.18z"/>
	
		<rect x="224.83" y="343.71" transform="matrix(0.8382 -0.5454 0.5454 0.8382 -150.5686 180.3538)" style="fill:#263238;" width="7.66" height="0.43"/>
	<path style="fill:#407BFF;" d="M194.59,343.15c-0.39-1.97-2.31-3.26-4.28-2.87c-1.53,0.3-2.7,1.55-2.91,3.1
		c-0.3-1.99-2.15-3.36-4.14-3.07c-1.54,0.23-2.77,1.41-3.05,2.94c-0.17,1.25,0.15,2.52,0.9,3.54c0.74,1.01,1.61,1.92,2.58,2.71
		c1.32,1.11,2.52,2.21,3.84,3.4c1.28-1.17,2.39-2.28,3.69-3.47c0.96-0.81,1.81-1.73,2.54-2.75
		C194.48,345.67,194.77,344.39,194.59,343.15z"/>
	<circle style="fill:#EBEBEB;" cx="193.51" cy="138.17" r="7.99"/>
	<path style="fill:#455A64;" d="M332.86,309.1c0,0.17-33.5,0.3-74.83,0.3s-74.84-0.13-74.84-0.3s33.5-0.29,74.84-0.29
		S332.86,308.95,332.86,309.1z"/>
	<path style="fill:#455A64;" d="M332.86,296.64c0,0.16-33.5,0.29-74.83,0.29s-74.84-0.13-74.84-0.29s33.5-0.29,74.84-0.29
		S332.86,296.49,332.86,296.64z"/>
	<path style="fill:#455A64;" d="M264.65,321.73c0,0.16-18.24,0.29-40.72,0.29s-40.73-0.13-40.73-0.29s18.24-0.29,40.73-0.29
		S264.65,321.58,264.65,321.73z"/>
	<path style="fill:#263238;" d="M254.61,457.51c-0.03,1.76-1.48,3.16-3.24,3.13s-3.16-1.48-3.13-3.24c0.03-1.75,1.46-3.15,3.21-3.13
		c1.77,0.02,3.18,1.47,3.17,3.23C254.61,457.51,254.61,457.51,254.61,457.51z"/>
	<path style="fill:#263238;" d="M264.42,457.56c-0.04,1.75-1.49,3.15-3.24,3.11c-1.75-0.04-3.15-1.49-3.11-3.24
		c0.04-1.73,1.45-3.12,3.19-3.11c1.76,0.01,3.18,1.45,3.17,3.21C264.42,457.53,264.42,457.55,264.42,457.56z"/>
	<path style="fill:#263238;" d="M274.31,457.6c-0.04,1.75-1.49,3.15-3.24,3.11c-1.75-0.04-3.15-1.49-3.11-3.24
		c0.04-1.73,1.45-3.12,3.19-3.11c1.77,0.02,3.18,1.47,3.17,3.23C274.31,457.59,274.31,457.6,274.31,457.6z"/>
	<rect x="174.39" y="153.98" style="fill:#E0E0E0;" width="177.08" height="108.29"/>
	<polygon style="fill:#F5F5F5;" points="190.74,262.3 241.48,194.38 272.94,236.85 294.26,214.13 336.08,262.25 	"/>
	<path style="fill:#F5F5F5;" d="M286.28,186.04c0.01,6.32-5.11,11.45-11.44,11.46c-6.32,0.01-11.45-5.11-11.46-11.44
		c-0.01-6.32,5.11-11.45,11.44-11.46c0,0,0.01,0,0.01,0C281.15,174.61,286.27,179.72,286.28,186.04z"/>
	<path style="fill:#263238;" d="M350.99,362.91c0-2.31-0.11-100.14-0.27-244.96l0.27,0.27H173.94l0,0l0.29-0.29
		c0,91.61,0,176.39,0,244.96l-0.24-0.23l177.08,0.23l-177.08,0.24h-0.23v-0.24c0-68.57,0-153.35-0.06-244.96v-0.29H174h177.06h0.27
		v0.25c-0.06,72.49-0.1,133.75-0.13,176.91c0,21.55-0.06,38.56-0.07,50.21c0,5.8,0,10.26,0,13.29c0,1.49,0,2.64,0,3.41
		C351.13,362.49,350.99,362.91,350.99,362.91z"/>
</g>
<g id="freepik--Megaphone--inject-13">
	<path style="fill:#FFBE9D;" d="M267.74,393.3l3.92-13.16c0.69-2.86,1.59-6.22,2.81-10.06c1.11-3.45,3.92-7.09,6.49-9.7
		c4-4.06,5.9-4.09,8.58-6.24c0.24-0.16,0.52-0.39,0.75-0.51c0.51-0.28,0.95-0.65,1.31-1.11c2.31-2.5,0.09-6.39-4.62-6.01
		c-3.53,0.28-9.31,1.28-18.7,10.97c-0.12,0.16-0.24,0.28-0.35,0.42c-4.93,6.41-9.56-11.88-10.4-18.69c-0.6-3.89-4.24-6.55-8.12-5.95
		c-0.52,0.08-1.03,0.22-1.52,0.41l-22.88,10.7c-2.18-0.63-4.51-0.56-6.64,0.22c-3.32,1.16-5.21,4.66-4.36,8.07l9.29,36.99
		l-27.25,90.68h58.74L267.74,393.3z"/>
	<path style="fill:#407BFF;" d="M312.92,310.02l-18.16,35.59l-9.08-2.52l-45.62,37.13c-3.87,3.17-9.56,2.68-12.83-1.11l-17.38-20.18
		c0,0,35.04-15.09,41.52-27.58c6.48-12.49-1.01-15.34-1.01-15.34l16.49-18.73L312.92,310.02z"/>
	<path style="fill:#407BFF;" d="M289.36,237.34c0,0-26.57-5.88-63.99-41.84s-54.97-83.76-59.5-83.5
		c-4.53,0.27-24.57-9.05-62.59,73.65s-23.04,101.86-15.5,101.75c7.54-0.11,58.93-14.47,91.01-10.83s73.33,20.37,73.33,20.37
		L289.36,237.34z"/>
	<path style="fill:#407BFF;" d="M345.82,282.42l-9.07,17.24l-4.06,7.75c-5.57,10.59-18.46,14.97-29.33,9.97l-56.97-19.85
		l33.22-75.73l56.91,30.33C347.42,257.94,351.57,271.47,345.82,282.42z"/>
	<g style="opacity:0.4;">
		<path d="M345.82,282.42l-9.07,17.24l-4.06,7.75c-5.57,10.59-18.46,14.97-29.33,9.97l-56.97-19.85l33.22-75.73l56.91,30.33
			C347.42,257.94,351.57,271.47,345.82,282.42z"/>
	</g>
	<path style="fill:#407BFF;" d="M106.32,187.16c-20.23,44.8-28.66,84.72-18.82,89.16c9.83,4.44,34.22-28.27,54.45-73.08
		s28.66-84.71,18.82-89.16C150.94,109.63,126.55,142.36,106.32,187.16z"/>
	<g style="opacity:0.5;">
		<path d="M106.32,187.16c-20.23,44.8-28.66,84.72-18.82,89.16c9.83,4.44,34.22-28.27,54.45-73.08s28.66-84.71,18.82-89.16
			C150.94,109.63,126.55,142.36,106.32,187.16z"/>
	</g>
	<polygon style="fill:#407BFF;" points="350.72,307.33 335.27,302.48 344.83,284.32 356.41,291.52 	"/>
	<g style="opacity:0.6;">
		<polygon points="344.83,284.32 335.27,302.48 338.45,303.48 346.21,285.17 		"/>
	</g>
	<path style="fill:#407BFF;" d="M334.17,288.51c-0.22,0.5-7.93-2.49-17.21-6.64c-9.28-4.15-16.61-8.01-16.4-8.5s7.93,2.5,17.22,6.7
		C327.08,284.25,334.41,288.01,334.17,288.51z"/>
	<path style="fill:#407BFF;" d="M338.94,277.69c-0.24,0.49-7.22-2.45-15.58-6.57c-8.36-4.12-14.94-7.85-14.69-8.35
		c0.24-0.5,7.21,2.45,15.57,6.57C332.59,273.46,339.18,277.19,338.94,277.69z"/>
	<path style="fill:#407BFF;" d="M328.2,299.85c-0.08,0.27-1.92-0.16-4.84-1.11c-1.46-0.45-3.2-1.03-5.12-1.68
		c-1.92-0.65-3.88-1.69-5.99-2.66c-8.45-3.92-14.9-7.75-14.69-8.22c0.21-0.47,7.15,2.54,15.5,6.42c2.1,0.95,4.05,1.99,5.89,2.76
		c1.84,0.76,3.49,1.44,4.87,2.06C326.59,298.7,328.27,299.59,328.2,299.85z"/>
	<path style="fill:#407BFF;" d="M147.56,177.21c0,0-23.1-14.33-35.73,16.89s11.66,36.34,11.66,36.34
		C133.98,213.91,142.09,195.99,147.56,177.21z"/>
	<g style="opacity:0.5;">
		<path d="M172.13,140c0.14,0-0.19,2.15-0.9,5.97c-0.71,3.82-1.77,9.34-3.26,16.14l-3.21,10.93c-0.58,1.96-1.18,3.98-1.8,6.08
			l-0.94,3.18c-0.34,1.11-0.8,2.11-1.2,3.19l-5.22,13.46c-0.45,1.17-0.92,2.35-1.37,3.53s-1.11,2.31-1.63,3.49l-3.43,7.09
			l-3.44,7.08c-0.59,1.11-1.11,2.35-1.74,3.43c-0.63,1.09-1.3,2.21-1.93,3.27l-7.36,12.43c-0.6,0.97-1.11,1.98-1.77,2.91l-1.92,2.71
			l-3.68,5.18l-6.64,9.27c-4.43,5.35-8.13,9.57-10.67,12.5c-1.25,1.59-2.63,3.07-4.13,4.43c1.04-1.73,2.23-3.37,3.54-4.89
			c2.46-3.13,5.92-7.52,10.18-12.91l6.37-9.33l3.57-5.19c0.62-0.89,1.24-1.79,1.87-2.71c0.63-0.92,1.11-1.93,1.72-2.91l7.27-12.42
			l1.89-3.26c0.65-1.11,1.11-2.21,1.72-3.41l3.41-7.03c1.11-2.38,2.29-4.72,3.42-7.03c0.53-1.11,1.17-2.28,1.62-3.45l1.38-3.5
			l5.29-13.29c0.41-1.11,0.87-2.09,1.23-3.16c0.35-1.06,0.65-2.1,0.97-3.14l1.88-6.01l3.4-10.8l3.84-15.94
			C170.86,143.87,171.41,141.91,172.13,140z"/>
	</g>
	<g style="opacity:0.4;">
		<path d="M215.36,356.43c2.11,3.83,4.26,7.75,7.37,10.77c3.11,3.02,7.36,5.17,11.79,4.73c4.43-0.44,8.47-4.05,8.51-8.41
			c2.08,1.56,5.28,0.72,7.01-1.24c1.73-1.96,2.29-4.67,2.49-7.27c2.83,1.67,6.78,0.35,8.67-2.34c1.76-2.84,2.17-6.31,1.11-9.48
			c-1.08-3.11-2.61-6.05-4.55-8.71c2.21,0.18,4.5,0.33,6.44-0.65s3.32-3.58,2.14-5.44c-0.78-1.04-1.91-1.76-3.18-2.03
			c-3.42-1.11-5.81-1.93-9.38-1.52c-0.82,0,1.43,9.39-20.9,22.21C219.63,354.64,215.36,356.43,215.36,356.43z"/>
	</g>
	<path style="fill:#EB996E;" d="M265.65,369.94c0,0.1-1.49-0.19-3.91-0.12c-6.35,0.15-12.32,3.02-16.41,7.87
		c-1.56,1.84-2.21,3.18-2.36,3.12c0.09-0.35,0.24-0.67,0.43-0.97c0.47-0.84,1.01-1.65,1.61-2.41c4.03-5.12,10.21-8.08,16.73-8.02
		c0.97,0.01,1.93,0.09,2.88,0.27C264.97,369.7,265.32,369.79,265.65,369.94z"/>
	<path style="fill:#FFBE9D;" d="M216.81,350.44c3.6,3.45,6.06,7.27,9.83,10.75c1.72,1.58,4.43,4.57,6.64,4.97
		c2.21,0.4,3.76,0.1,4.67-2.05c0.74-1.74-0.59-4.12-1.49-5.54c-2.4-3.78-4.71-6.72-6.5-9.66c-0.85-1.37,0.24-1.66,0.64-1.02
		c1.73,1.79,4.32,3.32,5.87,5.3c2.13,2.67,2.5,6.22,8.06,5.09c0.74-0.12,1.45-0.41,2.06-0.85c2.09-1.61,2.21-4.43,1.31-6.64
		c-0.78-1.71-1.83-3.29-3.1-4.67c2.37,2.67,4.95,5.54,8.71,5.78c2.18,0.26,4.29-0.88,5.26-2.85c1.11-2.52-0.48-4.97-2.08-6.94
		c-2.84-3.5-6-6.74-9.44-9.66c-1.29-1.08-2.91-1.68-4.58-1.69c-1.95,0-4.43,0.35-5.54,2.04c-1.28,1.64-1.83,3.73-1.52,5.79
		c0,0-4.87-2.47-8.79,0.11c-2.41,1.69-4.15,4.19-4.89,7.04L216.81,350.44z"/>
	<path style="fill:#FFBE9D;" d="M242.77,329.72c-1.6-1.85-1.87-4.5-0.69-6.64c0.83-1.63,1.87-3.21,2.93-3.57
		c4.64-1.56,24.92,1.95,24.74,6.44c-0.19,4.5-1.67,6.64-12.67,5.06c-1.94-0.28-4.97-0.65-4.97-0.65l-2.66,3.99L242.77,329.72z"/>
	<path style="fill:#EB996E;" d="M246.4,348.56c-2.66-4.39-6.54-7.91-11.17-10.13c0.76,0.12,1.48,0.38,2.15,0.75
		c3.33,1.61,6.13,4.15,8.06,7.31C245.89,347.12,246.21,347.82,246.4,348.56z"/>
	<path style="fill:#EB996E;" d="M249.81,334.73c-0.1,0.09-1.44-1-3.27-2.11c-0.76-0.48-1.56-0.92-2.37-1.32
		c-0.63-0.29-1.05-0.37-1.04-0.45c0.01-0.09,0.48-0.13,1.17,0.08c0.9,0.29,1.75,0.69,2.55,1.21
		C248.73,333.27,249.96,334.61,249.81,334.73z"/>
	<path style="fill:#EB996E;" d="M253.23,330.55c-1.32,0.15-2.66,0-3.91-0.44c-0.92-0.28-1.77-0.74-2.5-1.35
		c-0.55-0.48-0.79-0.86-0.73-0.92c1.07,0.69,2.21,1.25,3.4,1.68C250.75,329.78,252,330.12,253.23,330.55z"/>
	<path style="fill:#EB996E;" d="M233.52,354.13c-0.7-0.73-1.32-1.54-1.85-2.4c-1.26-2.05-2.86-3.86-4.73-5.38
		c-1.93-1.41-4.33-2.05-6.71-1.77c-0.98,0.17-1.93,0.48-2.82,0.9c0,0,0.2-0.23,0.65-0.51c0.65-0.39,1.36-0.66,2.1-0.8
		c2.5-0.4,5.06,0.21,7.11,1.72c1.93,1.55,3.54,3.45,4.74,5.61C232.59,352.33,233.09,353.21,233.52,354.13z"/>
	<path style="fill:#EB996E;" d="M249.03,398.97c-2.73,0.58-5.5,0.98-8.28,1.18c-2.77,0.4-5.56,0.61-8.36,0.62
		c2.73-0.58,5.51-0.98,8.29-1.18C243.45,399.2,246.24,398.99,249.03,398.97z"/>
</g>
<g id="freepik--Stars--inject-13">
	<polygon style="fill:#407BFF;" points="423.45,30.73 424.7,33.02 426.98,34.28 424.7,35.53 423.45,37.81 422.2,35.53 419.92,34.28 
		422.2,33.02 	"/>
	<polygon style="fill:#407BFF;" points="449.59,87.39 450.84,89.68 453.12,90.93 450.84,92.18 449.59,94.46 448.34,92.18 
		446.05,90.93 448.34,89.68 	"/>
	<polygon style="fill:#407BFF;" points="30.68,238.55 31.93,240.84 34.23,242.09 31.93,243.33 30.68,245.62 29.43,243.33 
		27.15,242.09 29.43,240.84 	"/>
	<polygon style="fill:#407BFF;" points="389.16,44.82 392.05,50.1 397.33,52.99 392.05,55.87 389.16,61.15 386.28,55.87 381,52.99 
		386.28,50.1 	"/>
	<polygon style="fill:#407BFF;" points="54.11,202.64 56.99,207.9 62.26,210.78 56.99,213.67 54.11,218.93 51.23,213.67 
		45.96,210.78 51.23,207.9 	"/>
	<polygon style="fill:#407BFF;" points="456.7,328.27 459.58,333.54 464.84,336.42 459.58,339.29 456.7,344.56 453.82,339.29 
		448.55,336.42 453.82,333.54 	"/>
</g>
</svg>
