<?xml version="1.0" encoding="utf-8"?>
<!-- Generator: Adobe Illustrator 24.1.1, SVG Export Plug-In . SVG Version: 6.00 Build 0)  -->
<svg version="1.1" xmlns="http://www.w3.org/2000/svg" xmlns:xlink="http://www.w3.org/1999/xlink" x="0px" y="0px"
	 viewBox="0 0 500 500" style="enable-background:new 0 0 500 500;" xml:space="preserve">
<g id="Background_Complete">
	<g style="display:none;">
		<rect x="-39.38" y="415.62" style="display:inline;fill:#EBEBEB;" width="580.14" height="0.29"/>
		<rect x="444.2" y="434.3" style="display:inline;fill:#EBEBEB;" width="38.43" height="0.29"/>
		<rect x="334.84" y="437.45" style="display:inline;fill:#EBEBEB;" width="10.09" height="0.29"/>
		<rect x="420.77" y="423.52" style="display:inline;fill:#EBEBEB;" width="22.27" height="0.29"/>
		<rect x="21.48" y="425.47" style="display:inline;fill:#EBEBEB;" width="50.12" height="0.29"/>
		<rect x="81.93" y="425.47" style="display:inline;fill:#EBEBEB;" width="7.35" height="0.29"/>
		<rect x="113.16" y="430.37" style="display:inline;fill:#EBEBEB;" width="108.69" height="0.29"/>
		<path style="display:inline;fill:#EBEBEB;" d="M235.62,363.88H11.57c-3.65,0-6.62-2.97-6.62-6.62V42.31
			c0-3.65,2.97-6.62,6.62-6.62h224.05c3.65,0,6.62,2.97,6.62,6.62v314.94C242.24,360.9,239.27,363.88,235.62,363.88z M11.57,35.98
			c-3.49,0-6.33,2.84-6.33,6.33v314.94c0,3.49,2.84,6.33,6.33,6.33h224.05c3.49,0,6.33-2.84,6.33-6.33V42.31
			c0-3.49-2.84-6.33-6.33-6.33H11.57z"/>
		<path style="display:inline;fill:#EBEBEB;" d="M486.59,363.88H262.54c-3.65,0-6.62-2.97-6.62-6.62V42.31
			c0-3.65,2.97-6.62,6.62-6.62h224.05c3.65,0,6.62,2.97,6.62,6.62v314.94C493.21,360.9,490.24,363.88,486.59,363.88z M262.54,35.98
			c-3.49,0-6.33,2.84-6.33,6.33v314.94c0,3.49,2.84,6.33,6.33,6.33h224.05c3.49,0,6.33-2.84,6.33-6.33V42.31
			c0-3.49-2.84-6.33-6.33-6.33H262.54z"/>
	</g>
	<g>
		<g>
			<path style="fill:#F0F0F0;" d="M379.27,57.8c0-3.13-2.54-5.67-5.67-5.67c-0.57,0-1.11,0.09-1.63,0.24
				c0.08-0.57,0.13-1.15,0.13-1.74c0-6.64-5.38-12.01-12.01-12.01c-0.76,0-1.5,0.07-2.21,0.21c-1.85-3.02-5.17-5.05-8.97-5.05
				c-5.75,0-10.42,4.62-10.51,10.36c-0.06,0-0.12-0.01-0.17-0.01c-5.35,0-9.68,4.33-9.68,9.68s4.33,9.68,9.68,9.68h35.54l-0.01-0.01
				C376.82,63.38,379.27,60.88,379.27,57.8z"/>
			<polygon style="fill:#E0E0E0;" points="358.42,66.29 358.42,55.23 349.4,55.23 349.4,66.29 342.05,66.29 353.91,76.31 
				365.77,66.29 			"/>
		</g>
		<g>
			<path style="fill:#F0F0F0;" d="M201.46,74.53c0-6.65-5.39-12.05-12.05-12.05c-1.2,0-2.36,0.18-3.46,0.51
				c0.18-1.21,0.27-2.44,0.27-3.7c0-14.09-11.42-25.52-25.52-25.52c-1.61,0-3.18,0.16-4.7,0.44c-3.92-6.42-10.97-10.72-19.04-10.72
				c-12.22,0-22.13,9.82-22.31,21.99c-0.12,0-0.25-0.02-0.37-0.02c-11.35,0-20.56,9.2-20.56,20.56c0,11.35,9.2,20.56,20.56,20.56
				h75.49l-0.02-0.02C196.25,86.38,201.46,81.07,201.46,74.53z"/>
			<polygon style="fill:#E0E0E0;" points="138.01,75.46 138.01,98.96 157.17,98.96 157.17,75.46 172.78,75.46 147.59,54.19 
				122.41,75.46 			"/>
		</g>
		<g>
			<polyline style="fill:none;stroke:#E6E6E6;stroke-miterlimit:10;" points="211.08,133.21 211.08,101.62 307.83,101.62 
				307.83,132.89 			"/>
			<line style="fill:none;stroke:#E6E6E6;stroke-miterlimit:10;" x1="260.89" y1="71.85" x2="260.89" y2="133.12"/>
			<g>
				<path style="fill:#F0F0F0;" d="M277.53,59.81h-33.29c-0.66,0-1.19,0.53-1.19,1.19v19.97c0,0.66,0.53,1.19,1.19,1.19h33.29
					c0.66,0,1.19-0.53,1.19-1.19V61C278.72,60.34,278.19,59.81,277.53,59.81z"/>
				<path style="fill:#E0E0E0;" d="M277.07,81.26h-32.36c-0.23,0-0.42-0.19-0.42-0.42V62.85c0-0.23,0.19-0.42,0.42-0.42h32.36
					c0.23,0,0.42,0.19,0.42,0.42v17.98C277.49,81.07,277.3,81.26,277.07,81.26z"/>
			</g>
			<g>
				<path style="fill:#F0F0F0;" d="M227.73,130.35h-33.29c-0.66,0-1.19,0.53-1.19,1.19v19.97c0,0.66,0.53,1.19,1.19,1.19h33.29
					c0.66,0,1.19-0.53,1.19-1.19v-19.97C228.91,130.88,228.38,130.35,227.73,130.35z"/>
				<path style="fill:#E0E0E0;" d="M227.26,151.79H194.9c-0.23,0-0.42-0.19-0.42-0.42v-17.98c0-0.23,0.19-0.42,0.42-0.42h32.36
					c0.23,0,0.42,0.19,0.42,0.42v17.98C227.68,151.61,227.49,151.79,227.26,151.79z"/>
			</g>
			<g>
				<path style="fill:#F0F0F0;" d="M277.53,130.35h-33.29c-0.66,0-1.19,0.53-1.19,1.19v19.97c0,0.66,0.53,1.19,1.19,1.19h33.29
					c0.66,0,1.19-0.53,1.19-1.19v-19.97C278.72,130.88,278.19,130.35,277.53,130.35z"/>
				<path style="fill:#E0E0E0;" d="M277.07,151.79h-32.36c-0.23,0-0.42-0.19-0.42-0.42v-17.98c0-0.23,0.19-0.42,0.42-0.42h32.36
					c0.23,0,0.42,0.19,0.42,0.42v17.98C277.49,151.61,277.3,151.79,277.07,151.79z"/>
			</g>
			<g>
				<path style="fill:#F0F0F0;" d="M324.55,130.35h-33.29c-0.66,0-1.19,0.53-1.19,1.19v19.97c0,0.66,0.53,1.19,1.19,1.19h33.29
					c0.66,0,1.19-0.53,1.19-1.19v-19.97C325.74,130.88,325.21,130.35,324.55,130.35z"/>
				<path style="fill:#E0E0E0;" d="M324.09,151.79h-32.36c-0.23,0-0.42-0.19-0.42-0.42v-17.98c0-0.23,0.19-0.42,0.42-0.42h32.36
					c0.23,0,0.42,0.19,0.42,0.42v17.98C324.51,151.61,324.32,151.79,324.09,151.79z"/>
			</g>
			<path style="fill:#E0E0E0;enable-background:new    ;" d="M260.23,92.04l-8.92,8.92c-0.37,0.37-0.37,0.96,0,1.32l8.92,8.92
				c0.37,0.37,0.96,0.37,1.32,0l8.92-8.92c0.37-0.36,0.37-0.96,0-1.32l-8.92-8.92C261.18,91.67,260.59,91.67,260.23,92.04z"/>
		</g>
		<g>
			<path style="opacity:0.8;fill:#E0E0E0;" d="M72.12,101.36H48.63c-0.48,0-0.87-0.39-0.87-0.87V87.11c0-0.48,0.39-0.87,0.87-0.87
				h23.49c0.48,0,0.87,0.39,0.87,0.87v13.38C72.99,100.97,72.6,101.36,72.12,101.36z"/>
			<path style="fill:#E0E0E0;" d="M54.41,130.31H35.74c-0.48,0-0.87-0.39-0.87-0.87v-9.8c0-0.48,0.39-0.87,0.87-0.87h18.67
				c0.48,0,0.87,0.39,0.87,0.87v9.8C55.28,129.92,54.89,130.31,54.41,130.31z"/>
			<path style="fill:#E0E0E0;" d="M85.38,130.31H66.71c-0.48,0-0.87-0.39-0.87-0.87v-9.8c0-0.48,0.39-0.87,0.87-0.87h18.67
				c0.48,0,0.87,0.39,0.87,0.87v9.8C86.25,129.92,85.86,130.31,85.38,130.31z"/>
			<g>
				<path style="fill:#E0E0E0;" d="M66.34,153.06h-8.97c-0.48,0-0.87-0.39-0.87-0.87v-8.12c0-0.48,0.39-0.87,0.87-0.87h8.97
					c0.48,0,0.87,0.39,0.87,0.87v8.12C67.21,152.67,66.82,153.06,66.34,153.06z"/>
				<path style="fill:#E0E0E0;" d="M79.94,153.06h-8.97c-0.48,0-0.87-0.39-0.87-0.87v-8.12c0-0.48,0.39-0.87,0.87-0.87h8.97
					c0.48,0,0.87,0.39,0.87,0.87v8.12C80.81,152.67,80.42,153.06,79.94,153.06z"/>
				<path style="fill:#E0E0E0;" d="M93.55,153.06h-8.97c-0.48,0-0.87-0.39-0.87-0.87v-8.12c0-0.48,0.39-0.87,0.87-0.87h8.97
					c0.48,0,0.87,0.39,0.87,0.87v8.12C94.42,152.67,94.03,153.06,93.55,153.06z"/>
			</g>
			<path style="fill:#E0E0E0;" d="M34.86,153.06h-8.97c-0.48,0-0.87-0.39-0.87-0.87v-8.12c0-0.48,0.39-0.87,0.87-0.87h8.97
				c0.48,0,0.87,0.39,0.87,0.87v8.12C35.73,152.67,35.34,153.06,34.86,153.06z"/>
			<path style="fill:#E0E0E0;" d="M49.62,153.06h-8.97c-0.48,0-0.87-0.39-0.87-0.87v-8.12c0-0.48,0.39-0.87,0.87-0.87h8.97
				c0.48,0,0.87,0.39,0.87,0.87v8.12C50.49,152.67,50.1,153.06,49.62,153.06z"/>
			<g>
				<polygon style="fill:#E0E0E0;" points="74.88,118.77 76.04,118.77 76.04,110.65 60.95,110.65 60.95,101.36 59.79,101.36 
					59.79,110.65 44.71,110.65 44.71,118.77 45.87,118.77 45.87,111.81 74.88,111.81 				"/>
				<polygon style="fill:#E0E0E0;" points="44.71,137.33 29.63,137.33 29.63,143.13 30.79,143.13 30.79,138.49 44.71,138.49 
					44.71,143.13 45.87,143.13 45.87,130.37 44.71,130.37 				"/>
				<polygon style="fill:#E0E0E0;" points="76.04,138.49 76.04,130.37 74.88,130.37 74.88,138.49 60.95,138.49 60.95,143.13 
					62.11,143.13 62.11,139.65 74.88,139.65 74.88,143.13 76.04,143.13 76.04,139.65 88.8,139.65 88.8,143.13 89.96,143.13 
					89.96,138.49 				"/>
			</g>
		</g>
		<g>
			<path style="fill:#F5F5F5;" d="M410.68,89.87v8.34l4.29,0.4c0.58,2.79,1.69,5.39,3.2,7.7l-2.76,3.33l5.89,5.89l3.33-2.76
				c2.31,1.51,4.9,2.62,7.7,3.2l0.4,4.29h8.34l0.4-4.29c2.79-0.58,5.39-1.69,7.7-3.2l3.33,2.76l5.89-5.89l-2.76-3.33
				c1.51-2.31,2.62-4.9,3.2-7.7l4.29-0.4v-8.34l-4.29-0.4c-0.58-2.79-1.69-5.39-3.2-7.7l2.76-3.33l-5.89-5.89l-3.33,2.76
				c-2.31-1.51-4.9-2.62-7.7-3.2l-0.4-4.29h-8.34l-0.4,4.29c-2.79,0.58-5.39,1.69-7.7,3.2l-3.33-2.76l-5.89,5.89l2.76,3.33
				c-1.51,2.31-2.62,4.9-3.2,7.7L410.68,89.87z M436.91,82.76c6.23,0,11.28,5.05,11.28,11.28c0,6.23-5.05,11.28-11.28,11.28
				c-6.23,0-11.28-5.05-11.28-11.28C425.62,87.81,430.68,82.76,436.91,82.76z"/>
			<path style="fill:#F5F5F5;" d="M416.06,150.69c2.19-0.45,4.22-1.32,6.03-2.51l2.61,2.16l4.62-4.62l-2.16-2.61
				c1.19-1.81,2.05-3.84,2.51-6.03l3.36-0.32v-6.53l-3.36-0.32c-0.45-2.19-1.32-4.22-2.51-6.03l2.16-2.61l-4.62-4.62l-2.61,2.16
				c-1.81-1.19-3.84-2.05-6.03-2.51l-0.32-3.36h-6.53l-0.32,3.36c-2.19,0.45-4.22,1.32-6.03,2.51l-2.61-2.16l-4.62,4.62l2.16,2.61
				c-1.19,1.81-2.05,3.84-2.51,6.03l-3.36,0.32v6.53l3.36,0.32c0.45,2.19,1.32,4.23,2.51,6.03l-2.16,2.61l4.62,4.62l2.61-2.16
				c1.81,1.19,3.84,2.05,6.03,2.51l0.32,3.36h6.53L416.06,150.69z M403.64,133.5c0-4.88,3.96-8.84,8.84-8.84
				c4.88,0,8.84,3.96,8.84,8.84c0,4.88-3.96,8.84-8.84,8.84C407.6,142.34,403.64,138.38,403.64,133.5z"/>
			<path style="fill:#F5F5F5;" d="M401.49,115.34l2.19,1.81l3.88-3.88l-1.81-2.19c1-1.52,1.73-3.23,2.11-5.07l2.83-0.27v-5.49
				l-2.82-0.27c-0.38-1.84-1.11-3.55-2.11-5.07l1.81-2.19l-3.88-3.88l-2.19,1.81c-1.52-1-3.23-1.73-5.07-2.11l-0.27-2.83l-5.49,0
				l-0.27,2.82c-1.84,0.38-3.55,1.11-5.07,2.11l-2.19-1.81l-3.88,3.88l1.81,2.19c-1,1.52-1.73,3.23-2.11,5.07l-2.82,0.27v5.49
				l2.82,0.27c0.38,1.84,1.11,3.55,2.11,5.07l-1.81,2.19l3.88,3.88l2.19-1.81c1.52,1,3.23,1.73,5.07,2.11l0.27,2.82h5.49l0.27-2.83
				C398.26,117.06,399.97,116.34,401.49,115.34z M385.99,103.01c0-4.1,3.32-7.43,7.43-7.43c4.1,0,7.43,3.32,7.43,7.43
				c0,4.1-3.33,7.43-7.43,7.43C389.31,110.43,385.99,107.11,385.99,103.01z"/>
		</g>
		<g>
			<g>
				<rect x="400.52" y="319.9" style="fill:#F5F5F5;" width="77.91" height="50.67"/>
			</g>
			<rect x="403.37" y="329.4" style="fill:#E0E0E0;" width="72.21" height="38.64"/>
			<g>
				<rect x="409.25" y="335.17" style="fill:#F5F5F5;" width="53.42" height="1.66"/>
				<rect x="409.25" y="340.27" style="fill:#F5F5F5;" width="25.63" height="1.66"/>
				<rect x="409.25" y="345.36" style="fill:#F5F5F5;" width="32.28" height="1.66"/>
				<rect x="409.25" y="350.45" style="fill:#F5F5F5;" width="11.38" height="1.66"/>
				<rect x="409.25" y="355.54" style="fill:#F5F5F5;" width="7.37" height="1.66"/>
			</g>
		</g>
		<g>
			
				<rect x="24.17" y="319.74" transform="matrix(1 -4.558345e-03 4.558345e-03 1 -1.5349 0.24)" style="fill:#EBEBEB;" width="55.44" height="34.19"/>
			<g>
				<g>
					<path style="fill:#FAFAFA;" d="M45.36,345.46c-0.24,0-0.48-0.07-0.68-0.22l-10.12-7.39c-0.3-0.22-0.47-0.56-0.48-0.93
						c0-0.37,0.17-0.72,0.47-0.94l10.05-7.48c0.51-0.38,1.24-0.28,1.62,0.24c0.38,0.51,0.28,1.24-0.24,1.62l-8.79,6.54l8.84,6.46
						c0.52,0.38,0.63,1.1,0.25,1.62C46.07,345.3,45.72,345.46,45.36,345.46z"/>
				</g>
				<g>
					<path style="fill:#FAFAFA;" d="M58.49,345.4c-0.35,0-0.7-0.16-0.93-0.47c-0.38-0.51-0.28-1.24,0.24-1.62l8.79-6.54l-8.84-6.46
						c-0.52-0.38-0.63-1.1-0.25-1.62c0.38-0.52,1.1-0.63,1.62-0.25l10.12,7.39c0.3,0.22,0.47,0.56,0.48,0.93
						c0,0.37-0.17,0.72-0.47,0.94l-10.05,7.48C58.97,345.33,58.73,345.4,58.49,345.4z"/>
				</g>
				<g>
					<path style="fill:#FAFAFA;" d="M49.28,345.44c-0.13,0-0.26-0.02-0.38-0.06c-0.61-0.21-0.92-0.87-0.71-1.48l5.21-14.9
						c0.21-0.6,0.87-0.92,1.48-0.71c0.6,0.21,0.92,0.87,0.71,1.48l-5.21,14.9C50.21,345.15,49.76,345.44,49.28,345.44z"/>
				</g>
			</g>
		</g>
	</g>
</g>
<g id="Background_Simple" style="display:none;">
	<g style="display:inline;">
		<path style="fill:#407BFF;" d="M152.92,93.35c19.94-11.22,42.32-18.28,65.13-18.43c26.76-0.18,54.02,9.77,72.27,29.35
			c7.37,7.91,13.16,17.16,20.4,25.19c7.24,8.03,16.48,15.02,27.22,16.3c11.54,1.37,22.8-4.01,34.39-4.74
			c27.01-1.7,45.94,23.23,47.62,48.12c2,29.58-19.85,60.34-39.55,80.09c-23.89,23.95-51.86,43.2-78.68,63.63
			c-26.13,19.9-49.8,43.42-78.66,59.49c-12.56,7-26.36,12.6-40.74,12.74c-21.82,0.22-38.74-12.93-42.59-34.45
			c-2.39-13.36-0.07-26.94-2.27-40.34c-5.44-33.08-35.97-55.94-49.59-86.58c-11.37-25.56-10.07-55.84,0.83-81.61
			s30.76-47.17,54.11-62.58C146.1,97.35,149.48,95.29,152.92,93.35z"/>
		<path style="opacity:0.9;fill:#FFFFFF;" d="M152.92,93.35c19.94-11.22,42.32-18.28,65.13-18.43c26.76-0.18,54.02,9.77,72.27,29.35
			c7.37,7.91,13.16,17.16,20.4,25.19c7.24,8.03,16.48,15.02,27.22,16.3c11.54,1.37,22.8-4.01,34.39-4.74
			c27.01-1.7,45.94,23.23,47.62,48.12c2,29.58-19.85,60.34-39.55,80.09c-23.89,23.95-51.86,43.2-78.68,63.63
			c-26.13,19.9-49.8,43.42-78.66,59.49c-12.56,7-26.36,12.6-40.74,12.74c-21.82,0.22-38.74-12.93-42.59-34.45
			c-2.39-13.36-0.07-26.94-2.27-40.34c-5.44-33.08-35.97-55.94-49.59-86.58c-11.37-25.56-10.07-55.84,0.83-81.61
			s30.76-47.17,54.11-62.58C146.1,97.35,149.48,95.29,152.92,93.35z"/>
	</g>
</g>
<g id="Shadow_1_">
	<ellipse id="_x3C_Path_x3E__1_" style="fill:#F5F5F5;" cx="250.69" cy="454.89" rx="224.97" ry="13.14"/>
</g>
<g id="Ladder">
	<g>
		<g>
			<polygon style="fill:#263238;" points="348.6,454.89 357.12,454.89 368.72,390.79 360.2,390.79 			"/>
			<polygon style="opacity:0.2;fill:#FFFFFF;" points="348.6,454.89 357.12,454.89 368.72,390.79 360.2,390.79 			"/>
			<polygon style="opacity:0.2;fill:#FFFFFF;" points="348.6,454.89 354.8,454.89 366.4,390.79 360.2,390.79 			"/>
		</g>
		<path style="fill:#263238;" d="M324.59,409.86h34.1c1.04,0,1.88-0.84,1.88-1.88l0,0c0-1.04-0.84-1.88-1.88-1.88h-34.1
			c-1.04,0-1.88,0.84-1.88,1.88l0,0C322.7,409.02,323.55,409.86,324.59,409.86z"/>
		<path style="fill:#263238;" d="M320.8,431.32h34.1c1.04,0,1.88-0.84,1.88-1.88l0,0c0-1.04-0.84-1.88-1.88-1.88h-34.1
			c-1.04,0-1.88,0.84-1.88,1.88l0,0C318.92,430.48,319.76,431.32,320.8,431.32z"/>
		<g>
			<polygon style="fill:#263238;" points="313.79,454.89 322.31,454.89 333.91,390.79 325.39,390.79 			"/>
			<polygon style="opacity:0.2;fill:#FFFFFF;" points="313.79,454.89 322.31,454.89 333.91,390.79 325.39,390.79 			"/>
			<polygon style="opacity:0.2;fill:#FFFFFF;" points="313.79,454.89 319.99,454.89 331.59,390.79 325.39,390.79 			"/>
		</g>
		<g>
			<polygon style="fill:#263238;" points="393.08,454.89 384.57,454.89 372.96,390.79 381.48,390.79 			"/>
			<polygon style="opacity:0.4;fill:#FFFFFF;" points="393.08,454.89 384.57,454.89 372.96,390.79 381.48,390.79 			"/>
			<polygon style="opacity:0.2;fill:#FFFFFF;" points="390.76,454.89 384.57,454.89 372.96,390.79 379.16,390.79 			"/>
		</g>
		<path style="fill:#263238;" d="M378.11,409.86H344c-1.04,0-1.88-0.84-1.88-1.88l0,0c0-1.04,0.84-1.88,1.88-1.88h34.1
			c1.04,0,1.88,0.84,1.88,1.88l0,0C379.99,409.02,379.15,409.86,378.11,409.86z"/>
		<path style="fill:#263238;" d="M381.89,431.32h-34.1c-1.04,0-1.88-0.84-1.88-1.88l0,0c0-1.04,0.84-1.88,1.88-1.88h34.1
			c1.04,0,1.88,0.84,1.88,1.88l0,0C383.78,430.48,382.93,431.32,381.89,431.32z"/>
		<path style="opacity:0.2;fill:#FFFFFF;" d="M378.11,409.86H344c-1.04,0-1.88-0.84-1.88-1.88l0,0c0-1.04,0.84-1.88,1.88-1.88h34.1
			c1.04,0,1.88,0.84,1.88,1.88l0,0C379.99,409.02,379.15,409.86,378.11,409.86z"/>
		<path style="opacity:0.2;fill:#FFFFFF;" d="M381.89,431.32h-34.1c-1.04,0-1.88-0.84-1.88-1.88l0,0c0-1.04,0.84-1.88,1.88-1.88
			h34.1c1.04,0,1.88,0.84,1.88,1.88l0,0C383.78,430.48,382.93,431.32,381.89,431.32z"/>
		<g>
			<polygon style="fill:#263238;" points="358.28,454.89 349.76,454.89 338.16,390.79 346.67,390.79 			"/>
			<polygon style="opacity:0.4;fill:#FFFFFF;" points="358.28,454.89 349.76,454.89 338.16,390.79 346.67,390.79 			"/>
			<polygon style="opacity:0.2;fill:#FFFFFF;" points="355.96,454.89 349.76,454.89 338.16,390.79 344.35,390.79 			"/>
		</g>
		<g>
			<path style="fill:#263238;" d="M385,393.85h-61.99c-0.66,0-1.19-0.53-1.19-1.19v-3.74c0-0.66,0.53-1.19,1.19-1.19H385
				c0.66,0,1.19,0.53,1.19,1.19v3.74C386.19,393.32,385.66,393.85,385,393.85z"/>
			<path style="opacity:0.2;fill:#FFFFFF;" d="M346.81,393.85h-23.8c-0.66,0-1.19-0.53-1.19-1.19v-3.74c0-0.66,0.53-1.19,1.19-1.19
				h23.8c0.66,0,1.19,0.53,1.19,1.19v3.74C348,393.32,347.47,393.85,346.81,393.85z"/>
		</g>
	</g>
</g>
<g id="interface">
	<g>
		<g>
			<rect x="108.21" y="403.38" style="fill:#407BFF;" width="77.91" height="50.67"/>
			<rect x="108.21" y="403.38" style="opacity:0.6;fill:#FFFFFF;enable-background:new    ;" width="77.91" height="50.67"/>
		</g>
		<rect x="111.06" y="412.88" style="fill:#407BFF;" width="72.21" height="38.64"/>
		<g>
			<rect x="116.94" y="418.66" style="fill:#FFFFFF;" width="53.42" height="1.66"/>
			<rect x="116.94" y="423.75" style="fill:#FFFFFF;" width="25.63" height="1.66"/>
			<rect x="116.94" y="428.84" style="fill:#FFFFFF;" width="32.28" height="1.66"/>
			<rect x="116.94" y="433.93" style="fill:#FFFFFF;" width="11.38" height="1.66"/>
			<rect x="116.94" y="439.02" style="fill:#FFFFFF;" width="7.37" height="1.66"/>
		</g>
	</g>
</g>
<g id="Monitor">
	<g>
		<g>
			<polygon style="fill:#407BFF;" points="282.4,454.89 218.97,454.89 229.71,370.57 271.66,370.57 			"/>
			<polygon style="opacity:0.6;fill:#FFFFFF;" points="282.4,454.89 218.98,454.89 226.33,397.2 229.72,370.57 271.66,370.57 
				276.66,409.86 			"/>
			<polygon style="opacity:0.1;enable-background:new    ;" points="276.66,409.86 226.33,397.2 229.72,370.57 271.66,370.57 			"/>
		</g>
		<g>
			<path style="fill:#407BFF;" d="M400.21,162.66h-6.34H107.5h-6.34c-4.23,0-7.65,3.43-7.65,7.65v202.45c0,4.23,3.43,7.65,7.65,7.65
				h6.34h286.37h6.34c4.23,0,7.65-3.43,7.65-7.65V170.31C407.86,166.09,404.44,162.66,400.21,162.66z"/>
			<path style="opacity:0.7;fill:#FFFFFF;" d="M400.21,162.66h-6.34H107.5h-6.34c-4.23,0-7.65,3.43-7.65,7.65v202.45
				c0,4.23,3.43,7.65,7.65,7.65h6.34h286.37h6.34c4.23,0,7.65-3.43,7.65-7.65V170.31C407.86,166.09,404.44,162.66,400.21,162.66z"/>
		</g>
		<rect x="103.58" y="170.16" style="fill:#407BFF;" width="294.21" height="195.22"/>
		<g>
			<path style="fill:#407BFF;" d="M304.12,448.55H197.26c-0.57,0-1.04,0.46-1.04,1.04v4.16c0,0.57,0.46,1.04,1.04,1.04h106.87
				c0.57,0,1.04-0.46,1.04-1.04v-4.16C305.16,449.02,304.69,448.55,304.12,448.55z"/>
			<path style="opacity:0.7;fill:#FFFFFF;" d="M304.12,448.55H197.26c-0.57,0-1.04,0.46-1.04,1.04v4.16c0,0.57,0.46,1.04,1.04,1.04
				h106.87c0.57,0,1.04-0.46,1.04-1.04v-4.16C305.16,449.02,304.69,448.55,304.12,448.55z"/>
		</g>
		<g>
			<rect x="103.58" y="170.34" style="opacity:0.2;enable-background:new    ;" width="294.21" height="29.1"/>
			<rect x="103.58" y="199.78" style="opacity:0.4;fill:#FFFFFF;" width="126.08" height="165.59"/>
			<g>
				<g>
					<g>
						<polyline style="fill:none;stroke:#FFFFFF;stroke-miterlimit:10;" points="352.52,242.42 352.52,244.92 350.02,244.92 						
							"/>
						
							<line style="fill:none;stroke:#FFFFFF;stroke-miterlimit:10;stroke-dasharray:5.0011,5.0011;" x1="345.02" y1="244.92" x2="247.5" y2="244.92"/>
						<polyline style="fill:none;stroke:#FFFFFF;stroke-miterlimit:10;" points="245,244.92 242.5,244.92 242.5,242.42 						"/>
						
							<line style="fill:none;stroke:#FFFFFF;stroke-miterlimit:10;stroke-dasharray:5.3283,5.3283;" x1="242.5" y1="237.1" x2="242.5" y2="186.48"/>
						<polyline style="fill:none;stroke:#FFFFFF;stroke-miterlimit:10;" points="242.5,183.81 242.5,181.31 245,181.31 						"/>
						
							<line style="fill:none;stroke:#FFFFFF;stroke-miterlimit:10;stroke-dasharray:5.0011,5.0011;" x1="250" y1="181.31" x2="347.52" y2="181.31"/>
						<polyline style="fill:none;stroke:#FFFFFF;stroke-miterlimit:10;" points="350.02,181.31 352.52,181.31 352.52,183.81 						
							"/>
						
							<line style="fill:none;stroke:#FFFFFF;stroke-miterlimit:10;stroke-dasharray:5.3283,5.3283;" x1="352.52" y1="189.14" x2="352.52" y2="239.76"/>
					</g>
				</g>
				<g>
					<rect x="350.68" y="179.47" style="fill:#407BFF;stroke:#FFFFFF;stroke-miterlimit:10;" width="3.68" height="3.68"/>
					<rect x="350.68" y="243.09" style="fill:#407BFF;stroke:#FFFFFF;stroke-miterlimit:10;" width="3.68" height="3.68"/>
					<rect x="240.66" y="179.47" style="fill:#407BFF;stroke:#FFFFFF;stroke-miterlimit:10;" width="3.68" height="3.68"/>
					<rect x="240.66" y="243.09" style="fill:#407BFF;stroke:#FFFFFF;stroke-miterlimit:10;" width="3.68" height="3.68"/>
				</g>
				<g>
					<rect x="295.67" y="179.47" style="fill:#407BFF;stroke:#FFFFFF;stroke-miterlimit:10;" width="3.68" height="3.68"/>
					<rect x="295.67" y="243.09" style="fill:#407BFF;stroke:#FFFFFF;stroke-miterlimit:10;" width="3.68" height="3.68"/>
				</g>
				<g>
					<rect x="350.68" y="211.28" style="fill:#407BFF;stroke:#FFFFFF;stroke-miterlimit:10;" width="3.68" height="3.68"/>
					<rect x="240.66" y="211.28" style="fill:#407BFF;stroke:#FFFFFF;stroke-miterlimit:10;" width="3.68" height="3.68"/>
				</g>
			</g>
			<path style="opacity:0.7;fill:#FFFFFF;" d="M342.83,214.27H315.3c-1.05,0-1.89-0.85-1.89-1.89v-7.8c0-1.05,0.85-1.89,1.89-1.89
				h27.53c1.05,0,1.89,0.85,1.89,1.89v7.8C344.72,213.42,343.88,214.27,342.83,214.27z"/>
			<path style="opacity:0.7;fill:#FFFFFF;" d="M296.42,214.27h-27.53c-1.05,0-1.89-0.85-1.89-1.89v-7.8c0-1.05,0.85-1.89,1.89-1.89
				h27.53c1.05,0,1.89,0.85,1.89,1.89v7.8C298.31,213.42,297.46,214.27,296.42,214.27z"/>
			<path style="opacity:0.7;fill:#FFFFFF;" d="M236.67,355.34h-27.53c-1.05,0-1.89-0.85-1.89-1.89v-7.8c0-1.05,0.85-1.89,1.89-1.89
				h27.53c1.05,0,1.89,0.85,1.89,1.89v7.8C238.56,354.5,237.71,355.34,236.67,355.34z"/>
			<g>
				
					<line style="fill:none;stroke:#FFFFFF;stroke-width:1.5;stroke-linecap:round;stroke-linejoin:round;stroke-miterlimit:10;" x1="378.38" y1="180.69" x2="388.18" y2="180.69"/>
				
					<line style="fill:none;stroke:#FFFFFF;stroke-width:1.5;stroke-linecap:round;stroke-linejoin:round;stroke-miterlimit:10;" x1="378.38" y1="185.33" x2="388.18" y2="185.33"/>
				
					<line style="fill:none;stroke:#FFFFFF;stroke-width:1.5;stroke-linecap:round;stroke-linejoin:round;stroke-miterlimit:10;" x1="378.38" y1="189.97" x2="388.18" y2="189.97"/>
			</g>
			<rect x="123.53" y="225.45" style="opacity:0.5;fill:#FFFFFF;" width="98.69" height="98.69"/>
			<g>
				<line style="fill:none;stroke:#407BFF;stroke-miterlimit:10;" x1="164.84" y1="233.52" x2="164.84" y2="318.64"/>
				<path style="fill:none;stroke:#407BFF;stroke-miterlimit:10;" d="M207.4,318.64L207.4,318.64c-23.5,0-42.56-19.05-42.56-42.56v0
					c0-23.5,19.05-42.56,42.56-42.56l0,0"/>
				<rect x="205.56" y="231.68" style="fill:#FFFFFF;stroke:#407BFF;stroke-miterlimit:10;" width="3.68" height="3.68"/>
				<rect x="205.56" y="316.8" style="fill:#FFFFFF;stroke:#407BFF;stroke-miterlimit:10;" width="3.68" height="3.68"/>
				<rect x="163" y="274.24" style="fill:#FFFFFF;stroke:#407BFF;stroke-miterlimit:10;" width="3.68" height="3.68"/>
				<path style="fill:#FFFFFF;stroke:#407BFF;stroke-miterlimit:10;" d="M165.79,233.52c0,0.53-0.43,0.95-0.95,0.95
					c-0.53,0-0.95-0.43-0.95-0.95c0-0.53,0.43-0.95,0.95-0.95C165.37,232.57,165.79,233,165.79,233.52z"/>
				<path style="fill:#FFFFFF;stroke:#407BFF;stroke-miterlimit:10;" d="M165.79,318.64c0,0.53-0.43,0.95-0.95,0.95
					c-0.53,0-0.95-0.43-0.95-0.95c0-0.53,0.43-0.95,0.95-0.95C165.37,317.69,165.79,318.12,165.79,318.64z"/>
			</g>
			<path style="opacity:0.7;fill:#FFFFFF;" d="M328.34,345.16h-29.87c-4.77,0-8.63-3.87-8.63-8.63l0,0c0-4.77,3.86-8.63,8.63-8.63
				h29.87c4.77,0,8.63,3.86,8.63,8.63l0,0C336.98,341.29,333.11,345.16,328.34,345.16z"/>
			<path style="opacity:0.7;fill:#FFFFFF;" d="M354.59,271.54H262.3c-1.04,0-1.89-0.84-1.89-1.89l0,0c0-1.04,0.84-1.89,1.89-1.89
				h92.29c1.04,0,1.89,0.84,1.89,1.89l0,0C356.48,270.69,355.63,271.54,354.59,271.54z"/>
			<path style="opacity:0.7;fill:#FFFFFF;" d="M354.59,285.32H262.3c-1.04,0-1.89-0.84-1.89-1.89l0,0c0-1.04,0.84-1.89,1.89-1.89
				h92.29c1.04,0,1.89,0.84,1.89,1.89l0,0C356.48,284.47,355.63,285.32,354.59,285.32z"/>
			<path style="opacity:0.7;fill:#FFFFFF;" d="M354.59,299.1h-57.48c-1.04,0-1.89-0.84-1.89-1.89l0,0c0-1.04,0.84-1.89,1.89-1.89
				h57.48c1.04,0,1.89,0.84,1.89,1.89l0,0C356.48,298.25,355.63,299.1,354.59,299.1z"/>
			<g>
				<rect x="112.88" y="178.41" style="opacity:0.4;enable-background:new    ;" width="6.52" height="6.52"/>
				<path style="opacity:0.4;enable-background:new    ;" d="M130.63,184.93h-3.64c-0.8,0-1.44-0.64-1.44-1.44v-3.64
					c0-0.8,0.64-1.44,1.44-1.44h3.64c0.8,0,1.44,0.64,1.44,1.44v3.64C132.07,184.28,131.43,184.93,130.63,184.93z"/>
				<path style="opacity:0.4;enable-background:new    ;" d="M142.18,184.93h-1.38c-1.42,0-2.57-1.15-2.57-2.57v-1.38
					c0-1.42,1.15-2.57,2.57-2.57h1.38c1.42,0,2.57,1.15,2.57,2.57v1.38C144.75,183.78,143.6,184.93,142.18,184.93z"/>
			</g>
			<g>
				<g>
					<path style="opacity:0.9;fill:#FFFFFF;" d="M132.87,339.16v-2.54l-1.31-0.12c-0.18-0.85-0.51-1.64-0.98-2.35l0.84-1.02
						l-1.8-1.8l-1.02,0.84c-0.7-0.46-1.5-0.8-2.35-0.98l-0.12-1.31h-2.54l-0.12,1.31c-0.85,0.18-1.64,0.51-2.35,0.98l-1.02-0.84
						l-1.8,1.8l0.84,1.02c-0.46,0.7-0.8,1.5-0.98,2.35l-1.31,0.12v2.54l1.31,0.12c0.18,0.85,0.51,1.64,0.98,2.35l-0.84,1.02l1.8,1.8
						l1.02-0.84c0.7,0.46,1.5,0.8,2.35,0.98l0.12,1.31h2.54l0.12-1.31c0.85-0.18,1.64-0.51,2.35-0.98l1.02,0.84l1.8-1.8l-0.84-1.02
						c0.46-0.7,0.8-1.5,0.98-2.35L132.87,339.16z M124.87,341.33c-1.9,0-3.44-1.54-3.44-3.44c0-1.9,1.54-3.44,3.44-3.44
						c1.9,0,3.44,1.54,3.44,3.44C128.31,339.79,126.77,341.33,124.87,341.33z"/>
					<path style="opacity:0.6;fill:#FFFFFF;" d="M143.16,346.34v-1.99l-1.03-0.1c-0.14-0.67-0.4-1.29-0.76-1.84l0.66-0.8l-1.41-1.41
						l-0.8,0.66c-0.55-0.36-1.17-0.63-1.84-0.76l-0.1-1.03h-1.99l-0.1,1.03c-0.67,0.14-1.29,0.4-1.84,0.76l-0.8-0.66l-1.41,1.41
						l0.66,0.8c-0.36,0.55-0.63,1.17-0.76,1.84l-1.03,0.1v1.99l1.03,0.1c0.14,0.67,0.4,1.29,0.76,1.84l-0.66,0.8l1.41,1.41l0.8-0.66
						c0.55,0.36,1.17,0.63,1.84,0.76l0.1,1.03h1.99l0.1-1.03c0.67-0.14,1.29-0.4,1.84-0.76l0.8,0.66l1.41-1.41l-0.66-0.8
						c0.36-0.55,0.63-1.17,0.76-1.84L143.16,346.34z M136.9,348.04c-1.49,0-2.7-1.21-2.7-2.7c0-1.49,1.21-2.7,2.7-2.7
						c1.49,0,2.7,1.21,2.7,2.7C139.59,346.83,138.39,348.04,136.9,348.04z"/>
					<path style="opacity:0.4;fill:#FFFFFF;" d="M132.87,351.99v-1.67l-0.86-0.08c-0.12-0.56-0.34-1.08-0.64-1.54l0.55-0.67
						l-1.18-1.18l-0.67,0.55c-0.46-0.3-0.98-0.53-1.54-0.64l-0.08-0.86h-1.67l-0.08,0.86c-0.56,0.12-1.08,0.34-1.54,0.64l-0.67-0.55
						l-1.18,1.18l0.55,0.67c-0.3,0.46-0.53,0.98-0.64,1.54l-0.86,0.08l0,1.67l0.86,0.08c0.12,0.56,0.34,1.08,0.64,1.54l-0.55,0.67
						l1.18,1.18l0.67-0.55c0.46,0.3,0.98,0.53,1.54,0.64l0.08,0.86h1.67l0.08-0.86c0.56-0.12,1.08-0.34,1.54-0.64l0.67,0.55
						l1.18-1.18l-0.55-0.67c0.3-0.46,0.53-0.98,0.64-1.54L132.87,351.99z M127.6,353.42c-1.25,0-2.26-1.01-2.26-2.26
						c0-1.25,1.01-2.26,2.26-2.26c1.25,0,2.26,1.01,2.26,2.26C129.87,352.4,128.85,353.42,127.6,353.42z"/>
				</g>
			</g>
		</g>
		<g>
			<g>
				<polygon style="fill:#407BFF;" points="351.84,180.66 356.76,193.81 364.99,185.58 				"/>
				
					<rect x="359.58" y="186.81" transform="matrix(0.7071 -0.7071 0.7071 0.7071 -28.4373 310.74)" style="fill:#407BFF;" width="2.59" height="5.76"/>
			</g>
			<polygon style="opacity:0.4;fill:#FFFFFF;" points="364.99,185.58 351.84,180.66 356.76,193.81 359.96,190.61 362,192.65 
				363.83,190.82 361.79,188.78 			"/>
		</g>
		<g>
			<path style="fill:#263238;" d="M150.28,227.68l12.38,4.63l-6.49-6.49c-0.49,0.27-1.11,0.22-1.52-0.19c-0.5-0.5-0.5-1.31,0-1.81
				c0.5-0.5,1.31-0.5,1.81,0c0.41,0.41,0.47,1.03,0.19,1.52l6.49,6.49l-4.63-12.38l-4.1,0.91l-0.16-1.48l-0.78-0.78l-4.54,4.54
				l0.78,0.78l1.48,0.16L150.28,227.68z"/>
			<path style="opacity:0.2;fill:#FFFFFF;" d="M150.28,227.68l12.38,4.63l-6.49-6.49c-0.49,0.27-1.11,0.22-1.52-0.19
				c-0.5-0.5-0.5-1.31,0-1.81c0.5-0.5,1.31-0.5,1.81,0c0.41,0.41,0.47,1.03,0.19,1.52l6.49,6.49l-4.63-12.38l-4.1,0.91l-0.16-1.48
				l-0.78-0.78l-4.54,4.54l0.78,0.78l1.48,0.16L150.28,227.68z"/>
		</g>
		<g style="opacity:0.1;">
			<polygon style="fill:#FFFFFF;" points="146.61,170.16 103.01,333.08 103.01,170.16 			"/>
			<polygon style="fill:#FFFFFF;" points="195.82,170.16 143.57,365.37 107.58,365.37 159.82,170.16 			"/>
			<polygon style="fill:#FFFFFF;" points="248.15,170.16 195.9,365.37 179.62,365.37 231.87,170.16 			"/>
			<polygon style="fill:#FFFFFF;" points="296.33,170.16 244.09,365.37 238.26,365.37 290.51,170.16 			"/>
		</g>
	</g>
</g>
<g id="Character_2">
	<g>
		<g>
			<path style="fill:#263238;" d="M465.35,221.22c4.12,4.75,25.07,45.12,21.02,54.54c-4.05,9.42-37.63-1.44-37.63-1.44l2.01-13.3
				c0,0,13.05,0.46,14.3-0.78c1.25-1.24-17.65-20.11-17.65-20.11L465.35,221.22z"/>
			<g style="opacity:0.2;enable-background:new    ;">
				<path style="fill:#FFFFFF;" d="M486.37,275.77c-0.46,1.08-1.31,1.89-2.45,2.48c-0.01,0-0.02,0.01-0.04,0.02
					c-0.21,0.1-0.44,0.21-0.67,0.3c-0.02,0.01-0.06,0.02-0.09,0.03c-0.2,0.08-0.42,0.16-0.64,0.22c-0.87,0.29-1.84,0.49-2.9,0.6
					c-0.28,0.03-0.56,0.06-0.85,0.08c-0.42,0.03-0.84,0.06-1.26,0.07c-0.36,0.01-0.73,0.02-1.1,0.02
					c-11.25,0.01-27.63-5.28-27.63-5.28l2.01-13.31c0,0,13.04,0.46,14.29-0.78c0.3-0.3-0.59-1.65-2.11-3.52
					c-0.01-0.01-0.01-0.01-0.02-0.02c-3.69-4.54-11.08-12.09-14.13-15.18c-0.86-0.87-1.38-1.39-1.38-1.39l17.95-18.91
					C469.47,225.97,490.42,266.34,486.37,275.77z"/>
			</g>
		</g>
		<path style="opacity:0.2;enable-background:new    ;" d="M483.92,278.25c-0.01,0-0.02,0.01-0.04,0.02
			c-0.21,0.1-0.44,0.21-0.67,0.3c-0.02,0.01-0.06,0.02-0.09,0.03c-0.2,0.08-0.42,0.16-0.64,0.22c-0.87,0.29-1.84,0.49-2.9,0.6
			c-0.28,0.03-0.56,0.06-0.85,0.08c-0.42,0.03-0.84,0.06-1.26,0.07c-0.36,0.01-0.73,0.02-1.1,0.02
			c-11.25,0.01-27.63-5.28-27.63-5.28l2.01-13.31c0,0,14.69,1.24,15.94,0c0.02-0.02,0.02-0.03,0.03-0.06
			c0.23-0.49-1.39-2.13-3.79-4.24c-0.01-0.01-0.01-0.01-0.02-0.02c-3.69-4.54-11.08-12.09-14.13-15.18l8.49-9.07l6.46-0.7
			C463.73,231.76,478.01,254.86,483.92,278.25z"/>
		<g>
			<path style="fill:#263238;" d="M423.01,219.9c-2.33,1.69-3.47,4.08-2.56,5.34l61.31,84.53c0.91,1.26,3.54,0.92,5.87-0.77
				c2.33-1.69,3.47-4.08,2.55-5.34l-61.31-84.53C427.97,217.87,425.34,218.21,423.01,219.9z"/>
			<path style="opacity:0.7;fill:#FFFFFF;" d="M428.88,219.13l61.31,84.53c0.91,1.26-0.23,3.65-2.55,5.33
				c-2.33,1.69-4.95,2.03-5.86,0.77l-61.31-84.53c-0.5-0.7-0.38-1.73,0.22-2.81c0.28-0.5,0.67-1.03,1.16-1.52
				c0.34-0.35,0.73-0.69,1.16-1C425.34,218.22,427.97,217.87,428.88,219.13z"/>
			<path style="opacity:0.3;enable-background:new    ;" d="M490.19,303.66c0.91,1.26-0.23,3.65-2.55,5.33
				c-2.33,1.69-4.95,2.03-5.86,0.77c-0.5-0.7,0.76-1.74,1.5-3.27l-62.58-84.08c0.28-0.5,0.67-1.03,1.16-1.52l61.32,84.54
				c0.35-0.35,0.73-0.7,1.16-1.01C486.65,302.75,489.28,302.4,490.19,303.66z"/>
		</g>
		<g>
			<path style="fill:#407BFF;" d="M415.42,217.55c-1.96,2.1-2.63,4.66-1.5,5.73l76.23,71.37c1.14,1.06,3.65,0.23,5.61-1.87
				c1.96-2.1,2.63-4.66,1.5-5.73l-76.23-71.37C419.9,214.62,417.38,215.46,415.42,217.55z"/>
			<path style="opacity:0.7;fill:#FFFFFF;" d="M421.03,215.68l76.23,71.37c1.14,1.06,0.46,3.63-1.49,5.72
				c-1.97,2.1-4.48,2.93-5.61,1.87l-76.23-71.37c-0.63-0.59-0.7-1.63-0.31-2.81c0.18-0.55,0.46-1.14,0.85-1.71
				c0.27-0.4,0.59-0.82,0.95-1.21C417.38,215.46,419.9,214.62,421.03,215.68z"/>
			<path style="opacity:0.3;enable-background:new    ;" d="M497.26,287.05c1.14,1.06,0.46,3.63-1.49,5.72
				c-1.97,2.1-4.48,2.93-5.61,1.87c-0.63-0.59,0.42-1.86,0.85-3.49l-77.39-70.68c0.18-0.55,0.46-1.14,0.85-1.71l76.24,71.38
				c0.27-0.41,0.58-0.82,0.95-1.21C493.61,286.83,496.13,285.99,497.26,287.05z"/>
		</g>
		<path style="fill:#EBB376;" d="M433.74,445.32l-5.81,0.09c-5.91-27.74-10.08-62.08-12.68-87.97c-0.41-4.06-0.78-7.9-1.1-11.49
			c-0.15-1.71-0.3-3.34-0.44-4.92c-0.7-7.79-1.17-13.96-1.46-17.78c-0.21-2.78-0.31-4.32-0.31-4.32h21l-0.2,5.35l-0.65,17.66
			l-0.07,2.02l-0.44,11.66l-0.73,19.85C438.05,403.44,433.74,445.32,433.74,445.32z"/>
		<path style="fill:#EBB376;" d="M480.85,443.84l-5.72,1.08c-11.45-28.62-22.21-65.28-29.2-90.89c-1.08-3.97-2.08-7.68-2.97-11.05
			c-0.05-0.17-0.08-0.34-0.13-0.5c-1.76-6.68-3.12-12.01-3.97-15.39c-0.65-2.65-1.01-4.1-1.01-4.1l20.7-3.57l1.17,8.7l1.73,12.79
			l0.34,2.51l1.17,8.71l3.14,23.37C477.96,401.82,480.85,443.84,480.85,443.84z"/>
		<path style="opacity:0.2;enable-background:new    ;" d="M461.45,340.92l-18.49,2.07c-0.05-0.17-0.08-0.34-0.13-0.5
			c-1.76-6.68-3.12-12.01-3.97-15.39l20.86,1.03L461.45,340.92z"/>
		<path style="opacity:0.2;enable-background:new    ;" d="M432.73,324.29l-0.65,17.66l-0.07,2.02l-17.87,1.98
			c-0.15-1.71-0.3-3.34-0.44-4.92c-0.7-7.79-1.17-13.96-1.46-17.78L432.73,324.29z"/>
		<path style="fill:#263238;" d="M416.58,464.61c1.08-0.88,2.31-1.55,3.64-1.98l0,0c0,0,3.96-3.92,5.86-15.74l5.18-1.35
			c1.8-0.44,3.68,0.3,4.71,1.84c0.14,0.21,0.25,0.44,0.33,0.68c0.27,1.27,0.45,2.55,0.55,3.84c0.52,4,0.07,12.98,0.07,12.98h-0.94
			l-0.37-8.15c-0.14-2.77-2.25,0.48-2.86,3.46c-0.61,2.98-1.89,6.15-7.96,6.3C417.73,466.62,414.79,466.34,416.58,464.61z"/>
		<path style="fill:#263238;" d="M436.15,447.47c0.34-2.77,0.45-7.57,0.45-7.57l-11.51,1.28c0,0,1.39,5.47,0.24,9.57
			C431.13,449.23,436.15,447.47,436.15,447.47z"/>
		<path style="fill:#263238;" d="M463.41,464.61c1.08-0.88,2.31-1.55,3.64-1.98l0,0c0,0,3.96-3.92,5.86-15.74l5.18-1.35
			c1.8-0.44,3.68,0.3,4.71,1.84c0.14,0.21,0.25,0.44,0.33,0.68c0.27,1.27,0.45,2.55,0.55,3.84c0.52,4,0.07,12.98,0.07,12.98h-0.94
			l-0.37-8.15c-0.14-2.77-2.25,0.48-2.86,3.46c-0.61,2.98-1.89,6.15-7.96,6.3C464.56,466.62,461.62,466.34,463.41,464.61z"/>
		<path style="fill:#263238;" d="M482.98,447.47c0.34-2.77,0.45-7.57,0.45-7.57l-11.51,1.28c0,0,1.39,5.47,0.24,9.57
			C477.96,449.23,482.98,447.47,482.98,447.47z"/>
		<path style="fill:#407BFF;" d="M463.44,335.22l-21.89,2.8l-0.85,0.1l-4.5-16.5l-1.18,17.68l-23.46-1.23
			c-10.45-61.34,7.41-75.84,7.41-75.84l31.83,6.4c14.41,24.5,10.98,52.98,10.98,52.98L463.44,335.22z"/>
		<g>
			<path style="fill:none;stroke:#263238;stroke-width:0.5;stroke-linecap:round;stroke-linejoin:round;stroke-miterlimit:10;" d="
				M433.3,185.81c0,2.41-1.07,4.36-2.39,4.36s-2.39-1.95-2.39-4.36c0-2.41,1.07-4.36,2.39-4.36S433.3,183.4,433.3,185.81z"/>
			<path style="fill:#EBB376;" d="M449.02,200.42c-0.09,0.07-0.18,0.15-0.28,0.2c-1.29,0.91-2.77,1.79-4.45,2.18
				c-4.7,1.08-7.91,0.44-10.01-1.69c-0.01,0-0.01,0-0.01,0c-2.94-3.19-3.67-8.84-3.25-15.66c0.18-3.13,0.63-5.85,1.49-7.96
				c0.01-0.02,0.01-0.1,0.02-0.12c0.04-0.09,0.07-0.2,0.12-0.29c1.29-2.96,3.42-4.87,6.84-5.68c1.18-0.28,2.52-0.43,4.03-0.45
				C456.82,170.81,459.21,192.83,449.02,200.42z"/>
			<path style="opacity:0.2;enable-background:new    ;" d="M448.74,200.63c-1.29,0.91-2.77,1.61-4.45,1.99
				c-4.7,1.08-7.91,0.29-10.01-1.87c2.31,0.51,5.41,0.7,8.43-0.69C444.63,199.18,446.74,199.63,448.74,200.63z"/>
			<path style="fill:#EBB376;" d="M450.1,212.63c0.82,3.79-4.08,5.33-4.08,5.33c-8.02-3.42-9.51-7.69-9.51-7.69
				c6.69-3.49,4.75-13.36,4.75-13.36l1.36,0.67l9.55,1.87c0,0-2.65,5.09-3,6.25c0,0.01-0.01,0.02-0.01,0.03
				C447.36,211.79,450.1,212.63,450.1,212.63z"/>
			<path style="fill:#263238;" d="M432.51,177.4c0,0-0.73,9.32,8.1,13.33c0,0,3.79,9.69,9.38,9.82
				c7.61,0.19,14.33-10.65,11.69-21.68C458.26,164.56,436.58,163.4,432.51,177.4z"/>
			<path style="fill:#EBB376;" d="M436.14,188.05c0-1.45,1.17-3.9,3.43-3.57c2.34,0.34,3.64,6.11-2.11,7.4
				C436.63,192.07,436.13,191.09,436.14,188.05z"/>
			<path style="fill:#263238;" d="M448.74,167.49c0,0-8.89-2.25-13.81,1.33c-5.74,4.18-7.92,8.5-1.12,15.2c0,0,14.93-4.84,19.9-3.82
				c4.96,1.03,8.51,2.47,8.51,2.47C463.27,172.82,453.71,165.48,448.74,167.49z"/>
			<path style="fill:#263238;" d="M436.14,185.81c0,0,2.38,10.75-1.32,19.91c0,0,21.11,7.33,28.46,3.35
				c7.34-3.98,0.61-17.34,0.31-25.04c-0.31-7.7-3.65-19.09-14.83-16.53C437.57,170.05,436.14,185.81,436.14,185.81z"/>
			
				<line style="fill:none;stroke:#263238;stroke-width:0.5;stroke-linecap:round;stroke-linejoin:round;stroke-miterlimit:10;" x1="428.53" y1="185.12" x2="437.45" y2="185.12"/>
		</g>
		<path style="opacity:0.2;enable-background:new    ;" d="M441.55,338.02l-0.85,0.1l-4.5-16.5c0,0,9.65-16.49,6.64-25.07
			C443.27,297.15,453.66,312.57,441.55,338.02z"/>
		<g>
			<path style="fill:#263238;" d="M423.47,211.8c0,0,10.62-3.79,26.62,0.83c16.01,4.62,16.59,11.44,16.59,11.44
				s-10.14,22.98-11.74,49l-41.7-1.56C413.25,271.52,408.28,234.79,423.47,211.8z"/>
			<path style="opacity:0.2;fill:#FFFFFF;enable-background:new    ;" d="M466.69,224.07c0,0-10.14,22.99-11.74,49.01l-41.7-1.55
				c0,0-0.7-5.12-0.77-12.72c-0.06-5.3,0.19-11.82,1.16-18.67c1.39-9.63,4.26-19.91,9.83-28.33c0,0,10.62-3.78,26.62,0.84
				C466.1,217.26,466.69,224.07,466.69,224.07z"/>
		</g>
		<path style="opacity:0.2;enable-background:new    ;" d="M422.89,241.7c0,0-1.73,10.58-10.41,17.1
			c-0.06-5.3,0.19-11.82,1.16-18.67L422.89,241.7z"/>
		<path style="fill:#EBB376;" d="M376.82,211.08l-5.26-7.8c0,0-0.81-3.39-1.82-4.16c-1.01-0.77-11.12-5.06-12.34-5.04
			c-1.21,0.02-1.21,7.87,0,9.2s7.58,4.19,9.25,4.48c1.67,0.29,0.86,0,0.86,0l4.65,9.27L376.82,211.08z"/>
		<g>
			<path style="fill:#263238;" d="M423.47,211.8c0,0-14.63,5.76-32.52,16.77l-16.97-23.15c0,0-4.58,1.42-6.27,9.38
				c0,0,8.72,33.2,20.04,36.49c11.32,3.29,35.13-9.59,35.13-9.59S429.81,224.4,423.47,211.8z"/>
			<path style="opacity:0.2;fill:#FFFFFF;enable-background:new    ;" d="M423.47,211.8c0,0-14.63,5.76-32.52,16.77l-16.97-23.15
				c0,0-4.58,1.42-6.27,9.38c0,0,8.72,33.2,20.04,36.49c11.32,3.29,35.13-9.59,35.13-9.59S429.81,224.4,423.47,211.8z"/>
		</g>
		<g>
			<path style="fill:#263238;" d="M434.21,210.34c0,0,3.7,26.5,15.43,27.57c11.73,1.07,16.98-18.5,14.99-20.88
				C462.65,214.65,447.54,210.17,434.21,210.34z"/>
			<path style="opacity:0.3;fill:#FFFFFF;enable-background:new    ;" d="M434.21,210.34c0,0,3.7,26.5,15.43,27.57
				c11.73,1.07,16.98-18.5,14.99-20.88C462.65,214.65,447.54,210.17,434.21,210.34z"/>
		</g>
	</g>
</g>
<g id="Character_1">
	<g id="_x3C_Group_x3E__81_">
		<polygon style="fill:#B97964;" points="24.85,446.1 33.44,446.1 34.15,426.2 25.55,426.2 		"/>
		<path style="fill:#263238;" d="M34.64,445.11H24.2c-0.35,0-0.66,0.25-0.73,0.59l-1.69,7.65c-0.14,0.68,0.29,1.36,0.98,1.5
			c0.09,0.02,0.19,0.03,0.28,0.03c3.38-0.05,5.84-0.26,10.08-0.26c2.61,0,10.49,0.27,14.1,0.27c3.61,0,4.08-3.56,2.6-3.89
			c-6.62-1.44-11.61-3.44-13.73-5.34C35.69,445.29,35.17,445.1,34.64,445.11z"/>
		<path style="fill:#407BFF;" d="M35.23,446.3c-0.08-0.02-0.14-0.09-0.15-0.17c-0.01-0.08,0.03-0.16,0.1-0.2
			c0.31-0.2,3.08-1.9,4.03-1.41c0.22,0.1,0.36,0.33,0.35,0.57c0.06,0.41-0.1,0.83-0.43,1.09c-0.48,0.33-1.07,0.48-1.65,0.44
			C36.72,446.59,35.96,446.49,35.23,446.3z M35.82,446.01c1,0.34,2.1,0.28,3.06-0.15c0.21-0.18,0.31-0.46,0.27-0.73
			c-0.01-0.16-0.08-0.24-0.13-0.24c-0.08-0.04-0.17-0.06-0.26-0.05C37.71,445.04,36.71,445.44,35.82,446.01z"/>
		<path style="fill:#407BFF;" d="M35.17,446.34c-0.06-0.04-0.1-0.11-0.1-0.19c0.01-0.12,0.22-2.59,1.21-3.4
			c0.24-0.21,0.55-0.3,0.86-0.26c0.32,0,0.59,0.22,0.66,0.54c0.17,0.91-1.54,2.8-2.43,3.28h-0.1
			C35.25,446.33,35.21,446.34,35.17,446.34z M36.55,443c-0.6,0.77-0.96,1.71-1.02,2.69c0.89-0.67,1.98-2.1,1.87-2.66
			c-0.01-0.05-0.03-0.21-0.3-0.21h-0.1C36.84,442.82,36.68,442.89,36.55,443z"/>
		<polygon style="opacity:0.2;enable-background:new    ;" points="25.55,426.21 34.15,426.21 33.78,436.47 25.18,436.47 		"/>
		<polygon style="fill:#B97964;" points="69.1,446.75 77.96,447.68 79.63,428.56 70.76,427.62 		"/>
		<path style="fill:#263238;" d="M78.9,444.83H68.46c-0.35,0-0.66,0.25-0.73,0.59l-1.69,7.65c-0.14,0.68,0.29,1.36,0.98,1.5
			c0.09,0.02,0.19,0.03,0.28,0.03c3.38-0.05,5.84-0.26,10.08-0.26c2.61,0,10.49,0.27,14.1,0.27s4.08-3.56,2.6-3.89
			c-6.62-1.44-11.61-3.44-13.73-5.34C79.95,445.02,79.43,444.82,78.9,444.83z"/>
		<path style="fill:#407BFF;" d="M79.49,446.02c-0.08-0.02-0.14-0.09-0.15-0.17c-0.01-0.08,0.03-0.16,0.1-0.2
			c0.31-0.2,3.08-1.9,4.03-1.41c0.22,0.1,0.36,0.33,0.35,0.57c0.06,0.41-0.1,0.83-0.43,1.09c-0.48,0.33-1.07,0.48-1.65,0.44
			C80.98,446.32,80.23,446.21,79.49,446.02z M80.08,445.74c1,0.34,2.1,0.28,3.06-0.15c0.21-0.18,0.31-0.46,0.27-0.73
			c-0.01-0.16-0.08-0.24-0.13-0.24c-0.08-0.04-0.17-0.06-0.26-0.05C81.98,444.76,80.98,445.16,80.08,445.74z"/>
		<path style="fill:#407BFF;" d="M79.44,446.07c-0.06-0.04-0.1-0.11-0.1-0.19c0.01-0.12,0.22-2.59,1.21-3.4
			c0.24-0.21,0.55-0.3,0.86-0.26c0.32,0,0.59,0.22,0.66,0.54c0.17,0.91-1.54,2.8-2.43,3.28h-0.1
			C79.51,446.06,79.48,446.07,79.44,446.07z M80.81,442.72c-0.6,0.77-0.96,1.71-1.02,2.69c0.89-0.67,1.98-2.1,1.87-2.66
			c-0.01-0.05-0.03-0.21-0.3-0.21h-0.1C81.1,442.55,80.94,442.61,80.81,442.72z"/>
		<polygon style="opacity:0.2;enable-background:new    ;" points="70.76,427.62 79.63,428.56 78.76,438.42 69.89,437.49 		"/>
		<path style="fill:#263238;" d="M29.1,251.62h45.6c4.34,23.68,17.91,107.47,8.17,182.12l-15.44-1.91c0,0,1.43-99.11-12.2-135.75
			c-1.57,19.61-3.43,40.47-5.05,51.57c-3.97,27.32-12.46,87.04-12.46,87.04H22.01c0,0,3.21-57.16,4.7-84.01
			C28.34,321.52,29.04,257.61,29.1,251.62z"/>
		<g>
			<polygon style="fill:#407BFF;" points="84.64,437.34 65.53,434.49 66.12,429.2 85.99,431.81 			"/>
		</g>
		<g>
			<polygon style="fill:#407BFF;" points="39.62,434.82 21.08,434.82 21.08,429.28 40.32,428.92 			"/>
		</g>
		<path style="opacity:0.2;enable-background:new    ;" d="M55.24,296.08c2.01,5.4,3.68,12.14,5.09,19.73
			c1.28-17.45-3.83-35.96-3.83-35.96L55.24,296.08z"/>
		<path style="fill:#407BFF;" d="M27.81,259.55l-1.04,5.51c0,0,31.91,4.13,51.76,4.02l-0.69-3.79L27.81,259.55z"/>
		<path style="fill:#B97964;" d="M92.58,211.83c0,0,11.04,34.8,18.59,37.07c7.55,2.28,26.74-26.44,26.74-26.44s17.2-0.17,17.97-1.34
			c0.77-1.17-4.47-13.29-5.73-13.31c-1.26-0.02-16.23,5.64-16.82,6.58c-0.58,0.94-17.77,17.38-18.61,16.92s-7.34-21.17-7.34-21.17
			L92.58,211.83z"/>
		<path style="fill:#B97964;" d="M140.11,220.64c0.15-0.03,0.29-0.06,0.41-0.11c-0.07-0.04-0.14-0.08-0.2-0.13
			C140.26,220.49,140.19,220.56,140.11,220.64z"/>
		<g>
			<path style="fill:#407BFF;" d="M86.32,207.81l1.35,2.48l6.28,11.61l1.3,2.39l17.62-6.12c0,0-7.32-27.36-9.87-30.16L86.32,207.81z
				"/>
			<path style="opacity:0.4;fill:#FFFFFF;enable-background:new    ;" d="M86.32,207.81l1.35,2.48l6.28,11.61l1.3,2.39l17.62-6.12
				c0,0-7.32-27.36-9.87-30.16L86.32,207.81z"/>
		</g>
		<path style="opacity:0.2;enable-background:new    ;" d="M87.67,210.29l6.28,11.61c3.88-7.63,2.75-18.07,2.75-18.07L87.67,210.29z
			"/>
		<g>
			<path style="fill:#407BFF;" d="M103.01,188.02c0,0-9.27-12.07-26.54-12.88c-17.28-0.81-22.7,0.91-29.01,6.54
				c-9.22,8.23-20.68,79.19-20.68,79.19s24.13,7.46,51.77,5.63c0,0,0.21-19.69,6.44-32.97C97.1,207.7,103.01,188.02,103.01,188.02z"
				/>
			<path style="opacity:0.4;fill:#FFFFFF;enable-background:new    ;" d="M26.77,260.86c0,0,24.13,7.46,51.78,5.64
				c0,0,0.02-2.43,0.33-6.16c0.14-1.76,0.35-3.83,0.65-6.05c0.3-2.3,0.7-4.78,1.22-7.3c0.28-1.36,0.59-2.72,0.94-4.09
				c0.85-3.25,1.93-6.47,3.3-9.38c0.76-1.63,1.5-3.24,2.23-4.82c1.25-2.76,2.43-5.44,3.53-8c2.31-5.39,4.29-10.33,5.94-14.64
				c1.19-3.09,2.2-5.87,3.05-8.25c0.94-2.65,1.68-4.83,2.23-6.45c0.71-2.15,1.06-3.33,1.06-3.33s-0.63-0.82-1.86-2.05
				c-3.44-3.42-11.65-10.04-24.11-10.8c-0.19-0.02-0.38-0.03-0.57-0.04c-13.16-0.61-19.45,0.23-24.48,3.17
				c-1.58,0.91-3.03,2.03-4.54,3.38c-1.03,0.92-2.1,2.63-3.16,4.94c-1.76,3.79-3.55,9.2-5.27,15.39c-0.25,0.92-0.51,1.87-0.76,2.82
				c-1.13,4.3-2.25,8.89-3.3,13.53c-0.3,1.31-0.59,2.64-0.88,3.95c-0.43,2.01-0.86,4.03-1.27,6.01c-1.04,5-1.98,9.86-2.81,14.21
				c-1.18,6.27-2.1,11.52-2.65,14.77C26.98,259.57,26.77,260.86,26.77,260.86z M77.47,175.81c1.22,0.04,2.41,0.14,3.45,0.28
				c4.68,0.63,11.77,4.34,11.59,6.11c-0.19,1.77-2.89,6.26-9.82,5.17c-2.39-0.37-4.7-1.46-6.73-2.81c-3.84-2.53-6.62-5.96-6.9-7.07
				C68.74,176.18,73.24,175.68,77.47,175.81z"/>
			<path style="fill:#407BFF;" d="M62.58,199.44c0,0-9.18,22.13-11.02,40.49l24.72,3.15c0,0,11.1-29.89,13.39-39.25
				C89.67,203.84,69.93,201.86,62.58,199.44z"/>
			<polygon style="opacity:0.4;fill:#FFFFFF;enable-background:new    ;" points="84.84,204.7 88.29,205.05 85.76,207 			"/>
		</g>
		<path style="fill:#B97964;" d="M71.39,177.53c1.87,5.34,8.82,7.77,12.47,8.08c5.12,0.43,6.61-3.58,6.61-3.58s-4.16-2.07-3.75-4.41
			c0.24-1.36,0.89-2.69,1.72-3.97c0.43-0.68,0.92-1.33,1.42-1.96l-6.67-14.3C81.69,163.64,77.13,175.54,71.39,177.53z"/>
		<path style="opacity:0.2;enable-background:new    ;" d="M82.91,164.04c-3.18,6.93,1.31,11.75,3.8,13.59
			c0.24-1.36,0.89-2.69,1.72-3.97L82.91,164.04z"/>
		<g>
			<g>
				<path style="fill:#B97964;" d="M105.29,145.46c0,0,2.13,11.79-4.02,16.52c-6.15,4.73-6.78-17.3-6.78-17.3L105.29,145.46z"/>
				<path style="opacity:0.4;enable-background:new    ;" d="M105.29,145.46c0,0,2.13,11.79-4.02,16.52
					c-6.15,4.73-6.78-17.3-6.78-17.3L105.29,145.46z"/>
			</g>
			<path style="fill:#B97964;" d="M83.3,171.9c3.17,4.29,8.18,5.3,12.45,3.81c2.75-0.95,5.2-2.95,6.67-5.75
				c0.2-0.37,0.37-0.75,0.54-1.15c2.89-7.32,3.54-25.19-4.27-24.52c-6.4,0.55-12.67-1.43-15.94,4.1c-0.94,1.57-1.48,3.34-1.6,5.17
				C80.45,162.04,79.64,167,83.3,171.9z"/>
			<path style="fill:#263238;" d="M93.6,157.73c-0.14,0.67,0.18,1.29,0.64,1.35c0.46,0.06,0.89-0.45,0.99-1.13
				c0.1-0.68-0.19-1.29-0.64-1.35C94.15,156.54,93.71,157.04,93.6,157.73z"/>
			<path style="fill:#263238;" d="M101.36,158.83c-0.14,0.67,0.19,1.29,0.64,1.35c0.45,0.06,0.89-0.45,0.99-1.13
				c0.1-0.68-0.19-1.29-0.64-1.35C101.9,157.64,101.45,158.18,101.36,158.83z"/>
			<path style="fill:#A24E3F;" d="M98.85,158.82c0.52,2.21,1.34,4.35,2.45,6.33c-1.05,0.55-2.29,0.6-3.38,0.15L98.85,158.82z"/>
			<path style="fill:#263238;" d="M91.55,154.88c0.15,0.04,0.3,0,0.41-0.1c0.72-0.75,1.74-1.11,2.77-0.98
				c0.22,0.05,0.43-0.09,0.48-0.31c0.05-0.22-0.09-0.43-0.31-0.48c0,0,0,0,0,0c-1.29-0.19-2.6,0.25-3.51,1.19
				c-0.16,0.15-0.17,0.41-0.02,0.57c0,0,0,0,0.01,0.01C91.44,154.82,91.49,154.85,91.55,154.88z"/>
			<path style="fill:#263238;" d="M105.07,156.63c0.07,0.04,0.15,0.06,0.24,0.05c0.21-0.07,0.33-0.29,0.27-0.5c0,0,0-0.01,0-0.01
				c-0.37-1.26-1.34-2.26-2.58-2.68c-0.22-0.06-0.44,0.07-0.5,0.28l0,0c-0.05,0.22,0.07,0.43,0.28,0.5l0,0
				c0.97,0.36,1.72,1.16,2.01,2.15C104.85,156.53,104.95,156.6,105.07,156.63z"/>
			<path style="fill:none;stroke:#263238;stroke-width:0.5;stroke-linecap:round;stroke-linejoin:round;stroke-miterlimit:10;" d="
				M92.52,165.6c0,0,1.43,3.07,4.33,2.95"/>
			<g>
				<path style="fill:#B97964;" d="M88.82,143.92l0.11,3.78c-1.29,0.54-2.15,1.85-1.73,3.38c0.91,3.25-1.33,7.96-3.92,9.68
					c0,0,0.05-1.37-1.13-1.15c-1.18,0.22-1.52,7.33,0.4,10.92c0,0-4.11-3.77-5.33-11.39c-1.13-7.05-0.93-11.51,0.07-14.88
					L88.82,143.92z"/>
				<path style="opacity:0.4;enable-background:new    ;" d="M88.82,143.92l0.11,3.78c-1.29,0.54-2.15,1.85-1.73,3.38
					c0.91,3.25-1.33,7.96-3.92,9.68c0,0,0.05-1.37-1.13-1.15c-1.18,0.22-1.52,7.33,0.4,10.92c0,0-4.11-3.77-5.33-11.39
					c-1.13-7.05-0.93-11.51,0.07-14.88L88.82,143.92z"/>
			</g>
			<path style="fill:#263238;" d="M76.55,148.46c0,0,4.83,0.74,12.38-0.76c11.7-2.33,16.67,1.98,16.67,1.98s2.78-2.39,2.43-5.75
				c-0.34-3.37-5.02-3.94-5.02-3.94s-1.41-3.79-4.51-4.93c-3.1-1.15-6.2,1.72-6.2,1.72s-3.87-3.73-8.37-2.67
				c-5.53,1.3-5.4,6.57-5.4,6.57s-5.28,0.54-5.16,3.25C73.48,146.64,76.55,148.46,76.55,148.46z"/>
			
				<ellipse style="fill:none;stroke:#263238;stroke-width:0.5;stroke-linecap:round;stroke-linejoin:round;stroke-miterlimit:10;" cx="94.5" cy="158.29" rx="3.79" ry="4.37"/>
			<path style="fill:none;stroke:#263238;stroke-width:0.5;stroke-linecap:round;stroke-linejoin:round;stroke-miterlimit:10;" d="
				M107.83,158.94c0,2.41-1.7,4.37-3.79,4.37s-3.79-1.96-3.79-4.37c0-2.41,1.7-4.37,3.79-4.37S107.83,156.53,107.83,158.94z"/>
			<path style="fill:none;stroke:#263238;stroke-width:0.5;stroke-linecap:round;stroke-linejoin:round;stroke-miterlimit:10;" d="
				M98.29,158.82c0,0,1.22-0.77,1.96,0.12"/>
			<path style="fill:none;stroke:#263238;stroke-width:0.5;stroke-linecap:round;stroke-linejoin:round;stroke-miterlimit:10;" d="
				M90.71,158.29l-6.66-0.89c-0.87-0.12-1.75,0.12-2.44,0.66l-0.29,0.23"/>
			<path style="fill:#B97964;" d="M76.49,159.95c0.66,2.04,2.11,3.73,4.02,4.71c2.54,1.27,4.35-0.87,4.1-3.55
				c-0.24-2.38-1.83-5.99-4.6-6.12C77.23,154.85,75.7,157.43,76.49,159.95z"/>
		</g>
		<path style="opacity:0.2;enable-background:new    ;" d="M34.09,222.31c10.95-4.55,19.6-23.33,19.6-23.33l-6.22-3.76l-8.45,6.79
			c-0.25,0.92-0.51,1.87-0.76,2.82c-1.13,4.3-2.25,8.89-3.3,13.53C34.67,219.67,34.37,221,34.09,222.31z"/>
		<polygon style="fill:#407BFF;" points="94.41,224.3 113.3,217.36 113.84,218.97 94.94,225.7 		"/>
		<g>
			
				<rect x="7.67" y="265.5" transform="matrix(0.7979 0.6028 -0.6028 0.7979 177.4943 35.7766)" style="fill:#407BFF;" width="55.44" height="34.19"/>
			<g style="display:none;">
				
					<polyline style="display:inline;fill:none;stroke:#FFFFFF;stroke-width:2;stroke-linecap:round;stroke-linejoin:round;stroke-miterlimit:10;" points="
					10.07,276.23 -1.05,281.99 7.74,290.92 				"/>
				
					<polyline style="display:inline;fill:none;stroke:#FFFFFF;stroke-width:2;stroke-linecap:round;stroke-linejoin:round;stroke-miterlimit:10;" points="
					20.71,292.97 31.83,287.21 23.04,278.29 				"/>
				
					<line style="display:inline;fill:none;stroke:#FFFFFF;stroke-width:2;stroke-linecap:round;stroke-linejoin:round;stroke-miterlimit:10;" x1="11.62" y1="291.53" x2="19.16" y2="277.67"/>
			</g>
		</g>
		<path style="fill:#B97964;" d="M40.91,184.7c0,0-20.63,20.71-23.45,24.74c-2.82,4.03-8.2,48.66-8.2,48.66s-1.13,0.39-1.23,1.36
			s-0.18,13.5,0,14.08c0.18,0.58,9.68,6.44,11.08,5.05c1.4-1.39,3.35-15.59,3.35-15.59l-5.01-4.9c0,0,5.83-32.87,9.47-38.19
			c3.64-5.32,18.68-16.72,18.68-16.72L40.91,184.7z"/>
		<g>
			<path style="fill:#407BFF;" d="M56.78,176.36c3.01,6.37,0.72,19.78-4.82,24.51c-8.38,7.16-18.55,13.31-18.55,13.31l-10.14-13.25
				c0,0,10.77-10.51,17.29-16.57C48.49,176.99,56.78,176.36,56.78,176.36z"/>
			<path style="opacity:0.4;fill:#FFFFFF;enable-background:new    ;" d="M56.78,176.36c3.01,6.37,0.72,19.78-4.82,24.51
				c-8.38,7.16-18.55,13.31-18.55,13.31l-10.14-13.25c0,0,10.77-10.51,17.29-16.57C48.49,176.99,56.78,176.36,56.78,176.36z"/>
		</g>
		<polygon style="fill:#407BFF;" points="23.27,200.07 22.02,201.78 32.59,215.6 34.09,214.53 		"/>
	</g>
</g>
</svg>
