<?xml version="1.0" encoding="utf-8"?>
<!-- Generator: Adobe Illustrator 24.1.1, SVG Export Plug-In . SVG Version: 6.00 Build 0)  -->
<svg version="1.1" id="Layer_1" xmlns="http://www.w3.org/2000/svg" xmlns:xlink="http://www.w3.org/1999/xlink" x="0px" y="0px"
	 viewBox="0 0 894.79 938.76" style="enable-background:new 0 0 894.79 938.76;" xml:space="preserve">
<style type="text/css">
	.st0{fill:#595859;}
	.st1{fill:#E7E7E7;}
	.st2{fill:#F5F5F5;}
	.st3{fill:#FFFFFF;}
	.st4{opacity:0.4;}
	.st5{fill:#F0F0F0;}
	.st6{fill:#007CFF;}
	.st7{fill:#5F6060;}
	.st8{display:none;}
	.st9{display:inline;fill:#007CFF;}
	.st10{display:inline;fill:#5F6060;}
	.st11{fill:#FFB3C5;}
	.st12{fill:#015CBD;}
	.st13{fill:#EA94AD;}
	.st14{fill:#F7A491;}
	.st15{fill:#F47458;}
	.st16{fill:#070707;}
	.st17{fill:#191819;}
	.st18{fill:#020202;}
	.st19{fill:#282828;}
	.st20{fill:#0379E5;}
	.st21{fill:#1E1E1E;}
	.st22{fill:#0377E0;}
	.st23{display:none;fill:#F2F2F2;}
	.st24{display:inline;fill:#282828;}
	.st25{opacity:0.5;fill:#5F6060;}
	.st26{opacity:0.5;}
</style>
<g>
	<g>
		<path class="st0" d="M838.2,907.88H17.94c-1.43,0-2.69,1.67-2.78,3.87c-0.1,2.42,1.14,4.43,2.69,4.43H838.2
			c1.49,0,2.69-1.86,2.69-4.15l0,0C840.89,909.74,839.69,907.88,838.2,907.88z"/>
	</g>
	<g>
		<g>
			<g>
				<g>
					<g>
						
							<rect x="146.61" y="84.48" transform="matrix(-1 -1.224647e-16 1.224647e-16 -1 913.9285 630.1431)" class="st1" width="620.7" height="461.17"/>
						
							<rect x="137.01" y="84.48" transform="matrix(-1 -1.224647e-16 1.224647e-16 -1 894.7153 630.1431)" class="st2" width="620.7" height="461.17"/>
						
							<rect x="236.14" y="21.96" transform="matrix(-1.836970e-16 1 -1 -1.836970e-16 762.4292 -132.2861)" class="st3" width="422.44" height="586.21"/>
						
							<rect x="-53.34" y="311.44" transform="matrix(-1.836970e-16 1 -1 -1.836970e-16 472.9536 157.1895)" class="st1" width="422.44" height="7.26"/>
						
							<rect x="144.14" y="410.04" transform="matrix(-1 -1.224647e-16 1.224647e-16 -1 894.715 846.0916)" class="st2" width="606.44" height="26"/>
					</g>
				</g>
			</g>
			<g class="st4">
				<rect x="117.76" y="64.1" class="st1" width="58.6" height="148.21"/>
				
					<rect x="176.36" y="64.1" transform="matrix(-1 -1.224647e-16 1.224647e-16 -1 381.7724 264.5145)" class="st2" width="29.05" height="136.3"/>
				<rect x="205.41" y="64.1" class="st1" width="58.6" height="148.21"/>
				
					<rect x="264.01" y="64.1" transform="matrix(-1 -1.224647e-16 1.224647e-16 -1 557.0758 264.5145)" class="st2" width="29.05" height="136.3"/>
				<rect x="293.06" y="64.1" class="st1" width="58.6" height="148.21"/>
				
					<rect x="351.66" y="64.1" transform="matrix(-1 -1.224647e-16 1.224647e-16 -1 732.379 264.5145)" class="st2" width="29.05" height="136.3"/>
				<rect x="380.71" y="64.1" class="st1" width="58.6" height="148.21"/>
				
					<rect x="439.32" y="64.1" transform="matrix(-1 -1.224647e-16 1.224647e-16 -1 907.6823 264.5145)" class="st2" width="29.05" height="136.3"/>
				<rect x="468.37" y="64.1" class="st1" width="58.6" height="148.21"/>
				
					<rect x="526.97" y="64.1" transform="matrix(-1 -1.224647e-16 1.224647e-16 -1 1082.9857 264.5145)" class="st2" width="29.05" height="136.3"/>
				<rect x="556.02" y="64.1" class="st1" width="58.6" height="148.21"/>
				
					<rect x="614.62" y="64.1" transform="matrix(-1 -1.224647e-16 1.224647e-16 -1 1258.2888 264.5145)" class="st2" width="29.05" height="136.3"/>
				<rect x="643.67" y="64.1" class="st1" width="58.6" height="148.21"/>
				
					<rect x="702.27" y="64.1" transform="matrix(-1 -1.224647e-16 1.224647e-16 -1 1433.5922 264.5145)" class="st2" width="29.05" height="136.3"/>
				<rect x="731.32" y="64.1" class="st1" width="58.6" height="148.21"/>
			</g>
		</g>
		<g>
			<g>
				
					<rect x="156.24" y="627.62" transform="matrix(-1 -1.224647e-16 1.224647e-16 -1 385.1033 1525.7191)" class="st1" width="72.62" height="270.49"/>
				<polygon class="st5" points="168.33,898.1 156.24,898.1 156.24,873.76 181,873.76 				"/>
				
					<rect x="678.82" y="627.62" transform="matrix(-1 -1.224647e-16 1.224647e-16 -1 1430.2609 1525.7191)" class="st1" width="72.63" height="270.49"/>
				
					<rect x="156.24" y="627.62" transform="matrix(-1 -1.224647e-16 1.224647e-16 -1 845.6052 1516.3727)" class="st5" width="533.13" height="261.14"/>
				
					<rect x="165.62" y="639.19" transform="matrix(-1 -1.224647e-16 1.224647e-16 -1 845.6049 1349.9939)" class="st1" width="514.37" height="71.62"/>
				<path class="st5" d="M295.73,661.44h254.14c11.79,0,23.07-8.83,31.18-24.43l0,0h-316.5l0,0
					C272.66,652.61,283.94,661.44,295.73,661.44z"/>
				<polygon class="st5" points="677.28,898.1 689.37,898.1 689.37,873.76 664.61,873.76 				"/>
				
					<rect x="165.62" y="722.38" transform="matrix(-1 -1.224647e-16 1.224647e-16 -1 845.6049 1516.3727)" class="st1" width="514.37" height="71.61"/>
				<path class="st5" d="M295.73,744.63h254.14c11.79,0,23.07-8.84,31.18-24.43l0,0h-316.5l0,0
					C272.66,735.8,283.94,744.63,295.73,744.63z"/>
				
					<rect x="165.62" y="805.57" transform="matrix(-1 -1.224647e-16 1.224647e-16 -1 845.6049 1682.7515)" class="st1" width="514.37" height="71.62"/>
				<path class="st5" d="M295.73,827.82h254.14c11.79,0,23.07-8.83,31.18-24.43l0,0h-316.5l0,0
					C272.66,818.99,283.94,827.82,295.73,827.82z"/>
			</g>
		</g>
	</g>
	<g>
		
			<ellipse transform="matrix(0.9509 -0.3093 0.3093 0.9509 -9.8635 142.9352)" class="st6" cx="445.79" cy="102.57" rx="32.74" ry="32.74"/>
		
			<ellipse transform="matrix(0.9999 -0.0121 0.0121 0.9999 -1.2079 5.3992)" class="st7" cx="445.79" cy="102.57" rx="31.89" ry="31.89"/>
		<path class="st3" d="M469.87,92.64c5.56,13.27-0.69,28.53-13.95,34.09c-13.27,5.56-28.53-0.69-34.09-13.95
			c-5.56-13.27,0.69-28.53,13.95-34.09C449.05,73.13,464.31,79.38,469.87,92.64z"/>
		<path class="st3" d="M455.34,125.35c-12.55,5.26-27.05-0.67-32.31-13.23c-5.26-12.55,0.67-27.05,13.23-32.31
			c12.55-5.26,27.05,0.67,32.31,13.23C473.82,105.6,467.89,120.09,455.34,125.35z"/>
		<g>
			<path class="st6" d="M425.58,109.63l-4.08,1.71c-0.67,0.28-0.99,1.05-0.71,1.72c0.28,0.67,1.05,0.99,1.72,0.71l4.08-1.71
				c0.67-0.28,0.99-1.05,0.71-1.72C427.03,109.66,426.25,109.35,425.58,109.63z"/>
			<path class="st6" d="M453.54,121.07c-0.67,0.28-0.99,1.05-0.71,1.72l1.71,4.08c0.28,0.67,1.05,0.99,1.72,0.71
				c0.67-0.28,0.99-1.05,0.71-1.72l-1.71-4.08C454.99,121.11,454.21,120.79,453.54,121.07z"/>
			<path class="st6" d="M469.06,91.4l-4.08,1.71c-0.67,0.28-0.99,1.05-0.71,1.72c0.28,0.67,1.05,0.99,1.72,0.71l4.08-1.71
				c0.67-0.28,0.99-1.05,0.71-1.72C470.51,91.44,469.73,91.12,469.06,91.4z"/>
			<path class="st6" d="M435.32,77.59c-0.67,0.28-0.99,1.05-0.71,1.72l1.71,4.08c0.28,0.67,1.05,0.99,1.72,0.71
				c0.67-0.28,0.99-1.05,0.71-1.72l-1.71-4.08C436.76,77.63,435.99,77.31,435.32,77.59z"/>
		</g>
		<g>
			<path class="st6" d="M444.48,66.5l0.36-5.17c0.03-0.42,0.4-0.74,0.82-0.71l5.93,0.42c0.42,0.03,0.74,0.4,0.71,0.82l-0.36,5.17
				c-0.03,0.42-0.4,0.74-0.82,0.71l-5.93-0.42C444.77,67.29,444.45,66.93,444.48,66.5z"/>
		</g>
		<g>
			<path class="st6" d="M421.34,76.34l-3.94-3.37c-0.32-0.28-0.81-0.24-1.09,0.09l-3.86,4.52c-0.28,0.32-0.24,0.81,0.09,1.09
				l3.94,3.37c0.32,0.28,0.81,0.24,1.09-0.09l3.86-4.52C421.71,77.1,421.67,76.61,421.34,76.34z"/>
		</g>
		<g>
			<path class="st6" d="M427.7,67.87c-0.38,0.16-0.82-0.02-0.98-0.4l-1.44-3.44c-0.16-0.38,0.02-0.82,0.4-0.98l7.02-2.94
				c0.38-0.16,0.82,0.02,0.98,0.4l1.44,3.44c0.16,0.38-0.02,0.82-0.4,0.98L427.7,67.87z"/>
			<path class="st6" d="M429.54,69.11c-3.42,0.26-6.78-1.66-8.18-5c-1.75-4.17,0.22-8.98,4.39-10.73c4.17-1.75,8.98,0.22,10.73,4.39
				c1.4,3.34,0.42,7.08-2.17,9.34l0.78,1.87c3.56-2.73,4.99-7.63,3.18-11.96c-2.16-5.15-8.11-7.59-13.27-5.43
				c-5.15,2.16-7.59,8.11-5.43,13.27c1.82,4.33,6.31,6.74,10.75,6.12L429.54,69.11z"/>
			<path class="st6" d="M432.88,71.77c0.82-0.34,1.64-0.65,2.47-0.92l-2.08-4.96l-3.88,1.63l2.06,4.9
				C431.92,72.19,432.4,71.97,432.88,71.77z"/>
		</g>
		<g>
			<path class="st6" d="M448.01,101.61c0.51,1.22-0.06,2.63-1.29,3.14c-1.22,0.51-2.63-0.06-3.14-1.29
				c-0.51-1.22,0.06-2.63,1.29-3.14C446.09,99.81,447.49,100.38,448.01,101.61z"/>
			<path class="st6" d="M448.35,82.9l-1.71,19.74c-0.04,0.5-0.48,0.87-0.98,0.82c-0.5-0.04-0.87-0.48-0.82-0.98
				C444.84,102.4,444.69,103.27,448.35,82.9z"/>
			<path class="st6" d="M463.15,112.3l-17.7-8.89c-0.45-0.22-0.63-0.77-0.4-1.21c0.22-0.45,0.77-0.63,1.21-0.4
				C446.33,101.83,445.57,101.37,463.15,112.3z"/>
			<path class="st6" d="M446.7,102.16c0.21,0.5-0.03,1.07-0.53,1.28c-0.5,0.21-1.07-0.03-1.28-0.53c-0.21-0.5,0.03-1.08,0.53-1.28
				C445.91,101.42,446.49,101.66,446.7,102.16z"/>
		</g>
	</g>
	<g class="st8">
		<path class="st9" d="M585.21,65.9c-0.29-0.33-0.73-0.46-1.15-0.35c-2.05,0.56-5.77-0.27-7.61-0.92l-2-9.91
			c1.45-1.31,4.55-3.51,6.66-3.8c0.43-0.06,0.79-0.36,0.93-0.77l2.53-7.54c0.14-0.41,0.03-0.87-0.28-1.17
			c-1.51-1.5-2.65-5.14-3.01-7.05l7.59-6.69c1.85,0.6,5.32,2.19,6.62,3.87c0.27,0.34,0.7,0.51,1.13,0.42l7.79-1.57
			c0.42-0.09,0.77-0.41,0.88-0.83c0.55-2.06,3.12-4.86,4.6-6.13l9.59,3.22c0.41,1.9,0.77,5.7-0.04,7.67
			c-0.16,0.4-0.09,0.86,0.2,1.19l5.26,5.96c0.29,0.33,0.73,0.46,1.15,0.35c2.05-0.56,5.77,0.27,7.61,0.92l2,9.91
			c-1.45,1.31-4.55,3.51-6.66,3.8c-0.43,0.06-0.79,0.36-0.93,0.77l-2.53,7.54c-0.14,0.41-0.03,0.87,0.28,1.17
			c1.51,1.5,2.65,5.14,3.01,7.05l-7.59,6.69c-1.85-0.6-5.32-2.19-6.62-3.87c-0.27-0.34-0.7-0.51-1.13-0.42l-7.79,1.57
			c-0.43,0.09-0.77,0.41-0.88,0.83c-0.55,2.06-3.12,4.86-4.6,6.13l-9.59-3.22c-0.41-1.9-0.77-5.7,0.04-7.67
			c0.16-0.4,0.09-0.86-0.2-1.19L585.21,65.9z M607.02,63.47c5.39-1.09,8.88-6.34,7.79-11.74c-1.09-5.39-6.34-8.88-11.74-7.79
			c-5.39,1.09-8.88,6.34-7.79,11.74C596.37,61.07,601.62,64.56,607.02,63.47z M608.28,69.73c8.85-1.79,14.58-10.41,12.79-19.26
			s-10.41-14.58-19.26-12.79c-8.85,1.79-14.58,10.41-12.79,19.26C590.81,65.79,599.43,71.52,608.28,69.73z"/>
		<path class="st10" d="M649.6,101.4c0.09-0.33,0.36-0.59,0.69-0.65l6.17-1.25c0.34-0.07,0.68,0.06,0.89,0.33
			c1.03,1.33,3.77,2.59,5.24,3.06l6.01-5.3c-0.29-1.52-1.19-4.39-2.39-5.58c-0.24-0.24-0.33-0.6-0.22-0.93l2.01-5.97
			c0.11-0.33,0.39-0.56,0.73-0.61c1.67-0.23,4.13-1.97,5.27-3.01l-1.59-7.85c-1.46-0.51-4.4-1.16-6.03-0.73
			c-0.33,0.09-0.69-0.02-0.91-0.27l-4.16-4.72c-0.23-0.26-0.29-0.62-0.16-0.94c0.64-1.56,0.36-4.56,0.03-6.07l-7.59-2.55
			c-1.17,1.01-3.21,3.23-3.64,4.86c-0.09,0.33-0.36,0.59-0.69,0.65l-6.17,1.25c-0.34,0.07-0.68-0.06-0.89-0.33
			c-1.03-1.33-3.77-2.59-5.24-3.06l-6.01,5.3c0.29,1.52,1.19,4.39,2.39,5.58c0.24,0.24,0.33,0.6,0.22,0.93l-2.01,5.97
			c-0.11,0.33-0.4,0.56-0.74,0.61c-1.67,0.23-4.13,1.97-5.27,3.01l1.59,7.85c1.46,0.51,4.4,1.16,6.03,0.73
			c0.33-0.09,0.69,0.02,0.91,0.27l4.16,4.72c0.23,0.26,0.29,0.62,0.16,0.94c-0.64,1.56-0.36,4.56-0.03,6.07l7.59,2.55
			C647.13,105.25,649.17,103.03,649.6,101.4z M651.73,91.93c-5.31,1.07-10.49-2.36-11.56-7.68c-1.07-5.31,2.36-10.49,7.68-11.56
			c5.31-1.07,10.49,2.36,11.56,7.68C660.48,85.68,657.04,90.86,651.73,91.93z"/>
	</g>
	<g>
		<g>
			<g>
				<path class="st11" d="M118.9,672.06c0,0-0.59-2.89-0.71-3.87c-0.14-1.14-0.31-4.61-0.31-4.61s0-12.09,0.89-12.01
					c0.89,0.07,2.05,2.15,2.31,2.89c0.26,0.74,0.64,1.59,0.9,2.34c0.26,0.75,1.03,1.17,1.98,0.91c0.95-0.26,0.55-3.46,0.19-4.54
					c-1.12-3.36-5.91-11.74-6.38-12.65c-0.55-1.07,3.3-22.04,4.05-29.32h0c1.58-11.89,3.8-24.04,3.98-25.29L147,539.1l-14.14-14.44
					c0,0-24.23,51.62-25.15,54.33c-0.44,1.29-1.97,29.14-1.96,29.14c0.11,13.76,0.24,25.88,0.2,28.21c0,0-2,6.93-3.53,11.27
					c-1.53,4.34-1.2,8.95-1.44,10.24c-0.04,0.19-1.11,4.57-0.37,10.06c0.64,4.73,2.22-0.07,2.22-0.07s0.41-8.99,1.11-8.85
					c0.55,0.11,0.03,5.01,0.68,10.26c0.17,1.35,0.34,2.68,0.5,3.9c0.43,3.2,2.54,3.83,2.62,0.4c0.03-1.21,0.03-3.22-0.18-4.66
					c-0.22-1.55,0.08-3.05,0.09-4.38c0.03-2.64,0.02-4.57,0.13-4.51c0.14,0.08,0.52-0.45,0.74,0.98c0.27,1.71,0.02,5.49,0.61,7.97
					c0.33,1.41,0.85,4.4,0.85,4.4s1.37,4.75,1.66,4.74c1.57-0.07,1.57-3.76,0.86-5.61c0.16-1.42-0.47-4.55-0.47-4.55
					s0.15-6.63,1.1-6.64c0.78,0,3.5,15.91,5.07,15.74C119.51,676.89,118.9,672.06,118.9,672.06z"/>
			</g>
			<path class="st12" d="M138.39,566.21c0,0-8.79-1.52-13.45-3.25c-6.21-2.31-10.3-4.34-10.3-4.34s6.82-29.21,15.34-46.94
				c3.52-7.33,7.08-10.87,12.04-11.72c0.03-0.01,10.46,6.87,10.05,23.43C151.96,527.28,138.39,566.21,138.39,566.21z"/>
			<g>
				<path class="st11" d="M165.41,664.36l11.39,104.79c0,0-5.57,22.16-4.9,28.46c0.67,6.3,12.38,88.88,12.38,88.88l-0.49,4.63
					l-0.01,13.68h43.46c0,0-9.22-4.25-22.13-12.66c-0.95-0.62-3.15-2.6-3.69-6.56c-3.45-25.46,3.37-110.36,3.37-110.36l5.37-110.53
					L165.41,664.36z"/>
				<path class="st11" d="M130.48,686.41c-2.45,0.64-6.23,90.74-8.27,94.74c-12.89,25.32-15.95,102.29-15.95,102.29l-3.74,10.96
					l-4.01,13.44c0,0,12.87,3.52,19.62-0.31l-0.75-13.25l-0.68-12.12l32.51-95.9L167,688.44L130.48,686.41z"/>
				<path class="st6" d="M195.15,511.86c-5.24-7.38-26.88-28.76-29.29-28.71c-7.01,0.13-30.01,0.14-34.51,2.49l0.03,5.03
					c0.12,22.51,2.99,44.93,8.66,66.71c3.95,15.18,7.69,31.4,7.23,37.22l0.11,0.11c13.31,13.23,34.3,12.19,46.47-2.3l0,0
					c0,0-0.05-16.14,1.82-30.86C198.6,538.48,208.17,530.2,195.15,511.86z"/>
				<path class="st11" d="M158.81,460.24c0,0,0.61,15.01-0.7,20.71c-1.31,5.69-3.06,6.12,8.19,7.85c4.42,0.68,8.68,1.7,8.68,1.7
					s-1.15-8.36-1.33-11.89c-0.29-5.81,1.3-23.76,1.3-23.76L158.81,460.24z"/>
				<path class="st13" d="M167.37,467.71c2.31,1.29,4.48,2.05,6.47,2.36c0.38-7.09,1.1-15.22,1.1-15.22l-15.39,5.14
					C161.33,463.06,163.87,465.77,167.37,467.71z"/>
				<path class="st11" d="M162.38,418.19c0,0-6.43,2.27-9.97,9.35c-3.55,7.08-4.87,26.97,9.11,34.75
					c6.92,3.85,14.91,4.58,18.66,1.19c3.83-3.46,3.37-11.14,2.98-17.52C182.4,433.31,179.62,414.17,162.38,418.19z"/>
				<path class="st14" d="M152.07,443.16c0.79,3.32-0.27,6.53-2.37,7.16c-2.1,0.63-4.45-1.55-5.24-4.87
					c-0.79-3.32,0.27-6.53,2.37-7.16C148.93,437.66,151.28,439.84,152.07,443.16z"/>
				<path d="M117.38,894.22c-5.94,2.72-12.29,1.04-14.86,0.17l-4.12,13.49c0,0,12.96,3.84,19.71,0L117.38,894.22z"/>
				<path class="st15" d="M123.02,739.92c0.01,0.01,0.01,0.01,0.01,0L123.02,739.92z"/>
				<path class="st16" d="M183.33,908.21h45.18c1.67-0.15,2.08-1.56,1.5-2.43c-1.19-1.78-6.46-3.09-12.39-5.94
					c-10.39,1.13-32.2-6.26-33.84-8.74C182.84,896.07,182.4,907.99,183.33,908.21z"/>
				<path class="st11" d="M274.08,546c0.88-1.22,3.81-7.17,3.81-7.17s3.04-10.2,2.41-10.06c-0.37,0.08-1.62,1.52-3.11,4.61
					c-0.91,1.89-1.9,5.19-2.84,6.82c-1.65,2.86-3.49,4.06-3.03,2.95c0.33-0.8,1.46-1.47,2.45-3.18c2.42-4.17,4.55-11,3.62-10.86
					c-0.82,0.12-3.15,4.83-5.74,8.48c-1.13,1.6-4.33,3.59-6.34,4.86c0.02-0.9,0.27-1.81,0.41-2.24c0.26-0.8,3.84-5.56,2.44-6.16
					c-1.4-0.6-9.95,9.71-9.95,9.71l-3.51,5.98l-0.31,0.23l-0.01,0c0,0-42.61,16.71-44.04,16.26c-3.35-1.06-14.8-34.26-14.8-34.26
					l-23.84,4.3c-0.34-0.19,25.06,49.41,29.8,51.84c4.16,2.14,48.46-20.94,56.78-25.88c11.46-4.41,15.93-9.66,17.79-12.34
					c1-1.44,4.84-7.72,4.84-7.72s0.82-8.69,0.2-8.77c-2.1-0.26-2.68,7.94-2.68,7.94s-2.84,3.87-3.34,4.37
					C273.87,546.97,274.08,546,274.08,546z"/>
				<path class="st12" d="M156.31,503.05c-3.25,13.79,14.1,44.54,14.1,44.54s24.73-12.01,29.07-17.18c0,0-17.05-28.14-18.11-29.98
					c-2.28-3.97-10.29-12.18-15.69-10.67C162.24,490.71,156.31,503.05,156.31,503.05z"/>
				<path class="st17" d="M160.24,469.04c1.85-12.65,22.83-38.43,14.73-49.21c-6.56-8.72-17.99-6.11-25.28-3.6
					c-33.04,11.37-31.14,52.9-41.57,59.39c-18.91,11.78-30.54,19.11-31.9,45.64c-1.62,31.46,25.11,47.53,57.24,39.83
					c17.28-4.14,21.86-9.79,28.79-26.11c3.12-7.36,9.42-30.3,7.7-41.51C168.4,483.44,158.75,479.23,160.24,469.04z"/>
				<path class="st11" d="M172.8,445.85c0,3.75-1.36,6.78-3.04,6.78c-1.68,0-3.04-3.04-3.04-6.78c0-3.75,1.36-6.78,3.04-6.78
					C171.44,439.06,172.8,442.1,172.8,445.85z"/>
				<path class="st18" d="M214.22,732.53l1.55-62.17c0.27-17.57-3.21-34.98-10.18-50.98l-11.75-26.96
					c-4.75,1.56-9.23,2.88-14.23,3.46c-10.86,1.26-21.55,0.01-32.35-1.27c-0.03,0.42-0.08,0.79-0.15,1.1
					c-1.96,9.16-12.88,29.57-17.48,57.47c-5.22,31.67-7.17,79.03-6.52,82.75C173.03,738.19,184.94,739.99,214.22,732.53z"/>
			</g>
		</g>
	</g>
	<g>
		<g>
			<g>
				<path class="st19" d="M546.92,686.46c-19.36-40.49-24.67-100.92-3.58-148.85c35.56-80.9,133.42-113.92,126.22-205.6
					c-1.81-23.09-12.09-41.67-27.22-53.62c-39.83-31.45-103.91-14.81-149.65,7.16c-29.22,14.04-56.35,33.94-81.39,59.71
					l-12.72-161.94c54.91-38.96,121.34-59.33,187.65-64.54c135.88-10.68,240.8,40.29,251.48,176.2
					c9.74,123.96-74.03,178.87-130.22,240.84c-31.19,34.4-38.24,60.89-35.83,91.58c1.25,15.87,7.2,35.46,16.76,47.95L546.92,686.46z
					 M644.48,907.9c-132.08,10.38-147.37-167.06-13.95-177.54C761.95,720.03,776.05,897.56,644.48,907.9z"/>
			</g>
		</g>
	</g>
	<g>
		<path class="st11" d="M292.41,517.15c0.55,2.03,0.87,2.7,1.57,4.06c4.52,8.79,15.02,21.33,15.02,21.33l8.12-19.53
			c0,0-1.32-6.13-3.62-14.9C305.66,510.31,298.19,511.57,292.41,517.15z"/>
		<path class="st20" d="M338.97,500.21c0,0-45.29,20.81-46.76,20.42c-0.94-0.26-18.58-31.76-18.77-61.38
			c-0.09-13.68,13.23-30.14,28.08-26.89c7.48,1.64,7.36,3.86,18.43,21.02C331.02,470.54,338.97,500.21,338.97,500.21z"/>
		<path class="st11" d="M377.63,873.41c0,0-1.07,18.98-1.08,19.02c-0.39,2.41-1.95,8.37-1.95,10.56c0,8.23,36.62-6.99,28.42-10.64
			c-0.74-0.33-4.63-2.83-4.88-5.63c-0.38-4.32-1.33-13.05-1.33-13.05L377.63,873.41z"/>
		<path class="st16" d="M402.93,892.28c0,0-8.6,2.52-13,3.15c-4.4,0.63-10.21-4.67-13.32-3.24c-3.43,1.58-3.29,15.76-3.29,15.76
			s46.11,4.04,59.08-0.14C437.52,906.15,420.51,898.14,402.93,892.28z"/>
		<path class="st11" d="M302.71,873.41c0,0-1.07,18.98-1.08,19.02c-0.39,2.41-1.95,8.37-1.95,10.56c0,8.23,36.62-6.99,28.42-10.64
			c-0.74-0.33-5.79-4.69-6.03-7.49c-0.38-4.32-0.18-11.18-0.18-11.18L302.71,873.41z"/>
		<path class="st16" d="M328.01,892.28c0,0-8.6,2.52-13,3.15c-4.4,0.63-10.21-4.67-13.32-3.24c-3.43,1.58-3.57,15.76-3.57,15.76
			s46.32,4.71,59.35-0.14C362.52,905.93,345.59,898.14,328.01,892.28z"/>
		<g>
			<path class="st11" d="M313.91,527.67l32.26-48.22c0.14-0.42,0.43-1.29,0.88-2.61c1.62-4.78,5.01-14.74,7.95-24.65l0.03-0.11
				c0.92-3.46,2.89-9.5,4.78-15.35c2.11-6.5,4.73-14.55,4.82-15.93c-0.08-0.24-0.23-0.66-0.43-1.22
				c-1.18-3.28-2.78-11.08-3.35-14.47c-0.36-2.16-0.72-7.41,1.69-7.41c3.78,0,1.98,5.24,3.72,8.52c0.64-2.19,1.94-6.53,2.62-10.93
				l0.63-10.25c0.12-0.77-0.65-6.43,2-6.43l0.13,0.01c2.38,0.19,2.33,6.2,3.32,16.37c0.31-1.17,0.63-2.58,0.86-3.88
				c-0.03-0.7,0.45-3.75,0.81-5.37c-0.48-2.83-0.2-7.3,2.63-6.88c1.42,0.21,1.3,6.45,1.3,6.45c-0.01,0.86-0.1,7.45-0.05,8.75
				c0.29-2.21,1.42-11.65,3.64-11.65c1.84,0,1.99,2.54,1.95,4.55c-0.02,1.19-1.18,11.42-1.24,12.6c0.87-1.55,1.89-10.56,2.75-10.56
				c3.59,0,2.29,12.81,0.97,16.15c-0.12,0.34-0.26,1.01-0.41,1.79c-0.45,2.28-1.2,6.1-3.08,9.53c-2.25,4.11-5.36,10.65-5.83,11.65
				c-0.35,2.04-1.43,9.39-2.78,18.63c-0.58,3.95-1.22,8.29-1.88,12.78l-0.03-0.01c-0.12,0.97-0.79,4.06-3.35,15.66
				c-3.49,15.86-3.85,16.55-4.01,16.84c-1.52,2.86-36.29,53.27-37.77,55.41l-0.87,1.27L313.91,527.67z"/>
			<path class="st13" d="M373.9,415.19c0,0-2.62-7.15-7.28-7.16c0,0,2.6-1,4.84,0.88C373.69,410.81,373.9,415.19,373.9,415.19z"/>
		</g>
		<g>
			<path class="st11" d="M306.11,401.39l-4.15,28.03c0,0,15.82,13.56,25.05,10.7c7.74-2.4,2.43-13.2,2.43-13.2
				s-4.12-14.96-2.86-22.8C327.84,396.27,306.11,401.39,306.11,401.39z"/>
			<path class="st13" d="M309.09,409.86c3.97,2,11.81,4.73,17.91,5.39c-0.58-3.92-0.92-8.07-0.42-11.13
				c0.58-3.62-3.73-4.48-8.55-4.35c-6.3,0.58-11.92,1.63-11.92,1.63l-0.8,5.39C306.51,408.12,307.77,409.19,309.09,409.86z"/>
			<path class="st11" d="M286.14,369.06c-0.65,0,6.25,31.31,16.94,36.7c10.69,5.39,26.63,2.58,29.62-5.85
				c3.31-9.33-8.76-41.27-23.79-45.33C293.88,350.52,286.14,369.06,286.14,369.06z"/>
			<path class="st21" d="M298.52,340.29c-8.54,5.26-12.46,13.05-13.78,16.24c-4.01,2.03-8.86,6.42-11.18,18.25
				c-2.86,14.54,7.31,25.75,18.1,29.13c10.79,3.37,12.61,10.99,12.61,10.99l1.07-8.2c0,0-2.4-7.14-6.01-10.71
				c-3.61-3.57,1.71-8.78,2.18-13.03c0.36-3.27-1.9-9.62-1.41-14.99c0,0,5.99-9.7,11.9-12.09
				C322.07,351.8,309.47,333.55,298.52,340.29z"/>
			<path class="st11" d="M303.06,388.41c1.4,3.62,0.83,7.21-1.28,8.02c-2.1,0.81-4.94-1.46-6.33-5.08c-1.4-3.62-0.83-7.21,1.28-8.02
				C298.83,382.53,301.66,384.8,303.06,388.41z"/>
		</g>
		<path class="st11" d="M342.88,528.44l62.22-10.83c0,0-7.08-19.02-9.61-19.02c-2.53,0-47.05,20.74-47.05,20.74l-3.54,7.59
			L342.88,528.44z"/>
		<path class="st18" d="M311.01,573.97c0,0-6.21,32.02-3.68,56.31c2.53,24.28,2.73,110.54,2.73,110.54l-9.65,138.01l22.9,0.53
			c0,0,27.16-137.95,26.65-134.4c-0.51,3.54,9.11-97.13,9.11-97.13l-32.38-76.89L311.01,573.97z"/>
		<path class="st18" d="M317.08,572.45c0,0-4.05,28.84,1.01,41.48c5.06,12.65,43.39,136.73,43.9,146.85
			c0.51,10.12,13.25,121.95,13.25,121.95l26.63-0.8l5.76-124.33l-12.06-156.26l-11.71-39.51L317.08,572.45z"/>
		<path class="st11" d="M301.96,429.41c0,0,6.57,4.6,12.69,4.07c6.13-0.53,14.79-6.57,14.79-6.57l-1.2-4.35
			c0,0-15.84-2.46-16.24-2.2C311.59,420.63,301.96,429.41,301.96,429.41z"/>
		<path class="st11" d="M371.95,497.66c0,0,23.53,23.7,34.16,19.66c10.62-4.05,15.02-17.88-10.9-38.12
			C372.01,461.08,371.95,497.66,371.95,497.66z"/>
		<path class="st6" d="M387.9,526.93c-3.5-20.3-28.83-83.47-30.86-95.1c-0.98-5.66-14.65-5.78-27.67-5.05
			c-13.75,0.78-27.41,2.64-27.41,2.64s-12.17,2.13-17.53,7.49c-5.36,5.36-6.78,20.17,0.92,48.29c6.08,22.2,13.61,34.38,17.34,50.55
			c0.75,5.42,1.4,10.77,2.26,17.02c1.37,24.18-0.02,56.11-0.02,56.11s66.27,14.67,91.06-7.59
			C395.99,601.29,391.48,547.72,387.9,526.93z"/>
		<path class="st22" d="M404.8,483.28c0,0-26,22.91-27.52,22.91c-0.98,0-37.11-28.36-45.45-51.67c-4.61-12.88,5.06-27.3,16.11-27.25
			c7.66,0.03,11.06,2.14,26.24,15.8C389.35,456.72,404.8,483.28,404.8,483.28z"/>
	</g>
	<path class="st23" d="M214.88,337.93H93.46c-18.58,0-33.65-15.06-33.65-33.65v-30.88c0-18.58,15.06-33.65,33.65-33.65h121.42
		c18.58,0,33.65,15.06,33.65,33.65v30.88C248.52,322.87,233.46,337.93,214.88,337.93z"/>
	<polygon class="st23" points="226.13,300.87 272.61,321.7 241.49,278.14 	"/>
	<g class="st8">
		<path class="st24" d="M122.65,285.67c0,4-3.64,7.24-8.14,7.24c-4.5,0-8.14-3.24-8.14-7.24c0-4,3.64-7.24,8.14-7.24
			C119,278.43,122.65,281.67,122.65,285.67z"/>
		<path class="st24" d="M160.52,285.67c0,4-3.64,7.24-8.14,7.24c-4.5,0-8.14-3.24-8.14-7.24c0-4,3.64-7.24,8.14-7.24
			C156.88,278.43,160.52,281.67,160.52,285.67z"/>
		<path class="st24" d="M198.4,285.67c0,4-3.64,7.24-8.14,7.24c-4.5,0-8.14-3.24-8.14-7.24c0-4,3.64-7.24,8.14-7.24
			C194.75,278.43,198.4,281.67,198.4,285.67z"/>
	</g>
	<g>
		<g>
			<path class="st25" d="M810.4,75.79c14.1,13.66,4.85,39.12-14.57,40.02c-3.49,0.16-6.81,1.72-9.4,4.25l-8.89,8.69
				c-2.45,2.4-6.2,2.44-8.61,0.1l-5.34-5.18c-2.41-2.34-2.68-6.27-0.61-9.04c7.54-10.1,11-13.27,10.74-20.26
				C772.97,73.94,796.3,62.13,810.4,75.79z"/>
			<g>
				<path class="st6" d="M787.76,90.16c-0.4-0.83-0.82-1.76-1.12-2.71c-1.74-5.5,2.15-8.41,4.76-7.48c1.67,0.6,2.74,2.61,2.36,4.83
					c-0.34,2-1.68,3.68-3.01,5.51c1.59,2.91,3.64,5.46,6.08,7.59c4.41-4.23,8.44-3.37,9.31-0.64c0.55,1.75-0.18,3.85-1.74,5
					c-0.93,0.68-3.47,1.9-7.42-0.88c-7.25,8.02-16.47,19.54-16.5,19.58l-1.88-1.66c0.03-0.03,9.2-11.48,16.42-19.49
					c-2.33-2.06-4.32-4.48-5.94-7.2c-7.89,10.79-15.02,19.52-15.27,19.83l-1.87-1.67C772.45,110.12,779.36,101.7,787.76,90.16z
					 M790.36,82.4c-0.83-0.12-2.66,1.18-0.86,5.36C791.33,85.26,791.82,84.23,790.36,82.4z M798.83,99.47
					c1.55,1.02,3.71,1.77,4.67,0.08C804.73,97.37,802.09,96.54,798.83,99.47z"/>
			</g>
			<path class="st6" d="M786.66,119.86c-0.08,0.07-0.16,0.13-0.23,0.21l-8.89,8.69c-2.45,2.4-6.2,2.44-8.61,0.1l-5.34-5.18
				c-2.41-2.34-2.68-6.27-0.61-9.04c3.35-4.49,5.9-7.61,7.67-10.31L786.66,119.86z"/>
		</g>
		<g class="st26">
			<path class="st7" d="M767.27,60.9c1.57,1.88,3.15,3.76,4.72,5.65c1.23,1.47,2.76,4.06,4.81,4.33c0.51,0.07,1.14-0.32,1.16-0.88
				c0.07-2.14-2.06-3.96-3.36-5.49c-1.58-1.87-3.17-3.75-4.75-5.62C768.5,57.29,765.91,59.28,767.27,60.9L767.27,60.9z"/>
		</g>
		<g class="st26">
			<path class="st7" d="M789.2,49.08c1.45,13.41,1.26,13.06,2.03,14.18c0.6,0.87,2.01,0.61,2.38-0.32
				c0.47-1.18,0.37-0.85-1.22-14.25C792.15,46.62,788.98,47.02,789.2,49.08L789.2,49.08z"/>
		</g>
		<g class="st26">
			<path class="st7" d="M813.58,70.16c1.65-1.84,3.31-3.69,4.96-5.53c1.47-1.64,3.55-3.32,4.12-5.51c0.25-0.96-0.91-1.61-1.7-1.31
				c-2.06,0.78-3.59,3.25-5.02,4.85c-1.65,1.85-3.29,3.7-4.94,5.55C809.62,69.77,812.2,71.71,813.58,70.16L813.58,70.16z"/>
		</g>
		<g class="st26">
			<path class="st7" d="M821.69,108.89c3.25,1.86,6.53,3.77,9.96,5.28c1.85,0.81,2.91-1.94,1.18-2.85c-3.33-1.75-6.69-3.4-9.97-5.25
				C821.15,105.1,820.01,107.93,821.69,108.89L821.69,108.89z"/>
		</g>
		<g class="st26">
			<path class="st7" d="M823.71,91.71c2.26,0.05,4.52,0.02,6.77-0.02c2.06-0.04,4.68,0.33,6.49-0.74c0.96-0.57,0.51-1.98-0.32-2.37
				c-1.05-0.49-1.41-0.27-6.3-0.15c-2.21,0.05-4.42,0.07-6.63,0.14C821.96,88.64,821.91,91.68,823.71,91.71L823.71,91.71z"/>
		</g>
	</g>
</g>
<path class="st6" d="M665.94,59.48c0,0.2,0,0.41,0,0.61c-0.11,0.2-0.2,0.42-0.33,0.6c-1.32,1.85-3.14,2.83-5.4,3.03
	c-0.2,0.02-0.46,0.08-0.57,0.21c-0.72,0.89-1.59,1.61-2.61,2.1c-0.98,0.47-2.01,0.85-3.07,1.3c0.01,0.06,0.04,0.22,0.09,0.38
	c0.78,2.88,0.79,5.76,0.01,8.64c-1.03,3.79-3.17,6.88-6.05,9.5c-0.26,0.23-0.38,0.48-0.42,0.81c-0.55,3.86-1.43,7.63-2.77,11.29
	c-0.34,0.94-0.97,1.38-1.98,1.38c-2.53,0-5.06,0-7.6,0c-0.18,0-0.36,0-0.53-0.04c-1.09-0.23-1.72-1.27-1.43-2.36
	c0.35-1.29,0.7-2.59,1.05-3.88c0.02-0.09,0.03-0.19,0.05-0.31c-5.26,1.18-10.5,1.25-15.77,0.23c-0.04,0.14-0.08,0.25-0.12,0.37
	c-0.47,1.52-0.93,3.05-1.43,4.57c-0.32,0.98-0.96,1.42-1.98,1.42c-2.54,0-5.09,0-7.63,0c-1.42,0-2.25-1.15-1.9-2.52
	c0.66-2.56,1.28-5.12,1.93-7.68c0.08-0.33,0.03-0.51-0.28-0.71c-2.87-1.86-5.31-4.15-7.15-7.05c-0.13-0.21-0.28-0.29-0.52-0.31
	c-1.11-0.08-2.22-0.16-3.27-0.57c-1.58-0.61-2.65-1.79-3.46-3.23c-0.97-1.74-1.47-3.64-1.78-5.59c-0.12-0.73-0.21-1.46-0.31-2.19
	c0-0.33,0-0.67,0-1c0.02-0.03,0.05-0.06,0.06-0.09c0.35-1.23,1.15-1.89,2.41-1.99c1.63-0.13,3.2-0.49,4.72-1.09
	c0.31-0.12,0.46-0.3,0.56-0.6c1.22-3.42,3.3-6.21,6.15-8.42c0.61-0.47,1.25-0.91,1.9-1.37c-1.05-1.26-1.93-2.62-2.64-4.09
	c-0.71-1.47-1.28-2.98-1.46-4.65c1.5-0.08,2.92-0.05,4.34,0.15c4.28,0.59,8.26,2.05,11.95,4.3c0.26,0.16,0.49,0.22,0.79,0.17
	c0.42-0.07,0.85-0.09,1.27-0.14c0.48,5.51,4.35,9.27,8.73,10.27c2.27,0.52,4.5,0.37,6.66-0.49c2.92-1.16,4.98-3.22,6.28-6.06
	c0.05,0.02,0.08,0.02,0.1,0.03c4.31,2.35,7.89,5.46,10.18,9.89c0.1,0.19,0.2,0.27,0.41,0.2c0.6-0.19,1.21-0.33,1.79-0.55
	c0.51-0.2,0.98-0.49,1.54-0.78c-0.23-0.11-0.36-0.16-0.48-0.23c-1.65-0.84-2.9-2.05-3.45-3.86c-0.59-1.95,0.37-3.82,2.19-4.23
	c1.38-0.32,2.59,0.11,3.59,1.06c1.4,1.33,2.31,2.92,2.4,4.9c0.08-0.01,0.14-0.02,0.2-0.03c0.98-0.28,1.78-0.82,2.36-1.66
	c0.33-0.48,0.78-0.73,1.37-0.67C665.35,58.47,665.7,58.91,665.94,59.48z M606.67,63.07c-0.01,1.3,1.01,2.36,2.3,2.38
	c1.29,0.02,2.38-1.04,2.4-2.34c0.01-1.3-1.05-2.37-2.35-2.38C607.73,60.73,606.68,61.78,606.67,63.07z M657.83,60.62
	c0.04-0.02,0.09-0.05,0.13-0.07c-0.2-0.48-0.37-0.99-0.62-1.44c-0.33-0.59-0.73-1.16-1.36-1.46c-0.18-0.09-0.48-0.1-0.64,0
	c-0.1,0.06-0.12,0.4-0.06,0.58C655.67,59.51,656.65,60.17,657.83,60.62z"/>
<path class="st3" d="M665.94,59.48c-0.24-0.57-0.6-1.01-1.26-1.07c-0.59-0.05-1.04,0.19-1.37,0.67c-0.58,0.85-1.38,1.39-2.36,1.66
	c-0.06,0.02-0.12,0.02-0.2,0.03c-0.1-1.99-1-3.58-2.4-4.9c-1.01-0.95-2.21-1.37-3.59-1.06c-1.81,0.42-2.78,2.28-2.19,4.23
	c0.55,1.81,1.79,3.02,3.45,3.86c0.12,0.06,0.25,0.12,0.48,0.23c-0.56,0.29-1.03,0.58-1.54,0.78c-0.58,0.23-1.19,0.37-1.79,0.55
	c-0.21,0.07-0.31-0.01-0.41-0.2c-2.29-4.43-5.87-7.54-10.18-9.89c-0.02-0.01-0.05-0.01-0.1-0.03c-1.3,2.84-3.36,4.9-6.28,6.06
	c-2.16,0.86-4.4,1.01-6.66,0.49c-4.37-1-8.25-4.77-8.73-10.27c-0.42,0.04-0.85,0.06-1.27,0.14c-0.3,0.05-0.53-0.01-0.79-0.17
	c-3.69-2.25-7.66-3.71-11.95-4.3c-1.42-0.2-2.85-0.23-4.34-0.15c0.17,1.67,0.75,3.18,1.46,4.65c0.71,1.47,1.59,2.82,2.64,4.09
	c-0.64,0.46-1.29,0.89-1.9,1.37c-2.86,2.22-4.94,5.01-6.15,8.42c-0.11,0.3-0.26,0.48-0.56,0.6c-1.52,0.61-3.09,0.96-4.72,1.09
	c-1.26,0.1-2.06,0.76-2.41,1.99c-0.01,0.03-0.04,0.06-0.06,0.09c0-9.34,0-18.68,0-28.01c25.07,0,50.14,0,75.21,0
	C665.94,46.79,665.94,53.14,665.94,59.48z M641.47,49.92c-0.03-5.25-4.23-9.42-9.46-9.4c-5.18,0.02-9.37,4.25-9.36,9.43
	c0.01,5.22,4.25,9.4,9.48,9.38C637.29,59.31,641.49,55.07,641.47,49.92z"/>
<path class="st3" d="M590.73,69.46c0.1,0.73,0.19,1.47,0.31,2.19c0.31,1.95,0.81,3.85,1.78,5.59c0.81,1.44,1.88,2.62,3.46,3.23
	c1.05,0.41,2.16,0.49,3.27,0.57c0.24,0.02,0.39,0.1,0.52,0.31c1.84,2.9,4.28,5.2,7.15,7.05c0.31,0.2,0.36,0.38,0.28,0.71
	c-0.65,2.56-1.27,5.13-1.93,7.68c-0.36,1.37,0.48,2.52,1.9,2.52c2.54,0,5.09,0,7.63,0c1.03,0,1.66-0.43,1.98-1.42
	c0.49-1.52,0.95-3.04,1.43-4.57c0.04-0.12,0.08-0.24,0.12-0.37c5.27,1.02,10.51,0.95,15.77-0.23c-0.02,0.12-0.03,0.22-0.05,0.31
	c-0.35,1.29-0.71,2.59-1.05,3.88c-0.29,1.09,0.34,2.13,1.43,2.36c0.17,0.04,0.36,0.04,0.53,0.04c2.53,0,5.06,0,7.6,0
	c1.01,0,1.63-0.44,1.98-1.38c1.33-3.66,2.22-7.43,2.77-11.29c0.05-0.33,0.17-0.58,0.42-0.81c2.87-2.62,5.02-5.71,6.05-9.5
	c0.78-2.88,0.77-5.76-0.01-8.64c-0.04-0.16-0.07-0.32-0.09-0.38c1.06-0.44,2.08-0.82,3.07-1.3c1.02-0.49,1.89-1.21,2.61-2.1
	c0.11-0.14,0.37-0.2,0.57-0.21c2.26-0.2,4.07-1.17,5.4-3.03c0.13-0.18,0.22-0.4,0.33-0.6c0,13.1,0,26.2,0,39.3
	c-25.07,0-50.14,0-75.21,0C590.73,89.41,590.73,79.44,590.73,69.46z"/>
<path class="st3" d="M606.67,63.07c0.01-1.3,1.06-2.34,2.35-2.33c1.3,0.01,2.37,1.08,2.35,2.38c-0.01,1.3-1.11,2.36-2.4,2.34
	C607.68,65.43,606.66,64.37,606.67,63.07z"/>
<path class="st3" d="M657.83,60.62c-1.18-0.45-2.16-1.11-2.56-2.39c-0.06-0.18-0.04-0.52,0.06-0.58c0.16-0.1,0.46-0.08,0.64,0
	c0.64,0.3,1.03,0.87,1.36,1.46c0.26,0.45,0.42,0.96,0.62,1.44C657.92,60.57,657.87,60.59,657.83,60.62z"/>
<path class="st7" d="M641.47,49.92c0.03,5.15-4.17,9.38-9.33,9.41c-5.23,0.02-9.47-4.16-9.48-9.38c-0.01-5.18,4.18-9.41,9.36-9.43
	C637.24,40.5,641.44,44.68,641.47,49.92z M631.12,55.37c0,0.29-0.02,0.56,0.01,0.82c0.06,0.51,0.44,0.84,0.93,0.85
	c0.49,0,0.87-0.33,0.94-0.83c0.02-0.13,0.03-0.26,0.01-0.38c-0.04-0.35,0.06-0.52,0.42-0.66c2.11-0.84,2.65-3.46,1.05-5
	c-0.57-0.55-1.27-0.83-2.02-1.05c-0.46-0.13-0.94-0.27-1.34-0.53c-0.71-0.47-0.68-1.4,0.02-1.9c0.83-0.6,2.31-0.22,2.75,0.71
	c0.27,0.57,0.77,0.8,1.27,0.57c0.52-0.23,0.7-0.77,0.43-1.36c-0.36-0.79-0.94-1.4-1.74-1.69c-0.57-0.21-0.95-0.4-0.87-1.13
	c0.05-0.48-0.44-0.85-0.91-0.85c-0.48,0-0.87,0.35-0.94,0.84c-0.02,0.11-0.03,0.23-0.01,0.34c0.05,0.37-0.07,0.56-0.46,0.72
	c-2.1,0.83-2.61,3.49-0.99,5.01c0.59,0.55,1.3,0.83,2.07,1.04c0.38,0.1,0.77,0.22,1.11,0.4c0.44,0.23,0.73,0.61,0.65,1.15
	c-0.08,0.55-0.41,0.89-0.93,1.06c-0.94,0.3-1.94-0.12-2.38-1.01c-0.23-0.47-0.72-0.67-1.19-0.49c-0.48,0.19-0.72,0.69-0.53,1.2
	c0.1,0.26,0.23,0.51,0.39,0.74C629.39,54.71,630.16,55.14,631.12,55.37z"/>
<path class="st3" d="M631.12,55.37c-0.95-0.23-1.72-0.66-2.26-1.43c-0.16-0.23-0.29-0.48-0.39-0.74c-0.19-0.51,0.05-1.01,0.53-1.2
	c0.47-0.18,0.96,0.02,1.19,0.49c0.44,0.89,1.44,1.31,2.38,1.01c0.52-0.17,0.85-0.51,0.93-1.06c0.07-0.55-0.21-0.92-0.65-1.15
	c-0.35-0.18-0.73-0.3-1.11-0.4c-0.76-0.2-1.48-0.49-2.07-1.04c-1.62-1.52-1.11-4.17,0.99-5.01c0.39-0.16,0.51-0.34,0.46-0.72
	c-0.01-0.11-0.01-0.23,0.01-0.34c0.07-0.5,0.46-0.85,0.94-0.84c0.47,0,0.96,0.37,0.91,0.85c-0.08,0.73,0.3,0.92,0.87,1.13
	c0.81,0.29,1.39,0.9,1.74,1.69c0.27,0.59,0.09,1.13-0.43,1.36c-0.5,0.22-1,0-1.27-0.57c-0.44-0.93-1.92-1.31-2.75-0.71
	c-0.69,0.5-0.73,1.43-0.02,1.9c0.39,0.26,0.88,0.4,1.34,0.53c0.75,0.21,1.45,0.5,2.02,1.05c1.6,1.54,1.06,4.16-1.05,5
	c-0.36,0.14-0.47,0.32-0.42,0.66c0.02,0.13,0.01,0.26-0.01,0.38c-0.07,0.5-0.46,0.83-0.94,0.83c-0.49,0-0.87-0.34-0.93-0.85
	C631.09,55.93,631.12,55.66,631.12,55.37z"/>
</svg>
