<?xml version="1.0" encoding="utf-8"?>
<!-- Generator: Adobe Illustrator 24.1.1, SVG Export Plug-In . SVG Version: 6.00 Build 0)  -->
<svg version="1.1" id="Layer_1" xmlns="http://www.w3.org/2000/svg" xmlns:xlink="http://www.w3.org/1999/xlink" x="0px" y="0px"
	 viewBox="0 0 500 500" style="enable-background:new 0 0 500 500;" xml:space="preserve">
<style type="text/css">
	.st0{fill:#F5F5F5;}
	.st1{fill:#E0E0E0;}
	.st2{fill:#FAFAFA;}
	.st3{fill:#EBEBEB;}
	.st4{fill:#455A64;}
	.st5{fill:#37474F;}
	.st6{fill:#263238;}
	.st7{fill:#FFA8A7;}
	.st8{fill:#407BFF;}
	.st9{opacity:0.2;enable-background:new    ;}
	.st10{opacity:0.5;enable-background:new    ;}
	.st11{opacity:0.7;enable-background:new    ;}
	.st12{fill:#F28F8F;}
	.st13{fill:none;}
	.st14{opacity:0.4;enable-background:new    ;}
	.st15{opacity:0.6;fill:#FFFFFF;enable-background:new    ;}
	.st16{fill:#FFFFFF;}
	.st17{opacity:0.4;fill:#FFFFFF;enable-background:new    ;}
	.st18{opacity:0.2;fill:#FFFFFF;enable-background:new    ;}
	.st19{opacity:0.3;enable-background:new    ;}
</style>
<g id="freepik--Floor--inject-17">
	<ellipse class="st0" cx="250" cy="361.3" rx="236.7" ry="136.7"/>
</g>
<g id="freepik--Shadows--inject-17">
	<path class="st1" d="M156.5,451.2l55.5-32.1c1.4-0.8,1.9-2.7,1.1-4.1c-0.3-0.5-0.6-0.8-1.1-1.1l-55.5-32.1c-2.6-1.5-5.8-1.5-8.4,0
		l-55.5,32.1c-1.4,0.8-1.9,2.7-1.1,4.1c0.3,0.5,0.6,0.8,1.1,1.1l55.5,32.1C150.7,452.7,153.9,452.7,156.5,451.2z"/>
	<path class="st1" d="M233.9,406.5L349.1,340c2-1.1,2.7-3.7,1.5-5.7c-0.4-0.6-0.9-1.1-1.5-1.5L257,279.2c-3-1.8-6.7-1.8-9.7,0
		l-115.1,66.5c-2,1.1-2.7,3.7-1.5,5.7c0.4,0.6,0.9,1.1,1.5,1.5l92.1,53.7C227.2,408.2,230.9,408.3,233.9,406.5z"/>
	<ellipse class="st1" cx="326.2" cy="405.5" rx="51.7" ry="29.8"/>
</g>
<g id="freepik--Pictures--inject-17">
	<polygon class="st2" points="103.8,123.1 103.8,174.3 59.5,199.9 59.5,148.7 103.8,123.1 	"/>
	<path class="st1" d="M99,125.8v45.7l-39.5,22.8v-45.7L99,125.8 M101.4,121.7l-44.4,25.6v51.2l2.4,1.4l44.3-25.6v-51.2L101.4,121.7
		L101.4,121.7z"/>
	<path class="st3" d="M101.4,127.2v45.7l-39.5,22.8V150L101.4,127.2 M103.8,123.1l-44.3,25.6v51.2l44.3-25.6L103.8,123.1
		L103.8,123.1z"/>
	<polygon class="st1" points="97.3,162.5 63.7,181.9 73.7,156.1 80.5,164.3 87.5,154.3 	"/>
	<ellipse transform="matrix(0.5 -0.866 0.866 0.5 -87.068 145.6466)" class="st1" cx="82.6" cy="148.2" rx="4.3" ry="2.5"/>
	<polygon class="st2" points="118.6,59.3 118.6,100.1 83.3,120.5 83.3,79.7 118.6,59.3 	"/>
	<path class="st1" d="M114.8,61.5v36.4l-31.5,18.2V79.7L114.8,61.5 M116.7,58.2L81.4,78.6v40.8l1.9,1.1l35.3-20.4V59.3L116.7,58.2
		L116.7,58.2z"/>
	<path class="st3" d="M116.7,62.6V99l-31.5,18.2V80.8L116.7,62.6 M118.6,59.3L83.3,79.7v40.8l35.3-20.4V59.3L118.6,59.3z"/>
	<polygon class="st1" points="113.4,90.8 86.7,106.2 94.6,85.7 100.1,92.1 105.6,84.2 	"/>
	<path class="st1" d="M104.2,78c-0.1,1.7-1,3.3-2.4,4.2c-1.4,0.8-2.4,0.1-2.4-1.4c0.1-1.7,1-3.3,2.4-4.2
		C103.1,75.8,104.2,76.4,104.2,78z"/>
</g>
<g id="freepik--Character--inject-17">
	<path class="st3" d="M224.8,393.3v7.7c0.1,0.8,0.6,1.5,1.3,1.8c1.9,1,4.3,1,6.2,0c0.7-0.3,1.2-1,1.3-1.8v-7.7H224.8z"/>
	<path class="st3" d="M332.1,331.4v7.7c0.1,0.8,0.6,1.5,1.3,1.8c1.9,1,4.3,1,6.2,0c0.7-0.3,1.2-1,1.3-1.8v-7.7H332.1z"/>
	<path class="st3" d="M159.8,355.6v7.7c0.1,0.8,0.6,1.5,1.3,1.8c1.9,1,4.3,1,6.2,0c0.7-0.3,1.2-1,1.3-1.8v-7.7H159.8z"/>
	<polygon class="st4" points="248.9,193 160.2,241.3 160.2,325.4 270.2,266.4 	"/>
	<path class="st4" d="M322,266.4L322,266.4l-5.5-3.2l-53.7-30.7c-1.5-0.8-2-2.7-1.1-4.2c0.2-0.4,0.6-0.8,1-1l3.5-2.3l-4.3-29.7
		c-0.6-4-3-7.6-6.5-9.7l-7.9-4.8c-1.2-0.7-2.7-0.3-3.4,0.9c-0.2,0.4-0.4,0.8-0.4,1.3v108.2c0,3.8,2.1,7.3,5.4,9.2l74.8,41.7
		c1.2,0.7,2.7,0.7,4,0l0,0l0.3-0.2c1.2-0.8,2-2.1,2-3.5V280C329.9,274.4,326.9,269.2,322,266.4z"/>
	<path class="st5" d="M148.5,238.7v-0.7c0-3.6,1.9-6.9,5-8.8l85.6-49.8c1.9-1.1,4.3-1.1,6.2,0l9.3,5.6c1.9,1.1,2.5,3.6,1.4,5.5
		c-0.3,0.6-0.8,1.1-1.4,1.4l-90.1,53.3L148.5,238.7z"/>
	<path class="st6" d="M261.2,229.6v84.9l59.7,27.3c2.5,1.1,5.4,1,7.8-0.3l9-5.1V265L261.2,229.6z"/>
	<path class="st6" d="M259.9,380.4l47.2-26.5c7.2-4,9.8-13.2,5.8-20.4c-1.3-2.3-3.1-4.2-5.4-5.5l-47-28.5c-0.3-0.1-0.6-0.1-0.8,0
		l-73.1,40.4c-0.4,0.2-0.5,0.7-0.3,1.1c0.1,0.1,0.2,0.2,0.3,0.3l64.8,38.9C254,381.7,257.2,381.8,259.9,380.4z"/>
	<path class="st4" d="M254.9,376.7c0,2.1,1.7,3.7,3.8,3.7c0.6,0,1.3-0.2,1.8-0.5l58.3-32.5c3.5-1.9,5.6-5.6,5.6-9.6v-5.7l-66.9,40.2
		C256,373.3,255,375,254.9,376.7L254.9,376.7z"/>
	<path class="st5" d="M259.4,371.3l61.8-34c3.1-1.7,4.2-5.5,2.5-8.6c-0.5-0.9-1.3-1.7-2.2-2.3l-59.6-37.4l-74.7,41.3l68.1,41
		C256.5,372.1,258.1,372.1,259.4,371.3z"/>
	<path class="st6" d="M256.9,368.6l62.4-35.4l-59.1-47.4l-74.7,41.3l68.9,41.4C255.1,369,256.1,369,256.9,368.6z"/>
	<path class="st4" d="M254.9,347.1v16.1c0,2.1,1.7,3.7,3.8,3.7c0.6,0,1.3-0.2,1.8-0.5l58.8-33.4c3.2-1.8,5.2-5.3,5.2-9v-22.9
		L259,340C256.5,341.5,254.9,344.2,254.9,347.1z"/>
	<path class="st5" d="M259.5,341.5l62.4-35c2.5-1.4,3.4-4.5,2-7c-0.4-0.8-1.1-1.4-1.8-1.9l-61.9-37.5l-74.7,41.3l66.4,39.9
		C254.1,342.8,257.1,342.9,259.5,341.5z"/>
	<path class="st4" d="M279.2,222.4c-3.1-1.8-6.9-1.7-9.9,0.3l-3.3,2.2l-3.5,2.3c-1.4,0.9-1.8,2.8-0.8,4.2c0.3,0.4,0.6,0.7,1,1
		l53.7,30.7l5.4,3.1c0.1,0,0.2,0.1,0.3,0.2c5,2.9,7.9,8.3,7.8,14.1v57.9c0,1.4-0.7,2.8-2,3.5l13.3-7.5c3.2-1.8,5.1-5.1,5.1-8.7
		v-56.2c0-5-2.7-9.7-7-12.2L279.2,222.4z"/>
	<path class="st5" d="M339.3,257.4l-60.1-35c-3.1-1.8-6.9-1.7-9.9,0.3l-3.3,2.2l-3.5,2.3c-1.4,0.9-1.8,2.8-0.8,4.2
		c0.3,0.4,0.6,0.7,1,1l53.7,30.7l5.4,3.1c0.1,0,0.2,0.1,0.3,0.2c2.6,1.5,4.7,3.8,6,6.5l16.3-10.4
		C343.2,260.4,341.4,258.6,339.3,257.4z"/>
	<path class="st6" d="M200.4,165.8c0,0-2.4-18,27.2-18c24.7,0,23.8,26.6,8,34.3L200.4,165.8z"/>
	<circle class="st6" cx="202.9" cy="172.6" r="10.3"/>
	<path class="st6" d="M248.2,172.5c0,4.6-3.7,8.3-8.3,8.3c-4.6,0-8.3-3.7-8.3-8.3c0-4.6,3.7-8.3,8.3-8.3c0,0,0,0,0,0
		C244.5,164.2,248.2,167.9,248.2,172.5L248.2,172.5z"/>
	<circle class="st6" cx="204.8" cy="186.5" r="10.3"/>
	<circle class="st6" cx="216.3" cy="193" r="10.3"/>
	<path class="st7" d="M295.1,355l20.9,27.8l-5.8,4.6c0,0-8.4-1.7-11.3-12.8C297.1,368.2,295.9,361.6,295.1,355z"/>
	<path class="st8" d="M293.2,353.1c0,0-5.8,5.3-3.2,10c2.6,4.7,7,8.5,7.2,14.7c0.1,6.2,3.2,17.3,10.1,19c6.9,1.7,13.6-0.6,13.5-3.1
		c-0.1-2.4-4.7-11-4.7-11s-6.3,3.9-11,0.1s-5.7-19.7-5.7-19.7L293.2,353.1z"/>
	<path class="st9" d="M293.2,353.1c0,0-5.8,5.3-3.2,10c2.6,4.7,7,8.5,7.2,14.7c0.1,6.2,3.2,17.3,10.1,19c6.9,1.7,13.6-0.6,13.5-3.1
		c-0.1-2.4-4.7-11-4.7-11s-6.3,3.9-11,0.1s-5.7-19.7-5.7-19.7L293.2,353.1z"/>
	<path class="st8" d="M257.6,267.1c0,0,46.6,19.7,50.4,21.6s10.4,5.4,9.7,20.5c-0.7,15.1-4.5,52.8-4.5,52.8l-25.5-49.1l-66-31.4
		L257.6,267.1z"/>
	<path class="st10" d="M257.6,267.1c0,0,46.6,19.7,50.4,21.6s10.4,5.4,9.7,20.5c-0.7,15.1-4.5,52.8-4.5,52.8l-25.5-49.1l-66-31.4
		L257.6,267.1z"/>
	<path class="st8" d="M315.1,342.6c-1,10.7-1.9,19.4-1.9,19.4l-25.5-49.1l-47-22.3l10.7-8.4c15,7.6,36.9,18.5,43.4,21.8
		c8.3,4.2,10.9,16.3,18,33C313.4,338.8,314.2,340.7,315.1,342.6z"/>
	<path class="st11" d="M315.1,342.6c-1,10.7-1.9,19.4-1.9,19.4l-25.5-49.1l-47-22.3l10.7-8.4c15,7.6,36.9,18.5,43.4,21.8
		c8.3,4.2,10.9,16.3,18,33C313.4,338.8,314.2,340.7,315.1,342.6z"/>
	<polygon class="st8" points="253.7,277.1 248.9,284.4 252.7,285 	"/>
	<polygon class="st11" points="253.7,277.1 248.9,284.4 252.7,285 	"/>
	<path class="st8" d="M315.8,393.8c0,0-0.7,1.1-0.7,6.7s2.2,6.7,5,7.7c2.9,1,11,7,13.3,9.6c2.3,2.6,11.4,5.4,20.4,3.7
		c9-1.7,10.9-7.6,6.6-11.3s-16.7-10.8-16.7-10.8L315.8,393.8z"/>
	<path class="st8" d="M207.9,278.7l20-4.6c0,0,55.7,27.9,64,32.2s10.9,16.3,18,33c5.4,12.6,12.4,29.8,17,40.2c0,0-3.3,8.7-13.7,6.6
		l0,0c-3.5-7.7-9.8-14.6-18.9-26.9c-7.9-10.6-10.9-20-12.1-25.6c-0.7-3.4-3.3-6.1-6.7-6.9c-9.2-2.2-27.9-7.1-47.7-13.9
		C200,303.1,207.9,278.7,207.9,278.7z"/>
	<path class="st10" d="M207.9,278.7l20-4.6c0,0,55.7,27.9,64,32.2s10.9,16.3,18,33c5.4,12.6,12.4,29.8,17,40.2c0,0-3.3,8.7-13.7,6.6
		l0,0c-3.5-7.7-9.8-14.6-18.9-26.9c-7.9-10.6-10.9-20-12.1-25.6c-0.7-3.4-3.3-6.1-6.7-6.9c-9.2-2.2-27.9-7.1-47.7-13.9
		C200,303.1,207.9,278.7,207.9,278.7z"/>
	<path class="st7" d="M326.9,379.4c1.5,3.4,2.8,6.1,3.7,7.6c3.5,6.1,13.7,12.6,17.3,15.7c3.6,3.1,4.3,4.3,0.9,6.9
		c-8.6,6.7-16.2-0.6-21.1-5.3c-3.3-3-6.8-5.6-10.7-7.8c-0.6-0.3-1-0.9-1.1-1.5c-0.5-3.2-1.5-6.2-2.8-9.1l0,0
		C323.6,388.2,326.9,379.4,326.9,379.4z"/>
	<polygon class="st3" points="229.1,297.8 264.2,318 322.4,284.3 287.4,263.7 	"/>
	<polygon class="st1" points="260.4,292 273.6,284.4 265.3,279.6 252.2,287.2 	"/>
	<polygon class="st1" points="265.7,312.9 248,302.5 282.6,281.6 	"/>
	<path class="st7" d="M264.6,250.4l14,6.6c4.2,1.1,8.3,2.3,12.4,3.8c0,0,9.7,4,10.2,6.6c0.5,2.6-7.3,8.9-14.1,5.8
		c-1.8-0.9-3.7-1.6-5.7-2.1c-1.8-0.2-7.3-1.1-11.2-4.8l-11.4-3.1C258.9,263.3,253,252,264.6,250.4z"/>
	<path class="st7" d="M273.8,270c1.6,1.7,6.3,6.1,7.3,7.4c1,1.3,3.4-2-0.8-6.9c-3.6-1.3-7-3.2-10.1-5.5
		C271.2,266.8,272.4,268.4,273.8,270z"/>
	<path class="st7" d="M236,201.7L236,201.7c6.7-1.1,13.1,2.8,15.2,9.2c1.5,4.5,2.4,9.1,2.8,13.8c1.2,14.4,1.6,21.7,1.6,21.7
		l14.5,6.6c0,0-7.8,0.4-7.3,11.4l-18.1-4.6L236,201.7z"/>
	<path class="st8" d="M254.5,229.8c-0.1-1.6-0.3-3.3-0.4-5.1c-0.4-4.7-1.4-9.3-2.8-13.8c-2.1-6.4-8.6-10.3-15.2-9.2l5.3,35.2
		L254.5,229.8z"/>
	<path class="st9" d="M254.5,229.8c-0.1-1.6-0.3-3.3-0.4-5.1c-0.4-4.7-1.4-9.3-2.8-13.8c-2.1-6.4-8.6-10.3-15.2-9.2l5.3,35.2
		L254.5,229.8z"/>
	<path class="st12" d="M255.6,246.3c-1.6,0.5-3.1,1.4-4.3,2.6c0,0,1.7-3.3,4.2-4.3L255.6,246.3z"/>
	<path class="st8" d="M213.1,207.4l-10.2,4.3v29.8c3.2,7.6,4.9,15.8,5.1,24.1v14.8c0,0,20.8,7.4,36.9-0.6
		c7.8-3.9,12.6-12.8,12.6-12.8s-8.6-5.1-8.6-11.2c0.2-4.8,0.7-9.6,1.7-14.4c3.8-3.8,5.6-9.1,5-14.5c-1.1-9.9-19.7-25.3-19.7-25.3
		l-6.9,1L213.1,207.4z"/>
	<polygon class="st7" points="213.1,207.4 229,202.6 229,183.3 213.1,183.3 	"/>
	<path class="st12" d="M229,202.6c-6.6-2.4-11.9-7.5-14.7-14v-5.4H229V202.6z"/>
	<path class="st7" d="M232.8,157.1c0,0,14.6,0.9,12.8,25.8c-0.8,11.6-3.5,17.5-12.4,17.1c-10.1-0.5-24.4-7.4-23.5-27.2
		S232.8,157.1,232.8,157.1z"/>
	<path class="st6" d="M213.1,183.3c0,0,4,1.1,4-4.7c0,0,17.8-1.2,21.7-18.9c0,0-1.8-5.3-12.9-5.3s-20.5,9.8-17.6,23.3L213.1,183.3z"
		/>
	<polygon class="st12" points="234.9,177.9 234.9,186.5 239.9,185 	"/>
	<path class="st6" d="M227.3,178.8c0,1,0.8,1.7,1.7,1.7c1,0,1.7-0.8,1.7-1.7c0-1-0.8-1.7-1.7-1.7c0,0,0,0,0,0
		C228.1,177.1,227.3,177.9,227.3,178.8z"/>
	<path class="st6" d="M238.8,177.6c0,1,0.8,1.7,1.7,1.7c1,0,1.7-0.8,1.7-1.7c0-1-0.8-1.7-1.7-1.7c0,0,0,0,0,0
		C239.6,175.9,238.8,176.7,238.8,177.6z"/>
	<path class="st6" d="M242.7,174l-3.4-2c0,0,1.3-1.4,2.6-0.5C242.7,172,243,173,242.7,174z"/>
	<path class="st12" d="M234.4,189.4c-2,0.1-4-0.4-5.6-1.5c0,0-0.4,3,2.1,3.5C233.4,191.9,234.4,189.4,234.4,189.4z"/>
	<path class="st7" d="M214.5,183.9c0.1-1.5-0.2-2.9-0.8-4.2c-0.6-1.7-2.1-2.9-3.9-3c-4.5-0.1-5.1,4.2-5,5.7c0.2,4,3.4,8.4,9.5,8.6
		L214.5,183.9z"/>
	<path class="st7" d="M229,202.6l4.7,6.1c2,2.6,1.5,6.3-1.1,8.3c-0.3,0.2-0.6,0.4-0.9,0.6l0,0c-4.3,2.3-9.6,1.1-12.7-2.7l-6.1-7.6
		L229,202.6z"/>
	<path class="st7" d="M229.1,276.3l13.4,7.3c2-0.2,4.1-0.2,6.1,0c2.4,0.3,8.6,1.4,10.3,1.5c1.6,0.1,0.1,3.1-4.2,2.8
		c0,0,9.6,4.4,9.9,7c0.3,2.6-7.7,8.6-14.4,5.3c-1.7-1-3.6-1.8-5.6-2.3c-1.8-0.3-7.2-1.4-11-5.3l-11.2-3.6
		C222.5,289,217.5,277.4,229.1,276.3z"/>
	<path class="st7" d="M202.9,211.7c0,0,8.1,5.6,6.8,22.8c-0.8,10.5-0.8,20.9,0,31.4l19.5,10.3c-4.3,2.8-6.8,7.6-6.7,12.7
		c0,0-28-5.8-29.7-12.3c-1.7-6.5-2.3-37.7-2.3-43.2C190.5,228.1,192.8,216.1,202.9,211.7z"/>
	<path class="st8" d="M190.5,233.6c0,2.3,0.1,9.2,0.4,16.9c5.8,2.4,12.3,2.6,18.2,0.5l0,0c0-4.8,0.1-10.5,0.6-16.5
		c1.4-17.2-6.8-22.8-6.8-22.8C192.8,216.1,190.5,228.2,190.5,233.6z"/>
	<path class="st9" d="M190.5,233.6c0,2.3,0.1,9.2,0.4,16.9c5.8,2.4,12.3,2.6,18.2,0.5l0,0c0-4.8,0.1-10.5,0.6-16.5
		c1.4-17.2-6.8-22.8-6.8-22.8C192.8,216.1,190.5,228.2,190.5,233.6z"/>
	<path class="st12" d="M209.6,266c-2.1-0.1-4.3,0.3-6.3,1.1c1.8-1.4,3.9-2.3,6.1-2.7L209.6,266z"/>
	<path class="st2" d="M330.6,245.7l-6,39.9c0,0,0,0,0,0.1L264,320.7c0,0-0.1,0-0.1,0c0,0,0,0,0-0.1l5.9-38.7c0.3-1.7,1.2-3.1,2.7-4
		l55.4-34.1c0.8-0.5,1.9-0.2,2.5,0.6C330.5,244.8,330.6,245.3,330.6,245.7z"/>
	<path class="st1" d="M263.9,320.7L231.6,302c-1.5-0.9-2.4-2.5-2.5-4.3l0,0l35.1,20.2L263.9,320.7z"/>
	<path class="st1" d="M295.5,284.1c0,2.8,2,4,4.5,2.6c2.6-1.7,4.3-4.6,4.5-7.7c0-2.9-2-4-4.5-2.6C297.4,278.1,295.7,281,295.5,284.1
		z"/>
	<path class="st9" d="M236,243.6c0,0-12.2,3.3-18.7-5.9C217.3,237.8,221.5,249.6,236,243.6z"/>
	<path class="st6" d="M202.1,161.6c0,0-3-7.6-4.8-6.6s1.8,5.7,1.8,5.7s-6.1-2.4-6.6-1c-0.5,1.4,7.8,4.6,7.8,4.6L202.1,161.6z"/>
	<path class="st13" d="M227.1,322.2c-0.1,0-0.2-0.1-0.2-0.2l-5.4-3.1L227.1,322.2L227.1,322.2z"/>
	<path class="st6" d="M227.1,322.2L227.1,322.2l-5.5-3.2l-53.7-30.7c-1.5-0.8-2-2.7-1.1-4.2c0.2-0.4,0.6-0.8,1-1l3.5-2.3l-4.3-29.7
		c-0.6-4-3-7.6-6.5-9.7l-7.9-4.7c-1.2-0.7-2.7-0.3-3.4,0.8c-0.2,0.4-0.4,0.8-0.4,1.3V347c0,3.8,2.1,7.3,5.4,9.2l74.8,41.7
		c1.2,0.7,2.7,0.7,4,0.1l0,0l0.3-0.2c1.2-0.8,1.9-2.1,1.9-3.5v-58.4C234.9,330.2,231.9,325,227.1,322.2z"/>
	<path class="st4" d="M184.2,278.2c-3.1-1.8-6.9-1.7-9.9,0.3l-3.3,2.2l-3.5,2.3c-1.4,0.9-1.8,2.8-0.8,4.2c0.3,0.4,0.6,0.7,1,1
		l53.7,30.7l5.4,3.1l0.3,0.2c4.9,2.9,7.9,8.3,7.8,14v58c0,1.4-0.7,2.8-2,3.5l13.3-7.5c3.2-1.8,5.1-5.1,5.1-8.7v-56.2
		c0-5-2.7-9.7-7-12.2L184.2,278.2z"/>
	<path class="st5" d="M244.3,313.2l-60.1-35c-3.1-1.8-6.9-1.7-9.9,0.3l-3.3,2.2l-3.5,2.3c-1.4,0.9-1.8,2.8-0.8,4.2
		c0.3,0.4,0.6,0.7,1,1l53.7,30.7l5.4,3.1l0.3,0.2c2.6,1.5,4.7,3.8,6,6.5l16.2-10.4C248.1,316.2,246.4,314.5,244.3,313.2z"/>
</g>
<g id="freepik--side-table--inject-17">
	<polygon class="st8" points="202.8,349.7 202.8,420 151.5,390.4 151.5,320 	"/>
	<polygon class="st14" points="202.8,349.7 202.8,420 151.5,390.4 151.5,320 	"/>
	<polygon class="st8" points="206.8,347.4 206.8,417.8 202.8,420 202.8,349.7 	"/>
	<polygon class="st8" points="155.6,377 155.6,447.4 104.3,417.8 104.3,347.4 	"/>
	<polygon class="st14" points="155.6,377 155.6,447.4 104.3,417.8 104.3,347.4 	"/>
	<polygon class="st8" points="159.6,374.8 159.6,445.1 155.6,447.4 155.6,377 	"/>
	<polygon class="st8" points="155.6,382.6 206.8,353 206.8,347.4 155.6,377 	"/>
	<polygon class="st8" points="155.6,447.4 206.8,417.8 206.8,377.3 155.6,407 	"/>
	<polygon class="st8" points="155.6,377 206.8,347.4 155.6,317.8 104.3,347.4 	"/>
	<polygon class="st9" points="155.6,377 206.8,347.4 155.6,317.8 104.3,347.4 	"/>
	<polygon class="st8" points="159.6,405.7 202.8,380.7 202.8,355.3 159.6,380.3 	"/>
	<polygon class="st15" points="159.6,405.7 202.8,380.7 202.8,355.3 159.6,380.3 	"/>
	<path class="st16" d="M180.8,378.4c0,1.7,1.4,3.1,3.1,3.1s3.1-1.4,3.1-3.1c0-1.7-1.4-3.1-3.1-3.1S180.8,376.7,180.8,378.4
		L180.8,378.4z"/>
	<polygon class="st8" points="159.6,437.3 202.8,412.4 202.8,386.9 159.6,411.9 	"/>
	<polygon class="st15" points="159.6,437.3 202.8,412.4 202.8,386.9 159.6,411.9 	"/>
	<path class="st16" d="M180.8,410c0,1.7,1.4,3.1,3.1,3.1s3.1-1.4,3.1-3.1c0-1.7-1.4-3.1-3.1-3.1S180.8,408.3,180.8,410L180.8,410z"
		/>
</g>
<g id="freepik--Lamp--inject-17">
	<path class="st6" d="M142.1,342.6c0.7-1.3,1.8-2.3,3.1-3c4.9-2.8,12.8-2.8,17.6,0c1.3,0.7,2.4,1.7,3.1,3h0.5v2.1l0,0
		c0,1.8-1.2,3.7-3.7,5.1c-4.9,2.8-12.8,2.8-17.6,0c-2.4-1.4-3.7-3.2-3.7-5.1l0,0v-2.1H142.1z"/>
	<path class="st5" d="M145.2,347.7c4.9,2.8,12.8,2.8,17.6,0c4.9-2.8,4.9-7.4,0-10.2c-4.9-2.8-12.8-2.8-17.6,0
		C140.4,340.3,140.4,344.9,145.2,347.7z"/>
	<path class="st6" d="M154.3,342.6h-0.5c-1.3,0-2.4-1.1-2.4-2.4l0,0v-57.2l0,0h5.4l0,0v57.2C156.7,341.5,155.6,342.6,154.3,342.6
		L154.3,342.6L154.3,342.6z"/>
	<path class="st8" d="M129.9,305.5L129.9,305.5c0.1-0.3,0.2-0.6,0.3-0.9l7.6-24.3h32.5l7.6,24.3c0.1,0.3,0.2,0.6,0.3,0.9l0,0
		c1.1,4.3-1.2,8.7-6.9,12c-9.5,5.5-25,5.5-34.6,0C131.1,314.3,128.8,309.8,129.9,305.5z"/>
	<path class="st17" d="M129.9,305.5L129.9,305.5c0.1-0.3,0.2-0.6,0.3-0.9l7.6-24.3h32.5l7.6,24.3c0.1,0.3,0.2,0.6,0.3,0.9l0,0
		c1.1,4.3-1.2,8.7-6.9,12c-9.5,5.5-25,5.5-34.6,0C131.1,314.3,128.8,309.8,129.9,305.5z"/>
	<ellipse class="st8" cx="154" cy="281.7" rx="16.4" ry="9.5"/>
	<path class="st8" d="M154,272.2v1.9c3.7-0.1,7.4,0.8,10.7,2.5c2.5,1.4,3.8,3.2,3.8,5s-1.4,3.6-3.8,5c-6.7,3.4-14.6,3.4-21.3,0
		c-2.5-1.4-3.8-3.2-3.8-5s1.4-3.6,3.8-5c3.3-1.7,6.9-2.6,10.6-2.5V272.2 M154,272.2c-4-0.1-8,0.9-11.6,2.8c-6.4,3.7-6.4,9.7,0,13.4
		c7.3,3.7,15.9,3.7,23.2,0c6.4-3.7,6.4-9.7,0-13.4C162.1,273.1,158.1,272.1,154,272.2z"/>
	<path class="st18" d="M154,272.2v1.9c3.7-0.1,7.4,0.8,10.7,2.5c2.5,1.4,3.8,3.2,3.8,5s-1.4,3.6-3.8,5c-6.7,3.4-14.6,3.4-21.3,0
		c-2.5-1.4-3.8-3.2-3.8-5s1.4-3.6,3.8-5c3.3-1.7,6.9-2.6,10.6-2.5V272.2 M154,272.2c-4-0.1-8,0.9-11.6,2.8c-6.4,3.7-6.4,9.7,0,13.4
		c7.3,3.7,15.9,3.7,23.2,0c6.4-3.7,6.4-9.7,0-13.4C162.1,273.1,158.1,272.1,154,272.2z"/>
</g>
<g id="freepik--Screens--inject-17">
	<path class="st8" d="M470.7,123.1L326.1,39.7c-1.7-1-3.2-0.9-4.2,0l-5,3.4l3.4,4.2V164c0,4.3,2.6,9.2,5.8,11.1l143.1,82.6l0.3,4.5
		l5.3-3.6c1.2-1.2,1.9-2.8,1.7-4.5V134.2C476.5,129.9,473.9,125,470.7,123.1z"/>
	<path class="st19" d="M470.7,123.1L326.1,39.7c-1.7-1-3.2-0.9-4.2,0l-5,3.4l3.4,4.2V164c0,4.3,2.6,9.2,5.8,11.1l143.1,82.6l0.3,4.5
		l5.3-3.6c1.2-1.2,1.9-2.8,1.7-4.5V134.2C476.5,129.9,473.9,125,470.7,123.1z"/>
	<path class="st8" d="M465.8,261.8l-144.6-83.5c-3.2-1.8-5.8-6.8-5.8-11.1V47.4c0-4.3,2.6-6.2,5.8-4.3l144.6,83.5
		c3.2,1.9,5.8,6.8,5.8,11.1v119.9C471.6,261.7,469,263.7,465.8,261.8z"/>
	<polygon class="st8" points="438.8,246.3 448.9,252.1 377.2,75.4 377.2,75.4 365.9,68.8 	"/>
	<polygon class="st18" points="438.8,246.3 448.9,252.1 377.2,75.4 377.2,75.4 365.9,68.8 	"/>
	<polygon class="st8" points="461.5,259.4 465,261.3 393.3,84.6 393.3,84.6 388.6,82 	"/>
	<polygon class="st18" points="461.5,259.4 465,261.3 393.3,84.6 393.3,84.6 388.6,82 	"/>
	<path class="st4" d="M335.1,67.9c0,2.5-1.7,3.4-3.9,2.2c-2.3-1.5-3.7-3.9-3.8-6.6c0-2.5,1.7-3.5,3.8-2.2
		C333.5,62.7,334.9,65.2,335.1,67.9z"/>
	<path class="st4" d="M358.7,81.5c-0.2,0-0.3,0-0.5-0.1l-18.4-10.7c-0.5-0.3-0.6-0.9-0.4-1.3c0.3-0.5,0.9-0.6,1.3-0.4l0,0l18.4,10.7
		c0.5,0.3,0.6,0.9,0.4,1.3c0,0,0,0,0,0C359.3,81.3,359,81.5,358.7,81.5z"/>
	<path class="st4" d="M459.5,234.7c-0.2,0-0.5-0.1-0.7-0.2l-132.2-76.3c-0.7-0.4-0.9-1.2-0.5-1.9c0.4-0.7,1.2-0.9,1.9-0.5
		l132.2,76.3c0.7,0.4,0.9,1.2,0.5,1.9C460.5,234.5,460.1,234.7,459.5,234.7L459.5,234.7z"/>
	<path class="st4" d="M459.5,135.9c-0.1,0-0.2,0-0.4-0.1l-3.6-2.1c-0.3-0.2-0.5-0.6-0.3-1c0,0,0,0,0,0c0.2-0.3,0.6-0.5,1-0.3
		c0,0,0,0,0,0l3.5,2c0.4,0.2,0.5,0.6,0.4,1C460.1,135.7,459.9,135.9,459.5,135.9z"/>
	<path class="st4" d="M459.5,138.5c-0.1,0-0.2,0-0.4-0.1l-3.5-2c-0.3-0.2-0.5-0.6-0.3-1c0,0,0,0,0,0c0.2-0.3,0.6-0.5,1-0.3
		c0,0,0,0,0,0l3.5,2c0.4,0.2,0.5,0.6,0.3,1C460.1,138.3,459.8,138.5,459.5,138.5L459.5,138.5z"/>
	<path class="st4" d="M459.5,141.1c-0.1,0-0.2,0-0.4-0.1l-3.5-2c-0.3-0.2-0.5-0.6-0.3-1c0,0,0,0,0,0c0.2-0.3,0.6-0.5,1-0.3
		c0,0,0,0,0,0l3.5,2c0.4,0.2,0.5,0.6,0.3,1C460.1,140.9,459.8,141.1,459.5,141.1L459.5,141.1z"/>
	<path class="st2" d="M379.7,128.2v20.1c0,0.7,0.6,1.3,1.4,1.3c0,0,0.1,0,0.1,0l18.2-2.2c0.7-0.1,1.3-0.8,1.2-1.5
		c0-0.3-0.2-0.6-0.4-0.8L382,127.2c-0.5-0.5-1.4-0.5-1.9,0C379.9,127.5,379.7,127.8,379.7,128.2z"/>
	<path class="st3" d="M383.6,187.9l-55.5-32.1c-0.7-0.4-1.5-0.2-1.9,0.5c-0.4,0.7-0.2,1.5,0.5,1.9l56.9,32.9V187.9z"/>
	<path class="st2" d="M387.4,191.4c0,2.5-1.7,3.4-3.8,2.2c-2.3-1.5-3.7-4-3.8-6.7c0-2.5,1.7-3.4,3.8-2.2
		C385.9,186.2,387.3,188.7,387.4,191.4z"/>
	<path class="st2" d="M338.3,172.6v5.3c0,0.2,0.2,0.4,0.4,0.3c0,0,0,0,0,0l4.8-0.6c0.2,0,0.3-0.2,0.3-0.4c0-0.1,0-0.1-0.1-0.2
		l-4.8-4.7c-0.1-0.1-0.4-0.1-0.5,0C338.4,172.4,338.3,172.5,338.3,172.6z"/>
	<path class="st2" d="M350.1,179.8v5.3c0,0.2,0.2,0.4,0.4,0.3c0,0,0,0,0,0l4.8-0.6c0.2,0,0.3-0.2,0.3-0.4c0-0.1,0-0.1-0.1-0.2
		l-4.8-4.7c-0.1-0.1-0.4-0.1-0.5,0C350.2,179.6,350.1,179.7,350.1,179.8z"/>
	<path class="st2" d="M355.6,188.4c-0.2,0-0.4-0.2-0.4-0.4c0,0,0,0,0,0v-5.9c0-0.2,0.2-0.4,0.4-0.4c0.2,0,0.4,0.2,0.4,0.4v5.9
		C356.1,188.2,355.9,188.4,355.6,188.4C355.6,188.4,355.6,188.4,355.6,188.4z"/>
	<path class="st2" d="M331.9,173.3V168c0-0.2-0.2-0.4-0.4-0.4c0,0,0,0,0,0l-4.8,0.6c-0.2,0-0.3,0.2-0.3,0.4c0,0.1,0,0.1,0.1,0.2
		l4.8,4.7c0.1,0.1,0.4,0.2,0.5,0C331.9,173.5,331.9,173.4,331.9,173.3z"/>
	<path class="st2" d="M326.4,171.4c-0.2,0-0.4-0.2-0.4-0.4V165c0-0.2,0.2-0.4,0.4-0.4c0.2,0,0.4,0.2,0.4,0.4c0,0,0,0,0,0v5.9
		C326.8,171.1,326.7,171.4,326.4,171.4C326.4,171.4,326.4,171.4,326.4,171.4z"/>
	<path class="st2" d="M454.4,240.2c-0.3,0-0.5-0.2-0.5-0.5c0,0,0,0,0,0v-2.2c0-0.3,0.2-0.5,0.5-0.5c0.1,0,0.2,0,0.2,0.1l1.8,1.1
		c0.2,0.1,0.3,0.4,0.2,0.7c-0.1,0.2-0.4,0.3-0.7,0.2l-1.1-0.6v1.3C454.8,240,454.6,240.2,454.4,240.2z"/>
	<path class="st2" d="M456.2,245.6c-0.1,0-0.2,0-0.2-0.1l-1.8-1.1c-0.2-0.1-0.2-0.2-0.2-0.4v-1.9c0-0.3,0.2-0.5,0.5-0.5
		c0.3,0,0.5,0.2,0.5,0.5c0,0,0,0,0,0v1.7l1.6,0.9c0.2,0.1,0.3,0.4,0.2,0.7C456.5,245.5,456.4,245.6,456.2,245.6z"/>
	<path class="st2" d="M460,247.8c-0.1,0-0.2,0-0.2-0.1l-1.9-1.1c-0.2-0.1-0.3-0.4-0.2-0.7c0.1-0.2,0.4-0.3,0.7-0.2l1.1,0.7v-1.1
		c0-0.3,0.2-0.5,0.5-0.5l0,0c0.3,0,0.5,0.2,0.5,0.5c0,0,0,0,0,0v1.9c0,0.2-0.1,0.3-0.2,0.4C460.2,247.8,460.1,247.8,460,247.8z"/>
	<path class="st2" d="M460,243.4c-0.3,0-0.5-0.2-0.5-0.5c0,0,0,0,0,0v-1.8l-1.1-0.6c-0.2-0.1-0.3-0.4-0.2-0.7
		c0.1-0.2,0.4-0.3,0.7-0.2l0,0l1.4,0.8c0.2,0.1,0.2,0.2,0.2,0.4v2.2C460.5,243.3,460.3,243.5,460,243.4
		C460,243.4,460,243.4,460,243.4z"/>
	<path class="st2" d="M447.5,240.6c-0.1,0-0.2,0-0.2-0.1l-6.9-4c-0.1-0.1-0.2-0.2-0.2-0.4v-6.5c0-0.2,0.1-0.3,0.2-0.4
		c0.2-0.1,0.3-0.1,0.5,0l6.9,4c0.2,0.1,0.2,0.2,0.2,0.4v6.5C448,240.4,447.8,240.6,447.5,240.6z M441.1,235.9l5.9,3.4v-5.4l-5.8-3.4
		L441.1,235.9z"/>
	<path class="st8" d="M306.2,27.6L263.9,3.4c-0.6-0.5-1.5-0.5-2.2,0l-2.6,1.8l1.7,2.2v31.2c0,2.3,1.1,4.4,3,5.7L305.4,68l0.1,2.3
		l2.7-1.8c0.6-0.6,1-1.4,0.9-2.3V33.3C309.1,31,308,28.9,306.2,27.6z"/>
	<path class="st19" d="M306.2,27.6L263.9,3.4c-0.6-0.5-1.5-0.5-2.2,0l-2.6,1.8l1.7,2.2v31.2c0,2.3,1.1,4.4,3,5.7L305.4,68l0.1,2.3
		l2.7-1.8c0.6-0.6,1-1.4,0.9-2.3V33.3C309.1,31,308,28.9,306.2,27.6z"/>
	<path class="st8" d="M303.6,70.1l-42.2-24.2c-1.8-1.3-2.9-3.4-3-5.7V7.3c0-2.2,1.3-3.2,3-2.2l42.2,24.2c1.8,1.3,2.9,3.4,3,5.7v32.8
		C306.6,70,305.3,71.1,303.6,70.1z"/>
	<path class="st4" d="M268.5,17.8c0,1.3-0.9,1.8-2,1.1c-1.2-0.8-1.9-2-2-3.4c0-1.3,0.9-1.8,2-1.1C267.7,15.1,268.4,16.4,268.5,17.8z
		"/>
	<path class="st4" d="M280.6,24.7c-0.1,0-0.2,0-0.2-0.1l-9.4-5.5c-0.3-0.1-0.4-0.4-0.3-0.7c0.1-0.3,0.4-0.4,0.7-0.3
		c0,0,0.1,0,0.1,0.1l9.4,5.4c0.2,0.1,0.3,0.4,0.2,0.7C280.9,24.6,280.7,24.7,280.6,24.7z"/>
	<path class="st2" d="M277.2,32.5v10.3c0,0.4,0.3,0.7,0.7,0.7c0,0,0,0,0.1,0l9.3-1.1c0.4,0,0.7-0.4,0.6-0.8c0-0.2-0.1-0.3-0.2-0.4
		l-9.3-9.2c-0.3-0.3-0.7-0.3-1,0C277.2,32.1,277.2,32.3,277.2,32.5z"/>
	<path class="st8" d="M306.2,78.7l-42.2-24.2c-0.6-0.5-1.5-0.5-2.2,0l-2.5,1.8l1.7,2.2v31.2c0,2.3,1.1,4.4,3,5.7l41.5,23.8l0.1,2.3
		l2.7-1.8c0.6-0.6,1-1.4,0.9-2.3V84.3C309.1,82.1,308,80,306.2,78.7z"/>
	<path class="st19" d="M306.2,78.7l-42.2-24.2c-0.6-0.5-1.5-0.5-2.2,0l-2.5,1.8l1.7,2.2v31.2c0,2.3,1.1,4.4,3,5.7l41.5,23.8l0.1,2.3
		l2.7-1.8c0.6-0.6,1-1.4,0.9-2.3V84.3C309.1,82.1,308,80,306.2,78.7z"/>
	<path class="st8" d="M303.6,121.2L261.4,97c-1.8-1.3-2.9-3.4-3-5.7V58.4c0-2.2,1.3-3.2,3-2.2l42.2,24.2c1.8,1.3,2.9,3.4,3,5.7V119
		C306.6,121.1,305.3,122.2,303.6,121.2z"/>
	<path class="st4" d="M268.5,68.9c0,1.3-0.9,1.8-2,1.1c-1.2-0.8-1.9-2-2-3.4c0-1.3,0.9-1.8,2-1.1C267.7,66.3,268.4,67.5,268.5,68.9z
		"/>
	<path class="st4" d="M280.6,75.8c-0.1,0-0.2,0-0.2-0.1l-9.4-5.5c-0.3-0.1-0.4-0.4-0.3-0.7c0.1-0.3,0.4-0.4,0.7-0.3
		c0,0,0.1,0,0.1,0.1l9.4,5.4c0.2,0.1,0.3,0.4,0.2,0.7C280.9,75.7,280.7,75.8,280.6,75.8z"/>
	<path class="st2" d="M286.4,84l-8.9,1.8l-0.3,7.9c-0.9-0.4-2-0.1-2.4,0.8c-0.4,0.9-0.1,2,0.8,2.4c0.9,0.4,2,0.1,2.4-0.8
		c0.1-0.3,0.2-0.5,0.2-0.8l0,0l0.5-7.2l6.5-1.5l0.1,6.9c-0.9-0.4-2,0-2.4,0.9c-0.4,0.9,0,2,0.9,2.4c0.5,0.2,1.1,0.2,1.6-0.1
		c0.6-0.3,0.9-0.9,1-1.5l0,0L286.4,84z"/>
</g>
</svg>
