<?xml version="1.0" encoding="utf-8"?>
<!-- Generator: Adobe Illustrator 24.1.1, SVG Export Plug-In . SVG Version: 6.00 Build 0)  -->
<svg version="1.1" xmlns="http://www.w3.org/2000/svg" xmlns:xlink="http://www.w3.org/1999/xlink" x="0px" y="0px"
	 viewBox="0 0 500 500" style="enable-background:new 0 0 500 500;" xml:space="preserve">
<g id="Background_Complete">
	<g style="display:none;">
		<rect x="443.86" y="416.14" style="display:inline;fill:#EBEBEB;" width="38.03" height="0.28"/>
		<rect x="335.64" y="419.24" style="display:inline;fill:#EBEBEB;" width="9.98" height="0.28"/>
		<rect x="420.67" y="405.56" style="display:inline;fill:#EBEBEB;" width="22.04" height="0.28"/>
		<rect x="25.55" y="407.47" style="display:inline;fill:#EBEBEB;" width="49.59" height="0.28"/>
		<rect x="85.37" y="407.47" style="display:inline;fill:#EBEBEB;" width="7.27" height="0.28"/>
		<rect x="116.27" y="412.29" style="display:inline;fill:#EBEBEB;" width="107.56" height="0.28"/>
		<path style="display:inline;fill:#EBEBEB;" d="M237.46,346.96H15.74c-3.61,0-6.55-2.92-6.55-6.51V31.07
			c0-3.59,2.94-6.51,6.55-6.51h221.71c3.61,0,6.55,2.92,6.55,6.51v309.39C244.01,344.04,241.07,346.96,237.46,346.96z M15.74,24.85
			c-3.46,0-6.27,2.79-6.27,6.22v309.39c0,3.43,2.81,6.22,6.27,6.22h221.71c3.45,0,6.27-2.79,6.27-6.22V31.07
			c0-3.43-2.81-6.22-6.27-6.22H15.74z"/>
		<path style="display:inline;fill:#EBEBEB;" d="M485.8,346.96H264.09c-3.61,0-6.55-2.92-6.55-6.51V31.07
			c0-3.59,2.94-6.51,6.55-6.51H485.8c3.61,0,6.55,2.92,6.55,6.51v309.39C492.35,344.04,489.41,346.96,485.8,346.96z M264.09,24.85
			c-3.45,0-6.27,2.79-6.27,6.22v309.39c0,3.43,2.81,6.22,6.27,6.22H485.8c3.46,0,6.27-2.79,6.27-6.22V31.07
			c0-3.43-2.81-6.22-6.27-6.22H264.09z"/>
		<rect x="-34.68" y="397.8" style="display:inline;fill:#EBEBEB;" width="574.09" height="0.28"/>
	</g>
	<g>
		<g>
			<rect x="300.54" y="69.83" style="fill:#EBEBEB;" width="143.28" height="151.47"/>
			<rect x="309.15" y="78.38" style="fill:#F5F5F5;" width="126.05" height="134.38"/>
			<g>
				<polygon style="fill:#FAFAFA;" points="358.63,212.76 396.52,212.76 432.09,78.38 394.2,78.38 				"/>
				<polygon style="fill:#FAFAFA;" points="376.6,78.38 341.02,212.76 350.21,212.76 385.78,78.38 				"/>
			</g>
			<g>
				<polygon style="fill:#F5F5F5;" points="445.63,76.96 298.72,76.96 295.62,69.78 448.73,69.78 				"/>
				<polygon style="fill:#F0F0F0;" points="445.63,81.12 298.72,81.12 295.62,73.94 448.73,73.94 				"/>
				<polygon style="fill:#E6E6E6;" points="445.63,85.28 298.72,85.28 295.62,78.1 448.73,78.1 				"/>
				<polygon style="fill:#E0E0E0;" points="445.63,89.44 298.72,89.44 295.62,82.26 448.73,82.26 				"/>
				<rect x="290.28" y="60.79" style="fill:#E0E0E0;" width="163.79" height="9.58"/>
				<path style="fill:#E0E0E0;" d="M291.97,157.17L291.97,157.17c-0.92,0-1.67-0.74-1.67-1.65V99.67c0-0.91,0.75-1.65,1.67-1.65l0,0
					c0.92,0,1.67,0.74,1.67,1.65v55.84C293.63,156.43,292.89,157.17,291.97,157.17z"/>
				<rect x="291.36" y="68.44" style="fill:#E0E0E0;" width="1.21" height="33.17"/>
			</g>
		</g>
		<g>
			<g>
				<rect x="67.19" y="66.9" style="fill:#E0E0E0;" width="2.07" height="159.99"/>
				<rect x="195.85" y="66.9" style="fill:#E0E0E0;" width="2.07" height="159.99"/>
			</g>
			<polygon style="fill:#F5F5F5;" points="206.01,76.96 59.1,76.96 56,69.78 209.11,69.78 			"/>
			<polygon style="fill:#F5F5F5;" points="206.01,86.82 59.1,86.82 56,79.64 209.11,79.64 			"/>
			<polygon style="fill:#F5F5F5;" points="206.01,96.68 59.1,96.68 56,89.5 209.11,89.5 			"/>
			<polygon style="fill:#F5F5F5;" points="206.01,106.54 59.1,106.54 56,99.36 209.11,99.36 			"/>
			<polygon style="fill:#F5F5F5;" points="206.01,116.4 59.1,116.4 56,109.22 209.11,109.22 			"/>
			<polygon style="fill:#F5F5F5;" points="206.01,126.26 59.1,126.26 56,119.07 209.11,119.07 			"/>
			<polygon style="fill:#F5F5F5;" points="206.01,136.11 59.1,136.11 56,128.93 209.11,128.93 			"/>
			<polygon style="fill:#F5F5F5;" points="206.01,145.97 59.1,145.97 56,138.79 209.11,138.79 			"/>
			<polygon style="fill:#F5F5F5;" points="206.01,155.83 59.1,155.83 56,148.65 209.11,148.65 			"/>
			<polygon style="fill:#F5F5F5;" points="206.01,165.69 59.1,165.69 56,158.51 209.11,158.51 			"/>
			<polygon style="fill:#F5F5F5;" points="206.01,175.55 59.1,175.55 56,168.37 209.11,168.37 			"/>
			<polygon style="fill:#F5F5F5;" points="206.01,185.41 59.1,185.41 56,178.23 209.11,178.23 			"/>
			<polygon style="fill:#F5F5F5;" points="206.01,195.27 59.1,195.27 56,188.09 209.11,188.09 			"/>
			<polygon style="fill:#F5F5F5;" points="206.01,205.13 59.1,205.13 56,197.95 209.11,197.95 			"/>
			<polygon style="fill:#F5F5F5;" points="206.01,214.99 59.1,214.99 56,207.8 209.11,207.8 			"/>
			<polygon style="fill:#F5F5F5;" points="206.01,224.84 59.1,224.84 56,217.66 209.11,217.66 			"/>
			<rect x="56" y="224.84" style="fill:#E0E0E0;" width="153.11" height="4.1"/>
			<rect x="50.66" y="60.79" style="fill:#E0E0E0;" width="163.79" height="9.58"/>
			<path style="fill:#E0E0E0;" d="M52.34,157.17L52.34,157.17c-0.92,0-1.67-0.74-1.67-1.65V99.67c0-0.91,0.75-1.65,1.67-1.65l0,0
				c0.92,0,1.67,0.74,1.67,1.65v55.84C54.01,156.43,53.26,157.17,52.34,157.17z"/>
			<rect x="51.74" y="68.44" style="fill:#E0E0E0;" width="1.21" height="33.17"/>
		</g>
	</g>
	<g>
		<g>
			<path style="fill:#EBEBEB;" d="M67.87,329.38c-0.14,0.16,0.63,1.23-2.51,0.76c-7.75-1.16-21.24-4.27-25-12.19
				C35,306.65,51.63,310.78,51.06,305c-0.57-5.78-19.5-4.77-21.51-13.24c-2.01-8.47,10.83-4.44,11-8.57
				c0.17-4.13-14.62-1.57-17.55-10.71c-2.94-9.14,8.24-2.41,6.96-6.21c-1.28-3.8-13.8-20.99-6.99-22.99
				c6.81-2,18.28,15.65,22.7,18.14c4.43,2.5,8.36-11.9,13.63-5.82c5.27,6.08-3.09,27.35,3.64,31.48c5.01,3.07,3.6-5.39,10.21-3.81
				C82.13,285.42,79.1,316.91,67.87,329.38z"/>
			<path style="fill:#F5F5F5;" d="M43.96,283.24c3.05,0.25,5.3,0.87,6.7,1.37c-2.73-3.97-4.69-6.01-4.76-6.08
				c-0.22-0.22-0.22-0.58,0.01-0.81c0.23-0.22,0.59-0.22,0.81,0.01c0.05,0.05,4.58,4.69,9.54,13.74
				c2.44-14.58-3.71-27.32-3.78-27.45c-0.1-0.21-0.02-0.47,0.2-0.57c0.21-0.11,0.47-0.02,0.58,0.2c0.07,0.14,6.63,13.73,3.66,29.03
				c0.79,1.5,1.59,3.1,2.38,4.83c2.28,4.98,4.66,11.36,6.55,19.05c1.31-2.35,4.31-8.63,4.57-17.4c0.01-0.24,0.21-0.42,0.44-0.41
				c0.24,0.02,0.42,0.2,0.42,0.44c-0.31,10.15-4.23,17.09-5.14,18.57c2.49,10.67,3.99,23.8,2.91,39.27
				c-0.02,0.31-0.3,0.55-0.61,0.53c-0.02,0-0.05,0-0.07-0.01c-0.28-0.05-0.48-0.31-0.46-0.6c1.42-20.48-1.66-36.95-5.93-49.42
				c-1.08-1.24-4.29-4.44-9.16-5.19c-0.22-0.05-0.4-0.26-0.36-0.49c0.04-0.23,0.26-0.39,0.49-0.36c3.85,0.61,6.68,2.59,8.36,4.12
				c-3.15-8.66-6.82-15.25-9.79-19.75c-0.96-0.43-3.57-1.44-7.61-1.77c-0.23-0.03-0.41-0.23-0.39-0.46
				C43.51,283.4,43.72,283.22,43.96,283.24z"/>
		</g>
		<g>
			<g>
				<path style="fill:#E0E0E0;" d="M77.8,333.75c6.44,0.12,17.44-5.81,21.75-11.59c4.38-5.86-7.94-2.22-6.68-6.83
					c1.27-4.6,16.46-1.2,19.26-7.79c2.8-6.59-8.16-5.08-7.72-8.44c0.43-3.37,11.79-2.68,15.44-9.69c3.65-7.01-6.34-3.08-4.78-5.98
					c1.57-2.9,14.09-15.13,8.85-17.67c-5.24-2.55-16.98,10.18-20.91,11.6c-3.93,1.42-4.85-7.37-9.97-3.17
					c-5.12,4.21-1.29,22.58-7.31,25.01c-4.49,1.81-2.58-6.61-7.74-4.49C68.95,298.43,75.19,333.7,77.8,333.75z"/>
				<g style="opacity:0.3;">
					<path style="fill:#E0E0E0;" d="M77.8,333.75c6.44,0.12,17.44-5.81,21.75-11.59c4.38-5.86-7.94-2.22-6.68-6.83
						c1.27-4.6,16.46-1.2,19.26-7.79c2.8-6.59-8.16-5.08-7.72-8.44c0.43-3.37,11.79-2.68,15.44-9.69c3.65-7.01-6.34-3.08-4.78-5.98
						c1.57-2.9,14.09-15.13,8.85-17.67c-5.24-2.55-16.98,10.18-20.91,11.6c-3.93,1.42-4.85-7.37-9.97-3.17
						c-5.12,4.21-1.29,22.58-7.31,25.01c-4.49,1.81-2.58-6.61-7.74-4.49C68.95,298.43,75.19,333.7,77.8,333.75z"/>
				</g>
			</g>
			<path style="fill:#F5F5F5;" d="M79.93,326.08c-0.09-0.04-0.18-0.09-0.23-0.19c-0.15-0.28-3.68-7.06-2.89-17.14
				c0.02-0.23,0.22-0.41,0.46-0.39c0.24,0.02,0.41,0.22,0.4,0.46c-0.67,8.51,1.89,14.73,2.61,16.29c2.88-7.77,6.34-14.68,9.81-20.59
				c-1.14-13.73,5.95-24.96,6.02-25.08c0.13-0.2,0.39-0.26,0.59-0.13c0.2,0.13,0.26,0.39,0.13,0.59
				c-0.07,0.11-6.58,10.44-5.97,23.29c8.25-13.72,16.31-21.69,16.47-21.85c0.23-0.22,0.59-0.22,0.81,0.01
				c0.22,0.22,0.22,0.59-0.01,0.81c-0.14,0.13-5.86,5.81-12.57,15.77c3.93-1.45,8.19-2.2,12.17-2.13c0.24,0,0.43,0.2,0.42,0.44
				c0,0.23-0.2,0.42-0.43,0.42c0,0-0.01,0-0.01,0c-4.26-0.08-8.85,0.81-12.98,2.51c-2.31,3.51-4.7,7.52-7.01,11.96
				c2.21-1.49,6.51-3.54,12.01-2.1c0.23,0.06,0.37,0.29,0.31,0.52c-0.06,0.23-0.3,0.37-0.53,0.3c-6.98-1.83-11.89,2.31-12.7,3.05
				c-6.31,12.62-11.76,28.58-12.48,46.86c-0.01,0.31-0.27,0.55-0.57,0.55c-0.01,0-0.02,0-0.02,0c-0.32-0.01-0.56-0.28-0.55-0.59
				C73.69,347.35,76.33,336.04,79.93,326.08z"/>
		</g>
		<path style="fill:#F0F0F0;" d="M59.69,396.18c-6.15-11.47-10.18-28.05-10.18-35.31c0-6.14,2.9-11.65,7.5-15.51h31.47
			c4.6,3.86,7.5,9.37,7.5,15.51c0,7.27-4.04,23.84-10.18,35.31H59.69z"/>
	</g>
</g>
<g id="Background_Simple">
	<g>
		<path style="fill:#407BFF;" d="M223.37,181.62c-16.75,7.14-53.26-12.19-70.93-16.59c-44.59-11.1-96.45,7.63-92.04,69.99
			c6.02,85.25,131.88,178.94,263.45,134.09c66.46-22.66,120.88-85.99,120.75-161.96C444.36,69.1,313.47,64.42,272.34,99.04
			C233.82,131.46,245.45,172.21,223.37,181.62z"/>
		<path style="opacity:0.9;fill:#FFFFFF;" d="M223.37,181.62c-16.75,7.14-53.26-12.19-70.93-16.59
			c-44.59-11.1-96.45,7.63-92.04,69.99c6.02,85.25,131.88,178.94,263.45,134.09c66.46-22.66,120.88-85.99,120.75-161.96
			C444.36,69.1,313.47,64.42,272.34,99.04C233.82,131.46,245.45,172.21,223.37,181.62z"/>
	</g>
</g>
<g id="Shadow">
	<ellipse id="_x3C_Path_x3E__2_" style="fill:#F5F5F5;" cx="246.83" cy="431.98" rx="222.62" ry="12.91"/>
</g>
<g id="Screen">
	<g>
		<g>
			<path style="fill:#407BFF;" d="M301.34,98.3H273.8c-1.8,0-3.44,1.33-3.83,3.11l-0.19,0.86c-0.94,4.34-4.94,7.59-9.35,7.59h-26.18
				c-4.4,0-7.84-3.25-8.01-7.59l-0.03-0.86c-0.07-1.78-1.48-3.11-3.28-3.11H195.4c-9.18,0-17.28,7.39-18.08,16.51l-22.15,251.38
				c-0.8,9.12,5.99,16.51,15.17,16.51h105.94c9.18,0,17.28-7.39,18.08-16.51l22.15-251.38C317.32,105.69,310.52,98.3,301.34,98.3z"
				/>
			<path style="opacity:0.7;fill:#FFFFFF;" d="M301.34,98.3H273.8c-1.8,0-3.44,1.33-3.83,3.11l-0.19,0.86
				c-0.94,4.34-4.94,7.59-9.35,7.59h-26.18c-4.4,0-7.84-3.25-8.01-7.59l-0.03-0.86c-0.07-1.78-1.48-3.11-3.28-3.11H195.4
				c-9.18,0-17.28,7.39-18.08,16.51l-22.15,251.38c-0.8,9.12,5.99,16.51,15.17,16.51h105.94c9.18,0,17.28-7.39,18.08-16.51
				l22.15-251.38C317.32,105.69,310.52,98.3,301.34,98.3z"/>
		</g>
		<path style="fill:#FFFFFF;" d="M290.6,213.92h-56.25c-2.04,0-3.55-1.64-3.37-3.67l4.24-48.09c0.18-2.03,1.98-3.67,4.02-3.67h56.25
			c2.04,0,3.55,1.64,3.37,3.67l-4.24,48.09C294.44,212.27,292.64,213.92,290.6,213.92z"/>
		<path style="fill:#FFFFFF;" d="M271.87,364.28h-94.13c-5.07,0-8.82-4.08-8.37-9.11l0,0c0.44-5.03,4.91-9.11,9.98-9.11h94.13
			c5.07,0,8.82,4.08,8.37,9.11l0,0C281.4,360.2,276.93,364.28,271.87,364.28z"/>
		<g>
			<path style="fill:#FFFFFF;" d="M279.39,145.27h-86.38c-2.85,0-4.95-2.29-4.7-5.11l0.7-7.99c0.25-2.82,2.76-5.11,5.6-5.11h86.38
				c2.85,0,4.95,2.29,4.7,5.11l-0.7,7.99C284.74,142.98,282.23,145.27,279.39,145.27z"/>
			<g>
				<path style="fill:#FFFFFF;" d="M296.95,131.9c-0.07,0.79-0.77,1.42-1.56,1.42c-0.79,0-1.38-0.64-1.31-1.42
					c0.07-0.79,0.77-1.42,1.56-1.42C296.43,130.48,297.02,131.12,296.95,131.9z"/>
				<path style="fill:#FFFFFF;" d="M296.57,136.16c-0.07,0.79-0.77,1.42-1.56,1.42s-1.38-0.64-1.31-1.42
					c0.07-0.79,0.77-1.42,1.56-1.42C296.06,134.74,296.64,135.38,296.57,136.16z"/>
				<path style="fill:#FFFFFF;" d="M296.2,140.42c-0.07,0.79-0.77,1.42-1.56,1.42c-0.79,0-1.38-0.64-1.31-1.42
					c0.07-0.79,0.77-1.42,1.56-1.42C295.68,138.99,296.27,139.63,296.2,140.42z"/>
			</g>
		</g>
		<path style="fill:#FFFFFF;" d="M283.61,293.26h-105.1c-2.04,0-3.55-1.64-3.37-3.67l4.84-54.89c0.18-2.03,1.98-3.67,4.02-3.67
			h105.1c2.04,0,3.55,1.64,3.37,3.67l-4.84,54.89C287.45,291.61,285.65,293.26,283.61,293.26z"/>
		<g>
			<g>
				<path style="fill:#FFFFFF;" d="M207.43,304.72h-32.72c-0.5,0-0.87-0.4-0.82-0.9l0,0c0.04-0.49,0.48-0.9,0.98-0.9h32.72
					c0.5,0,0.87,0.4,0.82,0.9l0,0C208.36,304.32,207.92,304.72,207.43,304.72z"/>
			</g>
			<g>
				<path style="fill:#FFFFFF;" d="M248.32,304.72H213.2c-0.5,0-0.87-0.4-0.82-0.9l0,0c0.04-0.49,0.48-0.9,0.98-0.9h35.13
					c0.5,0,0.87,0.4,0.82,0.9l0,0C249.26,304.32,248.82,304.72,248.32,304.72z"/>
			</g>
			<g>
				<path style="fill:#FFFFFF;" d="M196.14,312.64h-22.13c-0.5,0-0.87-0.4-0.82-0.9l0,0c0.04-0.49,0.48-0.9,0.98-0.9h22.13
					c0.5,0,0.87,0.4,0.82,0.9l0,0C197.08,312.24,196.64,312.64,196.14,312.64z"/>
			</g>
			<g>
				<path style="fill:#FFFFFF;" d="M238.17,312.64h-36.26c-0.5,0-0.87-0.4-0.82-0.9l0,0c0.04-0.49,0.48-0.9,0.98-0.9h36.26
					c0.5,0,0.87,0.4,0.82,0.9l0,0C239.11,312.24,238.67,312.64,238.17,312.64z"/>
			</g>
			<g>
				<path style="fill:#FFFFFF;" d="M232.32,320.55h-59.01c-0.5,0-0.87-0.4-0.82-0.9l0,0c0.04-0.49,0.48-0.9,0.98-0.9h59.01
					c0.5,0,0.87,0.4,0.82,0.9l0,0C233.26,320.15,232.82,320.55,232.32,320.55z"/>
			</g>
			<g>
				<path style="fill:#FFFFFF;" d="M241.99,320.55h-3.9c-0.5,0-0.87-0.4-0.82-0.9l0,0c0.04-0.49,0.48-0.9,0.98-0.9h3.9
					c0.5,0,0.87,0.4,0.82,0.9l0,0C242.92,320.15,242.48,320.55,241.99,320.55z"/>
			</g>
			<g>
				<path style="fill:#FFFFFF;" d="M200.16,328.47h-27.55c-0.5,0-0.87-0.4-0.82-0.9l0,0c0.04-0.49,0.48-0.9,0.98-0.9h27.55
					c0.5,0,0.87,0.4,0.82,0.9l0,0C201.1,328.07,200.66,328.47,200.16,328.47z"/>
			</g>
			<g>
				<path style="fill:#FFFFFF;" d="M240.24,328.47h-34.3c-0.5,0-0.87-0.4-0.82-0.9l0,0c0.04-0.49,0.48-0.9,0.98-0.9h34.3
					c0.5,0,0.87,0.4,0.82,0.9l0,0C241.17,328.07,240.73,328.47,240.24,328.47z"/>
			</g>
			<g>
				<path style="fill:#FFFFFF;" d="M205.84,336.39h-33.92c-0.5,0-0.87-0.4-0.82-0.9l0,0c0.04-0.49,0.48-0.9,0.98-0.9H206
					c0.5,0,0.87,0.4,0.82,0.9l0,0C206.78,335.98,206.34,336.39,205.84,336.39z"/>
			</g>
			<g>
				<path style="fill:#FFFFFF;" d="M238.94,336.39h-27.33c-0.5,0-0.87-0.4-0.82-0.9l0,0c0.04-0.49,0.48-0.9,0.98-0.9h27.33
					c0.5,0,0.87,0.4,0.82,0.9l0,0C239.87,335.98,239.43,336.39,238.94,336.39z"/>
			</g>
		</g>
		<g>
			<g>
				<path style="fill:#407BFF;" d="M289.26,209.36c-0.46,0.47-1.19,0.52-1.63,0.1l-46.99-44.52c-0.44-0.42-0.42-1.14,0.04-1.61l0,0
					c0.46-0.47,1.19-0.52,1.63-0.1l46.99,44.52C289.74,208.17,289.72,208.89,289.26,209.36L289.26,209.36z"/>
			</g>
			<g>
				<path style="fill:#407BFF;" d="M236.49,209.35L236.49,209.35c-0.38-0.47-0.27-1.19,0.24-1.61l23.97-19.46
					c0.51-0.42,1.23-0.37,1.61,0.1l0,0c0.38,0.47,0.27,1.19-0.24,1.61l-23.97,19.46C237.58,209.86,236.86,209.82,236.49,209.35z"/>
			</g>
			<g>
				<path style="fill:#407BFF;" d="M267.46,184.2L267.46,184.2c-0.38-0.47-0.27-1.19,0.24-1.61l24.01-19.5
					c0.51-0.42,1.23-0.37,1.61,0.1l0,0c0.38,0.47,0.27,1.19-0.24,1.61l-24.01,19.5C268.56,184.72,267.84,184.67,267.46,184.2z"/>
			</g>
			<g style="opacity:0.7;">
				<path style="fill:#FFFFFF;" d="M289.26,209.36c-0.46,0.47-1.19,0.52-1.63,0.1l-46.99-44.52c-0.44-0.42-0.42-1.14,0.04-1.61l0,0
					c0.46-0.47,1.19-0.52,1.63-0.1l46.99,44.52C289.74,208.17,289.72,208.89,289.26,209.36L289.26,209.36z"/>
			</g>
			<g style="opacity:0.7;">
				<path style="fill:#FFFFFF;" d="M236.49,209.35L236.49,209.35c-0.38-0.47-0.27-1.19,0.24-1.61l23.97-19.46
					c0.51-0.42,1.23-0.37,1.61,0.1l0,0c0.38,0.47,0.27,1.19-0.24,1.61l-23.97,19.46C237.58,209.86,236.86,209.82,236.49,209.35z"/>
			</g>
			<g style="opacity:0.7;">
				<path style="fill:#FFFFFF;" d="M267.46,184.2L267.46,184.2c-0.38-0.47-0.27-1.19,0.24-1.61l24.01-19.5
					c0.51-0.42,1.23-0.37,1.61,0.1l0,0c0.38,0.47,0.27,1.19-0.24,1.61l-24.01,19.5C268.56,184.72,267.84,184.67,267.46,184.2z"/>
			</g>
		</g>
	</g>
</g>
<g id="Icons">
	<g>
		<path style="fill:#407BFF;" d="M155.62,92.83h-14.87c-3.02,0-5.46,2.43-5.46,5.42v14.76c0,2.99,2.44,5.42,5.46,5.42h14.87
			c3.02,0,5.46-2.43,5.46-5.42V98.25C161.08,95.26,158.64,92.83,155.62,92.83z M148.19,98.07c2.24,0,3.45,1.81,3.45,4.03
			s-1.21,4.03-3.45,4.03c-2.24,0-3.45-1.81-3.45-4.03S145.94,98.07,148.19,98.07z M157.16,113.2h-17.95c-0.15,0-0.29-0.06-0.38-0.16
			l1.15-3.12c0.74-2.01,2.67-3.34,4.82-3.34h6.78c2.15,0,4.08,1.34,4.82,3.34l1.15,3.12C157.45,113.14,157.31,113.2,157.16,113.2z"
			/>
		<path style="opacity:0.7;fill:#FFFFFF;" d="M155.62,92.83h-14.87c-3.02,0-5.46,2.43-5.46,5.42v14.76c0,2.99,2.44,5.42,5.46,5.42
			h14.87c3.02,0,5.46-2.43,5.46-5.42V98.25C161.08,95.26,158.64,92.83,155.62,92.83z M148.19,98.07c2.24,0,3.45,1.81,3.45,4.03
			s-1.21,4.03-3.45,4.03c-2.24,0-3.45-1.81-3.45-4.03S145.94,98.07,148.19,98.07z M157.16,113.2h-17.95c-0.15,0-0.29-0.06-0.38-0.16
			l1.15-3.12c0.74-2.01,2.67-3.34,4.82-3.34h6.78c2.15,0,4.08,1.34,4.82,3.34l1.15,3.12C157.45,113.14,157.31,113.2,157.16,113.2z"
			/>
	</g>
	<g>
		<g>
			<path style="fill:#407BFF;" d="M102.71,153.55h-11.3c-4.06,0-7.36,3.27-7.36,7.3v11.22c0,4.03,3.29,7.3,7.36,7.3h11.3
				c4.06,0,7.36-3.27,7.36-7.3v-11.22C110.07,156.82,106.77,153.55,102.71,153.55z M97.06,172.59c0,0-4.64-5.01-4.64-7.56
				c0-2.55,2.08-4.61,4.64-4.61c2.56,0,4.64,2.06,4.64,4.61C101.7,167.57,97.06,172.59,97.06,172.59z"/>
			<path style="fill:#407BFF;" d="M97.06,162.92c-1.17,0-2.12,0.94-2.12,2.1c0,1.16,0.95,2.1,2.12,2.1c1.17,0,2.12-0.94,2.12-2.1
				C99.18,163.87,98.23,162.92,97.06,162.92z"/>
		</g>
		<g style="opacity:0.7;">
			<path style="fill:#FFFFFF;" d="M102.71,153.55h-11.3c-4.06,0-7.36,3.27-7.36,7.3v11.22c0,4.03,3.29,7.3,7.36,7.3h11.3
				c4.06,0,7.36-3.27,7.36-7.3v-11.22C110.07,156.82,106.77,153.55,102.71,153.55z M97.06,172.59c0,0-4.64-5.01-4.64-7.56
				c0-2.55,2.08-4.61,4.64-4.61c2.56,0,4.64,2.06,4.64,4.61C101.7,167.57,97.06,172.59,97.06,172.59z"/>
			<path style="fill:#FFFFFF;" d="M97.06,162.92c-1.17,0-2.12,0.94-2.12,2.1c0,1.16,0.95,2.1,2.12,2.1c1.17,0,2.12-0.94,2.12-2.1
				C99.18,163.87,98.23,162.92,97.06,162.92z"/>
		</g>
	</g>
	<g>
		<g>
			<polygon style="fill:#407BFF;" points="350.76,121.77 358.33,116.91 350.76,112.04 			"/>
			<path style="fill:#407BFF;" d="M360.51,103.65H346.1c-3.39,0-6.14,2.73-6.14,6.1v14.31c0,3.37,2.75,6.1,6.14,6.1h14.42
				c3.39,0,6.14-2.73,6.14-6.1v-14.31C366.66,106.38,363.91,103.65,360.51,103.65z M353.3,126.44c-5.3,0-9.6-4.27-9.6-9.53
				c0-5.27,4.3-9.53,9.6-9.53c5.3,0,9.6,4.27,9.6,9.53C362.91,122.17,358.61,126.44,353.3,126.44z"/>
		</g>
		<g style="opacity:0.7;">
			<polygon style="fill:#FFFFFF;" points="350.76,121.77 358.33,116.91 350.76,112.04 			"/>
			<path style="fill:#FFFFFF;" d="M360.51,103.65H346.1c-3.39,0-6.14,2.73-6.14,6.1v14.31c0,3.37,2.75,6.1,6.14,6.1h14.42
				c3.39,0,6.14-2.73,6.14-6.1v-14.31C366.66,106.38,363.91,103.65,360.51,103.65z M353.3,126.44c-5.3,0-9.6-4.27-9.6-9.53
				c0-5.27,4.3-9.53,9.6-9.53c5.3,0,9.6,4.27,9.6,9.53C362.91,122.17,358.61,126.44,353.3,126.44z"/>
		</g>
	</g>
</g>
<g id="Gears">
	<g>
		<path style="fill:#407BFF;" d="M374.67,158.56c0-0.3-0.02-0.59-0.04-0.88l1.73-0.96c-0.13-0.83-0.35-1.63-0.64-2.39l-1.98,0.03
			c-0.25-0.53-0.55-1.04-0.89-1.52l1.02-1.69c-0.52-0.64-1.11-1.23-1.76-1.75l-1.7,1.01c-0.48-0.34-0.99-0.63-1.53-0.88l0.03-1.96
			c-0.77-0.29-1.57-0.51-2.4-0.64l-0.96,1.72c-0.29-0.03-0.59-0.04-0.88-0.04s-0.59,0.02-0.88,0.04l-0.96-1.72
			c-0.83,0.13-1.64,0.35-2.4,0.64l0.03,1.96c-0.54,0.25-1.05,0.54-1.53,0.88l-1.7-1.01c-0.65,0.52-1.24,1.11-1.76,1.75l1.02,1.69
			c-0.34,0.48-0.64,0.99-0.89,1.52l-1.98-0.03c-0.29,0.76-0.51,1.56-0.64,2.39l1.73,0.96c-0.03,0.29-0.04,0.58-0.04,0.88
			c0,0.3,0.02,0.59,0.04,0.88l-1.73,0.96c0.13,0.83,0.35,1.62,0.64,2.39l1.98-0.03c0.25,0.53,0.55,1.04,0.89,1.52l-1.02,1.69
			c0.52,0.64,1.11,1.23,1.76,1.75l1.7-1.01c0.48,0.34,0.99,0.63,1.53,0.88l-0.03,1.96c0.77,0.29,1.57,0.51,2.4,0.64l0.96-1.72
			c0.29,0.03,0.59,0.04,0.88,0.04s0.59-0.02,0.88-0.04l0.96,1.72c0.83-0.13,1.64-0.35,2.4-0.64l-0.03-1.96
			c0.54-0.25,1.05-0.54,1.53-0.88l1.7,1.01c0.65-0.52,1.24-1.11,1.76-1.75l-1.02-1.69c0.34-0.48,0.64-0.99,0.89-1.52l1.98,0.03
			c0.29-0.76,0.51-1.56,0.64-2.39l-1.73-0.96C374.65,159.15,374.67,158.86,374.67,158.56z M364.66,165.3
			c-3.75,0-6.79-3.02-6.79-6.74c0-3.72,3.04-6.74,6.79-6.74c3.75,0,6.79,3.02,6.79,6.74C371.45,162.29,368.41,165.3,364.66,165.3z"
			/>
		<path style="opacity:0.7;fill:#FFFFFF;" d="M374.67,158.56c0-0.3-0.02-0.59-0.04-0.88l1.73-0.96c-0.13-0.83-0.35-1.63-0.64-2.39
			l-1.98,0.03c-0.25-0.53-0.55-1.04-0.89-1.52l1.02-1.69c-0.52-0.64-1.11-1.23-1.76-1.75l-1.7,1.01c-0.48-0.34-0.99-0.63-1.53-0.88
			l0.03-1.96c-0.77-0.29-1.57-0.51-2.4-0.64l-0.96,1.72c-0.29-0.03-0.59-0.04-0.88-0.04s-0.59,0.02-0.88,0.04l-0.96-1.72
			c-0.83,0.13-1.64,0.35-2.4,0.64l0.03,1.96c-0.54,0.25-1.05,0.54-1.53,0.88l-1.7-1.01c-0.65,0.52-1.24,1.11-1.76,1.75l1.02,1.69
			c-0.34,0.48-0.64,0.99-0.89,1.52l-1.98-0.03c-0.29,0.76-0.51,1.56-0.64,2.39l1.73,0.96c-0.03,0.29-0.04,0.58-0.04,0.88
			c0,0.3,0.02,0.59,0.04,0.88l-1.73,0.96c0.13,0.83,0.35,1.62,0.64,2.39l1.98-0.03c0.25,0.53,0.55,1.04,0.89,1.52l-1.02,1.69
			c0.52,0.64,1.11,1.23,1.76,1.75l1.7-1.01c0.48,0.34,0.99,0.63,1.53,0.88l-0.03,1.96c0.77,0.29,1.57,0.51,2.4,0.64l0.96-1.72
			c0.29,0.03,0.59,0.04,0.88,0.04s0.59-0.02,0.88-0.04l0.96,1.72c0.83-0.13,1.64-0.35,2.4-0.64l-0.03-1.96
			c0.54-0.25,1.05-0.54,1.53-0.88l1.7,1.01c0.65-0.52,1.24-1.11,1.76-1.75l-1.02-1.69c0.34-0.48,0.64-0.99,0.89-1.52l1.98,0.03
			c0.29-0.76,0.51-1.56,0.64-2.39l-1.73-0.96C374.65,159.15,374.67,158.86,374.67,158.56z M364.66,165.3
			c-3.75,0-6.79-3.02-6.79-6.74c0-3.72,3.04-6.74,6.79-6.74c3.75,0,6.79,3.02,6.79,6.74C371.45,162.29,368.41,165.3,364.66,165.3z"
			/>
	</g>
	<g>
		<path style="fill:#407BFF;" d="M348.51,192.45c0-0.44-0.02-0.88-0.06-1.31l2.59-1.43c-0.2-1.24-0.52-2.43-0.96-3.57l-2.96,0.05
			c-0.37-0.8-0.82-1.56-1.33-2.27l1.52-2.52c-0.78-0.96-1.67-1.84-2.63-2.61l-2.54,1.51c-0.72-0.5-1.49-0.94-2.29-1.32l0.05-2.94
			c-1.15-0.44-2.35-0.76-3.59-0.96l-1.44,2.57c-0.44-0.04-0.88-0.06-1.32-0.06s-0.89,0.02-1.32,0.06l-1.44-2.57
			c-1.25,0.19-2.45,0.52-3.59,0.96l0.05,2.94c-0.81,0.37-1.57,0.81-2.29,1.32l-2.54-1.51c-0.97,0.78-1.85,1.65-2.63,2.61l1.52,2.52
			c-0.51,0.71-0.95,1.47-1.33,2.27l-2.96-0.05c-0.44,1.14-0.77,2.33-0.96,3.57l2.59,1.43c-0.04,0.43-0.06,0.87-0.06,1.31
			c0,0.44,0.02,0.88,0.06,1.31l-2.59,1.43c0.2,1.24,0.52,2.43,0.96,3.57l2.96-0.05c0.37,0.8,0.82,1.56,1.33,2.27l-1.52,2.52
			c0.78,0.96,1.67,1.84,2.63,2.61l2.54-1.51c0.72,0.5,1.49,0.94,2.29,1.32l-0.05,2.94c1.15,0.44,2.35,0.76,3.59,0.96l1.44-2.57
			c0.44,0.04,0.88,0.06,1.32,0.06s0.89-0.02,1.32-0.06l1.44,2.57c1.25-0.19,2.45-0.52,3.59-0.96l-0.05-2.94
			c0.81-0.37,1.57-0.81,2.29-1.32l2.54,1.51c0.97-0.78,1.85-1.65,2.63-2.61l-1.52-2.52c0.51-0.71,0.95-1.47,1.33-2.27l2.96,0.05
			c0.44-1.14,0.77-2.33,0.96-3.57l-2.59-1.43C348.48,193.33,348.51,192.89,348.51,192.45z M333.54,198.31c-3.26,0-5.9-2.62-5.9-5.86
			c0-3.23,2.64-5.86,5.9-5.86c3.26,0,5.9,2.62,5.9,5.86C339.44,195.68,336.8,198.31,333.54,198.31z"/>
		<path style="opacity:0.7;fill:#FFFFFF;" d="M348.51,192.45c0-0.44-0.02-0.88-0.06-1.31l2.59-1.43c-0.2-1.24-0.52-2.43-0.96-3.57
			l-2.96,0.05c-0.37-0.8-0.82-1.56-1.33-2.27l1.52-2.52c-0.78-0.96-1.67-1.84-2.63-2.61l-2.54,1.51c-0.72-0.5-1.49-0.94-2.29-1.32
			l0.05-2.94c-1.15-0.44-2.35-0.76-3.59-0.96l-1.44,2.57c-0.44-0.04-0.88-0.06-1.32-0.06s-0.89,0.02-1.32,0.06l-1.44-2.57
			c-1.25,0.19-2.45,0.52-3.59,0.96l0.05,2.94c-0.81,0.37-1.57,0.81-2.29,1.32l-2.54-1.51c-0.97,0.78-1.85,1.65-2.63,2.61l1.52,2.52
			c-0.51,0.71-0.95,1.47-1.33,2.27l-2.96-0.05c-0.44,1.14-0.77,2.33-0.96,3.57l2.59,1.43c-0.04,0.43-0.06,0.87-0.06,1.31
			c0,0.44,0.02,0.88,0.06,1.31l-2.59,1.43c0.2,1.24,0.52,2.43,0.96,3.57l2.96-0.05c0.37,0.8,0.82,1.56,1.33,2.27l-1.52,2.52
			c0.78,0.96,1.67,1.84,2.63,2.61l2.54-1.51c0.72,0.5,1.49,0.94,2.29,1.32l-0.05,2.94c1.15,0.44,2.35,0.76,3.59,0.96l1.44-2.57
			c0.44,0.04,0.88,0.06,1.32,0.06s0.89-0.02,1.32-0.06l1.44,2.57c1.25-0.19,2.45-0.52,3.59-0.96l-0.05-2.94
			c0.81-0.37,1.57-0.81,2.29-1.32l2.54,1.51c0.97-0.78,1.85-1.65,2.63-2.61l-1.52-2.52c0.51-0.71,0.95-1.47,1.33-2.27l2.96,0.05
			c0.44-1.14,0.77-2.33,0.96-3.57l-2.59-1.43C348.48,193.33,348.51,192.89,348.51,192.45z M333.54,198.31c-3.26,0-5.9-2.62-5.9-5.86
			c0-3.23,2.64-5.86,5.9-5.86c3.26,0,5.9,2.62,5.9,5.86C339.44,195.68,336.8,198.31,333.54,198.31z"/>
	</g>
</g>
<g id="Speech_bubbles">
	<g>
		<path style="fill:#407BFF;" d="M306.29,126.36v5.97l-5.72,3c-0.99,0.52-0.99,1.93,0,2.45l5.72,3v5.97c0,1.33,1.09,2.41,2.43,2.41
			h20.54c1.34,0,2.43-1.08,2.43-2.41v-20.39c0-1.33-1.09-2.41-2.43-2.41h-20.54C307.38,123.95,306.29,125.03,306.29,126.36z"/>
		<g style="opacity:0.9;">
			<path style="fill:#FFFFFF;" d="M313.36,132.58c0.47,0,11.2,0,11.67,0c0.79,0,1.43-0.64,1.43-1.42c0-0.79-0.64-1.42-1.43-1.42
				c-0.58,0-11.09,0-11.67,0c-0.79,0-1.43,0.64-1.43,1.42C311.93,131.94,312.57,132.58,313.36,132.58z"/>
			<path style="fill:#FFFFFF;" d="M325.03,135.13c-0.53,0-11.14,0-11.67,0c-0.79,0-1.43,0.64-1.43,1.42s0.64,1.42,1.43,1.42
				c0.53,0,11.14,0,11.67,0c0.79,0,1.43-0.64,1.43-1.42S325.82,135.13,325.03,135.13z"/>
			<path style="fill:#FFFFFF;" d="M325.03,140.53c-0.61,0-11.06,0-11.67,0c-0.79,0-1.43,0.64-1.43,1.42c0,0.79,0.64,1.42,1.43,1.42
				c0.43,0,11.23,0,11.67,0c0.79,0,1.43-0.64,1.43-1.42C326.46,141.16,325.82,140.53,325.03,140.53z"/>
		</g>
	</g>
	<g>
		<path style="fill:#407BFF;" d="M190.25,116.99h4.91l2.53,4.76c0.73,1.38,2.72,1.38,3.45,0l2.53-4.76h4.91
			c1.95,0,3.54-1.57,3.54-3.51V95.29c0-1.94-1.58-3.51-3.54-3.51h-18.32c-1.95,0-3.54,1.57-3.54,3.51v18.19
			C186.71,115.41,188.29,116.99,190.25,116.99z"/>
		<polygon style="opacity:0.9;fill:#FFFFFF;" points="199.42,97.21 193.76,100.5 193.76,110.09 197.97,110.09 197.97,103.65 
			200.87,103.65 200.87,110.09 205.08,110.09 205.08,100.5 		"/>
	</g>
	<g>
		<path style="fill:#407BFF;" d="M245.25,377.73h-4.42l-2.82-5.31c-0.61-1.14-2.26-1.14-2.87,0l-2.82,5.31h-4.42
			c-2.23,0-4.03,1.79-4.03,4v17.21c0,2.21,1.8,4,4.03,4h17.34c2.23,0,4.03-1.79,4.03-4v-17.21
			C249.28,379.52,247.47,377.73,245.25,377.73z"/>
		<path style="opacity:0.9;fill:#FFFFFF;" d="M239.03,384.3c-2.45-2.43-6.42-2.43-8.87,0c-2.45,2.43-2.45,6.38,0,8.8
			c2.17,2.15,5.54,2.39,7.98,0.72c0.05,0.28,0.17,0.54,0.39,0.76l3.89,3.87c0.55,0.55,1.44,0.55,1.99,0c0.55-0.55,0.55-1.43,0-1.97
			l-3.89-3.87c-0.22-0.21-0.48-0.34-0.76-0.39C241.44,389.8,241.2,386.45,239.03,384.3z M237.7,391.79c-1.71,1.7-4.5,1.7-6.22,0
			c-1.71-1.7-1.71-4.47,0-6.17c1.71-1.7,4.5-1.7,6.22,0C239.42,387.32,239.42,390.09,237.7,391.79z"/>
	</g>
</g>
<g id="Character_2_1_">
	<path style="fill:#EEC1BB;" d="M430.66,263.1c0,0-9.36,23.02-18.52,25.52c-9.16,2.49-22.98,0.47-22.98,0.47l-4.27,1.16l-4.19-0.62
		c-0.05-0.01-0.1-0.01-0.14-0.01l-4.73-0.11c-0.8-0.02-1.25-0.8-0.8-1.41l1.7-2.33c0.13-0.18,0.33-0.32,0.56-0.39l4.5-1.44
		c0.18-0.06,0.37-0.07,0.55-0.04l6.87,1.08c0,0,19.12-3.11,21.06-4.87c1.95-1.76,7.71-20.17,7.71-20.17L430.66,263.1z"/>
	<path style="opacity:0.1;" d="M389.65,284.91c-0.28,0.05-0.44,0.07-0.44,0.07l-6.88-1.08c-0.18-0.03-0.37-0.01-0.55,0.04l-4.5,1.44
		c-0.23,0.07-0.43,0.21-0.56,0.39l-1.7,2.33c-0.45,0.61,0,1.39,0.8,1.41l4.73,0.11c0.05,0,0.1,0.01,0.14,0.01l2.82,0.42
		C385.61,289.14,387.69,287.26,389.65,284.91z"/>
	<path style="fill:#407BFF;" d="M436.31,240.3c-6.8-2.21-16.36,2.86-20.03,24.11l14.11,4.09C430.4,268.5,446.03,243.47,436.31,240.3
		z"/>
	<g>
		<path style="fill:#263238;" d="M396.77,212.54c0.01,0.7,0.38,1.26,0.84,1.26c0.46,0,0.86-0.6,0.83-1.28
			c-0.03-0.68-0.38-1.26-0.84-1.25C397.14,211.27,396.77,211.84,396.77,212.54z"/>
		<path style="fill:#D4827D;" d="M399.55,213.23l-3.34,5.48c0,0,1.15,1.3,3.66,0.34L399.55,213.23z"/>
		<path style="fill:#263238;" d="M400.18,208.16c-0.08,0.09-0.21,0.14-0.33,0.12c-0.92-0.16-1.85,0.13-2.52,0.78
			c-0.13,0.15-0.36,0.17-0.52,0.04c-0.15-0.13-0.17-0.36-0.03-0.52c0.82-0.84,2.01-1.22,3.17-1.03c0.2,0.03,0.34,0.21,0.32,0.41l0,0
			C400.26,208.04,400.23,208.11,400.18,208.16z"/>
		<path style="fill:#EEC1BB;" d="M423.78,207.56c0.52,9.27,0.95,13.18-3.17,18.45c-6.58,5.64-17.79,6.54-21.09-2.39
			c-2.97-8.04-3.33-21.8,5.31-26.58c6.16-3.4,13.93-1.2,17.36,4.91C423.15,203.68,423.7,205.6,423.78,207.56z"/>
		<polygon style="fill:#EEC1BB;" points="410.78,227.84 413.14,241.57 424.67,238.93 420.64,224.91 		"/>
		<path style="fill:#263238;" d="M402.47,208.25c0.59-6.02-1.5,0.93-4.31-7.01c-2.81-7.94,10.44-14.4,12.56-12.92
			c2.12,1.48,0.9,3.76,7.91,5.04c7.01,1.28,6.71,8.03,6.71,8.03s4.03,1.86,2.6,10.45c-1.43,8.59-6.9,15.1-6.9,15.1
			s-2.65-2.71-6.85-0.21c0,0-2.06-1.15-4.09-4.16c-1.89-2.8-2.47-5.46-5.06-5.7C399.61,216.39,402.28,210.22,402.47,208.25z"/>
		<path style="fill:#263238;" d="M424.58,202.45c0,0,5.72-3.49,3.19-7.15C425.24,191.64,426.46,199.32,424.58,202.45z"/>
		<path style="fill:#FFC3BD;" d="M404.12,211.74c-1.28,1.41-1.93,3.27-1.82,5.16c0.16,2.51,2.64,2.96,4.59,1.59
			c1.77-1.24,3.8-4.04,2.67-6.24C408.43,210.05,405.7,210.04,404.12,211.74z"/>
		<path style="opacity:0.1;" d="M411,229.14l0.94,5.45c-0.06-4.98,2.59-7.44,2.59-7.44C411.83,227.54,411,229.14,411,229.14z"/>
	</g>
	<g>
		<rect x="326.65" y="264.57" style="fill:#407BFF;" width="3.3" height="19.3"/>
		<rect x="326.65" y="264.57" style="opacity:0.7;fill:#FFFFFF;" width="3.3" height="19.3"/>
	</g>
	<g>
		<path style="fill:#407BFF;" d="M307.3,226.25h-8.21c-3.08,0-5.57,2.48-5.57,5.53v37.75c0,3.05,2.49,5.53,5.57,5.53h8.21V226.25z"
			/>
		<g>
			<path style="fill:#407BFF;" d="M358.22,275.06h-56.98c-2.68,0-4.85-2.17-4.85-4.85V231.1c0-2.68,2.17-4.85,4.85-4.85h56.98
				c2.68,0,4.85,2.17,4.85,4.85v39.11C363.07,272.89,360.9,275.06,358.22,275.06z"/>
			<path style="opacity:0.5;fill:#FFFFFF;" d="M358.22,275.06h-56.98c-2.68,0-4.85-2.17-4.85-4.85V231.1c0-2.68,2.17-4.85,4.85-4.85
				h56.98c2.68,0,4.85,2.17,4.85,4.85v39.11C363.07,272.89,360.9,275.06,358.22,275.06z"/>
		</g>
		<path style="fill:#263238;" d="M301.96,228.53c-1.8,0-3.27,1.46-3.27,3.25v37.75c0,1.79,1.47,3.25,3.27,3.25h55.54
			c1.8,0,3.27-1.46,3.27-3.25v-37.75c0-1.79-1.47-3.25-3.27-3.25H301.96z"/>
	</g>
	<path style="fill:#407BFF;" d="M316.31,291.95c0-6.57,5.37-11.9,11.99-11.9c6.62,0,11.99,5.33,11.99,11.9H316.31z"/>
	<g>
		<polygon style="fill:#407BFF;" points="344.61,287.89 320.63,287.89 320.63,291.76 368.6,291.76 368.6,290.17 		"/>
		<polygon style="opacity:0.8;fill:#FFFFFF;" points="344.61,287.89 320.63,287.89 320.63,291.76 368.6,291.76 368.6,290.17 		"/>
		<polygon style="fill:#407BFF;" points="344.61,291.76 320.63,291.76 320.63,287.89 344.61,290.17 		"/>
		<polygon style="opacity:0.6;fill:#FFFFFF;" points="344.61,291.76 320.63,291.76 320.63,287.89 344.61,290.17 		"/>
	</g>
	<g>
		<g>
			<path style="fill:#263238;" d="M397.5,424.79h-49.48c-4.15,0-7.52-3.34-7.52-7.46V304.41c0-4.12,3.37-7.46,7.52-7.46h49.48
				c1.11,0,2.01,0.89,2.01,1.99l0,0c0,1.1-0.9,1.99-2.01,1.99h-49.48c-1.93,0-3.5,1.55-3.5,3.47v112.93c0,1.92,1.57,3.47,3.5,3.47
				h49.48c1.11,0,2.01,0.89,2.01,1.99l0,0C399.51,423.9,398.61,424.79,397.5,424.79z"/>
		</g>
		<g style="opacity:0.5;">
			<path style="fill:#FFFFFF;" d="M397.5,424.79h-49.48c-4.15,0-7.52-3.34-7.52-7.46V304.41c0-4.12,3.37-7.46,7.52-7.46h49.48
				c1.11,0,2.01,0.89,2.01,1.99l0,0c0,1.1-0.9,1.99-2.01,1.99h-49.48c-1.93,0-3.5,1.55-3.5,3.47v112.93c0,1.92,1.57,3.47,3.5,3.47
				h49.48c1.11,0,2.01,0.89,2.01,1.99l0,0C399.51,423.9,398.61,424.79,397.5,424.79z"/>
		</g>
	</g>
	<g>
		<rect x="277.56" y="291.76" style="fill:#407BFF;" width="70.25" height="5.84"/>
		<rect x="277.56" y="291.76" style="opacity:0.2;fill:#FFFFFF;" width="70.25" height="5.84"/>
		<rect x="344.61" y="291.76" style="fill:#407BFF;" width="59.92" height="5.84"/>
		<rect x="344.61" y="291.76" style="opacity:0.5;fill:#FFFFFF;" width="59.92" height="5.84"/>
	</g>
	<g>
		<g>
			<polygon style="fill:#EEC1BB;" points="383.52,383.36 386.84,416.66 378.89,416.66 370.94,384.22 			"/>
			<g>
				<path style="fill:#263238;" d="M378.15,414.49l10.14,0.17c0.38,0.01,0.71,0.27,0.79,0.65l1.69,8.22
					c0.16,0.73-0.31,1.44-1.05,1.6c-0.09,0.02-0.19,0.03-0.29,0.03c-3.65-0.13-6.9-0.38-11.45-0.45c-5.37-0.09-4.02,0.57-10.33,0.55
					c-3.81-0.01-4.43-4.32-2.81-4.5c7.4-0.8,8.2-3,11.1-5.57C376.56,414.69,377.35,414.44,378.15,414.49z"/>
			</g>
			<polygon style="opacity:0.1;" points="385.97,407.97 383.52,383.36 370.94,384.22 376.76,407.97 			"/>
		</g>
		<path style="fill:#263238;" d="M437.93,306.57l-32.59,1.16c0,0-43.85,15.22-45.09,26.97c-1.26,12.06,13.48,67.46,13.48,67.46h13.1
			c0,0-3.61-40.66-5-53.11c-1.39-12.45,45.69-8.32,53.86-18.95C443.21,320.33,437.93,306.57,437.93,306.57z"/>
		<path style="opacity:0.2;" d="M437.93,306.57l-32.59,1.16c0,0-43.85,15.22-45.09,26.97c-1.26,12.06,13.48,67.46,13.48,67.46h13.1
			c0,0-3.61-40.66-5-53.11c-1.39-12.45,45.69-8.32,53.86-18.95C443.21,320.33,437.93,306.57,437.93,306.57z"/>
		<polygon style="fill:#407BFF;" points="389.06,400.3 389.35,404.89 373.15,404.89 371.56,400.3 		"/>
	</g>
	<g>
		<g>
			<polygon style="fill:#EEC1BB;" points="353.2,384.94 354.07,416.66 346.26,416.66 341.64,384.94 			"/>
			<g>
				<path style="fill:#263238;" d="M345.18,414.49l10.14,0.17c0.38,0.01,0.71,0.27,0.79,0.65l1.69,8.22
					c0.16,0.73-0.31,1.44-1.05,1.6c-0.09,0.02-0.19,0.03-0.29,0.03c-3.65-0.13-6.9-0.38-11.45-0.45c-5.37-0.09-4.02,0.57-10.33,0.55
					c-3.81-0.01-4.43-4.32-2.81-4.5c7.4-0.8,8.2-3,11.1-5.57C343.59,414.69,344.38,414.44,345.18,414.49z"/>
			</g>
			<path style="opacity:0.1;" d="M353.83,407.94l-0.63-23h-11.57l3.36,23.03C347.51,407.97,350.98,407.96,353.83,407.94z"/>
		</g>
		<path style="fill:#263238;" d="M423.76,309.25c0,0,2.71,24.59-22.5,25.74c-25.21,1.15-44.87,4.02-45.45,12.92
			c-0.58,8.9,0,54.25,0,54.25h-13.7c0,0-5.33-28.67-7.41-46.46c-2.02-17.27-5.7-29.79,12.14-35.64
			c18.97-6.22,52.71-11.97,52.71-11.97l24.29-1.52L423.76,309.25z"/>
		<polygon style="fill:#407BFF;" points="357.83,400.3 356.96,404.89 341.92,404.89 340.33,400.3 		"/>
	</g>
	<g>
		<path style="fill:#407BFF;" d="M429.23,238.68c0,0,0-5.55-11.29-4.91c-11.98,0.68-9.72,6-9.72,6L429.23,238.68z"/>
		<path style="opacity:0.3;" d="M429.23,238.68c0,0,0-5.55-11.29-4.91c-11.98,0.68-9.72,6-9.72,6L429.23,238.68z"/>
	</g>
	<path style="fill:#407BFF;" d="M439.7,263.53c-0.76,10.95-0.5,43.91-0.5,43.91s-24.08,1.57-43.03,0.96l-2.2-63.39
		c0-2.26,1.41-4.31,3.61-5.16c5.35-2.07,17.91-4.4,37.56-1.84C441.92,238.89,440.6,250.58,439.7,263.53z"/>
	<path style="fill:#EEC1BB;" d="M397.85,263.1c0,0-9.36,23.02-18.52,25.52c-9.16,2.49-22.98,0.47-22.98,0.47l-4.27,1.16l-4.19-0.62
		c-0.05-0.01-0.1-0.01-0.14-0.01l-4.73-0.11c-0.8-0.02-1.25-0.8-0.8-1.41l1.7-2.33c0.13-0.18,0.33-0.32,0.56-0.39l4.5-1.44
		c0.18-0.06,0.37-0.07,0.55-0.04l6.87,1.08c0,0,19.12-3.11,21.06-4.87c1.95-1.76,7.71-20.17,7.71-20.17L397.85,263.1z"/>
	<path style="opacity:0.1;" d="M397.6,252.39c0,0-1.45,1.71-3.23,4.2l0.64,18.35c7.04-3.08,9.83-21.07,9.83-21.07l-4.57-3.22
		L397.6,252.39z"/>
	<path style="fill:#407BFF;" d="M403.49,240.3c-6.8-2.21-16.36,2.86-20.03,24.11l14.11,4.09
		C397.58,268.5,413.21,243.47,403.49,240.3z"/>
	<g>
		<g>
			<rect x="401.86" y="346.93" style="fill:#263238;" width="10.62" height="30.9"/>
			<rect x="401.86" y="346.93" style="opacity:0.6;fill:#FFFFFF;" width="10.62" height="30.9"/>
			<g>
				<polygon style="fill:#263238;" points="414.13,405.83 414.13,366.56 400.22,366.56 400.22,405.83 368.54,410.19 368.54,414.55 
					407.17,411.28 445.81,414.55 445.81,410.19 				"/>
			</g>
			<g>
				<ellipse style="fill:#407BFF;" cx="368.08" cy="421.1" rx="4.19" ry="4.16"/>
				<ellipse style="fill:#407BFF;" cx="445.81" cy="421.1" rx="4.19" ry="4.16"/>
			</g>
			<ellipse style="fill:#407BFF;" cx="407.17" cy="421.1" rx="4.19" ry="4.16"/>
			<rect x="401.86" y="346.93" style="opacity:0.3;" width="10.62" height="7.64"/>
		</g>
		<g>
			<path style="fill:#407BFF;" d="M449.16,276.89h-34.61c-5.64,0-10.35,4.26-10.87,9.83l-2.92,31.04
				c-0.67,7.07-6.46,12.58-13.61,12.94l-33.4,1.68c-4.06,0.2-7.25,3.53-7.25,7.57v0.7c0,3.47,2.83,6.28,6.32,6.28h45.18h9.16h47.38
				l5.48-58.19C460.63,282.38,455.59,276.89,449.16,276.89z"/>
			<path style="opacity:0.3;fill:#FFFFFF;" d="M449.16,276.89h-34.61c-5.64,0-10.35,4.26-10.87,9.83l-2.92,31.04
				c-0.67,7.07-6.46,12.58-13.61,12.94l-33.4,1.68c-4.06,0.2-7.25,3.53-7.25,7.57v0.7c0,3.47,2.83,6.28,6.32,6.28h45.18h9.16h47.38
				l5.48-58.19C460.63,282.38,455.59,276.89,449.16,276.89z"/>
			<path style="fill:#263238;" d="M372.49,338.93h-0.77c-1.1,0-2-0.89-2-2v-25.02h4.76v25.02
				C374.49,338.04,373.59,338.93,372.49,338.93z"/>
			<path style="opacity:0.2;fill:#FFFFFF;" d="M372.49,338.93h-0.77c-1.1,0-2-0.89-2-2v-25.02h4.76v25.02
				C374.49,338.04,373.59,338.93,372.49,338.93z"/>
			<g>
				<path style="fill:#407BFF;" d="M392.71,304.75h-10.62v8.73h10.62c2.43,0,4.39-1.95,4.39-4.36S395.14,304.75,392.71,304.75z"/>
				<path style="opacity:0.5;fill:#FFFFFF;" d="M392.71,304.75h-10.62v8.73h10.62c2.43,0,4.39-1.95,4.39-4.36
					S395.14,304.75,392.71,304.75z"/>
				<path style="fill:#407BFF;" d="M389.02,313.48H350.8c-2.04,0-3.69-1.65-3.69-3.69v-1.35c0-2.04,1.65-3.69,3.69-3.69h38.22
					c2.04,0,3.69,1.65,3.69,3.69v1.35C392.71,311.83,391.06,313.48,389.02,313.48z"/>
				<path style="opacity:0.3;fill:#FFFFFF;" d="M389.02,313.48H350.8c-2.04,0-3.69-1.65-3.69-3.69v-1.35c0-2.04,1.65-3.69,3.69-3.69
					h38.22c2.04,0,3.69,1.65,3.69,3.69v1.35C392.71,311.83,391.06,313.48,389.02,313.48z"/>
			</g>
			<path style="fill:#407BFF;" d="M456.95,346.93h-50.87l5.67-60.21c0.52-5.57,5.23-9.83,10.87-9.83h34.61
				c6.43,0,11.47,5.49,10.87,11.85l-4.95,52.59C462.84,344.5,460.16,346.93,456.95,346.93z"/>
			<path style="opacity:0.5;fill:#FFFFFF;" d="M456.95,346.93h-50.87l5.67-60.21c0.52-5.57,5.23-9.83,10.87-9.83h34.61
				c6.43,0,11.47,5.49,10.87,11.85l-4.95,52.59C462.84,344.5,460.16,346.93,456.95,346.93z"/>
		</g>
	</g>
	<g>
		<g>
			<path style="fill:#263238;" d="M338.1,424.79h-49.48c-4.15,0-7.52-3.34-7.52-7.46V304.41c0-4.12,3.37-7.46,7.52-7.46h49.48
				c1.11,0,2.01,0.89,2.01,1.99l0,0c0,1.1-0.9,1.99-2.01,1.99h-49.48c-1.93,0-3.5,1.55-3.5,3.47v112.93c0,1.92,1.57,3.47,3.5,3.47
				h49.48c1.11,0,2.01,0.89,2.01,1.99l0,0C340.11,423.9,339.21,424.79,338.1,424.79z"/>
		</g>
		<g style="opacity:0.5;">
			<path style="fill:#FFFFFF;" d="M338.1,424.79h-49.48c-4.15,0-7.52-3.34-7.52-7.46V304.41c0-4.12,3.37-7.46,7.52-7.46h49.48
				c1.11,0,2.01,0.89,2.01,1.99l0,0c0,1.1-0.9,1.99-2.01,1.99h-49.48c-1.93,0-3.5,1.55-3.5,3.47v112.93c0,1.92,1.57,3.47,3.5,3.47
				h49.48c1.11,0,2.01,0.89,2.01,1.99l0,0C340.11,423.9,339.21,424.79,338.1,424.79z"/>
		</g>
	</g>
	<g>
		<path style="fill:#FFFFFF;" d="M305.4,237.52l-3.48-2.3c-0.37-0.25-0.37-0.79,0-1.04l3.48-2.3c0.26-0.17,0.61-0.1,0.78,0.16l0,0
			c0.17,0.26,0.1,0.61-0.16,0.78l-2.85,1.88l2.85,1.88c0.26,0.17,0.33,0.52,0.16,0.78l0,0C306.01,237.62,305.66,237.69,305.4,237.52
			z"/>
	</g>
	<g>
		<path style="fill:#FFFFFF;" d="M313.02,237.37L313.02,237.37c-0.17-0.26-0.1-0.61,0.16-0.78l2.85-1.88l-2.85-1.88
			c-0.26-0.17-0.33-0.52-0.16-0.78l0,0c0.17-0.26,0.52-0.33,0.78-0.16l3.48,2.3c0.37,0.25,0.37,0.79,0,1.04l-3.48,2.3
			C313.54,237.69,313.19,237.62,313.02,237.37z"/>
	</g>
	<g>
		<path style="fill:#FFFFFF;" d="M308.31,238.86L308.31,238.86c-0.3-0.09-0.46-0.41-0.37-0.7l2.37-7.46
			c0.09-0.3,0.41-0.46,0.71-0.37l0,0c0.3,0.09,0.46,0.41,0.37,0.7l-2.37,7.46C308.92,238.79,308.6,238.95,308.31,238.86z"/>
	</g>
	<g>
		<g>
			<path style="fill:#FFFFFF;" d="M327.8,244.61h-25.57c-0.33,0-0.6-0.26-0.6-0.59l0,0c0-0.33,0.27-0.59,0.6-0.59h25.57
				c0.33,0,0.6,0.26,0.6,0.59l0,0C328.4,244.34,328.13,244.61,327.8,244.61z"/>
		</g>
		<g>
			<path style="fill:#FFFFFF;" d="M357.18,244.61h-25.57c-0.33,0-0.6-0.26-0.6-0.59l0,0c0-0.33,0.27-0.59,0.6-0.59h25.57
				c0.33,0,0.6,0.26,0.6,0.59l0,0C357.77,244.34,357.5,244.61,357.18,244.61z"/>
		</g>
		<g>
			<path style="fill:#FFFFFF;" d="M316.84,249.83h-14.61c-0.33,0-0.6-0.26-0.6-0.59l0,0c0-0.33,0.27-0.59,0.6-0.59h14.61
				c0.33,0,0.6,0.26,0.6,0.59l0,0C317.44,249.57,317.17,249.83,316.84,249.83z"/>
		</g>
		<g>
			<path style="fill:#FFFFFF;" d="M344.58,249.83h-23.93c-0.33,0-0.6-0.26-0.6-0.59l0,0c0-0.33,0.27-0.59,0.6-0.59h23.93
				c0.33,0,0.6,0.26,0.6,0.59l0,0C345.18,249.57,344.91,249.83,344.58,249.83z"/>
		</g>
		<g>
			<path style="fill:#FFFFFF;" d="M341.18,255.05h-38.94c-0.33,0-0.6-0.26-0.6-0.59l0,0c0-0.33,0.27-0.59,0.6-0.59h38.94
				c0.33,0,0.6,0.26,0.6,0.59l0,0C341.78,254.79,341.51,255.05,341.18,255.05z"/>
		</g>
		<g>
			<path style="fill:#FFFFFF;" d="M353.12,255.05h-8.13c-0.33,0-0.6-0.26-0.6-0.59l0,0c0-0.33,0.27-0.59,0.6-0.59h8.13
				c0.33,0,0.6,0.26,0.6,0.59l0,0C353.72,254.79,353.45,255.05,353.12,255.05z"/>
		</g>
		<g>
			<path style="fill:#FFFFFF;" d="M320.42,260.28h-18.18c-0.33,0-0.6-0.26-0.6-0.59l0,0c0-0.33,0.27-0.59,0.6-0.59h18.18
				c0.33,0,0.6,0.26,0.6,0.59l0,0C321.01,260.01,320.75,260.28,320.42,260.28z"/>
		</g>
		<g>
			<path style="fill:#FFFFFF;" d="M346.86,260.28h-22.64c-0.33,0-0.6-0.26-0.6-0.59l0,0c0-0.33,0.27-0.59,0.6-0.59h22.64
				c0.33,0,0.6,0.26,0.6,0.59l0,0C347.46,260.01,347.19,260.28,346.86,260.28z"/>
		</g>
		<g>
			<path style="fill:#FFFFFF;" d="M327.8,265.5h-25.57c-0.33,0-0.6-0.26-0.6-0.59l0,0c0-0.33,0.27-0.59,0.6-0.59h25.57
				c0.33,0,0.6,0.26,0.6,0.59l0,0C328.4,265.24,328.13,265.5,327.8,265.5z"/>
		</g>
		<g>
			<path style="fill:#FFFFFF;" d="M349.65,265.5h-18.04c-0.33,0-0.6-0.26-0.6-0.59l0,0c0-0.33,0.27-0.59,0.6-0.59h18.04
				c0.33,0,0.6,0.26,0.6,0.59l0,0C350.24,265.24,349.97,265.5,349.65,265.5z"/>
		</g>
	</g>
</g>
<g id="Character_1">
	<g>
		<path style="fill:#B97964;" d="M127.76,163.47c0.47,5.37-0.7,15.09-4.78,18.2c6.66,2.38,13.7,6.49,18.21,11.9
			c4.46-6.45-0.62-10.13-0.62-10.13c-5.75-2.03-5.13-6.35-3.65-10.33L127.76,163.47z"/>
		<path style="fill:#263238;" d="M149.49,158.85c-0.07,0.67,0.25,1.25,0.7,1.3c0.45,0.04,0.86-0.48,0.92-1.15
			c0.07-0.67-0.25-1.26-0.7-1.3C149.97,157.65,149.57,158.17,149.49,158.85z"/>
		<path style="fill:#263238;" d="M150.23,157.71l1.68-0.32C151.91,157.39,150.95,158.62,150.23,157.71z"/>
		<path style="fill:#A24E3F;" d="M149.72,159.56c0.47,1.6,1.15,3.13,2.03,4.54c-0.75,0.44-1.66,0.52-2.47,0.23L149.72,159.56z"/>
		<path style="fill:#263238;" d="M151.42,155.3c0.1-0.01,0.2-0.06,0.27-0.14c0.14-0.17,0.12-0.42-0.04-0.56
			c-0.96-0.86-2.28-1.21-3.54-0.94c-0.19,0.12-0.25,0.36-0.13,0.55c0.07,0.12,0.21,0.19,0.35,0.19c1.01-0.2,2.04,0.09,2.8,0.78
			C151.2,155.26,151.3,155.3,151.42,155.3z"/>
		<path style="fill:#B97964;" d="M127.18,154.57c-0.26,8.34-0.55,11.88,3.19,16.53c5.64,6.99,15.84,5.46,18.57-2.66
			c2.46-7.3,2.48-19.74-5.24-23.78C135.98,140.61,127.45,146.2,127.18,154.57z"/>
		<path style="fill:#263238;" d="M127.58,170.3c-8.26-1.4-5.89-6.56-5.89-6.56c-8.13-1.63-1.85-5.58-1.85-5.58
			c-6.76-2.89,0-5.49,0-5.49c-6.52-5.37,2.83-7.2,2.83-7.2c-2.31-8.38,5.71-4.94,5.71-4.94c4.37-7.2,8.13-0.32,8.13-0.32
			c7.65-10.31,9.51-1.61,9.51-1.61c7.81-2.04,4.81,6.12,4.81,6.12c6.43,1.72,1.38,4.94,1.38,4.94c2.48,3.12-6.49,3.65-6.49,3.65
			s4.27,6.79-0.04,8.72l-10.86,8.27C134.82,170.3,129.84,168.24,127.58,170.3z"/>
		<path style="fill:#407BFF;" d="M135.7,163.57c0,0,5.69-13.65,1.25-25.35l3.79-1.29C140.74,136.93,145.69,153.91,135.7,163.57z"/>
		<path style="fill:#B97964;" d="M141.42,162.08c0.95,1.96,1.31,2.81,2.67,3.46c1.19,0.66,2.69,0.24,3.36-0.94
			c0.31-0.54,0.39-1.17,0.25-1.77c-0.36-1.96-1.88-4.85-3.98-4.91C141.63,157.86,140.44,160.14,141.42,162.08z"/>
		<g>
			<path style="fill:#B97964;" d="M135.5,190.55c0,0,7.77,5.66,10.93,7.94l22.49-10.53l0,0c-0.06-2.53,1.44-4.85,3.8-5.83l1.6-0.67
				l3.39-1.5c1.29-0.57,2.78-0.41,3.91,0.41l0,0c1.35,0.97,1.93,2.68,1.46,4.26l0,0c-0.96,3.26-3.58,5.78-6.89,6.64l-3.28,0.85
				c0,0-19.29,14.53-26.16,14.91c-6.86,0.38-16.98-6.37-16.98-6.37L135.5,190.55z"/>
			<path style="fill:#263238;" d="M116.8,180.93c5.94-0.02,12.57,3.67,23.02,10.39c0,0-1.97,7.38-8.05,12.63
				c0,0-5.73-1.53-13.36-8.66C109.18,186.68,113.16,180.95,116.8,180.93z"/>
		</g>
		<g>
			<g>
				<path style="fill:#407BFF;" d="M229.55,198.01H173.3c-2.04,0-3.55-1.64-3.37-3.67l4.24-48.09c0.18-2.03,1.98-3.67,4.02-3.67
					h56.25c2.04,0,3.55,1.64,3.37,3.67l-4.24,48.09C233.39,196.37,231.6,198.01,229.55,198.01z"/>
				<path style="opacity:0.4;fill:#FFFFFF;" d="M229.55,198.01H173.3c-2.04,0-3.55-1.64-3.37-3.67l4.24-48.09
					c0.18-2.03,1.98-3.67,4.02-3.67h56.25c2.04,0,3.55,1.64,3.37,3.67l-4.24,48.09C233.39,196.37,231.6,198.01,229.55,198.01z"/>
			</g>
			<path style="opacity:0.7;fill:#FFFFFF;" d="M229.76,195.73c0.77,0,1.45-0.62,1.52-1.39l4.24-48.09c0.07-0.77-0.51-1.39-1.28-1.39
				h-56.25c-0.77,0-1.45,0.62-1.52,1.39l-4.24,48.09c-0.07,0.77,0.51,1.39,1.28,1.39H229.76z"/>
			<g>
				<path style="fill:#407BFF;" d="M190.66,167.46l-18.39,26.41l-0.04,0.48c-0.07,0.77,0.51,1.39,1.28,1.39h31.87L190.66,167.46z"/>
				<path style="opacity:0.3;fill:#FFFFFF;" d="M190.66,167.46l-18.39,26.41l-0.04,0.48c-0.07,0.77,0.51,1.39,1.28,1.39h31.87
					L190.66,167.46z"/>
			</g>
			<path style="fill:#407BFF;" d="M231.44,192.5l-15.4-29.03l-22.8,32.26h36.52c0.77,0,1.45-0.62,1.52-1.39L231.44,192.5z"/>
			<g>
				<path style="fill:#407BFF;" d="M210.09,158.34c-0.25,2.83-2.77,5.13-5.62,5.13c-2.85,0-4.97-2.3-4.72-5.13
					c0.25-2.83,2.77-5.13,5.62-5.13C208.23,153.21,210.34,155.5,210.09,158.34z"/>
				<path style="opacity:0.4;fill:#FFFFFF;" d="M210.09,158.34c-0.25,2.83-2.77,5.13-5.62,5.13c-2.85,0-4.97-2.3-4.72-5.13
					c0.25-2.83,2.77-5.13,5.62-5.13C208.23,153.21,210.34,155.5,210.09,158.34z"/>
			</g>
		</g>
		<g>
			<polygon style="fill:#B97964;" points="69.69,392.07 63.97,408.89 72.73,412.44 79.59,396.92 			"/>
			<g>
				<path style="fill:#407BFF;" d="M75.88,412.02c-0.09-0.05-0.14-0.15-0.13-0.25c0.01-0.1,0.09-0.19,0.19-0.21
					c0.18-0.04,4.32-0.96,5.86,0.02c0.29,0.18,0.5,0.46,0.58,0.79c0.13,0.37,0.01,0.79-0.3,1.04c-0.58,0.41-1.95,0.24-3.2-0.15
					C77.84,412.93,76.84,412.52,75.88,412.02z M76.75,411.94c1.8,0.81,4.35,1.57,5.02,1.06c0.09-0.06,0.2-0.18,0.11-0.53
					c-0.04-0.21-0.18-0.38-0.37-0.48c-0.14-0.09-0.28-0.15-0.44-0.2C79.64,411.57,78.17,411.62,76.75,411.94z"/>
				<path style="fill:#407BFF;" d="M75.76,411.97c-0.06-0.07-0.07-0.16-0.04-0.25c0.05-0.12,1.16-2.74,2.77-3.39
					c0.47-0.2,0.99-0.2,1.46,0c0.64,0.27,0.74,0.66,0.68,0.94c-0.14,1.19-3.23,2.62-4.6,2.78c-0.04,0.01-0.07,0-0.1-0.02
					C75.86,412.03,75.8,412.01,75.76,411.97z M79.64,408.73c-0.3-0.1-0.63-0.08-0.92,0.05c-1.02,0.63-1.82,1.56-2.29,2.66
					c1.48-0.35,3.59-1.56,3.74-2.26c0-0.07,0.03-0.25-0.39-0.41L79.64,408.73L79.64,408.73z"/>
				<path style="fill:#263238;" d="M75.29,410.3l-11-3.37c-0.41-0.13-0.86,0.05-1.08,0.42l-4.75,8.28
					c-0.43,0.73-0.18,1.67,0.56,2.09c0.09,0.05,0.19,0.1,0.3,0.13c3.99,1.15,7.58,2.01,12.52,3.53c5.83,1.79,4.13,2.03,10.96,4.22
					c4.11,1.32,6.32-3.11,4.64-3.87c-7.7-3.46-7.79-6.11-9.99-9.91C76.93,411.08,76.16,410.53,75.29,410.3z"/>
			</g>
			<polygon style="opacity:0.2;fill:#263238;" points="66.95,400.13 76.13,404.74 79.59,396.92 69.69,392.07 			"/>
		</g>
		<path style="fill:#407BFF;" d="M108.53,236.46c0,0-12.34,9.36-9.7,38.67c0.24,2.71,1.13,5.55,1.14,8.66
			c0.01,2.06-0.57,3.51-1.25,8.14c-0.99,6.75-2.81,31.91-4.72,35.18c-1.89,3.24-2.7,2.7-8.09,11.72
			c-5.8,9.71-13.2,26.74-18.97,55.61c0,0,5.01,3.89,12.9,5.36c0,0,31.54-49.38,38.25-67.76c6-16.45,13.15-68.94,13.15-68.94
			l0.58-22.76L108.53,236.46z"/>
		<path style="opacity:0.1;" d="M122.03,275.13h-8.94c0,0-2.94,27.9,6.77,51.18c1.02-3.74,2.04-8.22,3.04-13.06l3.86-24.58
			c-0.55-4.15-0.98-7.32-1.04-7.53C125.53,280.5,122.03,275.13,122.03,275.13z"/>
		<g>
			<polygon style="fill:#B97964;" points="120.55,398.84 120.61,416.72 130.78,416.04 132.34,398.84 			"/>
			<g>
				<path style="fill:#407BFF;" d="M131.95,415.74c-0.1-0.02-0.19-0.1-0.21-0.2c-0.02-0.1,0.02-0.21,0.11-0.26
					c0.16-0.1,3.76-2.31,5.54-1.9c0.33,0.07,0.62,0.27,0.81,0.55c0.25,0.31,0.27,0.74,0.06,1.08c-0.41,0.57-1.76,0.86-3.07,0.91
					C134.1,415.96,133.02,415.9,131.95,415.74z M132.74,415.38c1.97,0.17,4.63,0.06,5.09-0.64c0.07-0.09,0.13-0.24-0.07-0.54
					c-0.11-0.18-0.29-0.3-0.5-0.33c-0.16-0.04-0.32-0.05-0.48-0.04C135.35,414.09,133.98,414.62,132.74,415.38z"/>
				<path style="fill:#407BFF;" d="M131.81,415.73c-0.08-0.05-0.12-0.13-0.12-0.22c0.01-0.13,0.19-2.97,1.49-4.11
					c0.37-0.34,0.87-0.51,1.38-0.47c0.69,0.04,0.92,0.38,0.95,0.66c0.27,1.17-2.19,3.53-3.43,4.13c-0.03,0.02-0.07,0.02-0.1,0.01
					C131.93,415.76,131.87,415.76,131.81,415.73z M134.41,411.41c-0.32,0.01-0.62,0.13-0.85,0.34c-0.75,0.93-1.2,2.07-1.28,3.26
					c1.28-0.81,2.88-2.65,2.79-3.36c-0.02-0.06-0.06-0.24-0.51-0.26L134.41,411.41L134.41,411.41z"/>
				<path style="fill:#263238;" d="M130.82,414.32l-11.51,0.41c-0.43,0.02-0.8,0.33-0.88,0.75l-1.75,9.37
					c-0.16,0.83,0.39,1.63,1.22,1.79c0.11,0.02,0.22,0.03,0.33,0.03c4.15-0.22,7.83-0.58,12.99-0.75c6.1-0.21,4.58,0.56,11.75,0.41
					c4.32-0.1,4.94-5,3.1-5.17c-8.42-0.75-9.38-3.23-12.72-6.09C132.63,414.51,131.72,414.25,130.82,414.32z"/>
			</g>
			<polygon style="opacity:0.2;fill:#263238;" points="120.59,408.09 131.52,407.86 132.34,398.84 120.55,398.84 			"/>
		</g>
		<path style="fill:#407BFF;" d="M115.4,233.17c0,0-12.31,16.2-3.19,47.91l10.3,46.26c0,0-9.8,21.05-4.63,76.55
			c0,0,7.78,1.24,15.21-0.34c0,0,11.47-58.63,13.21-78.43c1.92-21.81,0.77-87.57,0.77-87.57L115.4,233.17z"/>
		<g>
			<path style="fill:#263238;" d="M122.84,180.71c0,0-1.91-8.1,10.33-4.55c12.24,3.54,11.22,10.46,11.22,10.46L122.84,180.71z"/>
			<path style="opacity:0.4;" d="M122.84,180.71c0,0-1.91-8.1,10.33-4.55c12.24,3.54,11.22,10.46,11.22,10.46L122.84,180.71z"/>
		</g>
		<path style="fill:#263238;" d="M153.2,200.95c0,2.84-1.21,6.94-2.28,11.54c-0.53,2.18-1.01,4.45-1.33,6.75
			c-1.73,12.55-2.3,25.75-2.3,25.75s-20,5.57-39.43-7.76c0,0,4.81-4.05,3.82-32.07c-0.45-12.63-5.04-27.64,15.98-25.28
			c17.75,1.99,23.72,7.47,25.16,16.03c0.01,0.1,0.03,0.22,0.06,0.33c0.03,0.26,0.07,0.52,0.1,0.8
			C153.13,198.26,153.2,199.58,153.2,200.95z"/>
		<path style="opacity:0.4;" d="M153.2,200.95c0,2.84-1.21,6.94-2.28,11.54c-4.8-5.73-9.61-16.47-9.61-16.47l3.96-5.79l6.98,3.23
			c0.24,0.79,0.42,1.6,0.57,2.44c0.01,0.1,0.03,0.22,0.06,0.33c0.03,0.26,0.07,0.52,0.1,0.8
			C153.13,198.26,153.2,199.58,153.2,200.95z"/>
		<path style="fill:#B97964;" d="M160.45,196c0,0,6.83,6.75,9.61,9.47l23.82-7.09l0,0c0.32-2.51,2.15-4.58,4.63-5.2l1.68-0.43
			l3.58-0.98c1.36-0.37,2.81,0,3.81,0.98l0,0c1.18,1.16,1.51,2.93,0.81,4.43l0,0c-1.44,3.08-4.4,5.18-7.81,5.55l-3.37,0.36
			c0,0-21.26,11.52-28.1,10.88c-6.84-0.64-15.83-8.81-15.83-8.81L160.45,196z"/>
		<path style="fill:#263238;" d="M143.41,183.73c5.88,0.85,11.88,5.49,21.2,13.68c0,0-3.06,7-9.86,11.3c0,0-5.44-2.36-11.91-10.54
			C135.01,188.28,139.8,183.21,143.41,183.73z"/>
	</g>
</g>
</svg>
